<svg xmlns="http://www.w3.org/2000/svg" viewBox="0 0 145 50"><path fill="#000000" d="M143 34v-3h-6l-4-4v-2h7.56c-2-1.87-5.2-3.42-9.35-4.67a62.92 62.92 0 0 0-11.25-2.23L119 18h-7.23l-33-16H28c-2.09 0-4.35.36-6.62.97-.8.2-1.53.44-2.2.66-.04.02-.1.63-.18 1.84L6.36 16H5v3h7v2l-4 4H5v.41l-3 3v7.18L7.41 41h15.97A12.02 12.02 0 0 1 35 26a12 12 0 0 1 11.62 15h60.76A12.02 12.02 0 0 1 119 26a12 12 0 0 1 11.62 15H143v-3h-6v-4h6zM48 21.5V23h-1v-1h-6v-1h7v.5zm30 0V23h-1v-1h-6v-1h7v.5zM36 15v-5h1v5h28V8h1v7h22.59l2.72-2.73L78.76 6H34.3l-12.42 8.28L29 15h7zM24.09 43H6.59L0 36.41V27.6l3-3V14h2.64L17 4.53v-2.2l.63-.26a27.51 27.51 0 0 1 3.24-1.04A28.05 28.05 0 0 1 28 0h51.23l33 16h6.85a51.64 51.64 0 0 1 3.98.5c2.97.45 5.94 1.08 8.73 1.92C139.99 20.88 145 24.59 145 30v13h-15.09a12 12 0 0 1-21.91-.2v.2H45.91a12 12 0 0 1-21.82 0zM141.5 26H134v.59l3.41 3.41H143c0-1.45-.52-2.78-1.5-4zM53 36h39v1H52v-4h1v3zM35 48a10 10 0 1 0 0-20 10 10 0 0 0 0 20zm0-2a8 8 0 1 1 0-16 8 8 0 0 1 0 16zm0-1a7 7 0 1 0 0-14 7 7 0 0 0 0 14zm0-5a2 2 0 1 1 0-4 2 2 0 0 1 0 4zm0-1a1 1 0 1 0 0-2 1 1 0 0 0 0 2zm84 9a10 10 0 1 0 0-20 10 10 0 0 0 0 20zm0-2a8 8 0 1 1 0-16 8 8 0 0 1 0 16zm0-1a7 7 0 1 0 0-14 7 7 0 0 0 0 14zm0-5a2 2 0 1 1 0-4 2 2 0 0 1 0 4zm0-1a1 1 0 1 0 0-2 1 1 0 0 0 0 2zM19 15L34 5h45l14 7-4 4H29l-10-1zm76-2l6 3v3h-6l-3-3 3-3zm-1.59 3l2 2H100v-1.38l-4.8-2.4L93.4 16zM5 24h2.59L11 20.59V20H5v4zm133 13h5v-2h-5v2z"/></svg>