<svg id="Layer_1" data-name="Layer 1" xmlns="http://www.w3.org/2000/svg" viewBox="0 0 427.23 663.9"><defs><style>.cls-1{fill:#fdbf3f;}.cls-1,.cls-2{fill-rule:evenodd;}.cls-2,.cls-3{fill:#fff;}</style></defs><title>Detroit Free Press Top Workplaces Logo 2018</title><path class="cls-1" d="M217.11,3.82,4.16,74.89V660.08l209.45-95.87,209.45,94.6V74.89Z"/><path class="cls-2" d="M214.18,128c30.44,0,52.93,18.63,52.93,48.21,0,29.19-22.49,49-52.93,49s-52.8-19.81-52.8-49C161.38,146.65,183.87,128,214.18,128Z"/><path class="cls-2" d="M290,308.43H279l-16.43-28.75h-9.67v28.75h-9V243.81h20.72c12.51,0,23,4.75,23,17.89,0,9.49-6.48,15.52-15.7,17.07Z"/><polygon class="cls-2" points="306.9 351 306.9 357.78 280.25 357.78 280.25 376.61 309.77 376.61 309.77 383.63 272.35 383.63 272.35 327.15 308.57 327.15 308.57 334.09 280.25 334.09 280.25 351 306.9 351"/><path class="cls-2" d="M200,308.5c-19.62,0-34.13-13.48-34.13-32.44,0-19.22,14.51-32.27,34.13-32.27s34.32,13,34.32,32.27C234.28,295,219.68,308.5,200,308.5Z"/><polygon class="cls-2" points="214.07 383.63 205.14 383.63 199.4 369.75 172.59 369.75 166.93 383.63 158.15 383.63 182.64 327.15 189.82 327.15 214.07 383.63"/><path class="cls-2" d="M244.15,326.88c7.74,0,16.12,2.91,20.26,8.42l-6.22,4.6c-2.71-3.68-8.22-6.36-14-6.36-13.08,0-21.46,9.88-21.46,21.74,0,12.18,8.22,21.82,21.22,21.82,6.3,0,11.81-2.52,15.16-7.19l6.3,4.13c-4.39,5.74-11.65,9.8-21.54,9.8-17.31,0-29.75-11.87-29.75-28.56C214.08,338.36,227,326.88,244.15,326.88Z"/><polygon class="cls-2" points="75.66 128.02 153.96 128.02 153.96 148.04 126.54 148.04 126.54 225.1 103.09 225.1 103.09 148.04 75.66 148.04 75.66 128.02"/><polygon class="cls-2" points="85.43 243.81 99.67 295.29 99.85 295.29 115 243.81 124.95 243.81 140.01 295.29 140.19 295.29 154.43 243.81 164.01 243.81 145.03 308.43 135.63 308.43 119.93 256.5 119.75 256.5 104.05 308.43 94.65 308.43 75.66 243.81 85.43 243.81"/><polygon class="cls-2" points="154.32 376.61 154.32 383.63 121.21 383.63 121.21 327.15 129.11 327.15 129.11 376.61 154.32 376.61"/><path class="cls-2" d="M75.66,327.15H92.89c12.21,0,20.19,4.7,20.19,15.71,0,11.33-8.86,16-20.58,16H83.56v24.81h-7.9Z"/><path class="cls-2" d="M331.87,357.66c-7.18-2.13-14.67-5.26-14.67-15.18,0-10.76,10.05-15.42,19.38-15.42,6.54,0,12.69,2.44,16.2,6.18l-5.59,5.19a13.74,13.74,0,0,0-11-5c-5.1,0-11,2.67-11,8.77,0,5.88,5.19,7.48,11.57,9.46,7.58,2.29,16.59,5,16.59,15.8,0,11.22-9.49,16.41-19.54,16.41-7.1,0-14.28-2.67-18.59-7.86l6.14-5A15.62,15.62,0,0,0,334,377.35c5.26,0,11.33-2.82,11.33-9.23C345.28,361.55,339.05,359.8,331.87,357.66Z"/><polygon class="cls-2" points="340.82 308.5 310.52 275.1 310.34 275.1 310.34 308.5 301.3 308.5 301.3 243.88 310.34 243.88 310.34 272.36 310.52 272.36 339.37 243.88 351.87 243.88 320.47 273.45 353.79 308.5 340.82 308.5"/><path class="cls-2" d="M315.25,188.49H303.6V225.1H280.15V128H315.8c21.26,0,38,7.68,38,29.89C353.79,180.4,335.55,188.49,315.25,188.49Z"/><path class="cls-1" d="M263.93,251.48h-11V272.1h10.4c8.49,0,15.16-2.64,15.16-10.4S271.78,251.48,263.93,251.48Z"/><path class="cls-1" d="M214.18,204.9c16.31,0,27.83-12,27.83-28.67,0-16.16-11.38-28.15-27.83-28.15s-27.7,12-27.7,28.15C186.48,192.91,197.86,204.9,214.18,204.9Z"/><path class="cls-1" d="M105.1,342.86c0-6.78-5.58-9-13-9H83.56v18.27h8.38C99.68,352.12,105.1,349.56,105.1,342.86Z"/><path class="cls-1" d="M200,251.36c-14.87,0-24.37,11.22-24.37,24.7,0,13.74,9.59,24.7,24.37,24.7,15,0,24.55-11,24.55-24.7C224.51,262.58,215,251.36,200,251.36Z"/><polygon class="cls-1" points="175.38 362.81 196.52 362.81 185.99 336.32 175.38 362.81"/><path class="cls-1" d="M313.88,146.94H303.6v22.9h9.87c8.78,0,16.87-2.6,16.87-11.79S322.25,146.94,313.88,146.94Z"/><rect class="cls-3" x="75.81" y="401.38" width="277.9" height="3.86"/><path class="cls-3" d="M121.65,472.83l22.55-20.26a41.31,41.31,0,0,0,3.45-3.52,6.74,6.74,0,0,0,1.72-4.59,5.59,5.59,0,0,0-2.13-4.64,7.84,7.84,0,0,0-5-1.68,6.86,6.86,0,0,0-5.37,2.13,8.63,8.63,0,0,0-2.18,5.25l-12.3-.9a20,20,0,0,1,1.89-7.83,16.45,16.45,0,0,1,4.34-5.54,18.54,18.54,0,0,1,6.36-3.32,27.06,27.06,0,0,1,7.91-1.1,23.86,23.86,0,0,1,7.38,1.1,17.23,17.23,0,0,1,6,3.28,15,15,0,0,1,4,5.46,18.94,18.94,0,0,1,1.43,7.62,20.55,20.55,0,0,1-.57,5,17.42,17.42,0,0,1-1.6,4.1,19.12,19.12,0,0,1-2.42,3.41,37.81,37.81,0,0,1-3,3L136.41,475h25.75v10.83H121.65Z"/><path class="cls-3" d="M168.89,456.84a60.08,60.08,0,0,1,.94-10.5,30.78,30.78,0,0,1,3.36-9.67,20,20,0,0,1,6.6-7.1,22.11,22.11,0,0,1,21.32,0,20,20,0,0,1,6.6,7.1,30.54,30.54,0,0,1,3.37,9.67,59.06,59.06,0,0,1,0,21,30.6,30.6,0,0,1-3.37,9.68,19.94,19.94,0,0,1-6.6,7.09,22,22,0,0,1-21.32,0,19.94,19.94,0,0,1-6.6-7.09,30.84,30.84,0,0,1-3.36-9.68A60,60,0,0,1,168.89,456.84Zm12.3,0c0,1.53.06,3.36.2,5.49a27.15,27.15,0,0,0,1.11,6.15,13,13,0,0,0,2.75,5,7.58,7.58,0,0,0,10.37,0,12.79,12.79,0,0,0,2.79-5,26.6,26.6,0,0,0,1.1-6.15q.21-3.19.21-5.49c0-1.53-.07-3.36-.21-5.5a26.6,26.6,0,0,0-1.1-6.15,12.93,12.93,0,0,0-2.79-5,7.58,7.58,0,0,0-10.37,0,13.12,13.12,0,0,0-2.75,5,27.15,27.15,0,0,0-1.11,6.15C181.25,453.48,181.19,455.31,181.19,456.84Z"/><path class="cls-3" d="M238.34,441.59,226.7,451.84l-7-8,18.94-16h11.48v58.06H238.34Z"/><path class="cls-3" d="M268.1,442.82a15.38,15.38,0,0,1,1.52-7,14.35,14.35,0,0,1,4.18-5,18.42,18.42,0,0,1,6.2-3,29.5,29.5,0,0,1,15.08,0,18,18,0,0,1,6.15,3,14.93,14.93,0,0,1,4.19,5,15.13,15.13,0,0,1,1.55,7,12.92,12.92,0,0,1-2.58,8.11,13.76,13.76,0,0,1-7.26,4.76v.16A13.62,13.62,0,0,1,308,470a15.21,15.21,0,0,1-6.19,12.67,20.47,20.47,0,0,1-6.52,3.15,28.31,28.31,0,0,1-15.42,0,20.47,20.47,0,0,1-6.52-3.15A15.21,15.21,0,0,1,267.12,470,13.62,13.62,0,0,1,278,455.85v-.16a13.76,13.76,0,0,1-7.26-4.76A12.92,12.92,0,0,1,268.1,442.82Zm11.32,25.42a6.89,6.89,0,0,0,2.22,5.16,9.24,9.24,0,0,0,11.8,0,6.89,6.89,0,0,0,2.22-5.16,7,7,0,0,0-2.22-5.25,9.24,9.24,0,0,0-11.8,0A7,7,0,0,0,279.42,468.24Zm1-23.7a6.13,6.13,0,0,0,2,4.59,8,8,0,0,0,10.34,0,6.13,6.13,0,0,0,2-4.59,6,6,0,0,0-2-4.51,8,8,0,0,0-10.34,0A6,6,0,0,0,280.41,444.54Z"/></svg>