<svg xmlns="http://www.w3.org/2000/svg" viewBox="0 0 56 56"><title>icon</title><path d="M31.46,36.83H24.57a.46.46,0,0,0,0,.91h6.89a.46.46,0,0,0,0-.91Z" fill="#1a1a1a"/><path d="M43.37,25.6a1.08,1.08,0,0,0-.88-.43l-2.74,0L38.87,23a4.78,4.78,0,0,0-4.42-2.9H21.58A4.78,4.78,0,0,0,17.16,23l-.87,2.15H13.54a1.06,1.06,0,0,0-.87.43,1.08,1.08,0,0,0-.19.95l.23.83a1.09,1.09,0,0,0,1,.8h1.31l-.6,1.49a12.43,12.43,0,0,0-.6,2h0a11.7,11.7,0,0,0-.28,2.51v3.59A2,2,0,0,0,14,38.94v1.93a1.63,1.63,0,0,0,1.62,1.62h2.62a1.62,1.62,0,0,0,1.62-1.62v-1H36.2v1a1.63,1.63,0,0,0,1.62,1.62h2.62a1.63,1.63,0,0,0,1.62-1.62V38.94a2,2,0,0,0,.38-1.18V34.17a11.7,11.7,0,0,0-.28-2.51h0a11.47,11.47,0,0,0-.6-2L41,28.21l1.3,0a1.1,1.1,0,0,0,1.06-.8l.22-.83A1.08,1.08,0,0,0,43.37,25.6ZM18,23.37A3.88,3.88,0,0,1,21.58,21H34.45A3.88,3.88,0,0,1,38,23.37L40.31,29a107.56,107.56,0,0,1-24.59,0ZM41.53,34h-5.7a.31.31,0,0,1-.31-.31A1.43,1.43,0,0,1,37,32.28h4.42A11.15,11.15,0,0,1,41.53,34ZM37,31.38a2.33,2.33,0,0,0-2.34,2.33,1.22,1.22,0,0,0,1.22,1.21h5.71v2.84A1.25,1.25,0,0,1,40.26,39H15.78a1.24,1.24,0,0,1-1.28-1.2V34.92h5.7a1.22,1.22,0,0,0,1.22-1.21,2.33,2.33,0,0,0-2.33-2.33H14.87A10.78,10.78,0,0,1,15.31,30l.06-.16A109.12,109.12,0,0,0,28,30.6a109,109,0,0,0,12.64-.74l.07.16a10.78,10.78,0,0,1,.44,1.36Zm-22.28.9h4.42a1.44,1.44,0,0,1,1.43,1.43.31.31,0,0,1-.32.31H14.5A11.15,11.15,0,0,1,14.67,32.28Zm-.91-5a.19.19,0,0,1-.18-.14l-.23-.83a.18.18,0,0,1,0-.17.2.2,0,0,1,.14-.07h2.39l-.48,1.21Zm5.17,13.59a.71.71,0,0,1-.72.71H15.59a.71.71,0,0,1-.71-.71v-1.2a2.2,2.2,0,0,0,.9.19h3.15Zm21.51.71H37.82a.71.71,0,0,1-.72-.71v-1h3.16a2.27,2.27,0,0,0,.9-.19v1.2A.72.72,0,0,1,40.44,41.58Zm2.24-15.27-.23.83a.19.19,0,0,1-.19.14l-1.65,0-.49-1.21,2.38,0a.18.18,0,0,1,.18.24Z" fill="#1a1a1a"/><path d="M24.13,33.15a.46.46,0,0,0-.91,0v2a.46.46,0,0,0,.91,0Z" fill="#1a1a1a"/><path d="M25.85,35.61a.45.45,0,0,0,.45-.45v-2a.45.45,0,0,0-.45-.45.46.46,0,0,0-.46.45v2A.46.46,0,0,0,25.85,35.61Z" fill="#1a1a1a"/><path d="M28,35.61a.45.45,0,0,0,.45-.45v-2a.45.45,0,0,0-.9,0v2A.45.45,0,0,0,28,35.61Z" fill="#1a1a1a"/><path d="M30.19,35.61a.45.45,0,0,0,.45-.45v-2a.45.45,0,0,0-.9,0v2A.45.45,0,0,0,30.19,35.61Z" fill="#1a1a1a"/><path d="M32.36,32.7a.45.45,0,0,0-.45.45v2a.45.45,0,1,0,.9,0v-2A.45.45,0,0,0,32.36,32.7Z" fill="#1a1a1a"/><circle cx="28.07" cy="20.63" r="7.78" fill="#fff" stroke="#1a1a1a" stroke-miterlimit="10"/><path d="M29.64,18.11A3,3,0,0,1,31,20.63a3,3,0,0,1-1.4,2.51" fill="none" stroke="#333" stroke-miterlimit="10"/><path d="M26.5,23.14a3,3,0,0,1-1.39-2.51,3,3,0,0,1,1.39-2.52" fill="none" stroke="#333" stroke-miterlimit="10"/><path d="M30.87,16.14a5.28,5.28,0,0,1,0,9" fill="none" stroke="#333" stroke-miterlimit="10"/><path d="M25.27,25.11a5.3,5.3,0,0,1,0-9" fill="none" stroke="#333" stroke-miterlimit="10"/><path d="M28.9,20.63a.83.83,0,1,1-.83-.83A.83.83,0,0,1,28.9,20.63Z" fill="none" stroke="#333" stroke-miterlimit="10"/></svg>