<svg xmlns="http://www.w3.org/2000/svg" viewBox="0 0 56 56"><title>icon</title><circle cx="18.84" cy="33.15" r="3.46" fill="none" stroke="#000" stroke-miterlimit="10"/><circle cx="36.21" cy="33.15" r="3.46" fill="none" stroke="#000" stroke-miterlimit="10"/><path d="M15.13,33.79H14a1.25,1.25,0,0,1-1.24-1.21l0-.87A5.35,5.35,0,0,1,14,28.1,6.84,6.84,0,0,1,18,25.78a2.21,2.21,0,0,0,1.55-1.08A9.85,9.85,0,0,1,25,19.88a27.77,27.77,0,0,1,14.36-.62,4.41,4.41,0,0,1,3.27,3.26,15.54,15.54,0,0,1-.36,9.76,2.12,2.12,0,0,1-2,1.43H39.4" fill="none" stroke="#000" stroke-miterlimit="10"/><path d="M27.28,33.88a.71.71,0,0,1-.48-.19l-4.11-4.12a.68.68,0,0,1,0-1l1.57-1.54a.65.65,0,0,1,.47-.2.67.67,0,0,1,.48.2l1.62,1.61a.84.84,0,0,0,.62.26.85.85,0,0,0,.62-.26l7.14-7.22a.67.67,0,0,1,.48-.2.71.71,0,0,1,.48.19l1.43,1.44a.67.67,0,0,1,0,1l-9.84,9.84A.71.71,0,0,1,27.28,33.88Z" fill="#fff"/><path d="M35.69,21.76a.21.21,0,0,1,.13,0l1.43,1.43a.18.18,0,0,1,0,.13.17.17,0,0,1,0,.12l-9.84,9.84a.15.15,0,0,1-.13.05.14.14,0,0,1-.12-.05L23,29.22a.2.2,0,0,1-.05-.13A.17.17,0,0,1,23,29l1.57-1.54a.15.15,0,0,1,.12-.06.16.16,0,0,1,.13.06L26.47,29a1.38,1.38,0,0,0,1,.4,1.34,1.34,0,0,0,1-.41l7.14-7.22a.17.17,0,0,1,.12,0m0-1a1.16,1.16,0,0,0-.84.35l-7.13,7.22a.38.38,0,0,1-.27.11.35.35,0,0,1-.27-.11l-1.61-1.61a1.18,1.18,0,0,0-.84-.35,1.2,1.2,0,0,0-.82.34l-1.57,1.54a1.17,1.17,0,0,0,0,1.67L26.45,34a1.16,1.16,0,0,0,.83.34,1.19,1.19,0,0,0,.84-.34L38,24.2a1.18,1.18,0,0,0,0-1.67L36.52,21.1a1.16,1.16,0,0,0-.83-.34Z"/></svg>