<svg xmlns="http://www.w3.org/2000/svg" viewBox="0 0 56 56"><title>icon</title><path d="M31.9,17.38l-.1-.27a3.6,3.6,0,0,0-3.34-2.29H19.1a3.6,3.6,0,0,0-3.34,2.29L15,19.19H13.25a.9.9,0,0,0-.73.36.89.89,0,0,0-.16.8l.17.61a.91.91,0,0,0,.88.67H14l-.22.57a9.54,9.54,0,0,0-.65,3.47v2.75a1.75,1.75,0,0,0,.28.93v1.39a1.3,1.3,0,0,0,1.3,1.3h1.91a1.3,1.3,0,0,0,1.3-1.3v-.61h8a.45.45,0,1,0,0-.9H14.88a.88.88,0,0,1-.28-.06l-.06,0a.8.8,0,0,1-.19-.13l-.07-.08a.76.76,0,0,1-.21-.52V25.67a8.69,8.69,0,0,1,.47-2.82,79.88,79.88,0,0,0,9.26.55q1,0,2,0a.45.45,0,0,0,.44-.46.47.47,0,0,0-.46-.45A76.7,76.7,0,0,1,14.87,22l.24-.63h0l0-.07,1.47-3.83a2.68,2.68,0,0,1,2.49-1.71h9.36A2.67,2.67,0,0,1,31,17.44l.11.26a.45.45,0,0,0,.84-.32ZM13.4,20.72l-.15-.63h1.37l-.25.63Zm3.65,9.41v.61a.39.39,0,0,1-.4.39H14.74a.38.38,0,0,1-.39-.39v-.69l.11,0,.11,0a1.55,1.55,0,0,0,.31,0Z" fill="#1a1a1a"/><path d="M21.28,27a.46.46,0,0,0-.46.45.47.47,0,0,0,.46.46h4a.47.47,0,0,0,.46-.46.46.46,0,0,0-.46-.45Z" fill="#1a1a1a"/><path d="M15.34,25.08a1.42,1.42,0,1,0,1.41-1.41A1.42,1.42,0,0,0,15.34,25.08Zm1.92,0a.51.51,0,1,1-.51-.51A.51.51,0,0,1,17.26,25.08Z" fill="#1a1a1a"/><path d="M41.17,32.53a9.41,9.41,0,1,0-13.61.19l-1,1.11a1.79,1.79,0,0,0-2.13.36l-3.81,4.12a1.77,1.77,0,1,0,2.59,2.41L27,36.59a1.75,1.75,0,0,0,.19-2.14l1-1.12A9.41,9.41,0,0,0,41.17,32.53ZM28,20.36a8.5,8.5,0,1,1,.47,12A8.52,8.52,0,0,1,28,20.36ZM26.34,36,22.52,40.1a.86.86,0,1,1-1.27-1.17l3.82-4.13a.86.86,0,0,1,1.22,0A.87.87,0,0,1,26.34,36Z" fill="#1a1a1a"/><path d="M39.67,31.14a7.37,7.37,0,1,0-10.41.41A7.37,7.37,0,0,0,39.67,31.14ZM29.52,21.75a6.46,6.46,0,1,1,.35,9.13A6.46,6.46,0,0,1,29.52,21.75Z" fill="#1a1a1a"/><path d="M38.54,30.1a.45.45,0,0,0-.66-.62,4.93,4.93,0,0,1-7,.27.45.45,0,0,0-.64,0,.46.46,0,0,0,0,.64A5.84,5.84,0,0,0,38.54,30.1Z" fill="#1a1a1a"/></svg>