<svg xmlns="http://www.w3.org/2000/svg" viewBox="0 0 56 56"><title>icon</title><path d="M31.29,14.13l2.46,2.47.71.7.71-.7,2.44-2.45,4.27,4.28-2.44,2.44-.71.71.71.7L42,24.8l-2.49,2.49-.71.71.71.71,2.43,2.44-2.46,2.46-.71.71.71.7L42,37.54l-4.28,4.28L35.17,39.3l-.71-.71-.71.71-2.43,2.43L28.88,39.3l-.71-.71-.71.71-2.55,2.55L22.4,39.33l-.71-.71-.71.71-2.46,2.46-4.28-4.27,2.47-2.47.7-.7-.7-.71-2.47-2.47,2.5-2.49.7-.7-.7-.71L14.3,24.83l2.46-2.46.71-.71L16.76,21l-2.52-2.52,4.28-4.27L21,16.68l.7.7.71-.7,2.44-2.44,2.43,2.44.71.71.71-.71,2.55-2.55m0-1.41L28,16l-3.14-3.14L21.74,16l-3.22-3.22-5.69,5.68,3.22,3.23-3.17,3.17L16,28l-3.2,3.19L16,34.35l-3.17,3.17,5.69,5.69L21.69,40l3.22,3.22L28.17,40l3.15,3.15L34.46,40l3.22,3.22,5.69-5.69-3.22-3.22,3.17-3.17L40.17,28l3.2-3.2-3.22-3.22,3.15-3.15-5.69-5.69-3.15,3.15-3.17-3.17Z"/></svg>