<svg xmlns="http://www.w3.org/2000/svg" viewBox="0 0 56 56"><title>icon</title><path d="M29.75,30.41H26.21a.46.46,0,0,0-.45.46.45.45,0,0,0,.45.45h3.54a.45.45,0,0,0,.45-.45A.46.46,0,0,0,29.75,30.41Z" fill="#1a1a1a"/><path d="M36,25.21a.76.76,0,0,0-.62-.31H34.3l-.53-1.38a2.68,2.68,0,0,0-2.49-1.7H24.67a2.67,2.67,0,0,0-2.48,1.7l-.53,1.38H20.54a.78.78,0,0,0-.76,1l.12.43a.77.77,0,0,0,.75.57h.24l-.08.22a6.89,6.89,0,0,0-.47,2.5v1.94a1.33,1.33,0,0,0,.2.69v.95a1.06,1.06,0,0,0,1.05,1.06h1.35a1.06,1.06,0,0,0,1-1.06V32.9h8v.29A1.07,1.07,0,0,0,33,34.25h1.34a1.07,1.07,0,0,0,1.06-1.06v-.95a1.32,1.32,0,0,0,.19-.69V29.61a6.88,6.88,0,0,0-.46-2.5l-.09-.22h.25a.77.77,0,0,0,.75-.57l.12-.43A.79.79,0,0,0,36,25.21ZM23.54,32H21.69a.41.41,0,0,1-.19,0h0l-.14-.11a.45.45,0,0,1-.1-.28V29.61a6.11,6.11,0,0,1,.29-1.85,55.5,55.5,0,0,0,6.44.38,55.2,55.2,0,0,0,6.43-.38,6.12,6.12,0,0,1,.3,1.85v1.94a.46.46,0,0,1-.11.28.69.69,0,0,1-.13.11h0a.37.37,0,0,1-.18,0H23.54ZM23,23.85a1.76,1.76,0,0,1,1.64-1.13h6.61a1.76,1.76,0,0,1,1.64,1.13l1.17,3a55.57,55.57,0,0,1-12.23,0ZM20.75,26l-.05-.18h.61l-.07.18Zm2.34,7.2a.15.15,0,0,1-.15.15H21.59a.15.15,0,0,1-.15-.15v-.31l.25,0h1.4Zm11.42,0a.15.15,0,0,1-.15.15H33a.15.15,0,0,1-.15-.15V32.9h1.4l.24,0Zm.7-7.2h-.49l-.07-.18h.61Z" fill="#1a1a1a"/><path d="M23,28.06a1.14,1.14,0,1,0,1.13,1.14A1.14,1.14,0,0,0,23,28.06Zm0,1.36A.23.23,0,1,1,23,29a.23.23,0,1,1,0,.45Z" fill="#1a1a1a"/><path d="M33,28.06a1.14,1.14,0,1,0,1.13,1.14A1.14,1.14,0,0,0,33,28.06Zm0,1.36a.23.23,0,1,1,.22-.22A.22.22,0,0,1,33,29.42Z" fill="#1a1a1a"/><path d="M20.51,19.15a.45.45,0,0,0,.6.68.44.44,0,0,0,0-.63h0A.45.45,0,0,0,20.51,19.15Z" fill="#1a1a1a"/><path d="M21.27,20.71a.46.46,0,0,0,.36.17.48.48,0,0,0,.28-.1.47.47,0,0,0,.07-.64h0a.45.45,0,0,0-.63-.06A.46.46,0,0,0,21.27,20.71Z" fill="#1a1a1a"/><path d="M22.77,21a.46.46,0,0,0-.64,0,.46.46,0,0,0,.62.67.46.46,0,0,0,0-.64Z" fill="#1a1a1a"/><path d="M28.29,19.7a.46.46,0,0,0,.46-.45h0a.46.46,0,0,0-.91,0A.45.45,0,0,0,28.29,19.7Z" fill="#1a1a1a"/><path d="M28.29,18.46a.46.46,0,0,0,.46-.45h0a.46.46,0,1,0-.91,0A.45.45,0,0,0,28.29,18.46Z" fill="#1a1a1a"/><path d="M28.29,20.94a.46.46,0,0,0,.46-.45h0a.46.46,0,1,0-.91,0A.45.45,0,0,0,28.29,20.94Z" fill="#1a1a1a"/><path d="M28.29,17.22a.46.46,0,0,0,.46-.45h0a.46.46,0,1,0-.91,0A.45.45,0,0,0,28.29,17.22Z" fill="#1a1a1a"/><path d="M34.06,22.15a.46.46,0,0,0-.05-.64.45.45,0,0,0-.64,0h0a.44.44,0,0,0,.05.63.41.41,0,0,0,.29.11A.47.47,0,0,0,34.06,22.15Z" fill="#1a1a1a"/><path d="M34.53,21.37a.45.45,0,0,0,.3-.79.45.45,0,0,0-.64,0h0a.45.45,0,0,0,0,.64A.48.48,0,0,0,34.53,21.37Z" fill="#1a1a1a"/><path d="M35.34,20.44a.45.45,0,0,0,.34-.15.45.45,0,0,0-.66-.62h0a.45.45,0,0,0,0,.64A.42.42,0,0,0,35.34,20.44Z" fill="#1a1a1a"/><path d="M18.93,19.48A1.92,1.92,0,1,0,17,17.56,1.92,1.92,0,0,0,18.93,19.48Z" fill="#1a1a1a"/><path d="M28.29,12.4a1.92,1.92,0,1,0,1.92,1.91A1.92,1.92,0,0,0,28.29,12.4Zm0,2.92a1,1,0,1,1,1-1A1,1,0,0,1,28.29,15.32Z" fill="#1a1a1a"/><path d="M36.82,19.69a1.91,1.91,0,1,0-1.91-1.91A1.91,1.91,0,0,0,36.82,19.69Zm0-2.92a1,1,0,1,1-1,1A1,1,0,0,1,36.82,16.77Z" fill="#1a1a1a"/><path d="M41.7,25.82a1.91,1.91,0,1,0,1.91,1.91A1.92,1.92,0,0,0,41.7,25.82Zm0,2.92a1,1,0,1,1,1-1A1,1,0,0,1,41.7,28.74Z" fill="#1a1a1a"/><path d="M14.26,26.12A1.91,1.91,0,1,0,16.17,28,1.92,1.92,0,0,0,14.26,26.12Z" fill="#1a1a1a"/><path d="M14.26,29a1,1,0,1,1,1-1A1,1,0,0,1,14.26,29Z" fill="#fff"/><path d="M35.2,35.94a.46.46,0,0,0-.64,0,.47.47,0,0,0,0,.64h0a.44.44,0,0,0,.34.16.48.48,0,0,0,.3-.11A.46.46,0,0,0,35.2,35.94Z" fill="#1a1a1a"/><path d="M34.39,35a.45.45,0,0,0-.69.59h0a.46.46,0,0,0,.64,0A.47.47,0,0,0,34.39,35Z" fill="#1a1a1a"/><path d="M27.21,35.58h0a.46.46,0,1,0,.46-.46A.45.45,0,0,0,27.21,35.58Z" fill="#1a1a1a"/><path d="M27.21,36.82a.45.45,0,0,0,.46.45.46.46,0,0,0,.45-.46.46.46,0,0,0-.91,0Z" fill="#1a1a1a"/><path d="M27.21,38.06a.45.45,0,0,0,.46.45.46.46,0,0,0,.45-.46.46.46,0,0,0-.91,0Z" fill="#1a1a1a"/><path d="M27.21,39.3a.45.45,0,0,0,.46.45.46.46,0,0,0,.45-.46.46.46,0,0,0-.91,0Z" fill="#1a1a1a"/><path d="M20.41,35.62a.45.45,0,0,0,.05.63.42.42,0,0,0,.29.12.48.48,0,0,0,.35-.16h0a.46.46,0,0,0,0-.64A.47.47,0,0,0,20.41,35.62Z" fill="#1a1a1a"/><path d="M21.23,34.68a.45.45,0,0,0,.68.6h0a.44.44,0,0,0-.05-.63A.46.46,0,0,0,21.23,34.68Z" fill="#1a1a1a"/><path d="M36.81,36.37a1.91,1.91,0,1,0,1.91,1.91A1.92,1.92,0,0,0,36.81,36.37Zm0,2.92a1,1,0,1,1,1-1A1,1,0,0,1,36.81,39.29Z" fill="#1a1a1a"/><path d="M27.67,39.83a1.92,1.92,0,1,0,1.91,1.92A1.92,1.92,0,0,0,27.67,39.83Zm0,2.92a1,1,0,1,1,1-1A1,1,0,0,1,27.67,42.75Z" fill="#1a1a1a"/><path d="M19.13,36.4A1.92,1.92,0,1,0,21,38.31,1.91,1.91,0,0,0,19.13,36.4Z" fill="#1a1a1a"/><path d="M18.21,27.58a.45.45,0,0,0-.45.45.46.46,0,0,0,.46.45.45.45,0,1,0,0-.9Z" fill="#1a1a1a"/><path d="M17.43,28a.45.45,0,0,0-.45-.45h0a.44.44,0,0,0-.44.45.45.45,0,1,0,.9,0Z" fill="#1a1a1a"/><path d="M19.45,27.58A.45.45,0,0,0,19,28a.46.46,0,0,0,.46.45.45.45,0,0,0,0-.9Z" fill="#1a1a1a"/><path d="M36.38,27.58h0a.45.45,0,0,0,0,.9.45.45,0,1,0,0-.9Z" fill="#1a1a1a"/><path d="M37.61,27.58a.44.44,0,0,0-.44.45.45.45,0,0,0,.45.45.45.45,0,1,0,0-.9Z" fill="#1a1a1a"/><path d="M38.86,27.58h0a.45.45,0,0,0-.45.45.46.46,0,0,0,.46.45.45.45,0,1,0,0-.9Z" fill="#1a1a1a"/><path d="M19.13,39.32a1,1,0,1,1,1-1A1,1,0,0,1,19.13,39.32Z" fill="#fff"/><path d="M18.93,16.56a1,1,0,1,1-1,1A1,1,0,0,1,18.93,16.56Z"/></svg>