<?xml version="1.0" encoding="utf-8"?>
<!-- Generator: Adobe Illustrator 23.0.1, SVG Export Plug-In . SVG Version: 6.00 Build 0)  -->
<svg version="1.1" id="Layer_1" xmlns="http://www.w3.org/2000/svg" xmlns:xlink="http://www.w3.org/1999/xlink" x="0px" y="0px"
	 viewBox="0 0 56 56" style="enable-background:new 0 0 56 56;" xml:space="preserve">
<style type="text/css">
	.st0{fill:#1A1A1A;}
	.st1{fill:#FFFFFF;}
</style>
<title>icon</title>
<path class="st0" d="M29.8,30.4h-3.5c-0.3,0-0.5,0.2-0.5,0.5c0,0.2,0.2,0.5,0.4,0.5h0h3.5c0.2,0,0.5-0.2,0.5-0.4v0
	C30.2,30.6,30,30.4,29.8,30.4z"/>
<path class="st0" d="M36,25.2c-0.1-0.2-0.4-0.3-0.6-0.3h-1.1l-0.5-1.4c-0.4-1-1.4-1.7-2.5-1.7h-6.6c-1.1,0-2.1,0.7-2.5,1.7l-0.5,1.4
	h-1.1c-0.4,0-0.8,0.3-0.8,0.8c0,0.1,0,0.2,0,0.2l0.1,0.4c0.1,0.3,0.4,0.6,0.8,0.6h0.2l-0.1,0.2c-0.3,0.8-0.5,1.6-0.5,2.5v1.9
	c0,0.2,0.1,0.5,0.2,0.7v1c0,0.6,0.5,1.1,1,1.1h1.4c0.6,0,1-0.5,1-1.1v-0.3h8v0.3c0,0.6,0.5,1.1,1.1,1.1h1.3c0.6,0,1.1-0.5,1.1-1.1
	v-1c0.1-0.2,0.2-0.4,0.2-0.7v-1.9c0-0.9-0.2-1.7-0.5-2.5L35,26.9h0.2c0.4,0,0.7-0.2,0.8-0.6l0.1-0.4C36.2,25.7,36.2,25.4,36,25.2z
	 M23.5,32h-1.9c-0.1,0-0.1,0-0.2,0l0,0l-0.1-0.1c-0.1-0.1-0.1-0.2-0.1-0.3v-2c0-0.6,0.1-1.3,0.3-1.9c2.1,0.3,4.3,0.4,6.4,0.4
	c2.1,0,4.3-0.1,6.4-0.4c0.2,0.6,0.3,1.2,0.3,1.9v1.9c0,0.1,0,0.2-0.1,0.3c0,0-0.1,0.1-0.1,0.1l0,0c-0.1,0-0.1,0-0.2,0L23.5,32
	L23.5,32z M23,23.9c0.3-0.7,0.9-1.1,1.6-1.1h6.6c0.7,0,1.4,0.5,1.6,1.1l1.2,3c-4.1,0.4-8.2,0.4-12.2,0L23,23.9z M20.8,26l0-0.2h0.6
	L21.2,26H20.8z M23.1,33.2c0,0.1-0.1,0.2-0.1,0.2c0,0,0,0,0,0h-1.4c-0.1,0-0.1-0.1-0.1-0.2l0,0v-0.3h0.2h1.4V33.2z M34.5,33.2
	c0,0.1-0.1,0.2-0.1,0.2h0H33c-0.1,0-0.2-0.1-0.2-0.1v0v-0.3h1.4h0.2L34.5,33.2z M35.2,26h-0.5l-0.1-0.2h0.6L35.2,26z"/>
<path class="st0" d="M23,28.1c-0.6,0-1.1,0.5-1.1,1.1c0,0.6,0.5,1.1,1.1,1.1c0.6,0,1.1-0.5,1.1-1.1c0,0,0,0,0,0
	C24.1,28.6,23.6,28.1,23,28.1z M23,29.4c-0.1,0.1-0.3,0-0.3-0.1s0-0.3,0.1-0.3c0.1,0,0.1,0,0.2,0c0.1,0,0.2,0.1,0.3,0.2
	S23.2,29.4,23,29.4C23.1,29.5,23,29.5,23,29.4L23,29.4z"/>
<path class="st0" d="M33,28.1c-0.6,0-1.1,0.5-1.1,1.1c0,0.6,0.5,1.1,1.1,1.1c0.6,0,1.1-0.5,1.1-1.1c0,0,0,0,0,0
	C34.1,28.6,33.6,28.1,33,28.1z M33,29.4c-0.1,0-0.2-0.1-0.2-0.2S32.9,29,33,29s0.2,0.1,0.2,0.2c0,0,0,0,0,0
	C33.2,29.3,33.1,29.4,33,29.4L33,29.4z"/>
<path class="st0" d="M20.5,19.1c-0.2,0.2-0.2,0.5,0,0.6c0.2,0.2,0.5,0.2,0.6,0c0.2-0.2,0.2-0.4,0-0.6c0,0,0,0,0,0l0,0
	C21,19,20.7,19,20.5,19.1z"/>
<path class="st0" d="M21.3,20.7c0.1,0.1,0.2,0.2,0.4,0.2c0.1,0,0.2,0,0.3-0.1c0.2-0.2,0.2-0.4,0.1-0.6l0,0c-0.2-0.2-0.4-0.2-0.6-0.1
	C21.2,20.2,21.1,20.5,21.3,20.7z"/>
<path class="st0" d="M22.8,21c-0.2-0.2-0.5-0.2-0.6,0c-0.2,0.2-0.1,0.5,0.1,0.6c0.2,0.1,0.4,0.1,0.6,0C22.9,21.5,22.9,21.2,22.8,21
	L22.8,21z"/>
<path class="st0" d="M28.3,19.7c0.3,0,0.5-0.2,0.5-0.5l0,0c0-0.3-0.3-0.4-0.5-0.4c-0.2,0-0.4,0.2-0.4,0.4
	C27.8,19.5,28,19.7,28.3,19.7L28.3,19.7z"/>
<path class="st0" d="M28.3,18.5c0.3,0,0.5-0.2,0.5-0.5l0,0c0-0.3-0.1-0.5-0.4-0.5c-0.3,0-0.5,0.1-0.5,0.4c0,0,0,0.1,0,0.1
	C27.8,18.3,28,18.5,28.3,18.5L28.3,18.5z"/>
<path class="st0" d="M28.3,20.9c0.3,0,0.5-0.2,0.5-0.5l0,0c0-0.3-0.1-0.5-0.4-0.5c-0.3,0-0.5,0.1-0.5,0.4c0,0,0,0.1,0,0.1
	C27.8,20.7,28,20.9,28.3,20.9L28.3,20.9z"/>
<path class="st0" d="M28.3,17.2c0.3,0,0.5-0.2,0.5-0.5l0,0c0-0.3-0.1-0.5-0.4-0.5c-0.3,0-0.5,0.1-0.5,0.4c0,0,0,0.1,0,0.1
	C27.8,17,28,17.2,28.3,17.2L28.3,17.2z"/>
<path class="st0" d="M34.1,22.1c0.2-0.2,0.1-0.5,0-0.6c-0.2-0.2-0.5-0.2-0.6,0c0,0,0,0,0,0l0,0c-0.2,0.2-0.1,0.5,0,0.6c0,0,0,0,0,0
	c0.1,0.1,0.2,0.1,0.3,0.1C33.8,22.3,34,22.2,34.1,22.1z"/>
<path class="st0" d="M34.5,21.4c0.2,0,0.5-0.2,0.5-0.4c0-0.1-0.1-0.3-0.2-0.3c-0.2-0.2-0.5-0.2-0.6,0c0,0,0,0,0,0l0,0
	c-0.2,0.2-0.2,0.5,0,0.6c0,0,0,0,0,0C34.3,21.3,34.4,21.4,34.5,21.4z"/>
<path class="st0" d="M35.3,20.4c0.1,0,0.3-0.1,0.3-0.1c0.2-0.2,0.2-0.5,0-0.6c-0.2-0.2-0.5-0.2-0.6,0l0,0c-0.2,0.2-0.2,0.5,0,0.6
	c0,0,0,0,0,0C35.1,20.4,35.2,20.4,35.3,20.4z"/>
<path class="st0" d="M19,19.5c1.1,0,1.9-0.8,1.9-1.9c0-1.1-0.8-1.9-1.9-1.9c-1.1,0-1.9,0.8-1.9,1.9c0,0,0,0,0,0
	C17.1,18.6,17.9,19.5,19,19.5z"/>
<path class="st0" d="M28.3,12.4c-1.1,0-1.9,0.9-1.9,1.9c0,1.1,0.9,1.9,1.9,1.9c1.1,0,1.9-0.9,1.9-1.9c0,0,0,0,0,0
	C30.2,13.3,29.3,12.4,28.3,12.4z"/>
<path class="st0" d="M36.8,19.7c1.1,0,1.9-0.9,1.9-1.9c0-1.1-0.9-1.9-1.9-1.9s-1.9,0.9-1.9,1.9l0,0C34.9,18.8,35.8,19.7,36.8,19.7z"
	/>
<path class="st1" d="M36.8,16.8c0.6,0,1,0.4,1,1s-0.4,1-1,1s-1-0.4-1-1S36.3,16.8,36.8,16.8z"/>
<path class="st0" d="M41.7,25.8c-1.1,0-1.9,0.9-1.9,1.9c0,1.1,0.9,1.9,1.9,1.9s1.9-0.9,1.9-1.9l0,0C43.6,26.7,42.8,25.8,41.7,25.8z"
	/>
<path class="st1" d="M41.7,28.7c-0.6,0-1-0.4-1-1s0.4-1,1-1s1,0.4,1,1S42.3,28.7,41.7,28.7z"/>
<path class="st0" d="M14.3,26.1c-1.1,0-1.9,0.9-1.9,1.9c0,1.1,0.9,1.9,1.9,1.9s1.9-0.9,1.9-1.9c0,0,0,0,0,0
	C16.1,27,15.3,26.1,14.3,26.1z"/>
<path class="st1" d="M14.3,29c-0.6,0-1-0.4-1-1s0.4-1,1-1s1,0.4,1,1S14.8,29,14.3,29z"/>
<path class="st0" d="M35.2,35.9c-0.2-0.2-0.5-0.2-0.6,0c-0.2,0.2-0.2,0.5,0,0.6l0,0c0.1,0.1,0.2,0.2,0.3,0.2c0.1,0,0.2,0,0.3-0.1
	C35.4,36.5,35.4,36.2,35.2,35.9C35.2,36,35.2,36,35.2,35.9z"/>
<path class="st0" d="M34.4,35c-0.2-0.2-0.4-0.2-0.6,0s-0.2,0.4,0,0.6l0,0c0.2,0.2,0.5,0.2,0.6,0C34.5,35.4,34.5,35.2,34.4,35z"/>
<path class="st0" d="M27.2,35.6L27.2,35.6c0,0.3,0.2,0.5,0.5,0.5c0.3,0,0.5-0.2,0.5-0.5c0-0.3-0.2-0.5-0.5-0.5h0
	C27.4,35.1,27.2,35.3,27.2,35.6C27.2,35.6,27.2,35.6,27.2,35.6z"/>
<path class="st0" d="M27.2,36.8c0,0.2,0.2,0.5,0.4,0.5c0,0,0,0,0,0c0.3,0,0.5-0.2,0.5-0.5c0-0.3-0.3-0.4-0.5-0.4
	C27.4,36.5,27.2,36.6,27.2,36.8L27.2,36.8z"/>
<path class="st0" d="M27.2,38.1c0,0.2,0.2,0.5,0.4,0.5c0,0,0,0,0,0c0.3,0,0.5-0.2,0.5-0.5c0-0.3-0.3-0.4-0.5-0.4
	C27.4,37.7,27.2,37.8,27.2,38.1L27.2,38.1z"/>
<path class="st0" d="M27.2,39.3c0,0.2,0.2,0.5,0.4,0.5c0,0,0,0,0,0c0.3,0,0.5-0.2,0.5-0.5c0-0.3-0.3-0.4-0.5-0.4
	C27.4,38.9,27.2,39.1,27.2,39.3L27.2,39.3z"/>
<path class="st0" d="M20.4,35.6c-0.2,0.2-0.1,0.5,0,0.6c0.1,0.1,0.2,0.1,0.3,0.1c0.1,0,0.3-0.1,0.4-0.2l0,0c0.2-0.2,0.2-0.5,0-0.6
	C20.9,35.4,20.6,35.4,20.4,35.6C20.4,35.6,20.4,35.6,20.4,35.6z"/>
<path class="st0" d="M21.2,34.7c-0.2,0.2-0.1,0.5,0,0.6s0.5,0.1,0.6,0l0,0c0.2-0.2,0.1-0.5,0-0.6c0,0,0,0,0,0
	C21.7,34.5,21.4,34.5,21.2,34.7z"/>
<path class="st0" d="M36.8,36.4c-1.1,0-1.9,0.9-1.9,1.9s0.9,1.9,1.9,1.9s1.9-0.9,1.9-1.9l0,0C38.7,37.2,37.9,36.4,36.8,36.4z"/>
<path class="st1" d="M36.8,39.3c-0.6,0-1-0.4-1-1s0.4-1,1-1s1,0.4,1,1S37.4,39.3,36.8,39.3z"/>
<path class="st0" d="M27.7,39.8c-1.1,0-1.9,0.8-1.9,1.9c0,1.1,0.8,1.9,1.9,1.9c1.1,0,1.9-0.8,1.9-1.9c0,0,0,0,0,0
	C29.6,40.7,28.7,39.8,27.7,39.8z"/>
<path class="st1" d="M27.7,42.8c-0.6,0-1-0.4-1-1s0.4-1,1-1s1,0.4,1,1S28.2,42.8,27.7,42.8z"/>
<path class="st0" d="M19.1,36.4c-1.1,0-1.9,0.8-2,1.9s0.8,1.9,1.9,2c1.1,0,1.9-0.8,2-1.9c0,0,0,0,0-0.1C21,37.3,20.2,36.4,19.1,36.4
	z"/>
<path class="st0" d="M18.2,27.6c-0.2,0-0.5,0.2-0.5,0.4v0c0,0.3,0.2,0.5,0.5,0.5c0.2,0,0.5-0.2,0.5-0.4
	C18.7,27.8,18.5,27.6,18.2,27.6C18.2,27.6,18.2,27.6,18.2,27.6L18.2,27.6z"/>
<path class="st0" d="M17.4,28c0-0.2-0.2-0.5-0.4-0.5h0l0,0c-0.2,0-0.4,0.2-0.4,0.4c0,0,0,0,0,0c0,0.2,0.2,0.5,0.4,0.5
	C17.2,28.5,17.4,28.2,17.4,28C17.4,28,17.4,28,17.4,28L17.4,28z"/>
<path class="st0" d="M19.5,27.6c-0.2,0-0.4,0.2-0.5,0.4c0,0.3,0.2,0.5,0.5,0.5c0.2,0,0.4-0.2,0.4-0.5C19.9,27.8,19.7,27.6,19.5,27.6
	L19.5,27.6z"/>
<path class="st0" d="M36.4,27.6L36.4,27.6c-0.2,0-0.4,0.2-0.4,0.5c0,0.2,0.2,0.4,0.4,0.4c0.2,0,0.5-0.2,0.5-0.4
	C36.8,27.8,36.6,27.6,36.4,27.6C36.4,27.6,36.4,27.6,36.4,27.6z"/>
<path class="st0" d="M37.6,27.6c-0.2,0-0.4,0.2-0.4,0.4c0,0,0,0,0,0c0,0.2,0.2,0.5,0.5,0.5l0,0c0.2,0,0.5-0.2,0.5-0.4
	C38.1,27.8,37.9,27.6,37.6,27.6C37.6,27.6,37.6,27.6,37.6,27.6L37.6,27.6z"/>
<path class="st0" d="M38.9,27.6L38.9,27.6c-0.2,0-0.5,0.2-0.5,0.4v0c0,0.3,0.2,0.5,0.5,0.5c0.2,0,0.5-0.2,0.5-0.4
	C39.3,27.8,39.1,27.6,38.9,27.6C38.9,27.6,38.9,27.6,38.9,27.6L38.9,27.6z"/>
<path class="st1" d="M19.1,39.3c-0.6,0-1-0.4-1-1s0.4-1,1-1s1,0.4,1,1S19.7,39.3,19.1,39.3z"/>
<path class="st1" d="M19,16.6c0.6,0,1,0.4,1,1s-0.4,1-1,1s-1-0.4-1-1S18.4,16.6,19,16.6z"/>
<path d="M28.3,15.3c-0.6,0-1-0.4-1-1s0.4-1,1-1s1,0.4,1,1S28.8,15.3,28.3,15.3z"/>
</svg>
