<svg xmlns="http://www.w3.org/2000/svg" viewBox="0 0 56 56"><title>multi-icn-04</title><path d="M29.75,30.41H26.21a.46.46,0,0,0-.45.46.45.45,0,0,0,.45.45h3.54a.45.45,0,0,0,.45-.45h0A.46.46,0,0,0,29.75,30.41Z" fill="#1a1a1a"/><path d="M36,25.21a.76.76,0,0,0-.62-.31H34.3l-.53-1.38a2.68,2.68,0,0,0-2.49-1.7H24.67a2.67,2.67,0,0,0-2.48,1.7l-.53,1.38H20.54a.77.77,0,0,0-.79.77.91.91,0,0,0,0,.23l.12.43a.77.77,0,0,0,.75.57h.24l-.08.22a6.89,6.89,0,0,0-.47,2.5v1.94a1.32,1.32,0,0,0,.2.69v1a1.06,1.06,0,0,0,1.05,1.06h1.35a1.06,1.06,0,0,0,1-1.06v-.3h8v.29A1.08,1.08,0,0,0,33,34.25h1.34a1.08,1.08,0,0,0,1.06-1.06v-.95a1.31,1.31,0,0,0,.19-.69V29.61a6.92,6.92,0,0,0-.46-2.5L35,26.89h.25a.77.77,0,0,0,.75-.57l.12-.43A.76.76,0,0,0,36,25.21ZM23.54,32h-2l-.14-.11a.48.48,0,0,1-.1-.28v-2a6.11,6.11,0,0,1,.29-1.85,55.5,55.5,0,0,0,6.44.38,55.2,55.2,0,0,0,6.43-.38,6.12,6.12,0,0,1,.3,1.85v1.94a.43.43,0,0,1-.11.28.69.69,0,0,1-.13.11H23.54ZM23,23.85a1.75,1.75,0,0,1,1.64-1.13h6.61a1.75,1.75,0,0,1,1.64,1.13l1.17,3a55.57,55.57,0,0,1-12.23,0ZM20.75,26l-.05-.18h.61l-.07.18Zm2.34,7.2a.15.15,0,0,1-.15.15H21.59a.15.15,0,0,1-.15-.15h0v-.31h1.65Zm11.42,0a.15.15,0,0,1-.15.15H33a.15.15,0,0,1-.15-.15h0v-.3h1.64Zm.7-7.2h-.49l-.07-.18h.61Z" fill="#1a1a1a"/><path d="M23,28.06a1.14,1.14,0,1,0,1.13,1.15h0A1.14,1.14,0,0,0,23,28.06Zm0,1.36a.23.23,0,0,1-.19-.42A.21.21,0,0,1,23,29a.22.22,0,0,1,.27.18.23.23,0,0,1-.17.27.17.17,0,0,1-.1,0Z" fill="#1a1a1a"/><path d="M33,28.06a1.14,1.14,0,1,0,1.13,1.15h0A1.14,1.14,0,0,0,33,28.06Zm0,1.36a.23.23,0,0,1-.24-.22.23.23,0,1,1,.46,0v0a.22.22,0,0,1-.22.22Z" fill="#1a1a1a"/><path d="M20.51,19.15a.45.45,0,0,0,.6.68.44.44,0,0,0,0-.62h0A.45.45,0,0,0,20.51,19.15Z" fill="#1a1a1a"/><path d="M21.27,20.71a.46.46,0,0,0,.36.17.48.48,0,0,0,.28-.1.47.47,0,0,0,.07-.64h0a.45.45,0,0,0-.63-.06A.46.46,0,0,0,21.27,20.71Z" fill="#1a1a1a"/><path d="M22.77,21a.44.44,0,1,0,0,.67.47.47,0,0,0,0-.67Z" fill="#1a1a1a"/><path d="M28.29,19.7a.46.46,0,0,0,.46-.45h0a.46.46,0,0,0-.91,0,.45.45,0,0,0,.45.45Z" fill="#1a1a1a"/><path d="M28.29,18.46a.46.46,0,0,0,.46-.45h0a.46.46,0,0,0-.91-.14.33.33,0,0,0,0,.14.45.45,0,0,0,.45.45Z" fill="#1a1a1a"/><path d="M28.29,20.94a.46.46,0,0,0,.46-.45h0a.46.46,0,0,0-.91-.14.33.33,0,0,0,0,.14.45.45,0,0,0,.45.45Z" fill="#1a1a1a"/><path d="M28.29,17.22a.46.46,0,0,0,.46-.45h0a.46.46,0,0,0-.91-.14.33.33,0,0,0,0,.14.45.45,0,0,0,.45.45Z" fill="#1a1a1a"/><path d="M34.06,22.15a.46.46,0,0,0-.05-.64.45.45,0,0,0-.64,0h0a.44.44,0,0,0,0,.62h0a.44.44,0,0,0,.29.11A.44.44,0,0,0,34.06,22.15Z" fill="#1a1a1a"/><path d="M34.53,21.37a.45.45,0,0,0,.3-.79.45.45,0,0,0-.64,0h0a.45.45,0,0,0,0,.64h0A.49.49,0,0,0,34.53,21.37Z" fill="#1a1a1a"/><path d="M35.34,20.44a.45.45,0,0,0,.34-.15.45.45,0,0,0-.66-.62h0a.45.45,0,0,0,0,.64h0A.42.42,0,0,0,35.34,20.44Z" fill="#1a1a1a"/><path d="M19,19.48a1.92,1.92,0,1,0-1.91-1.93h0A1.92,1.92,0,0,0,19,19.48Z" fill="#1a1a1a"/><path d="M28.29,12.4a1.92,1.92,0,1,0,1.92,1.92h0A1.92,1.92,0,0,0,28.29,12.4Z" fill="#1a1a1a"/><path d="M36.82,19.69a1.91,1.91,0,1,0-1.91-1.91h0A1.92,1.92,0,0,0,36.82,19.69Z" fill="#1a1a1a"/><path d="M36.82,16.77a1,1,0,1,1-1,1A1,1,0,0,1,36.82,16.77Z"/><path d="M41.7,25.82a1.91,1.91,0,1,0,1.91,1.91h0A1.93,1.93,0,0,0,41.7,25.82Z" fill="#1a1a1a"/><path d="M41.7,28.74a1,1,0,1,1,1-1A1,1,0,0,1,41.7,28.74Z" fill="#fff"/><path d="M14.26,26.12A1.91,1.91,0,1,0,16.17,28v0A1.92,1.92,0,0,0,14.26,26.12Z" fill="#1a1a1a"/><path d="M14.26,29a1,1,0,1,1,1-1A1,1,0,0,1,14.26,29Z" fill="#fff"/><path d="M35.2,35.94a.45.45,0,0,0-.64.64h0a.44.44,0,0,0,.34.16.45.45,0,0,0,.34-.76Z" fill="#1a1a1a"/><path d="M34.39,35a.45.45,0,1,0-.69.59h0a.47.47,0,0,0,.64,0A.48.48,0,0,0,34.39,35Z" fill="#1a1a1a"/><path d="M27.21,35.58h0a.46.46,0,1,0,.46-.46h0a.45.45,0,0,0-.46.44Z" fill="#1a1a1a"/><path d="M27.21,36.82a.45.45,0,0,0,.45.45h0a.46.46,0,0,0,.45-.46.46.46,0,0,0-.91,0Z" fill="#1a1a1a"/><path d="M27.21,38.06a.45.45,0,0,0,.45.45h0a.46.46,0,0,0,.45-.46.46.46,0,0,0-.91,0Z" fill="#1a1a1a"/><path d="M27.21,39.3a.45.45,0,0,0,.45.45h0a.46.46,0,0,0,.45-.46.46.46,0,0,0-.91,0Z" fill="#1a1a1a"/><path d="M20.41,35.62a.44.44,0,0,0,.05.63.4.4,0,0,0,.29.12.48.48,0,0,0,.35-.16h0a.45.45,0,1,0-.66-.62Z" fill="#1a1a1a"/><path d="M21.23,34.68a.45.45,0,0,0,.68.6h0a.44.44,0,0,0,0-.62h0A.45.45,0,0,0,21.23,34.68Z" fill="#1a1a1a"/><path d="M36.81,36.37a1.91,1.91,0,1,0,1.91,1.91h0A1.93,1.93,0,0,0,36.81,36.37Z" fill="#1a1a1a"/><path d="M36.81,39.29a1,1,0,1,1,1-1A1,1,0,0,1,36.81,39.29Z" fill="#fff"/><path d="M27.67,39.83a1.92,1.92,0,1,0,1.91,1.93h0A1.92,1.92,0,0,0,27.67,39.83Z" fill="#1a1a1a"/><path d="M27.67,42.75a1,1,0,1,1,1-1A1,1,0,0,1,27.67,42.75Z" fill="#fff"/><path d="M19.13,36.4a1.92,1.92,0,1,0,1.87,2v-.06A1.91,1.91,0,0,0,19.13,36.4Z" fill="#1a1a1a"/><path d="M18.21,27.58a.45.45,0,0,0-.45.45h0a.46.46,0,0,0,.46.45.45.45,0,1,0,0-.9h0Z" fill="#1a1a1a"/><path d="M17.43,28a.45.45,0,0,0-.45-.45h0a.44.44,0,0,0-.44.44h0a.45.45,0,0,0,.9,0h0Z" fill="#1a1a1a"/><path d="M19.45,27.58A.45.45,0,0,0,19,28a.46.46,0,0,0,.46.45.45.45,0,0,0,0-.9Z" fill="#1a1a1a"/><path d="M36.38,27.58h0a.45.45,0,1,0,.45.45.45.45,0,0,0-.45-.45Z" fill="#1a1a1a"/><path d="M37.61,27.58a.44.44,0,0,0-.44.44h0a.45.45,0,0,0,.45.45h0a.45.45,0,1,0,0-.9h0Z" fill="#1a1a1a"/><path d="M38.86,27.58h0a.45.45,0,0,0-.45.45h0a.46.46,0,0,0,.46.45.45.45,0,1,0,0-.9h0Z" fill="#1a1a1a"/><path d="M19.13,39.32a1,1,0,1,1,1-1A1,1,0,0,1,19.13,39.32Z" fill="#fff"/><path d="M19,16.56a1,1,0,1,1-1,1A1,1,0,0,1,19,16.56Z" fill="#fff"/><path d="M28.29,15.32a1,1,0,1,1,1-1A1,1,0,0,1,28.29,15.32Z" fill="#fff"/></svg>