<svg xmlns="http://www.w3.org/2000/svg" viewBox="0 0 56 56"><title>tire-icn</title><path d="M28,20.33a7.72,7.72,0,1,1-7.72,7.72A7.72,7.72,0,0,1,28,20.33m0-1a8.72,8.72,0,1,0,8.72,8.72A8.72,8.72,0,0,0,28,19.33Z" fill="#1a1a1a"/><path d="M42.88,29A.45.45,0,0,0,43,28.7V27.34a.41.41,0,0,0-.11-.28h0a.42.42,0,0,0,.08-.32l-.18-1.35a.4.4,0,0,0-.15-.26h0a.4.4,0,0,0,0-.32l-.36-1.32a.48.48,0,0,0-.18-.24h0a.47.47,0,0,0,0-.33l-.53-1.26a.45.45,0,0,0-.22-.21.42.42,0,0,0,0-.33l-.69-1.18a.4.4,0,0,0-.24-.18h0a.48.48,0,0,0-.09-.32l-.84-1.07a.46.46,0,0,0-.26-.15.42.42,0,0,0-.13-.31l-1-1a.45.45,0,0,0-.28-.12h0a.4.4,0,0,0-.16-.28l-1.09-.82a.45.45,0,0,0-.29-.09h0a.43.43,0,0,0-.2-.26l-1.19-.67a.39.39,0,0,0-.3,0h0a.4.4,0,0,0-.23-.23l-1.26-.51a.42.42,0,0,0-.31,0h0a.43.43,0,0,0-.26-.2l-1.32-.34a.4.4,0,0,0-.3,0h0a.41.41,0,0,0-.29-.16l-1.35-.17a.41.41,0,0,0-.29.08h0A.52.52,0,0,0,28.7,13H27.34a.44.44,0,0,0-.28.11h0a.42.42,0,0,0-.32-.08l-1.35.18a.4.4,0,0,0-.26.15h0a.4.4,0,0,0-.32,0l-1.32.36a.48.48,0,0,0-.24.18h0a.47.47,0,0,0-.33,0l-1.26.53a.41.41,0,0,0-.21.22h0a.4.4,0,0,0-.32.05l-1.18.69a.4.4,0,0,0-.18.24h0a.44.44,0,0,0-.31.09l-1.08.84a.46.46,0,0,0-.15.26h0a.43.43,0,0,0-.3.13l-1,1a.39.39,0,0,0-.11.28h0a.4.4,0,0,0-.28.16l-.82,1.09a.44.44,0,0,0-.09.29h0a.43.43,0,0,0-.26.2l-.67,1.19a.39.39,0,0,0,0,.3h0a.43.43,0,0,0-.23.23l-.51,1.26a.42.42,0,0,0,0,.31h0a.43.43,0,0,0-.2.26l-.34,1.32a.39.39,0,0,0,0,.3.42.42,0,0,0-.17.29l-.17,1.35a.44.44,0,0,0,.08.29h0a.45.45,0,0,0-.12.31v1.36a.44.44,0,0,0,.11.28.4.4,0,0,0-.08.32l.18,1.35a.46.46,0,0,0,.15.27h0a.4.4,0,0,0,0,.32l.36,1.32a.48.48,0,0,0,.18.24.47.47,0,0,0,0,.33l.53,1.26a.45.45,0,0,0,.22.21h0a.4.4,0,0,0,.05.32l.69,1.18a.38.38,0,0,0,.24.17v0a.44.44,0,0,0,.09.31l.84,1.08a.46.46,0,0,0,.26.15h0a.43.43,0,0,0,.13.3l1,1a.41.41,0,0,0,.28.11.41.41,0,0,0,.16.29l1.09.82a.39.39,0,0,0,.26.09h0a.43.43,0,0,0,.2.26l1.19.67a.39.39,0,0,0,.21.06.19.19,0,0,0,.08,0,.49.49,0,0,0,.24.25l1.26.51a.51.51,0,0,0,.17,0l.14,0h0a.43.43,0,0,0,.26.2l1.32.34h.11a.43.43,0,0,0,.18-.06.43.43,0,0,0,.3.18L26.7,43h.05a.41.41,0,0,0,.24-.08.42.42,0,0,0,.31.13h1.36a.41.41,0,0,0,.28-.11.51.51,0,0,0,.26.09h.06l1.35-.19a.36.36,0,0,0,.26-.14h0a.39.39,0,0,0,.21.06l.11,0,1.32-.36a.44.44,0,0,0,.25-.2.3.3,0,0,0,.16,0,.45.45,0,0,0,.16,0l1.26-.53a.45.45,0,0,0,.22-.23.45.45,0,0,0,.11,0,.42.42,0,0,0,.21-.06l1.18-.69a.49.49,0,0,0,.19-.24h.05a.41.41,0,0,0,.26-.09l1.08-.84a.43.43,0,0,0,.15-.26h0a.43.43,0,0,0,.3-.13l1-1a.5.5,0,0,0,.12-.28.45.45,0,0,0,.28-.16l.82-1.09a.43.43,0,0,0,.09-.3.45.45,0,0,0,.26-.19l.67-1.19a.39.39,0,0,0,0-.3h0a.43.43,0,0,0,.23-.23l.51-1.26a.42.42,0,0,0,0-.31h0a.43.43,0,0,0,.2-.26l.34-1.32a.39.39,0,0,0,0-.3h0a.41.41,0,0,0,.16-.29L43,29.3a.44.44,0,0,0-.08-.29Zm-.23-.23a.11.11,0,0,1-.08,0h-.08l-.28,0c0,.12,0,.24,0,.36h.33a.2.2,0,0,1,.08,0,.24.24,0,0,1,0,.08l-.17,1.35a.08.08,0,0,1,0,.07.11.11,0,0,1-.08,0h-.07L42,30.63c0,.12,0,.24-.07.35l.26,0,.06,0a.12.12,0,0,1,.07,0,.19.19,0,0,1,0,.08L42,32.48a.1.1,0,0,1,0,.06.13.13,0,0,1-.08,0l-.09,0-.23-.09c0,.11-.08.22-.12.33l.25.07.06,0a.1.1,0,0,1,.06.13l-.51,1.27a.17.17,0,0,1-.06.06.11.11,0,0,1-.08,0l-.07,0-.23-.12-.15.32.23.1.06,0s0,0,0,.06a.08.08,0,0,1,0,.08L40.36,36a.11.11,0,0,1-.15,0l-.07,0L40,35.8l-.2.3.22.12.05,0s0,0,0,.07a.24.24,0,0,1,0,.08l-.82,1.08a.1.1,0,0,1-.15,0l-.07,0-.17-.17-.24.27.2.15.05,0a.12.12,0,0,1,0,.16l-1,1a.11.11,0,0,1-.07,0,.09.09,0,0,1-.08,0l-.06-.06-.15-.2c-.09.08-.17.17-.26.24l.17.18,0,.05a.1.1,0,0,1,0,.07.08.08,0,0,1,0,.07l-1.07.84a.1.1,0,0,1-.15,0l0-.06-.12-.2-.3.19.15.19,0,.06a.1.1,0,0,1,0,.14l-1.17.69a.11.11,0,0,1-.15,0l0-.08-.09-.22-.32.16.12.21,0,.06a.11.11,0,0,1-.06.14L33,41.83a.14.14,0,0,1-.09,0,.1.1,0,0,1-.05-.06l0-.07-.07-.23-.33.12.09.21,0,.07a.25.25,0,0,1,0,.08.18.18,0,0,1-.07,0l-1.31.36a.1.1,0,0,1-.13-.07l0-.08,0-.23-.35.06.06.23v.06a.19.19,0,0,1,0,.08.12.12,0,0,1-.07.05l-1.35.18a.1.1,0,0,1-.12-.09v-.32l-.36,0,0,.24v.07a.1.1,0,0,1-.1.11H27.3a.11.11,0,0,1-.11-.11v-.08l0-.25h-.36v.3a.2.2,0,0,1,0,.08l-.08,0-1.35-.17a.12.12,0,0,1-.1-.12v-.08l.06-.23L25,42l0,.24,0,.06a.12.12,0,0,1,0,.07.11.11,0,0,1-.08,0L23.52,42a.07.07,0,0,1-.06,0,.13.13,0,0,1,0-.08l0-.09.09-.22a3.4,3.4,0,0,1-.34-.12l-.06.24,0,.06a.09.09,0,0,1-.13.06l-1.27-.51a.17.17,0,0,1-.06-.06.11.11,0,0,1,0-.08l0-.07.13-.22-.32-.16-.1.24,0,.05a.1.1,0,0,1-.14,0l-1.19-.67a.18.18,0,0,1-.05-.07.12.12,0,0,1,0-.08l0-.07.15-.2-.29-.2-.13.22,0,.06s0,0-.07,0l-.08,0-1.08-.82a.11.11,0,0,1,0-.15l.05-.07.19-.18-.27-.24-.16.21,0,0a.11.11,0,0,1-.16,0l-1-1a.11.11,0,0,1,0-.07.11.11,0,0,1,0-.08l.06-.06.21-.16-.24-.27-.18.19-.06,0a.1.1,0,0,1-.07,0,.12.12,0,0,1-.08,0l-.83-1.07a.08.08,0,0,1,0-.08.08.08,0,0,1,0-.07l.07,0,.22-.13c-.06-.1-.12-.21-.19-.31l-.21.17-.06,0a.11.11,0,0,1-.08,0,.06.06,0,0,1-.06-.05l-.69-1.17a.08.08,0,0,1,0-.08.1.1,0,0,1,0-.07l.08,0,.25-.11-.16-.32-.24.14-.06,0h-.08a.09.09,0,0,1-.06-.06L14.17,33a.1.1,0,0,1,.06-.14l.07,0,.28-.08c0-.11-.09-.22-.13-.34l-.25.11-.07,0h-.08a.18.18,0,0,1-.05-.07l-.36-1.31a.1.1,0,0,1,.07-.13l.08,0,.28,0c0-.12,0-.24-.06-.36l-.28.08h-.06a.12.12,0,0,1-.13-.09l-.18-1.35a.1.1,0,0,1,.09-.12h.38c0-.12,0-.25,0-.37l-.31,0h-.06a.1.1,0,0,1-.11-.1V27.3a.1.1,0,0,1,.11-.11h.08l.3,0c0-.12,0-.25,0-.37h-.36a.2.2,0,0,1-.08,0,.24.24,0,0,1,0-.08l.17-1.35a.13.13,0,0,1,.12-.1h.08l.29.08c0-.12.05-.24.07-.36l-.3,0-.06,0a.18.18,0,0,1-.07,0,.19.19,0,0,1,0-.08L14,23.52a.11.11,0,0,1,.13-.08l.08,0,.29.11.12-.34-.3-.08-.06,0a.1.1,0,0,1-.06-.05.11.11,0,0,1,0-.08l.51-1.27a.17.17,0,0,1,.06-.06.11.11,0,0,1,.08,0l.07,0,.28.16c.05-.11.1-.22.16-.33l-.3-.12-.05,0a.1.1,0,0,1,0-.14l.67-1.19a.13.13,0,0,1,.07-.05.12.12,0,0,1,.08,0l.07,0,.25.19.2-.3L16,19.78l-.06,0a.12.12,0,0,1,0-.15l.82-1.08a.15.15,0,0,1,.07-.05.11.11,0,0,1,.08,0l.07.05.23.22.25-.27-.27-.2-.05-.05a.08.08,0,0,1,0-.07.11.11,0,0,1,0-.08l1-1a.11.11,0,0,1,.07,0h0a.11.11,0,0,1,.07,0l.06.06.2.26.27-.24L18.57,17l0-.05a.1.1,0,0,1,0-.15l1.07-.83.08,0s.06,0,.07,0l.05.07.17.28.3-.2-.2-.26,0-.06a.08.08,0,0,1,0-.08.06.06,0,0,1,.05-.06l1.17-.69a.08.08,0,0,1,.08,0,.1.1,0,0,1,.07,0l0,.07.13.31.33-.16-.17-.29,0-.06a.11.11,0,0,1,.06-.14L23,14.17h.09a.1.1,0,0,1,.05.06l0,.07.09.32.35-.12-.13-.3,0-.07a.12.12,0,0,1,.08-.13l1.31-.36a.11.11,0,0,1,.13.07l0,.08,0,.32.36-.06-.09-.32v-.07a.19.19,0,0,1,0-.07.12.12,0,0,1,.07-.05l1.35-.18a.08.08,0,0,1,.08,0,.08.08,0,0,1,0,.07v.41l.37,0,0-.34v-.06a.1.1,0,0,1,.1-.11H28.7a.1.1,0,0,1,.11.11v.08l0,.33.37,0v-.39a.12.12,0,0,1,.12-.1l1.35.17a.08.08,0,0,1,.07,0,.11.11,0,0,1,0,.08v.08l-.09.31.36.07,0-.32,0-.06a.12.12,0,0,1,0-.07h.08l1.32.34a.12.12,0,0,1,.08.13l0,.09-.12.29.35.12.08-.31,0-.06A.1.1,0,0,1,33,14.2l1.27.51a.17.17,0,0,1,.06.06.11.11,0,0,1,0,.08l0,.07-.17.28.33.16.13-.29,0-.06s0,0,.06,0a.08.08,0,0,1,.08,0l1.19.67a.11.11,0,0,1,0,.15l0,.07-.19.25.3.2.16-.28,0-.05a.12.12,0,0,1,.15,0l1.08.82a.15.15,0,0,1,0,.07.11.11,0,0,1,0,.08l0,.07-.21.22.27.24.19-.25,0-.05a.11.11,0,0,1,.08,0h0a.11.11,0,0,1,.08,0l1,1a.11.11,0,0,1,0,.15l-.06.06-.25.19.25.27.22-.22.05,0a.1.1,0,0,1,.07,0,.12.12,0,0,1,.08,0l.83,1.07a.08.08,0,0,1,0,.08.08.08,0,0,1,0,.07l-.07.05-.26.15.2.3.24-.18.06,0a.08.08,0,0,1,.08,0,.06.06,0,0,1,.06.05l.69,1.17a.11.11,0,0,1,0,.15l-.07,0-.28.11c.06.11.11.22.16.33l.26-.15.06,0a.11.11,0,0,1,.14.06L41.83,23a.14.14,0,0,1,0,.09.1.1,0,0,1-.06.05l-.07,0-.28.08.12.34.26-.11.07,0a.12.12,0,0,1,.13.08l.36,1.31a.11.11,0,0,1,0,.08s0,0-.06.05l-.08,0-.28,0c0,.12,0,.24.07.35l.27-.07h.06a.15.15,0,0,1,.08,0,.12.12,0,0,1,.05.07l.18,1.35a.08.08,0,0,1,0,.08.08.08,0,0,1-.07,0h-.36c0,.12,0,.24,0,.36l.28,0h.07s0,0,.08,0a.09.09,0,0,1,0,.07V28.7A.11.11,0,0,1,42.65,28.78Z" fill="#aaa" stroke="#000" stroke-linecap="round" stroke-linejoin="round" stroke-width="0.75"/></svg>