<svg xmlns="http://www.w3.org/2000/svg" viewBox="0 0 56 56"><title>icon</title><path d="M54.07,27.65l.39.78V30H51.73l-1.56-1.56v-.78ZM50.56,28v.23l1.33,1.33h2.18V28.53L53.83,28Zm1.95,3.12h2.34v1.56H52.51Zm.39.39v.78h1.56v-.78ZM42.43,23.79c.52,0,1,.09,1.54.15a38.67,38.67,0,0,1,4.33.75c4.09.95,6.55,2.38,6.55,4.52v5.85h-5.5a4.67,4.67,0,0,1-6.2,2.31,4.72,4.72,0,0,1-2.31-2.31H17.75a4.67,4.67,0,0,1-6.2,2.31,4.72,4.72,0,0,1-2.31-2.31H4.37L1.8,32.49V29.06L3,27.89V23H4.88l7.86-.78.09,0,.28-2h1.56l1.46,2.63,4.39.87,1.17-3.11h1.56v3.12H33.4l.39-.39.78.39h2.34l-6.24-3.12H29.11V18.29h2.34Zm-19.18.74h-2.8L12.7,23l-7.78.78H3.75V25.7H6.48v.78L4.92,28H3.75v.16L2.58,29.37v2.8l2.11,2.11H9a4.68,4.68,0,0,1,3.38-5.7,4.48,4.48,0,0,1,1.15-.15,4.68,4.68,0,0,1,4.68,4.68A5.06,5.06,0,0,1,18,34.28H40.57a4.68,4.68,0,0,1,3.37-5.7,4.56,4.56,0,0,1,1.16-.15,4.69,4.69,0,0,1,4.68,4.68,4.58,4.58,0,0,1-.15,1.17h4.44V29.21c0-1.61-2.22-2.89-5.94-3.76a40,40,0,0,0-5.65-.88l-.5,0H36.13V25.7H33.79l-1.17-1.17H23.25Zm1.17,1.76v.58H24v-.39H21.69v-.39h2.73Zm-3.51,6H36.13v.39H20.52V31.16h.39ZM13.5,37a3.9,3.9,0,1,0-3.9-3.9A3.89,3.89,0,0,0,13.5,37Zm0-.78a3.12,3.12,0,1,1,3.12-3.12A3.12,3.12,0,0,1,13.5,36.23Zm0-.39a2.73,2.73,0,1,0-2.73-2.73A2.73,2.73,0,0,0,13.5,35.84Zm0-2a.78.78,0,1,1,.78-.78A.78.78,0,0,1,13.5,33.89Zm0-.39a.38.38,0,0,0,.39-.39.39.39,0,0,0-.39-.39.4.4,0,0,0-.39.39A.39.39,0,0,0,13.5,33.5ZM45.1,37a3.9,3.9,0,1,0-3.9-3.9A3.9,3.9,0,0,0,45.1,37Zm0-.78a3.12,3.12,0,1,1,3.12-3.12A3.11,3.11,0,0,1,45.1,36.23Zm0-.39a2.73,2.73,0,1,0-2.73-2.73A2.73,2.73,0,0,0,45.1,35.84Zm0-2a.78.78,0,1,1,.78-.78A.78.78,0,0,1,45.1,33.89Zm0-.39a.39.39,0,0,0,.39-.39.4.4,0,0,0-.39-.39.39.39,0,0,0-.39.39A.38.38,0,0,0,45.1,33.5ZM3.75,27.65h1l1.33-1.33v-.23H3.75Zm29.42-3.12.78.78h1.79v-.54l-1.88-.93-.7.69Zm-10.7-.78V21.41h-.23l-.88,2.34ZM14.21,21h-.42l-.19,1.33,1.52.31Zm17.05-1.95H29.89v.78h1l7,3.51h2l-8.58-4.29Z"/></svg>