<svg xmlns="http://www.w3.org/2000/svg" viewBox="0 0 56 56"><title>icon</title><path d="M9.74,34.68H8.14L3.83,32.09v-3L5,27.87V24.49l3.62-5.23V18.18H28.91L37,23.81h5.91c3.69,0,5.64.79,5.64,2.52V29h.82v4.28L46.8,34.68H45a4.83,4.83,0,0,1-9.11,0h-17a4.83,4.83,0,0,1-9.11,0Zm-.21-.81a4.83,4.83,0,1,1,9.53-1.59,4.72,4.72,0,0,1,0,1.59H35.69a4.83,4.83,0,1,1,9.53-1.59,4.72,4.72,0,0,1,0,1.59h1.37l1.93-1v-3H45.69V26.63h2v-.3c0-1.09-1.54-1.71-4.83-1.71H36.71l-8-5.64H9.46v.53L5.84,24.74V25H8.66v.81L7.05,27.44H5.84v.76L4.63,29.41v2.22l3.74,2.24ZM33.08,23.54l.53.27V25H31.2l-.4-.4H8.66l2.41-4.83H28.78L33.61,23ZM20.73,32.26H34v.41H20.33V31.06h.4Zm.81-12.07v4h8.85l-.4-.41,1.21-1.2,1.5.74.28-.28-4.32-2.88Zm-.81,0H11.32l-2,4H20.73Zm6.44,5.23v.81h-.4v-.4H24.36v-.41Zm3.39-1.61.8.81h1.85v-.56l-1.93-1-.72.71Zm15.53,5.64H47.7V27H46.09ZM5.84,27h1l1.38-1.37v-.24H5.84Zm8.45,10.06a4,4,0,1,0-4-4A4,4,0,0,0,14.29,37.09Zm0-.8a3.22,3.22,0,1,1,3.22-3.22A3.22,3.22,0,0,1,14.29,36.29Zm0-.4a2.82,2.82,0,1,0-2.81-2.82A2.82,2.82,0,0,0,14.29,35.89Zm0-2a.8.8,0,0,1-.8-.8.81.81,0,1,1,.8.8Zm0-.4a.4.4,0,1,0-.4-.4A.4.4,0,0,0,14.29,33.47Zm26.17,3.62a4,4,0,1,0-4-4A4,4,0,0,0,40.46,37.09Zm0-.8a3.22,3.22,0,1,1,3.22-3.22A3.22,3.22,0,0,1,40.46,36.29Zm0-.4a2.82,2.82,0,1,0-2.82-2.82A2.81,2.81,0,0,0,40.46,35.89Zm0-2a.8.8,0,0,1-.81-.8.81.81,0,1,1,1.61,0A.8.8,0,0,1,40.46,33.87Zm0-.4a.4.4,0,1,0-.41-.4A.4.4,0,0,0,40.46,33.47Z" fill-rule="evenodd"/></svg>