<svg xmlns="http://www.w3.org/2000/svg" viewBox="0 0 56 56"><title>icon</title><path d="M4.27,24.72H7v.78L5.44,27.06H4.27v.56L3.09,28.79V31.6l2.12,2.11H8.32A4.71,4.71,0,0,1,11.71,28a5,5,0,0,1,1.16-.14,4.69,4.69,0,0,1,4.69,4.69,4.64,4.64,0,0,1-.15,1.17h23A4.71,4.71,0,0,1,43.77,28a4.89,4.89,0,0,1,1.15-.14,4.69,4.69,0,0,1,4.69,4.69,5.13,5.13,0,0,1-.14,1.17h3.27V32.15h-2V30.58h2V29.41h-2l-1.57-1.56v-.79h2.34a9.71,9.71,0,0,0-4-1.72,28.2,28.2,0,0,0-5.27-.62H38.57L28.41,19.64H16.09l-8.6,4.3H4.27ZM8.6,34.49H4.89L2.31,31.92V28.47L3.48,27.3V23.16H7.3l8.6-4.3H28.6l10.16,5.08h3.43c.58,0,1.16,0,1.74.08a26.23,26.23,0,0,1,3.82.56c3.58.83,5.77,2.37,5.77,4.83v5.08H49.19a4.69,4.69,0,0,1-8.53,0H17.13a4.69,4.69,0,0,1-8.53,0Zm43.37-7H49.61v.23L51,29h1.76A2.85,2.85,0,0,0,52,27.46Zm-31.28,4.3H35.93v.39H20.29V30.58h.4Zm3.12-5.67v.58h-.39v-.39H21.08v-.39h2.73ZM13.65,23.16l5.47-2.74H28.5L34,23.16l-1.57,1.56H15.21Zm1.72,1.17H32.26l1.06-1.07-4.91-2.45H19.22l-4.91,2.45,1.06,1.07Zm35.81,7.43h1.56V31H51.18ZM12.87,36.45A3.91,3.91,0,1,0,9,32.54,3.91,3.91,0,0,0,12.87,36.45Zm32.05,0A3.91,3.91,0,1,0,41,32.54,3.91,3.91,0,0,0,44.92,36.45Zm-32.05-.79A3.13,3.13,0,1,1,16,32.54,3.13,3.13,0,0,1,12.87,35.66Zm0-.39a2.74,2.74,0,0,0,0-5.47h0a2.74,2.74,0,1,0,0,5.47Zm32.05.39a3.13,3.13,0,1,1,3.13-3.12A3.12,3.12,0,0,1,44.92,35.66Zm0-.39a2.74,2.74,0,1,0-2.73-2.73A2.74,2.74,0,0,0,44.92,35.27Zm-32.05-2a.78.78,0,1,1,.78-.78A.78.78,0,0,1,12.87,33.32Zm0-.39a.4.4,0,0,0,.39-.39.39.39,0,0,0-.39-.39.38.38,0,0,0-.39.39A.39.39,0,0,0,12.87,32.93Zm32.05.39a.78.78,0,1,1,.78-.78A.78.78,0,0,1,44.92,33.32Zm0-.39a.39.39,0,0,0,.39-.39.38.38,0,0,0-.39-.39.39.39,0,0,0-.39.39A.4.4,0,0,0,44.92,32.93ZM4.27,26.67h1l1.33-1.33v-.23H4.27Zm30.49-3.12,2.34,1.17v1.17H34.76l-1.17-1.17Zm-.62,1.17.78.78h1.79V25L34.84,24l-.71.7Z" fill-rule="evenodd"/></svg>