<svg xmlns="http://www.w3.org/2000/svg" viewBox="0 0 56 56"><title>icon</title><path d="M15.9,36a4.58,4.58,0,0,1-6.25,1.68A4.66,4.66,0,0,1,8,36H6.07L3.56,33.53V29L4.7,27.89v-4h.88L7,20.35v-.93l.23-.1.57-.25c.47-.19.94-.36,1.41-.53s.92-.3,1.36-.42a8.49,8.49,0,0,1,2.15-.36H31.07l13.71,6.85h.27a15.9,15.9,0,0,1,3.75.63c2.64.82,4.27,2.32,4.27,4.69V36H46.74a4.56,4.56,0,0,1-6.24,1.68A4.66,4.66,0,0,1,38.82,36Zm.35-.76H38.47a4.57,4.57,0,1,1,8.62,0h5.22V33.75H49.64V32.23h2.67V29.94c0-.13,0-.25,0-.38H48.5L47,28v-.76h4.12A6.66,6.66,0,0,0,48.57,26a13.4,13.4,0,0,0-3.55-.6H44.6L30.89,18.52H12.7a7.59,7.59,0,0,0-1.95.33c-.41.11-.85.25-1.31.41s-1.14.42-1.69.65v.58L6.1,24.61H5.46v.76H8.13V26.9L6.6,28.42H5.24l-.92.92v3.88l2.06,2.06H7.62a4.57,4.57,0,1,1,8.62,0Zm23.11.13a3.62,3.62,0,1,0-.07-.13h.07Zm-23.93-.13a4,4,0,1,0-.07.13v-.13Zm17.83-9.91H12.7L8.89,23.85l2.66-4.57H30.22L42.4,25.37H36.31v.77H34ZM32.88,25,34,23.85,36.31,25h4.48L30.12,19.66H11.77l-2.33,4L12.77,25h2.59V22h.38v3h11V22h.38v3ZM18.79,33H33.64v.38H18.41V31.85h.38Zm24,3.81a3,3,0,1,1,3-3A3,3,0,0,1,42.78,36.8Zm0-.38a2.67,2.67,0,1,0-2.66-2.67,2.67,2.67,0,0,0,2.66,2.67Zm0-1.91a.76.76,0,0,1,0-1.52.76.76,0,1,1,0,1.52Zm0-.38a.38.38,0,1,0-.38-.38A.38.38,0,0,0,42.78,34.13ZM11.93,36.8a3,3,0,1,1,3.05-3A3,3,0,0,1,11.93,36.8Zm0-.38a2.67,2.67,0,1,0-2.66-2.67A2.67,2.67,0,0,0,11.93,36.42Zm0-1.91a.76.76,0,1,1,.77-.76A.76.76,0,0,1,11.93,34.51Zm0-.38a.38.38,0,1,0-.38-.38A.38.38,0,0,0,11.93,34.13Zm17.52-6.47h-.38v-.38H26.79V26.9h2.66ZM18,27.28h-.38V26.9H15.36v-.38H18ZM33.42,25l.76.76h1.75v-.52l-1.83-.92-.69.68Zm18,2.67H47.35v.22l1.3,1.3h3.58A3.27,3.27,0,0,0,51.47,27.66ZM50,32.61v.76h2.29v-.76ZM5.46,28h1l1.3-1.3v-1H5.46Z"/></svg>