<svg xmlns="http://www.w3.org/2000/svg" viewBox="0 0 56 56"><title>icon</title><path d="M2.55,25.1H5.29v.78L3.73,27.45H2.55V28L1.37,29.18V32l2.12,2.12H6.62A4.71,4.71,0,0,1,10,28.39a4.56,4.56,0,0,1,1.16-.15A4.71,4.71,0,0,1,15.89,33a4.64,4.64,0,0,1-.15,1.17H40.37a4.7,4.7,0,0,1,3.4-5.73,4.56,4.56,0,0,1,1.16-.15A4.71,4.71,0,0,1,49.64,33a4.64,4.64,0,0,1-.15,1.17h5.25V32.55h-2V31h2V29.81H52l-1.57-1.57v-.79H53.3A11,11,0,0,0,50.11,26a24.58,24.58,0,0,0-4.41-.87l-.38,0H41.69L29.92,19.21H19a17.49,17.49,0,0,0-2.63.22,31.12,31.12,0,0,0-7.51,2.3,45.27,45.27,0,0,0-5,2.52l-.09.06H2.55ZM6.9,34.91H3.17L.59,32.32V28.87l1.17-1.18V23.53H3.62l.27-.17A48.71,48.71,0,0,1,8.57,21a32.06,32.06,0,0,1,7.71-2.36A17.74,17.74,0,0,1,19,18.43H30.11l11.77,5.88,3.59,0q.72.06,1.44.18a25.47,25.47,0,0,1,3.43.75c2.33.7,4,1.65,4.75,2.93l0,0v0a3.18,3.18,0,0,1,.39,1.54v5.1H49.24v-.08a4.71,4.71,0,0,1-8.63,0v.08H15.46a4.71,4.71,0,0,1-8.56,0Zm46.88-7.06h-3v.23l1.34,1.33H54.7A2.76,2.76,0,0,0,53.78,27.85ZM19,32.16h15.3v.39H18.64V31H19Zm-2.36-5.69v.59h-.39v-.39H13.93v-.39h2.74Zm12.56,0v.59h-.39v-.39H26.48v-.39h2.75ZM10.4,22.74,17.46,20H29.62l5.5,2.74-1.57,1.57h-20Zm3.23,1.18H33.39l1.06-1.07-4.92-2.46h-12l-6.17,2.4Zm39.54,8.24h1.57v-.78H53.17Zm-42,4.71A3.93,3.93,0,1,0,7.26,33,3.92,3.92,0,0,0,11.18,36.87Zm33.75,0A3.93,3.93,0,1,0,41,33,3.93,3.93,0,0,0,44.93,36.87Zm-33.75-.78A3.14,3.14,0,1,1,14.32,33,3.15,3.15,0,0,1,11.18,36.09Zm0-.4a2.75,2.75,0,1,0,0-5.49h0a2.75,2.75,0,1,0,0,5.49Zm33.75.4A3.14,3.14,0,1,1,48.07,33,3.14,3.14,0,0,1,44.93,36.09Zm0-.4A2.75,2.75,0,1,0,42.18,33,2.74,2.74,0,0,0,44.93,35.69Zm-33.75-2a.79.79,0,0,1,0-1.57.79.79,0,1,1,0,1.57Zm0-.39a.4.4,0,1,0-.39-.39A.39.39,0,0,0,11.18,33.34Zm33.75.39a.79.79,0,1,1,.78-.78A.78.78,0,0,1,44.93,33.73Zm0-.39a.4.4,0,0,0,0-.79.4.4,0,0,0,0,.79ZM2.55,27.06h1L4.9,25.72v-.23H2.55ZM35.9,23.14l2.36,1.17v1.18H35.9l-1.17-1.18Zm-.62,1.17.78.79h1.8v-.54L36,23.62l-.71.69ZM24.52,21.17h.4v2.75h-.4ZM16.67,22h.4v2h-.4Z" fill-rule="evenodd"/></svg>