<svg xmlns="http://www.w3.org/2000/svg" viewBox="0 0 56 56"><title>icon</title><path d="M12.07,21.46h1.78l-3.1,3.1H8.35l-.69.57v.59H9.2v.77L7.66,28v.16L6.11,29.75v2.39l1.7,1.71h.77a4.64,4.64,0,0,1,3.35-5.66A4.48,4.48,0,0,1,13.08,28a4.65,4.65,0,0,1,4.65,4.65,4.56,4.56,0,0,1-.15,1.16H38.4a4.66,4.66,0,0,1,3.36-5.66A4.41,4.41,0,0,1,42.9,28a4.65,4.65,0,0,1,4.65,4.65,4.56,4.56,0,0,1-.15,1.16h4.41V32.69H49.1V31.14h2.71V30H49.49l-1.55-1.55v-.78h2.45a11,11,0,0,0-3.14-1.42,24.2,24.2,0,0,0-4.36-.86l-.37,0H41.26L29.64,19.52H15.4a10.68,10.68,0,0,0-1.31.09,29,29,0,0,0-2.95.59v.32Zm5.27,13.09a4.65,4.65,0,0,1-8.49.08H7.5L5.33,32.46v-3l1.55-1.55V24.76L11,21.43l-.58-.59V19.62l.28-.08.46-.13,1.16-.27c.6-.12,1.17-.22,1.71-.29a9.69,9.69,0,0,1,1.42-.1H29.83l11.62,5.81h1.1c.51,0,1,.1,1.54.19a24.74,24.74,0,0,1,3.38.74c3.18,1,5.12,2.39,5.12,4.49v4.65H47.16v-.08a4.65,4.65,0,0,1-8.48.08H17.34Zm7-7.86v.58h-.39v-.39H21.6v-.39h2.71Zm-4.26,5.23H30.51v.38H19.66V30.75h.39Zm-7,4.64A3.87,3.87,0,1,0,9.2,32.69,3.87,3.87,0,0,0,13.08,36.56Zm0-.77a3.1,3.1,0,1,1,3.1-3.1A3.1,3.1,0,0,1,13.08,35.79Zm0-.39a2.71,2.71,0,1,0-2.71-2.71A2.71,2.71,0,0,0,13.08,35.4Zm0-1.94a.77.77,0,1,1,0-1.54.77.77,0,0,1,0,1.54Zm0-.38a.39.39,0,0,0,0-.78.39.39,0,1,0,0,.78ZM42.9,36.56A3.87,3.87,0,1,0,39,32.69,3.88,3.88,0,0,0,42.9,36.56Zm0-.77a3.1,3.1,0,1,1,3.1-3.1A3.09,3.09,0,0,1,42.9,35.79Zm0-.39a2.71,2.71,0,1,0-2.71-2.71A2.71,2.71,0,0,0,42.9,35.4Zm0-1.94a.77.77,0,1,1,.78-.77A.77.77,0,0,1,42.9,33.46Zm0-.38a.39.39,0,1,0-.38-.39A.39.39,0,0,0,42.9,33.08Zm-7.74-9.69,2.32,1.17v1.16H35.16L34,24.56Zm-.62,1.17.78.77h1.77V24.8l-1.86-.93-.69.69ZM7.27,27.65H7.5l1.32-1.32V26.1H7.27Zm42.22,3.88v.77h2.32v-.77ZM48.33,28v.23l1.32,1.32h2.16V29.3L51.19,28ZM12.69,24.56,17,20.29H29L34.38,23l-1.55,1.55Zm3.1-.39H32.67l1.06-1.06-4.86-2.43H17.11l-3.49,3.49Zm-4.13-2.33-2.9,2.33H10.6l2.32-2.33Z"/></svg>