<svg xmlns="http://www.w3.org/2000/svg" viewBox="0 0 56 56"><title>icon</title><path d="M41.5,32.41v2H17v-2a5.62,5.62,0,0,0-11.24,0v2H4.09L.57,32.66V29l1.2-1.21V24.62l1-.94H18.93l1.6-5.62,15.1,0Q39.1,19.41,43,23.74c7.94,0,11.79.75,11.79,2.5v3.58h.8v3.56l-1,1H52.74v-2a5.62,5.62,0,0,0-11.24,0Zm-39.16-4-1,1v2.79l2.91,1.45H5v-1.2a6.42,6.42,0,0,1,12.84,0v1.2H40.7v-1.2a6.42,6.42,0,0,1,12.84,0v1.2h.64l.56-.56V30.62h-.8V26.24c0-1-3.81-1.67-11.17-1.7h-.18l-.12-.13q-3.78-4.26-7.06-5.55H21.14l-1.6,5.62H3.05L2.58,25v.24H5.39v1.6L3.79,28.4Zm31.14-2.81v.8h-.4V26H30.67v-.4Zm-9.23,0v.8h-.4V26H21.44v-.4ZM19.44,32H39.9v.4H19v-1.6h.41ZM41.1,24.79v.4H38.69l-.4-.4H21l1.61-5.22H35.48a19.93,19.93,0,0,1,6.42,5.22Zm-3.21-.4-.4-.41,1.2-1.2,1.59.8a19.93,19.93,0,0,0-2.13-1.87A18.84,18.84,0,0,0,35.39,20H22.94l-1.36,4.42ZM11.41,38a4.82,4.82,0,1,1,4.82-4.82A4.81,4.81,0,0,1,11.41,38Zm0-.8a4,4,0,1,0-4-4A4,4,0,0,0,11.41,37.23Zm0-.81a3.21,3.21,0,1,1,3.21-3.21A3.21,3.21,0,0,1,11.41,36.42Zm0-.4A2.81,2.81,0,1,0,8.6,33.21,2.81,2.81,0,0,0,11.41,36Zm0-2a.81.81,0,1,1,.8-.81A.8.8,0,0,1,11.41,34Zm0-.41a.4.4,0,1,0-.4-.4A.4.4,0,0,0,11.41,33.61ZM47.12,38a4.82,4.82,0,0,1,0-9.63h0a4.82,4.82,0,0,1,0,9.63Zm0-.8a4,4,0,1,0-4-4A4,4,0,0,0,47.12,37.23Zm0-.81a3.21,3.21,0,1,1,3.21-3.21A3.21,3.21,0,0,1,47.12,36.42Zm0-.4a2.81,2.81,0,0,0,0-5.62h0a2.81,2.81,0,1,0,0,5.62Zm0-2a.81.81,0,1,1,.8-.81A.8.8,0,0,1,47.12,34Zm0-.41a.4.4,0,1,0-.4-.4A.4.4,0,0,0,47.12,33.61ZM38.06,24l.8.81H40.7v-.56l-1.93-1-.72.71ZM2.58,28h1L5,26.63v-1H2.58Z"/></svg>