<svg xmlns="http://www.w3.org/2000/svg" viewBox="0 0 56 56"><title>icon</title><path d="M19.75,24.21a.35.35,0,0,1,.4.31l.16,1.18a.35.35,0,0,1-.31.4H20a.37.37,0,0,1-.36-.32l-.15-1.17A.36.36,0,0,1,19.75,24.21Z" stroke="#333" stroke-miterlimit="10" stroke-width="0.25"/><path d="M33.57,39.21h1.2a.36.36,0,0,1,0,.72h-1.2a.36.36,0,0,1,0-.72Z" stroke="#333" stroke-miterlimit="10" stroke-width="0.25"/><path d="M16.82,24.51l2.25,16.83a2.41,2.41,0,0,0,2.39,2.09H35a2.41,2.41,0,0,0,2-1l1.17-1.72a2.42,2.42,0,0,0,.23-2.3L37.77,37a1.21,1.21,0,0,0-1.1-.74h-.14L24.8,37.6a12.06,12.06,0,0,0-.21-4.4L22.1,22.71a1.2,1.2,0,0,0-1.17-.93H19.81L19.58,20l1,.21a1,1,0,0,0,.24,0A1.19,1.19,0,0,0,22,19.49a15.5,15.5,0,0,0,1-5.17,1.19,1.19,0,0,0-1-1.19l-2.58-.51-.24,0a1.21,1.21,0,0,0-1.18,1l-.94,4.73A1.21,1.21,0,0,0,18,19.71l.79.15.26,1.93A2.41,2.41,0,0,0,16.82,24.51ZM18.18,19a.49.49,0,0,1-.31-.21.45.45,0,0,1-.07-.36l.94-4.73a.47.47,0,0,1,.47-.38h.1l2.58.52a.47.47,0,0,1,.39.47,15.11,15.11,0,0,1-1,4.92.48.48,0,0,1-.44.29h-.1Zm3.53,23L22,42a1.8,1.8,0,0,0,1.22-3.13,3.32,3.32,0,0,1,1.4-.5l12-1.33h.06a.49.49,0,0,1,.44.3l.56,1.33a1.65,1.65,0,0,1-.16,1.61L36.34,42a1.69,1.69,0,0,1-1.39.74H22.24a.48.48,0,0,1-.47-.38A2.38,2.38,0,0,1,21.71,42Zm-.81-1.78A1.09,1.09,0,1,1,22,41.26,1.08,1.08,0,0,1,20.9,40.18Zm-3-17.1a1.67,1.67,0,0,1,1.27-.58h1.72a.5.5,0,0,1,.47.37l2.48,10.49a11.23,11.23,0,0,1,.17,4.36h0a4.08,4.08,0,0,0-1.54.74,1.84,1.84,0,0,0-.53-.08,1.8,1.8,0,0,0-1,3.3,3.88,3.88,0,0,0,.09.82h0c0,.07,0,.12.06.18a1.68,1.68,0,0,1-1.33-1.43L17.54,24.41A1.65,1.65,0,0,1,17.94,23.08Z" stroke="#333" stroke-miterlimit="10" stroke-width="0.25"/></svg>