<svg xmlns="http://www.w3.org/2000/svg" viewBox="0 0 56 56"><title>warranty-icn</title><path d="M28,43C42.7,37.75,42,22.34,42,22.34v-5.9L36.74,15.3v1.8L31.3,15.79V14A26,26,0,0,0,28,13H28a26,26,0,0,0-3.33,1v1.81L19.26,17.1V15.3L14,16.44v5.9S13.3,37.75,28,43Z" fill="none" stroke="#1a1a1a" stroke-linecap="square" stroke-linejoin="round"/><ellipse cx="27.96" cy="27.96" rx="9.72" ry="9.79" fill="none" stroke="#1a1a1a" stroke-linecap="square" stroke-linejoin="round"/><ellipse cx="27.96" cy="27.96" rx="7.16" ry="7.21" fill="none" stroke="#1a1a1a" stroke-linecap="square" stroke-linejoin="round"/><path d="M32.34,26.06l-1.65-1.61-3.87,4-2-2-1.6,1.66,3.68,3.6,1.6-1.67h0Z" fill="none" stroke="#1a1a1a" stroke-linecap="square" stroke-linejoin="round"/></svg>