<svg xmlns="http://www.w3.org/2000/svg" viewBox="0 0 56 56"><title>wheel-icn</title><path d="M28,13.5A14.5,14.5,0,1,1,13.5,28,14.5,14.5,0,0,1,28,13.5m0-1A15.5,15.5,0,1,0,43.5,28,15.51,15.51,0,0,0,28,12.5Z" fill="#1a1a1a"/><path d="M28,16.61A11.39,11.39,0,1,1,16.61,28,11.39,11.39,0,0,1,28,16.61m0-1A12.39,12.39,0,1,0,40.39,28,12.41,12.41,0,0,0,28,15.61Z" fill="#1a1a1a"/><path d="M23,36.59a10.59,10.59,0,0,0,10,0l-3.17-3H26.27Z" fill="none" stroke="#1a1a1a" stroke-linecap="round" stroke-linejoin="round"/><path d="M35.49,34.12A9,9,0,0,0,37.85,28a8.72,8.72,0,0,0-.12-1.46l-3.86,1.48L32.8,31.38Z" fill="none" stroke="#1a1a1a" stroke-linecap="round" stroke-linejoin="round"/><path d="M36.51,23.41A8.59,8.59,0,0,0,30,18.49l0,3.65L32.56,25Z" fill="none" stroke="#1a1a1a" stroke-linecap="round" stroke-linejoin="round"/><path d="M23.22,31.29l-1.14-3.42-3.8-1.34A9.32,9.32,0,0,0,18.15,28a9,9,0,0,0,2.35,6.07Z" fill="none" stroke="#1a1a1a" stroke-linecap="round" stroke-linejoin="round"/><path d="M25.65,22.2l-2.41,2.7-4-1.52a8.59,8.59,0,0,1,6.39-4.88Z" fill="none" stroke="#1a1a1a" stroke-linecap="round" stroke-linejoin="round"/><circle cx="24.43" cy="27.04" r="1" fill="none" stroke="#1a1a1a" stroke-linecap="round" stroke-linejoin="round"/><circle cx="25.66" cy="31.31" r="1" fill="none" stroke="#1a1a1a" stroke-linecap="round" stroke-linejoin="round"/><circle cx="30.42" cy="31.29" r="1" fill="none" stroke="#1a1a1a" stroke-linecap="round" stroke-linejoin="round"/><circle cx="31.56" cy="27.23" r="1" fill="none" stroke="#1a1a1a" stroke-linecap="round" stroke-linejoin="round"/><circle cx="27.85" cy="23.66" r="1" fill="none" stroke="#1a1a1a" stroke-linecap="round" stroke-linejoin="round"/></svg>