<svg xmlns="http://www.w3.org/2000/svg" width="206" height="40" viewBox="0 0 206 40">
        <path fill="#3A3A3A" d="M54.5 27l3.77-15.4h3.87c2.64 0 4.1.75 5.02 1.67 1.12 1.1 1.58 2.66 1.58 4.56 0 2.22-.83 4.88-2.73 6.75-1.6 1.6-3.74 2.42-6.84 2.42h-4.66zm9.97-11.55c-.48-.48-1.25-.84-2.6-.84h-1.05L58.6 24h.99c1.56 0 3-.47 3.96-1.46a6.8 6.8 0 0 0 1.74-4.6c0-1.07-.29-1.95-.82-2.48zm15.12 6.78h-6.82c.04 1.47.7 2.37 1.95 2.37.86 0 1.46-.28 2.25-.86l1.39 2.2a6.11 6.11 0 0 1-3.79 1.28c-3.08 0-4.84-2-4.84-5.17 0-2.05.84-4.1 2.2-5.46a5.47 5.47 0 0 1 4-1.69c2.56 0 4.23 1.8 4.23 4.42 0 .8-.16 1.78-.57 2.9zm-5.48-3.99a4.66 4.66 0 0 0-1.06 1.94h3.96c.11-.42.13-.64.13-1.03 0-.93-.48-1.61-1.45-1.61a2.2 2.2 0 0 0-1.58.7zM80.53 27l3.9-15.88h3.27L83.83 27h-3.3zm5.99 0l2.92-11.9h3.28L89.82 27h-3.3zm3.1-13.05h3.4l.8-2.99h-3.4l-.8 3zm5.72 13.14l-.97-12h3.34l.14 7.86 3.8-7.85h3.48l-6.8 11.99h-3zm19.3-4.86h-6.83c.05 1.47.7 2.37 1.96 2.37.86 0 1.45-.28 2.25-.86l1.38 2.2a6.11 6.11 0 0 1-3.78 1.28c-3.08 0-4.84-2-4.84-5.17 0-2.05.83-4.1 2.2-5.46a5.47 5.47 0 0 1 4-1.69c2.55 0 4.22 1.8 4.22 4.42 0 .8-.15 1.78-.57 2.9zm-5.48-3.99a4.66 4.66 0 0 0-1.06 1.94h3.96c.1-.42.13-.64.13-1.03 0-.93-.48-1.61-1.45-1.61a2.2 2.2 0 0 0-1.58.7zm6.3 8.76h3.29l1.25-5.24c.62-2.55 1.8-3.45 3.67-3.45h.18l.93-3.41c-1.66-.15-2.69.68-3.6 2.07l.47-1.87h-3.28l-2.9 11.9zm13.25 0l3.76-15.4h3.55l1.5 6.42L142 11.6h3.9L142.13 27h-3.36l2.35-10.03-4.88 6.62h-.1l-1.73-6.56-2.38 9.97h-3.32zm19.23.11l-.88-12.01h3.34l.03 8 3.56-8h3.5l-6.3 12.08c-1.16 2.24-2.22 3.19-3.95 3.19a3.77 3.77 0 0 1-2.62-1.04l1.56-2.18c.4.33.7.49 1.03.49.31 0 .55-.18.73-.53zm21.52-.11l-1.87-4.88h-1.63L164.8 27h-3.34l3.76-15.4h4.43c2.09 0 3.54.48 4.48 1.43.77.8 1.2 1.85 1.2 3.17 0 1.6-.54 2.95-1.44 3.87-.44.44-1.14 1.21-2.81 1.67l2.1 5.26h-3.73zm-2.7-7.81h1.77c1.08 0 1.98-.24 2.62-.86.44-.46.7-1.1.7-1.87 0-.57-.15-.97-.5-1.3-.38-.4-1.03-.55-1.91-.55h-1.63l-1.06 4.58zm8.3 7.81L178 15.1h3.28l-2.9 11.9h-3.3zm3.1-13.05l.8-2.99h3.41l-.8 3h-3.4zM187.99 27l.29-1.19c-.9.86-1.72 1.37-2.82 1.37-1.94 0-3.6-1.65-3.6-4.8 0-2.24.8-4.51 2.22-5.92a5.08 5.08 0 0 1 3.54-1.56c1.36 0 2.33.68 2.94 1.74l1.3-5.52h3.3L191.25 27h-3.27zm-1.01-2.57c.55 0 1.1-.25 1.54-.69a5.64 5.64 0 0 0 1.36-3.8c0-1.45-.72-2.29-1.76-2.29-.46 0-1.05.22-1.52.68a5.48 5.48 0 0 0-1.38 3.79c0 1.43.61 2.3 1.76 2.3zm17.53-2.2h-6.82c.05 1.47.7 2.37 1.96 2.37.86 0 1.45-.28 2.25-.86l1.38 2.2a6.11 6.11 0 0 1-3.78 1.28c-3.08 0-4.84-2-4.84-5.17 0-2.05.83-4.1 2.2-5.46a5.47 5.47 0 0 1 4-1.69c2.55 0 4.22 1.8 4.22 4.42 0 .8-.15 1.78-.57 2.9zm-5.47-3.99a4.66 4.66 0 0 0-1.06 1.94h3.96c.1-.42.13-.64.13-1.03 0-.93-.48-1.61-1.45-1.61a2.2 2.2 0 0 0-1.59.7z" ></path>
        <path fill="#4990E2" d="M20 40a20 20 0 1 1 0-40 20 20 0 0 1 0 40zm0-2a18 18 0 1 0 0-36 18 18 0 0 0 0 36zm-4.47-26.95l.9 1.8a8 8 0 1 0 7.15 0l.9-1.8a10 10 0 1 1-8.95 0zM19 7h2v10h-2V7z" ></path>
</svg>
