<svg width="136px" height="50px" viewBox="0 0 136 50" version="1.1" xmlns="http://www.w3.org/2000/svg" xmlns:xlink="http://www.w3.org/1999/xlink">
	<g stroke="none" stroke-width="1" fill="none" fill-rule="evenodd">
		<g transform="translate(-640.000000, -418.000000)" fill-rule="nonzero">
			<path d="M774,442 L775,444 L775,448 L768,448 L764,444 L764,442 L774,442 Z M765,443 L765,443.585786 L768.414214,447 L774,447 L774,444.236068 L773.381966,443 L765,443 Z M770,451 L776,451 L776,455 L770,455 L770,451 Z M771,452 L771,454 L775,454 L775,452 L771,452 Z M744.173,432.0865 C744.26638,432.094337 744.362643,432.102564 744.461726,432.11119 C745.56586,432.207308 746.79529,432.332911 748.118941,432.491474 C751.903004,432.944773 755.688168,433.571691 759.228191,434.401384 C769.676096,436.850111 776,440.506118 776,446 L776,461 L761.911918,461 C760.015901,465.13106 755.842989,468 751,468 C746.157011,468 741.984099,465.13106 740.088085,461.000001 L680.911918,461 C679.015901,465.13106 674.842989,468 670,468 C665.157011,468 660.984099,465.13106 659.088085,461.000001 L646.585786,461 L640,454.414214 L640,445.585786 L643,442.585786 L643,430 L644,430 L647.900496,430.004963 L668.049388,427.990074 L668.280528,428.036302 L669,423 L673,423 L676.737623,429.727721 L688.006908,431.981578 L691,424 L695,424 L695,432 L721,432 L722,431 L724,432 L730,432 L714,424 L710,424 L710,418 L716,418 L744.173002,432.086501 Z M695,433.983034 L695,434 L688,434 L688,433.980648 L687.803884,433.980581 L667.950489,430.009902 L648,432 L645,432 L645,437 L652,437 L652,439 L648,443 L645,443 L645,443.414214 L642,446.414214 L642,453.585786 L647.414214,459 L658.378052,459 C658.131259,458.04114 658,457.035899 658,456 C658,449.372583 663.372583,444 670,444 C676.627417,444 682,449.372583 682,456 C682,457.035899 681.868741,458.04114 681.621948,459 L739.378052,459 C739.131259,458.04114 739,457.035899 739,456 C739,449.372583 744.372583,444 751,444 C757.627417,444 763,449.372583 763,456 C763,457.035899 762.868741,458.04114 762.621948,459 L774,459 L774,446 C774,441.868882 768.323904,438.587389 758.771809,436.348616 C755.311832,435.537684 751.596996,434.922415 747.881059,434.477276 C746.57971,434.321386 745.37164,434.197965 744.288274,434.103654 C743.909858,434.070712 743.574333,434.043776 743,434 L727.990098,433.995049 L728,434 L728,437 L722,437 L719,434 L719.008782,433.991218 L695,433.983034 Z M698,438.5 L698,440 L697,440 L697,439 L691,439 L691,438 L698,438 L698,438.5 Z M689,454 L728,454 L728,455 L688,455 L688,454.5 L688,451 L689,451 L689,454 Z M670,466 C675.522847,466 680,461.522847 680,456 C680,450.477153 675.522847,446 670,446 C664.477153,446 660,450.477153 660,456 C660,461.522847 664.477153,466 670,466 Z M670,464 C665.581722,464 662,460.418278 662,456 C662,451.581722 665.581722,448 670,448 C674.418278,448 678,451.581722 678,456 C678,460.418278 674.418278,464 670,464 Z M670,463 C673.865993,463 677,459.865993 677,456 C677,452.134007 673.865993,449 670,449 C666.134007,449 663,452.134007 663,456 C663,459.865993 666.134007,463 670,463 Z M670,458 C668.895431,458 668,457.104569 668,456 C668,454.895431 668.895431,454 670,454 C671.104569,454 672,454.895431 672,456 C672,457.104569 671.104569,458 670,458 Z M670,457 C670.552285,457 671,456.552285 671,456 C671,455.447715 670.552285,455 670,455 C669.447715,455 669,455.447715 669,456 C669,456.552285 669.447715,457 670,457 Z M751,466 C756.522847,466 761,461.522847 761,456 C761,450.477153 756.522847,446 751,446 C745.477153,446 741,450.477153 741,456 C741,461.522847 745.477153,466 751,466 Z M751,464 C746.581722,464 743,460.418278 743,456 C743,451.581722 746.581722,448 751,448 C755.418278,448 759,451.581722 759,456 C759,460.418278 755.418278,464 751,464 Z M751,463 C754.865993,463 758,459.865993 758,456 C758,452.134007 754.865993,449 751,449 C747.134007,449 744,452.134007 744,456 C744,459.865993 747.134007,463 751,463 Z M751,458 C749.895431,458 749,457.104569 749,456 C749,454.895431 749.895431,454 751,454 C752.104569,454 753,454.895431 753,456 C753,457.104569 752.104569,458 751,458 Z M751,457 C751.552285,457 752,456.552285 752,456 C752,455.447715 751.552285,455 751,455 C750.447715,455 750,455.447715 750,456 C750,456.552285 750.447715,457 751,457 Z M645,442 L647.585786,442 L651,438.585786 L651,438 L645,438 L645,442 Z M720.414214,434 L722.414214,436 L727,436 L727,434.618034 L722.197453,432.216761 L720.414214,434 Z M693,432 L693,426 L692.386001,426 L690.136001,432 L693,432 Z M671.823193,425 L670.734591,425 L670.247464,428.409885 L674.151338,429.19066 L671.823193,425 Z M715.527864,420 L712,420 L712,422 L714.472136,422 L732.472136,431 L737.527864,431 L715.527864,420 Z" id="Combined-Shape"></path>
		</g>
	</g>
</svg>