<!-- Generator: Adobe Illustrator 21.0.2, SVG Export Plug-In  -->
<svg version="1.1"
	 xmlns="http://www.w3.org/2000/svg" xmlns:xlink="http://www.w3.org/1999/xlink" xmlns:a="http://ns.adobe.com/AdobeSVGViewerExtensions/3.0/"
	 x="0px" y="0px" width="100.8px" height="36.8px" viewBox="0 0 100.8 36.8" style="enable-background:new 0 0 100.8 36.8;"
	 xml:space="preserve">
<style type="text/css">
	.st0{fill-rule:evenodd;clip-rule:evenodd;fill:#6D6E71;}
	.st1{fill:#6D6E71;}
</style>
<defs>
</defs>
<path class="st0" d="M38.3,4.3L38.3,4.3c-1.1,0.1-1.5,1-1.8,2l-0.7,2.2c-1,3.2,4.8,3.2,4.7,0.5l-0.2-2.9C40.2,5.1,39.3,4.3,38.3,4.3
	z"/>
<path class="st1" d="M11.7,31.9c-5.3,0-10.9-3.6-11.1-3.7L0,27.8v-8.1l0.2-0.3c0.3-0.5,1-1.9,1-3l0.3-7.6l14.7-0.7
	c6.3-0.3,10.4,0.3,14.7,1c2.4,0.4,4.9,0.8,8,1l23.8,0c1.4,0,2.8-0.2,4.2-0.4c1.5-0.2,3-0.4,4.6-0.4c0.2,0,9.7,1.1,17.4,3
	c8.2,2.1,11,5.4,11.3,6.8l0.7,11.8l-1,0.2c-1.9,0.4-3.5,0.7-7.7,0.7h-4.4v-2.4h4.4c3.2,0,4.8-0.2,6.2-0.5l0-0.6l-0.5-8.9
	c-0.2-0.4-2.4-3-9.6-4.8c-7.5-1.9-16.8-3-16.9-3c-1.3,0-2.6,0.2-4.1,0.4c-1.5,0.2-3,0.4-4.6,0.4H38.7c-3.2-0.3-5.8-0.7-8.2-1
	c-4.1-0.7-8.1-1.3-14.2-1L3.8,11.1l-0.2,5.4c0,1.6-0.8,3.2-1.2,3.9v6.1c1.5,0.9,5.8,3.1,9.6,3l3.6,0v2.4H12
	C11.9,31.9,11.8,31.9,11.7,31.9z M75.1,31.9H28.1v-2.4h47.1V31.9z"/>
<path class="st0" d="M2.4,15.3c0,1.2-0.1,2.4-0.1,3.1h1.5c1.9,0,4.5-1.5,4.6-3.1v-1.5H2.4L2.4,15.3L2.4,15.3z"/>
<path class="st0" d="M91,18.1l2.3,4.1c0.7-0.4,1.8-0.7,2.7-0.7h0h0h0h0h0h0c1.2,0,2.4,0,3.6,0l0-0.2c-0.1-0.4-1.2-2.3-2.4-3.2
	C95.1,18.1,93.1,18.1,91,18.1z"/>
<path class="st0" d="M29.6,31.9c-0.4,0.9-1,1.7-1.7,2.4h0c-1.6,1.6-3.7,2.5-6.1,2.5c-2.4,0-4.5-1-6.1-2.5c-0.7-0.7-1.3-1.5-1.7-2.4
	h-1.2h-1.2v-1.2v-3c0-2.8,1.1-5.3,3-7.2c1.8-1.8,4.4-3,7.2-3h0c2.8,0,5.3,1.1,7.2,3l0,0l0,0c1.8,1.8,3,4.4,3,7.2v3v1.2h-1.2H29.6
	L29.6,31.9z M81.4,22.2c-3.3,0-6,2.7-6,6s2.7,6,6,6s6-2.7,6-6S84.7,22.2,81.4,22.2L81.4,22.2z M21.8,22.2c-3.3,0-6,2.7-6,6
	s2.7,6,6,6c3.3,0,6-2.7,6-6S25.1,22.2,21.8,22.2L21.8,22.2z M81.4,17.5L81.4,17.5c2.8,0,5.3,1.1,7.2,3l0,0l0,0c1.8,1.8,3,4.4,3,7.2
	v3v1.2h-1.2h-1.2c-0.4,0.9-1,1.7-1.7,2.4c-1.6,1.6-3.7,2.5-6.1,2.5c-2.4,0-4.5-1-6.1-2.5h0c-0.7-0.7-1.3-1.5-1.7-2.4h-1.2h-1.2v-1.2
	v-3c0-2.8,1.1-5.3,3-7.2l0,0l0,0C76.1,18.7,78.6,17.5,81.4,17.5z"/>
<circle class="st0" cx="81.4" cy="28.2" r="2.2"/>
<rect x="37.1" y="14.8" class="st1" width="5.5" height="1.6"/>
<circle class="st0" cx="21.8" cy="28.2" r="2.2"/>
<polygon class="st0" points="35.3,24.7 35.3,26.7 68.7,26.7 "/>
<rect x="96.9" y="25.6" class="st1" width="2.7" height="1.6"/>
<path class="st0" d="M96.5,25.1h-1.2c-0.5,0-0.8,0.4-0.8,0.8v0.9c0,0.5,0.4,0.8,0.8,0.8h1.2c0.5,0,0.8-0.4,0.8-0.8v-0.9
	C97.4,25.4,97,25.1,96.5,25.1z"/>
<path class="st0" d="M1.9,27.6v3.4h8.7v-0.3C7,30.3,3.3,28.4,1.9,27.6z"/>
<path class="st0" d="M22.6,3.8L22.6,3.8c-1.1,0.1-1.5,1-1.8,2L20.1,8C20,8.1,20,8.3,20,8.5c1.6,0.1,3.2,0.2,4.7,0.4
	c0-0.1,0-0.3,0-0.4l-0.2-2.9C24.5,4.5,23.6,3.7,22.6,3.8z"/>
<path class="st0" d="M72,9.5c0,0-11.7-7.1-16.5-8.6c-0.6-0.2-1.2-0.3-1.8-0.5l0,0c-0.6-0.1-1.3-0.3-1.9-0.4l-0.4,2.3
	c6.1,1.5,8.4,5.3,13.7,8.5c0.8,0.5,4.8,0.2,5.7,0.7L72,9.5z"/>
<path class="st0" d="M60.6,10L60.6,10c-0.7,0.7-1,1.5-1.1,2.4c0,0.3,0.1,0.6,0.3,0.8c0.2,0.2,0.5,0.4,0.8,0.4h2.6
	c0.4,0,0.8-0.2,1-0.6c0.2-0.4,0.2-0.8,0-1.2c-0.5-0.8-1.3-1.6-2.5-2.1C61.4,9.6,60.9,9.7,60.6,10z"/>
<path class="st1" d="M62.7,14.8c-0.2,0-0.5-0.1-0.6-0.3l-1.5-2c-0.3-0.4-0.2-0.9,0.2-1.1c0.4-0.3,0.9-0.2,1.1,0.2l1.5,2
	c0.3,0.4,0.2,0.9-0.2,1.1C63.1,14.7,62.9,14.8,62.7,14.8z"/>
</svg>
