<!-- Generator: Adobe Illustrator 21.0.2, SVG Export Plug-In  -->
<svg version="1.1"
	 xmlns="http://www.w3.org/2000/svg" xmlns:xlink="http://www.w3.org/1999/xlink" xmlns:a="http://ns.adobe.com/AdobeSVGViewerExtensions/3.0/"
	 x="0px" y="0px" width="99.3px" height="35.7px" viewBox="0 0 99.3 35.7" style="enable-background:new 0 0 99.3 35.7;"
	 xml:space="preserve">
<style type="text/css">
	.st0{fill-rule:evenodd;clip-rule:evenodd;fill:#6D6E71;}
	.st1{fill:#6D6E71;}
</style>
<defs>
</defs>
<path class="st0" d="M3.4,13.6c0,1.2-0.1,2.4-0.1,3.1h1.5c1.9,0,4.5-1.5,4.6-3.1v-1.5H3.3L3.4,13.6L3.4,13.6z"/>
<path class="st0" d="M2.6,27v3.4h8.7V30C7.7,29.7,4.1,27.8,2.6,27z"/>
<path class="st0" d="M22,8.7c9.3-3.9,10.9-4.9,21.2-5.1c7.4-0.1,12.4,2.5,17.8,5.7L61,9.3l0,0c-0.9,0.8-1.3,1.9-1.4,3.1l-34.4-1.3
	C25.2,11.2,23,10.9,22,8.7z"/>
<path class="st0" d="M61.8,10.2L61.8,10.2c-0.7,0.7-1,1.5-1.1,2.4c0,0.3,0.1,0.6,0.3,0.8c0.2,0.2,0.5,0.4,0.8,0.4h2.6
	c0.4,0,0.8-0.2,1-0.6c0.2-0.4,0.2-0.8,0-1.2c-0.5-0.8-1.3-1.6-2.5-2.1C62.6,9.7,62.1,9.8,61.8,10.2z"/>
<path class="st1" d="M63.9,14.9c-0.2,0-0.5-0.1-0.6-0.3l-1.5-2c-0.3-0.4-0.2-0.9,0.2-1.1c0.4-0.3,0.9-0.2,1.1,0.2l1.5,2
	c0.3,0.4,0.2,0.9-0.2,1.1C64.3,14.9,64.1,14.9,63.9,14.9z"/>
<path class="st1" d="M11.7,30.9c-5.3,0-10.9-3.6-11.1-3.7L0,26.8v-7.4L0.4,19c0.5-0.5,1.6-1.9,1.6-2.8l0.3-7.6l8-0.8
	C23.9,1.4,29.2,0.1,42.9,0c9.3,0,15,3.3,21.6,7.1c1.5,0.9,3.1,1.8,4.8,2.8c1.8,0.1,10.8,0.4,17.9,2.2c6.6,1.7,10.8,3.9,11.3,6
	l0.7,11.8l-1,0.2c-1.9,0.4-3.5,0.7-7.7,0.7h-0.7v-2.4h0.7c3.2,0,4.8-0.2,6.2-0.5l0-0.6l-0.5-8.9c-0.2-0.3-2.4-2.2-9.6-4.1
	c-7.4-1.9-17.5-2.2-17.6-2.2l-0.5-0.1c-1.8-1-3.5-2-5.1-2.9C56.8,5.3,51.6,2.3,43,2.4c-13.4,0.1-18.5,1.3-31.9,7.7l-0.4,0.1
	l-6.1,0.6l-0.2,5.4c0,1.7-1.3,3.3-1.9,4.1v5.2c1.5,0.9,5.8,3.1,9.6,3l2,0v2.4h-2C11.9,30.9,11.8,30.9,11.7,30.9z M73.3,30.9H27.9
	v-2.4h45.4V30.9z"/>
<g>
	<path class="st0" d="M81.6,16.5L81.6,16.5c2.8,0,5.3,1.1,7.2,3l0,0l0,0c1.8,1.8,3,4.4,3,7.2v3v1.2h-1.2h-2.6c0.6-1.1,1-2.4,1-3.7
		c0-4.1-3.3-7.4-7.4-7.4c-4.1,0-7.4,3.3-7.4,7.4c0,1.3,0.4,2.6,1,3.7h-2.6h-1.2v-1.2v-3c0-2.8,1.1-5.3,3-7.2l0,0l0,0
		C76.2,17.6,78.8,16.5,81.6,16.5z"/>
	<path class="st0" d="M75.5,21.1c1.6-1.6,3.7-2.5,6.1-2.5c2.4,0,4.5,1,6.1,2.5l0,0c1.6,1.6,2.5,3.7,2.5,6.1c0,2.4-1,4.5-2.5,6.1h0
		c-1.6,1.6-3.7,2.5-6.1,2.5c-2.4,0-4.5-1-6.1-2.5c-1.6-1.6-2.5-3.7-2.5-6.1C73,24.8,73.9,22.6,75.5,21.1L75.5,21.1L75.5,21.1z
		 M81.6,21.1c-3.3,0-6,2.7-6,6s2.7,6,6,6c3.3,0,6-2.7,6-6S84.9,21.1,81.6,21.1z"/>
	<circle class="st0" cx="81.6" cy="27.2" r="2.2"/>
</g>
<polygon class="st0" points="34.7,23.8 34.7,25.8 68.4,25.8 "/>
<path class="st0" d="M89.4,16.5l2.3,4.1c0.7-0.4,1.8-0.7,2.7-0.7h0h0h0h0h0h0c1.2,0,2.4,0,3.6,0l0-0.2c-0.1-0.4-1.2-2.3-2.4-3.2
	C93.5,16.5,91.4,16.5,89.4,16.5z"/>
<rect x="95.3" y="23.9" class="st1" width="2.7" height="1.6"/>
<path class="st0" d="M94.8,23.4h-1.2c-0.5,0-0.8,0.4-0.8,0.8v0.9c0,0.5,0.4,0.8,0.8,0.8h1.2c0.5,0,0.8-0.4,0.8-0.8v-0.9
	C95.7,23.8,95.3,23.4,94.8,23.4z"/>
<rect x="36.3" y="14" class="st1" width="5.5" height="1.6"/>
<g>
	<path class="st0" d="M20.9,16.5L20.9,16.5c2.8,0,5.3,1.1,7.2,3l0,0l0,0c1.8,1.8,3,4.4,3,7.2v3v1.2h-1.2h-2.6c0.6-1.1,1-2.4,1-3.7
		c0-4.1-3.3-7.4-7.4-7.4c-4.1,0-7.4,3.3-7.4,7.4c0,1.3,0.4,2.6,1,3.7H12h-1.2v-1.2v-3c0-2.8,1.1-5.3,3-7.2l0,0l0,0
		C15.6,17.6,18.1,16.5,20.9,16.5z"/>
	<path class="st0" d="M14.9,21.1c1.6-1.6,3.7-2.5,6.1-2.5c2.4,0,4.5,1,6.1,2.5l0,0c1.6,1.6,2.5,3.7,2.5,6.1c0,2.4-1,4.5-2.5,6.1h0
		c-1.6,1.6-3.7,2.5-6.1,2.5c-2.4,0-4.5-1-6.1-2.5c-1.6-1.6-2.5-3.7-2.5-6.1C12.3,24.8,13.3,22.6,14.9,21.1L14.9,21.1L14.9,21.1z
		 M20.9,21.1c-3.3,0-6,2.7-6,6s2.7,6,6,6c3.3,0,6-2.7,6-6S24.3,21.1,20.9,21.1z"/>
	<circle class="st0" cx="20.9" cy="27.2" r="2.2"/>
</g>
</svg>
