<svg width="131px" height="47px" viewBox="0 0 131 47" version="1.1" xmlns="http://www.w3.org/2000/svg" xmlns:xlink="http://www.w3.org/1999/xlink">
	<g stroke="none" stroke-width="1" fill="none" fill-rule="evenodd">
		<g transform="translate(-167.000000, -421.000000)">
			<path d="M172,436 L179,436 L179,438 L175,442 L172,442 L172,443.414214 L169,446.414214 L169,453.585786 L174.414214,459 L182.378052,459 C182.131259,458.04114 182,457.035899 182,456 C182,449.372583 187.372583,444 194,444 C200.627417,444 206,449.372583 206,456 C206,457.035899 205.868741,458.04114 205.621948,459 L264.378052,459 C264.131259,458.04114 264,457.035899 264,456 C264,449.372583 269.372583,444 276,444 C282.627417,444 288,449.372583 288,456 C288,457.035899 287.868741,458.04114 287.621948,459 L296,459 L296,455 L291,455 L291,451 L296,451 L296,448 L291,448 L287,444 L287,442 L292.981747,442 C290.717052,440.092986 287.24172,438.636277 282.77387,437.599097 C279.765767,436.900788 276.532583,436.450451 273.29785,436.200144 C272.164655,436.112457 271.112837,436.056109 270.16998,436.024841 C269.841012,436.013932 269.549532,436.006932 269.298979,436.003054 C269.199935,436.001521 266.021586,436.000503 259.763932,436 L233.763932,423 L202.236068,423 L180.236068,434 L172,434 L172,436 Z M183.088084,461 L173.585786,461 L167,454.414214 L167,445.585786 L170,442.585786 L170,432 L179.763932,432 L201.763932,421 L234.236068,421 L260.236068,434 L269,434 C269.592069,434.007351 269.895316,434.014633 270.23627,434.02594 C271.207475,434.058148 272.28847,434.116059 273.45215,434.206106 C276.779917,434.463611 280.109233,434.927337 283.22613,435.650903 C292.382272,437.776436 298,441.688782 298,448 L298,461 L286.911914,461 C285.015901,465.13106 280.842989,468 276,468 C271.157011,468 266.984099,465.13106 265.088084,461 L204.911918,461 C203.015901,465.13106 198.842989,468 194,468 C189.157011,468 184.984099,465.13106 183.088084,461 Z M294.020143,443 L288,443 L288,443.585786 L291.414214,447 L295.934071,447 C295.734128,445.512864 295.082421,444.181468 294.020143,443 Z M214,454 L253,454 L253,455 L213,455 L213,454.5 L213,451 L214,451 L214,454 Z M222,439.5 L222,441 L221,441 L221,440 L215,440 L215,439 L222,439 L222,439.5 Z M196,432 L210,425 L234,425 L248,432 L244,436 L200,436 L196,432 Z M200.414214,435 L243.585786,435 L246.311835,432.273951 L233.763932,426 L210.236068,426 L197.688165,432.273951 L200.414214,435 Z M292,454 L296,454 L296,452 L292,452 L292,454 Z M194,466 C199.522847,466 204,461.522847 204,456 C204,450.477153 199.522847,446 194,446 C188.477153,446 184,450.477153 184,456 C184,461.522847 188.477153,466 194,466 Z M276,466 C281.522847,466 286,461.522847 286,456 C286,450.477153 281.522847,446 276,446 C270.477153,446 266,450.477153 266,456 C266,461.522847 270.477153,466 276,466 Z M194,464 C189.581722,464 186,460.418278 186,456 C186,451.581722 189.581722,448 194,448 C198.418278,448 202,451.581722 202,456 C202,460.418278 198.418278,464 194,464 Z M194,463 C197.865993,463 201,459.865993 201,456 C201,452.134007 197.865993,449 194,449 C190.134007,449 187,452.134007 187,456 C187,459.865993 190.134007,463 194,463 Z M276,464 C271.581722,464 268,460.418278 268,456 C268,451.581722 271.581722,448 276,448 C280.418278,448 284,451.581722 284,456 C284,460.418278 280.418278,464 276,464 Z M276,463 C279.865993,463 283,459.865993 283,456 C283,452.134007 279.865993,449 276,449 C272.134007,449 269,452.134007 269,456 C269,459.865993 272.134007,463 276,463 Z M194,458 C192.895431,458 192,457.104569 192,456 C192,454.895431 192.895431,454 194,454 C195.104569,454 196,454.895431 196,456 C196,457.104569 195.104569,458 194,458 Z M194,457 C194.552285,457 195,456.552285 195,456 C195,455.447715 194.552285,455 194,455 C193.447715,455 193,455.447715 193,456 C193,456.552285 193.447715,457 194,457 Z M276,458 C274.895431,458 274,457.104569 274,456 C274,454.895431 274.895431,454 276,454 C277.104569,454 278,454.895431 278,456 C278,457.104569 277.104569,458 276,458 Z M276,457 C276.552285,457 277,456.552285 277,456 C277,455.447715 276.552285,455 276,455 C275.447715,455 275,455.447715 275,456 C275,456.552285 275.447715,457 276,457 Z M172,441 L174.585786,441 L178,437.585786 L178,437 L172,437 L172,441 Z M250,433 L256,436 L256,439 L250,439 L247,436 L250,433 Z M248.414214,436 L250.414214,438 L255,438 L255,436.618034 L250.197453,434.216761 L248.414214,436 Z" id="Combined-Shape"></path>
		</g>
	</g>
</svg>