<svg width="122px" height="48px" viewBox="0 0 122 48" version="1.1" xmlns="http://www.w3.org/2000/svg" xmlns:xlink="http://www.w3.org/1999/xlink">
	<g stroke="none" stroke-width="1" fill-rule="evenodd">
		<g transform="translate(-168.000000, -560.000000)" fill-rule="nonzero">
			<path d="M175.801408,575 L174,576.473879 L174,578 L178,578 L178,580 L174,584 L174,584.414214 L170,588.414214 L170,594.585786 L174.414214,599 L176.378052,599 C176.131259,598.04114 176,597.035899 176,596 C176,589.372583 181.372583,584 188,584 C194.627417,584 200,589.372583 200,596 C200,597.035899 199.868741,598.04114 199.621948,599 L253.378052,599 C253.131259,598.04114 253,597.035899 253,596 C253,589.372583 258.372583,584 265,584 C271.627417,584 277,589.372583 277,596 C277,597.035899 276.868741,598.04114 276.621948,599 L288,599 L288,596 L281,596 L281,592 L288,592 L288,589 L282,589 L278,585 L278,583 L284.333348,583 C282.344876,581.570994 279.597117,580.348166 276.212652,579.332826 C273.527544,578.527294 270.641751,577.915506 267.754688,577.472823 C266.743404,577.317759 265.804792,577.195018 264.963476,577.101271 C264.461454,577.045331 264.105534,577.011638 264,577 L260.763932,577 L230.763932,562 L194,562 C192.996861,562 191.852462,562.08477 190.595108,562.244434 C189.247061,562.415615 187.808929,562.667409 186.33101,562.97855 C185.30665,563.194205 184.324171,563.425376 183.419258,563.656418 C183.272323,563.693933 183.132422,563.730182 183,563.764967 L183,564.585786 L185.414214,567 L190,567 L182,575 L175.801408,575 Z M199,600.803421 C197.147484,605.039765 192.919442,608 188,608 C183.157011,608 178.984099,605.13106 177.088084,601 L173.585786,601 L168,595.414214 L168,587.585786 L172,583.585786 L172,575.526121 L182.511549,566.925763 L181,565.414214 L181,562.245699 L181.725279,562.038476 C181.784005,562.021697 181.89311,561.991249 182.048222,561.949083 C182.304545,561.879403 182.598088,561.801919 182.924492,561.718582 C183.855516,561.480874 184.865225,561.243295 185.91899,561.02145 C187.446473,560.699875 188.936581,560.43898 190.343163,560.260367 C191.678402,560.090813 192.904373,560 194,560 L231.236068,560 L261.236557,575.000245 L264.079745,575.003185 C264.609303,575.051778 264.8803,575.079625 265.184962,575.113573 C266.05263,575.210256 267.018315,575.336538 268.057812,575.495927 C271.030124,575.951682 274.003706,576.582081 276.787348,577.417174 C284.985817,579.876715 290,583.58721 290,589 L290,601 L276,601 L276,600.803421 C274.147484,605.039765 269.919442,608 265,608 C260.157011,608 255.984099,605.13106 254.088085,601.000001 L199,601 L199,600.803421 Z M217,580.5 L217,582 L216,582 L216,581 L210,581 L210,580 L217,580 L217,580.5 Z M174,579 L174,582.585786 L177,579.585786 L177,579 L174,579 Z M206,594 L233,594 L233,595 L205,595 L205,594.5 L205,591 L206,591 L206,594 Z M188,606 C193.522847,606 198,601.522847 198,596 C198,590.477153 193.522847,586 188,586 C182.477153,586 178,590.477153 178,596 C178,601.522847 182.477153,606 188,606 Z M188,604 C183.581722,604 180,600.418278 180,596 C180,591.581722 183.581722,588 188,588 C192.418278,588 196,591.581722 196,596 C196,600.418278 192.418278,604 188,604 Z M188,603 C191.865993,603 195,599.865993 195,596 C195,592.134007 191.865993,589 188,589 C184.134007,589 181,592.134007 181,596 C181,599.865993 184.134007,603 188,603 Z M188,598 C186.895431,598 186,597.104569 186,596 C186,594.895431 186.895431,594 188,594 C189.104569,594 190,594.895431 190,596 C190,597.104569 189.104569,598 188,598 Z M188,597 C188.552285,597 189,596.552285 189,596 C189,595.447715 188.552285,595 188,595 C187.447715,595 187,595.447715 187,596 C187,596.552285 187.447715,597 188,597 Z M265,606 C270.522847,606 275,601.522847 275,596 C275,590.477153 270.522847,586 265,586 C259.477153,586 255,590.477153 255,596 C255,601.522847 259.477153,606 265,606 Z M265,604 C260.581722,604 257,600.418278 257,596 C257,591.581722 260.581722,588 265,588 C269.418278,588 273,591.581722 273,596 C273,600.418278 269.418278,604 265,604 Z M265,603 C268.865993,603 272,599.865993 272,596 C272,592.134007 268.865993,589 265,589 C261.134007,589 258,592.134007 258,596 C258,599.865993 261.134007,603 265,603 Z M265,598 C263.895431,598 263,597.104569 263,596 C263,594.895431 263.895431,594 265,594 C266.104569,594 267,594.895431 267,596 C267,597.104569 266.104569,598 265,598 Z M265,597 C265.552285,597 266,596.552285 266,596 C266,595.447715 265.552285,595 265,595 C264.447715,595 264,595.447715 264,596 C264,596.552285 264.447715,597 265,597 Z M245,572 L251,575 L251,578 L245,578 L242,575 L245,572 Z M243.414214,575 L245.414214,577 L250,577 L250,575.618034 L245.197453,573.216761 L243.414214,575 Z M282,593 L282,595 L288,595 L288,593 L282,593 Z M279,584 L279,584.585786 L282.414214,588 L288,588 L288,587.236068 L286.381966,584 L279,584 Z M187,575 L198,564 L229,564 L243,571 L239,575 L187,575 Z M195,574 L238.585786,574 L241.311835,571.273951 L228.763932,565 L198.414214,565 L189.414214,574 L195,574 Z M184.350781,568 L176.850781,574 L181.585786,574 L187.585786,568 L184.350781,568 Z" id="Combined-Shape"></path>
		</g>
	</g>
</svg>