<!-- Generator: Adobe Illustrator 21.0.2, SVG Export Plug-In  -->
<svg version="1.1"
	 xmlns="http://www.w3.org/2000/svg" xmlns:xlink="http://www.w3.org/1999/xlink" xmlns:a="http://ns.adobe.com/AdobeSVGViewerExtensions/3.0/"
	 x="0px" y="0px" width="98.2px" height="40.7px" viewBox="0 0 98.2 40.7" style="enable-background:new 0 0 98.2 40.7;"
	 xml:space="preserve">
<path class="st0" d="M52.6,4.1c2.3,0,4.7,0.6,6.9,1.3c5.6,1.7,13.6,7.3,18.4,10l-3.5,1.3c-0.3,0.1-0.6,0.2-0.9,0.1l-7.7-0.3
	c-0.4-0.6-0.9-1.3-1.2-1.7c-0.7-1.2-1.8-2.1-3.1-2.6c-0.8-0.3-1.8-0.1-2.4,0.5l0,0c-0.9,0.9-1.4,1.9-1.4,3.1c0,0.1,0,0.2,0,0.3
	l-36.5-1.2l-10.7-2.3l3.7-7.6c4-0.7,8.1-1.1,11.8-1.1C35.6,4.1,43,4,52.6,4.1z"/>
<path class="st1" d="M7.6,35.8c-5.6,0-7.4-4.1-7.5-4.3L0,31.1v-7.4l0.2-0.3c0.3-0.5,1-1.9,1-3l0.4-5.5l4.9-9.4L6.1,2.8l1.1-0.2
	C10.6,1.8,19.1,0.2,26,0.2c2.2,0,4.9,0,7.8-0.1c6.5-0.1,13.8-0.2,19,0.1c9.4,0.5,17.4,5.5,25.1,10.3c1.3,0.8,2.6,1.6,3.8,2.4
	c0.7,0.2,1.5,0.4,2.4,0.6c5.8,1.5,13,3.3,14.1,8l0,0.1l-0.3,10.6l0.2,2.6l-1.6,0.4c-1.5,0.4-2.5,0.6-6.4,0.6h-5.2v-2.4h5.2
	c3.2,0,4.3-0.2,5.4-0.4l0-0.7l0.3-10.4c-0.9-3.2-7.7-5-12.3-6.1c-0.9-0.2-1.8-0.5-2.6-0.7L80.6,15c-1.3-0.8-2.7-1.6-4-2.5
	c-7.5-4.7-15.2-9.5-24-10c-5-0.3-12.4-0.2-18.8-0.1c-2.9,0-5.6,0.1-7.9,0.1c-6,0-13.4,1.3-17.2,2.1L9,5.9l-5.2,9.8l-0.2,4.7
	c0,1.6-0.8,3.2-1.2,3.9v6.5c0.4,0.6,1.9,2.7,5.5,2.6l1.6,0v2.4H7.9C7.8,35.8,7.7,35.8,7.6,35.8z M71.2,35.8H24.3v-2.4h46.9V35.8z"/>
<path class="st0" d="M78,25.9c-1.7,0-3.3,0.7-4.4,1.8c-1.1,1.1-1.8,2.7-1.8,4.4c0,1.7,0.7,3.3,1.8,4.4l0,0c1.1,1.1,2.7,1.8,4.4,1.8
	c1.7,0,3.3-0.7,4.4-1.8c1.1-1.1,1.8-2.7,1.8-4.4c0-1.7-0.7-3.3-1.8-4.4l0,0C81.3,26.6,79.7,25.9,78,25.9L78,25.9z M72,26
	c1.6-1.6,3.7-2.5,6.1-2.5c2.4,0,4.5,1,6.1,2.5v0c1.6,1.6,2.5,3.7,2.5,6.1c0,2.4-1,4.5-2.5,6.1c-1.6,1.6-3.7,2.5-6.1,2.5
	c-2.4,0-4.5-1-6.1-2.5h0c-1.6-1.6-2.5-3.7-2.5-6.1C69.4,29.7,70.4,27.6,72,26L72,26z"/>
<circle class="st0" cx="78" cy="32.1" r="2.2"/>
<path class="st0" d="M78,21.4L78,21.4c2.8,0,5.3,1.1,7.2,3l0,0l0,0c1.8,1.8,3,4.4,3,7.2v3v1.2H87h-2.6c0.6-1.1,1-2.4,1-3.7
	c0-2-0.8-3.8-2.1-5.2v0c-1.3-1.3-3.2-2.1-5.2-2.1c-2,0-3.8,0.8-5.2,2.1l0,0c-1.3,1.3-2.1,3.2-2.1,5.2c0,1.4,0.4,2.6,1,3.7h-2.6h-1.2
	v-1.2v-3c0-2.8,1.1-5.3,3-7.2l0,0l0,0C72.7,22.6,75.3,21.4,78,21.4L78,21.4z M16.9,21.4L16.9,21.4c2.8,0,5.3,1.1,7.2,3l0,0l0,0
	c1.8,1.8,3,4.4,3,7.2v3v1.2h-1.2h-2c0.6-1.1,0.9-2.4,0.9-3.7c0-2.2-0.9-4.1-2.3-5.5v0c-1.4-1.4-3.4-2.3-5.5-2.3
	c-2.2,0-4.1,0.9-5.5,2.3l0,0C9.9,28,9,29.9,9,32.1c0,1.3,0.3,2.6,0.9,3.7h-2H6.7v-1.2v-3c0-2.8,1.1-5.3,3-7.2
	C11.5,22.6,14.1,21.4,16.9,21.4z"/>
<path class="st0" d="M10.8,26c1.6-1.6,3.7-2.5,6.1-2.5c2.4,0,4.5,1,6.1,2.5v0c1.6,1.6,2.5,3.7,2.5,6.1c0,2.4-1,4.5-2.5,6.1
	c-1.6,1.6-3.7,2.5-6.1,2.5c-2.4,0-4.5-1-6.1-2.5h0c-1.6-1.6-2.5-3.7-2.5-6.1C8.3,29.7,9.2,27.6,10.8,26L10.8,26L10.8,26z M16.9,26.1
	c-3.3,0-6,2.7-6,6s2.7,6,6,6s6-2.7,6-6S20.2,26.1,16.9,26.1z"/>
<circle class="st0" cx="16.9" cy="32.1" r="2.2"/>
<path class="st0" d="M85.4,18.6l2.2,4.9c0.8-0.4,1.9-0.5,2.7-0.5l0,0l0,0l0,0l0,0l0,0l0,0c0.8,0.1,3.8-0.1,6.7,0.2L97,21.8
	c-0.1-0.5-0.4-0.9-0.7-1.4L85.4,18.6z"/>
<rect x="44.4" y="18" class="st1" width="3.5" height="1.6"/>
<rect x="24.3" y="17.2" class="st1" width="3.5" height="1.6"/>
<path class="st0" d="M59.9,13.7L59.9,13.7c-0.7,0.7-1,1.5-1.1,2.4c0,0.3,0.1,0.6,0.3,0.8c0.2,0.2,0.5,0.4,0.8,0.4h2.6
	c0.4,0,0.8-0.2,1-0.6c0.2-0.4,0.2-0.8,0-1.2c-0.5-0.8-1.3-1.6-2.5-2.1C60.7,13.3,60.2,13.4,59.9,13.7z"/>
<path class="st1" d="M62.1,18.5c-0.2,0-0.5-0.1-0.6-0.3l-1.5-2c-0.3-0.4-0.2-0.9,0.2-1.1c0.4-0.3,0.9-0.2,1.1,0.2l1.5,2
	c0.3,0.4,0.2,0.9-0.2,1.1C62.4,18.5,62.2,18.5,62.1,18.5z"/>
<path class="st0" d="M2.3,21.3h1.1c2.4,0,5.6-1.8,5.7-3.9v-1.9H2.6C2.5,17.4,2.4,19.8,2.3,21.3z"/>
<rect x="93.7" y="29.5" class="st1" width="2.7" height="1.6"/>
<path class="st0" d="M93.3,29h-1.2c-0.5,0-0.8,0.4-0.8,0.8v0.9c0,0.5,0.4,0.8,0.8,0.8h1.2c0.5,0,0.8-0.4,0.8-0.8v-0.9
	C94.1,29.4,93.8,29,93.3,29z"/>
<polygon class="st0" points="29.1,28.6 29.1,30.7 66.5,30.7 "/>
</svg>
