<svg xmlns="http://www.w3.org/2000/svg" viewBox="0 0 138 50"><path fill="#000000" d="M103 36v5H42v-5a14 14 0 1 0-28 0v5H9.75L.98 36.62v-9.03l3-3v-8l2.36-2.36h40.4l4-14L88.37.3c5.75 2.2 11.82 6.91 18.25 14.1 19.81.1 29.39 1.86 29.39 6.21v8.94h2v8.86L135.41 41H131v-5a14 14 0 0 0-28 0zM5.4 26l-2.42 2.41v6.97L10.22 39H12v-3a16 16 0 1 1 32 0v3h57v-3a16 16 0 1 1 32 0v3h1.59l1.41-1.41v-6.04h-2V20.61c0-2.43-9.5-4.15-27.84-4.22h-.45l-.3-.34C99.14 8.98 93.26 4.37 87.81 2.23H52.25l-4 14H7.17L5.98 17.4V18H13v4l-4 4H5.4zM83 19v2h-1v-1h-6v-1h7zm-23 0v2h-1v-1h-6v-1h7zM48 35h51v1H47v-4h1v3zm54-18v1h-6l-1-1H52l4-13h32c10 5 16 13 16 13h-2zm-8-1l-1-1 3-3 3.96 1.98a51.24 51.24 0 0 0-5.32-4.65A45.35 45.35 0 0 0 87.76 5H56.74l-3.39 11H94zM28 50a12 12 0 1 1 0-24 12 12 0 0 1 0 24zm0-2a10 10 0 1 0 0-20 10 10 0 0 0 0 20zm0-2a8 8 0 1 1 0-16 8 8 0 0 1 0 16zm0-1a7 7 0 1 0 0-14 7 7 0 0 0 0 14zm0-5a2 2 0 1 1 0-4 2 2 0 0 1 0 4zm0-1a1 1 0 1 0 0-2 1 1 0 0 0 0 2zm89 11a12 12 0 1 1 0-24 12 12 0 0 1 0 24zm0-2a10 10 0 1 0 0-20 10 10 0 0 0 0 20zm0-2a8 8 0 1 1 0-16 8 8 0 0 1 0 16zm0-1a7 7 0 1 0 0-14 7 7 0 0 0 0 14zm0-5a2 2 0 1 1 0-4 2 2 0 0 1 0 4zm0-1a1 1 0 1 0 0-2 1 1 0 0 0 0 2zM94.41 15l2 2H101v-1.38l-4.8-2.4L94.4 15zM6 25h2.59L12 21.59V19H6v6z"/></svg>