<!-- Generator: Adobe Illustrator 21.0.2, SVG Export Plug-In  -->
<svg version="1.1"
	 xmlns="http://www.w3.org/2000/svg" xmlns:xlink="http://www.w3.org/1999/xlink" xmlns:a="http://ns.adobe.com/AdobeSVGViewerExtensions/3.0/"
	 x="0px" y="0px" width="127.3px" height="45.2px" viewBox="0 0 127.3 45.2" style="enable-background:new 0 0 127.3 45.2;"
	 xml:space="preserve">
<path class="st0" d="M49.8,3.6c9.6,0,16.9,0,26.6,0C81,4,84.6,6.3,88.1,9c-0.4,0.1-0.7,0.3-1,0.6l0,0c-0.9,0.9-1.4,3.4-1.4,4.7
	c-12.9,0-24.2,0-37.5,0.1L49.8,3.6z"/>
<path class="st1" d="M12.5,37.8c-5.2,0-11.4-2.4-11.7-2.5L0,35V25l0.4-0.4c0.5-0.5,1.6-1.9,1.6-2.8l0.1-2c0.1-1.4,0.2-2.9,0.2-4.3
	c0-1,1.5-2.7,3-3.3l0.4-0.1h36l1.8-9.3C43.9,1.2,45.3,0,47,0l29.5,0c6.8,0.6,10.9,3.9,15.3,7.5c2,1.6,4.1,3.3,6.5,4.8
	c1.1,0.1,2.6,0.2,4.5,0.2c10.9,0.4,20.8,1.2,21.9,6l1.1,8.7c0.6,0.4,1.6,1.3,1.6,2.6v3.7c0,1-0.1,2.1-1,2.7
	c-1.7,1.1-3.7,1.5-7.7,1.5h-2.2v-2.4h2.2c3.4,0,5.1-0.3,6.4-1c0,0,0-0.2,0-0.7v-3.7c0-0.3-0.6-0.7-0.8-0.8l-0.6-0.3l-1.2-9.8
	c-0.8-3.3-13.5-3.8-19.6-4.1c-2-0.1-3.8-0.1-4.9-0.3l-0.5-0.2c-2.7-1.6-4.9-3.4-7-5.2c-4.2-3.4-7.9-6.4-13.9-6.9L47,2.4
	c-0.6,0-1.1,0.4-1.2,1l-2.2,11.2H5.9c-0.6,0.3-1.2,1.1-1.3,1.3c0,1.1-0.1,2.7-0.2,4.1l-0.1,1.9c0,1.7-1.3,3.3-1.9,4.1v7.4
	c1.8,0.6,6.7,2.1,10.5,2.1h3.2v2.4h-3.2C12.7,37.8,12.6,37.8,12.5,37.8z M99.6,37.8h-67v-2.4h67V37.8z"/>
<polygon class="st0" points="124.6,28.9 123.7,19.8 121.1,19.8 121.1,28.9 "/>
<rect x="70.3" y="16.5" class="st1" width="5.5" height="1.6"/>
<path class="st0" d="M3.1,21.7h1.1c2.4,0,5.6-1.8,5.7-3.9v-1.9H3.4C3.4,17.9,3.2,20.2,3.1,21.7z"/>
<path class="st0" d="M88,10.5L88,10.5c-0.7,0.7-1,3.1-1.1,4c0,0.3,0.1,0.6,0.3,0.8c0.2,0.2,0.5,0.4,0.8,0.4h2.6
	c2.8,0-0.5-5.1-1.5-5.4C88.8,10,88.3,10.1,88,10.5z"/>
<polygon class="st0" points="42.5,30.1 42.5,32.1 91.1,32.1 "/>
<g>
	<path class="st1" d="M94.5,36.6h-1.6v-3.5c0-8.3,6.8-15.1,15.1-15.1s15.1,6.8,15.1,15.1v3.3h-1.6v-3.3c0-7.4-6.1-13.5-13.5-13.5
		c-7.4,0-13.5,6.1-13.5,13.5V36.6z"/>
	<circle class="st0" cx="108" cy="35.2" r="2.6"/>
	<path class="st1" d="M39.4,36.6h-1.6v-3.5c0-7.4-6.1-13.5-13.5-13.5c-7.4,0-13.5,6.1-13.5,13.5v3.2H9.2v-3.2
		C9.2,24.8,16,18,24.3,18s15.1,6.8,15.1,15.1V36.6z"/>
	<path class="st0" d="M108,21.6L108,21.6c3.2,0,6,1.3,8.1,3.4l0,0c2.1,2.1,3.4,5,3.4,8.1v3.5v1.2h-1.2h-0.6c-0.5,2-1.7,3.8-3.2,5.1
		c-1.8,1.5-4,2.4-6.5,2.4c-2.5,0-4.8-0.9-6.5-2.4l0,0c-1.5-1.3-2.7-3.1-3.2-5.1h-0.6h-1.2v-1.2v-3.5c0-3.2,1.3-6,3.4-8.1h0
		C101.9,22.9,104.8,21.6,108,21.6L108,21.6z M108,28.4c-3.7,0-6.7,3-6.7,6.7c0,3.7,3,6.7,6.7,6.7c3.7,0,6.7-3,6.7-6.7
		C114.7,31.5,111.7,28.4,108,28.4L108,28.4z M24.3,28.4c-3.7,0-6.7,3-6.7,6.7c0,3.7,3,6.7,6.7,6.7c3.7,0,6.7-3,6.7-6.7
		C31.1,31.5,28.1,28.4,24.3,28.4L24.3,28.4z M24.3,21.6L24.3,21.6c3.2,0,6,1.3,8.1,3.4l0,0c2.1,2.1,3.4,5,3.4,8.1v3.5v1.2h-1.2h-0.6
		c-0.5,2-1.7,3.8-3.2,5.1c-1.8,1.5-4,2.4-6.5,2.4c-2.5,0-4.8-0.9-6.5-2.4c-1.5-1.3-2.7-3.1-3.2-5.1H14h-1.2v-1.2v-3.5
		c0-3.2,1.3-6,3.4-8.1C18.3,22.9,21.2,21.6,24.3,21.6z"/>
	<circle class="st0" cx="24.3" cy="35.2" r="2.6"/>
</g>
<rect x="48.7" y="16.5" class="st1" width="5.5" height="1.6"/>
</svg>
