<svg width="140px" height="49px" viewBox="0 0 140 49" version="1.1" xmlns="http://www.w3.org/2000/svg" xmlns:xlink="http://www.w3.org/1999/xlink">
	<g stroke="none" stroke-width="1" fill-rule="evenodd">
		<g transform="translate(-404.000000, -419.000000)">
			<path d="M409,436 L416,436 L416,438 L412,442 L409,442 L409,443.414214 L406,446.414214 L406,453.585786 L411.414214,459 L419.378052,459 C419.131259,458.04114 419,457.035899 419,456 C419,449.372583 424.372583,444 431,444 C437.627417,444 443,449.372583 443,456 C443,457.035899 442.868741,458.04114 442.621948,459 L505.378052,459 C505.131259,458.04114 505,457.035899 505,456 C505,449.372583 510.372583,444 517,444 C523.627417,444 529,449.372583 529,456 C529,457.035899 528.868741,458.04114 528.621948,459 L542,459 L542,455 L537,455 L537,451 L542,451 L542,448 L535,448 L531,444 L531,442 L538.333348,442 C536.344876,440.570994 533.597117,439.348166 530.212652,438.332826 C527.527544,437.527294 524.641751,436.915506 521.754688,436.472823 C520.743404,436.317759 519.804792,436.195018 518.963476,436.101271 C518.461454,436.045331 518.105534,436.011638 518,436 L508.763932,436 L478.763932,421 L451,421 C448.873811,421 446.639408,421.1862 444.309191,421.546829 C438.251711,422.484296 431.755223,424.554256 425.147607,427.417556 C421.894781,428.827114 418.826886,430.33782 416.038783,431.848042 C415.063923,432.376091 414.194188,432.866042 413.441371,433.305185 C412.99207,433.567277 412.683141,433.753207 412.526355,433.850265 L412.284475,434 L409,434 L409,436 Z M420.088084,461 L410.585786,461 L404,454.414214 L404,445.585786 L407,442.585786 L407,432 C410.148682,431.998763 411.723539,431.997834 411.724572,431.997212 C411.926197,431.875864 412.163035,431.735474 412.433629,431.577627 C413.20425,431.128098 414.092327,430.627815 415.086217,430.089458 C417.923114,428.552805 421.042719,427.016636 424.352393,425.582444 C431.104152,422.656682 437.756102,420.537188 444.003309,419.570358 C446.430905,419.194659 448.766814,419 451,419 L479.236068,419 L509.236234,434.000083 C515.233924,434.010782 518.280182,434.020621 518.375007,434.029597 C518.609303,434.051778 518.8803,434.079625 519.184962,434.113573 C520.05263,434.210256 521.018315,434.336538 522.057812,434.495927 C525.030124,434.951682 528.003706,435.582081 530.787348,436.417174 C536.715527,438.195627 540.978801,440.628142 542.885354,443.885354 L543,444 L543,444.087387 C543.655691,445.280114 544,446.581611 544,448 L544,461 L528,461 L528,460.803421 C526.147484,465.039765 521.919442,468 517,468 C512.080558,468 507.852516,465.039765 506,460.803421 L506,461 L441.911918,461 C440.015901,465.13106 435.842989,468 431,468 C426.157011,468 421.984099,465.13106 420.088084,461 Z M539.563295,443 L532,443 L532,443.585786 L535.414214,447 L541.915571,447 C541.664894,445.538149 540.860548,444.204599 539.563295,443 Z M451,454 L490,454 L490,455 L450,455 L450,454.5 L450,451 L451,451 L451,454 Z M445,439.5 L445,441 L444,441 L444,440 L438,440 L438,439 L445,439 L445,439.5 Z M477,439.5 L477,441 L476,441 L476,440 L470,440 L470,439 L477,439 L477,439.5 Z M429,430 L447,423 L478,423 L492,430 L488,434 L437,434 L429,430 Z M437.236068,433 L487.585786,433 L490.311835,430.273951 L477.763932,424 L447.187601,424 L431.464864,430.114398 L437.236068,433 Z M538,454 L542,454 L542,452 L538,452 L538,454 Z M431,466 C436.522847,466 441,461.522847 441,456 C441,450.477153 436.522847,446 431,446 C425.477153,446 421,450.477153 421,456 C421,461.522847 425.477153,466 431,466 Z M517,466 C522.522847,466 527,461.522847 527,456 C527,450.477153 522.522847,446 517,446 C511.477153,446 507,450.477153 507,456 C507,461.522847 511.477153,466 517,466 Z M431,464 C426.581722,464 423,460.418278 423,456 C423,451.581722 426.581722,448 431,448 C435.418278,448 439,451.581722 439,456 C439,460.418278 435.418278,464 431,464 Z M431,463 C434.865993,463 438,459.865993 438,456 C438,452.134007 434.865993,449 431,449 C427.134007,449 424,452.134007 424,456 C424,459.865993 427.134007,463 431,463 Z M517,464 C512.581722,464 509,460.418278 509,456 C509,451.581722 512.581722,448 517,448 C521.418278,448 525,451.581722 525,456 C525,460.418278 521.418278,464 517,464 Z M517,463 C520.865993,463 524,459.865993 524,456 C524,452.134007 520.865993,449 517,449 C513.134007,449 510,452.134007 510,456 C510,459.865993 513.134007,463 517,463 Z M431,458 C429.895431,458 429,457.104569 429,456 C429,454.895431 429.895431,454 431,454 C432.104569,454 433,454.895431 433,456 C433,457.104569 432.104569,458 431,458 Z M431,457 C431.552285,457 432,456.552285 432,456 C432,455.447715 431.552285,455 431,455 C430.447715,455 430,455.447715 430,456 C430,456.552285 430.447715,457 431,457 Z M517,458 C515.895431,458 515,457.104569 515,456 C515,454.895431 515.895431,454 517,454 C518.104569,454 519,454.895431 519,456 C519,457.104569 518.104569,458 517,458 Z M517,457 C517.552285,457 518,456.552285 518,456 C518,455.447715 517.552285,455 517,455 C516.447715,455 516,455.447715 516,456 C516,456.552285 516.447715,457 517,457 Z M409,441 L411.585786,441 L415,437.585786 L415,437 L409,437 L409,441 Z M494,431 L500,434 L500,437 L494,437 L491,434 L494,431 Z M492.414214,434 L494.414214,436 L499,436 L499,434.618034 L494.197453,432.216761 L492.414214,434 Z M465,426 L466,426 L466,433 L465,433 L465,426 Z M445,428 L446,428 L446,433 L445,433 L445,428 Z" id="Combined-Shape"></path>
		</g>
	</g>
</svg>