<!-- Generator: Adobe Illustrator 21.0.2, SVG Export Plug-In  -->
<svg version="1.1"
	 xmlns="http://www.w3.org/2000/svg" xmlns:xlink="http://www.w3.org/1999/xlink" xmlns:a="http://ns.adobe.com/AdobeSVGViewerExtensions/3.0/"
	 x="0px" y="0px" width="104.2px" height="45.2px" viewBox="0 0 104.2 45.2" style="enable-background:new 0 0 104.2 45.2;"
	 xml:space="preserve">
<path class="st0" d="M42.1,3.6l11.2,0C57.9,4,61.6,6.3,65.1,9c-0.4,0.1-0.7,0.3-1,0.6l0,0c-0.9,0.9-1.4,3.4-1.4,4.7l-20.6,0V3.6z"/>
<path class="st1" d="M12.7,37.8c-5.4,0-11.9-4.8-12.2-5.1L0,32.4V25l0.4-0.4c0.5-0.5,1.6-1.9,1.6-2.8l0.1-2c0.1-1.4,0.2-2.9,0.2-4.3
	c0-0.8,1.1-2.3,2.4-3C5.2,11,6.2,9.2,7.2,7.7c0.6-0.9,1.1-1.7,1.3-2.3l0.3-0.7C8.9,4.5,9,4.4,9,4.3c0,0,0-0.2-0.1-0.4L8.6,1.8l2-0.4
	c4-0.9,6.5-1.4,12.3-1.4l30.5,0c6.8,0.6,10.9,3.9,15.3,7.5c2,1.6,4.1,3.3,6.5,4.8c1.1,0.1,2.6,0.2,4.5,0.2c10.9,0.4,20.8,1.2,21.9,6
	l1.1,7.9c0.6,0.4,1.6,1.3,1.6,2.6v4.5c0,1-0.1,2.1-1,2.7c-1.7,1.1-3.7,1.5-7.7,1.5h-1.7v-2.4h1.7c3.4,0,5.1-0.3,6.4-1
	c0,0,0-0.2,0-0.7v-4.5c0-0.3-0.6-0.7-0.8-0.8l-0.6-0.3l-1.2-9c-0.8-3.4-13.5-3.8-19.6-4.1c-2-0.1-3.8-0.1-4.9-0.3l-0.5-0.2
	c-2.7-1.6-4.9-3.4-7-5.2C63,5.9,59.3,2.9,53.3,2.4l-30.4,0c-5.5,0-7.7,0.5-11.6,1.3c0.1,0.9,0.1,1.1-0.3,2l-0.3,0.6
	C10.4,7,9.8,7.9,9.2,8.9c-0.9,1.5-2.1,3.4-2.4,4.8l-0.1,0.6l-0.6,0.2c-0.7,0.2-1.4,1.1-1.5,1.4c0,1.1-0.1,2.7-0.2,4.1l-0.1,1.9
	c0,1.7-1.3,3.3-1.9,4.1v5.2c1.5,1.1,6.6,4.4,10.5,4.2l2.3,0v2.4h-2.2C12.8,37.8,12.7,37.8,12.7,37.8z M76.1,37.8H32v-2.4h44.1V37.8z
	"/>
<path class="st0" d="M16.8,4.1c4-0.4,7.9-0.6,11.7-0.6h9.1v10.8H11.9L16.8,4.1z"/>
<polygon class="st0" points="101.6,27.2 100.6,19.8 97.2,19.8 97.2,27.2 "/>
<path class="st0" d="M17,42.8c-1.5-1.3-2.7-3.1-3.2-5.1h-0.6H12v-1.2v-3.5c0-3.2,1.3-6,3.4-8.1c2.1-2.1,5-3.4,8.1-3.4h0
	c3.2,0,6,1.3,8.1,3.4l0,0c2.1,2.1,3.4,5,3.4,8.1v3.5v1.2h-1.2h-0.6c-0.5,2-1.7,3.8-3.2,5.1c-1.8,1.5-4,2.4-6.5,2.4
	C21.1,45.2,18.8,44.3,17,42.8L17,42.8z M84.9,28.4c-3.7,0-6.7,3-6.7,6.7c0,3.7,3,6.7,6.7,6.7s6.7-3,6.7-6.7
	C91.6,31.5,88.6,28.4,84.9,28.4L84.9,28.4z M23.6,28.4c-3.7,0-6.7,3-6.7,6.7c0,3.7,3,6.7,6.7,6.7c3.7,0,6.7-3,6.7-6.7
	C30.3,31.5,27.3,28.4,23.6,28.4L23.6,28.4z M84.9,21.6L84.9,21.6c3.2,0,6,1.3,8.1,3.4l0,0c2.1,2.1,3.4,5,3.4,8.1v3.5v1.2h-1.2h-0.6
	c-0.5,2-1.7,3.8-3.2,5.1c-1.8,1.5-4,2.4-6.5,2.4c-2.5,0-4.8-0.9-6.5-2.4l0,0c-1.5-1.3-2.7-3.1-3.2-5.1h-0.6h-1.2v-1.2v-3.5
	c0-3.2,1.3-6,3.4-8.1C78.8,22.9,81.7,21.6,84.9,21.6z"/>
<circle class="st0" cx="84.9" cy="35.2" r="2.6"/>
<circle class="st0" cx="23.5" cy="35.2" r="2.6"/>
<rect x="47.2" y="16.5" class="st1" width="5.5" height="1.6"/>
<path class="st0" d="M3.1,21.7h1.1c2.4,0,5.6-1.8,5.7-3.9v-1.9H3.4C3.4,17.9,3.2,20.2,3.1,21.7z"/>
<path class="st0" d="M64.9,10.5L64.9,10.5c-0.7,0.7-1,3.1-1.1,4c0,0.3,0.1,0.6,0.3,0.8c0.2,0.2,0.5,0.4,0.8,0.4h2.6
	c2.8,0-0.5-5.1-1.5-5.4C65.7,10,65.2,10.2,64.9,10.5z"/>
<polygon class="st0" points="41.7,30.1 41.7,32.1 70.5,32.1 "/>
</svg>
