<!-- Generator: Adobe Illustrator 21.0.2, SVG Export Plug-In  -->
<svg version="1.1"
	 xmlns="http://www.w3.org/2000/svg" xmlns:xlink="http://www.w3.org/1999/xlink" xmlns:a="http://ns.adobe.com/AdobeSVGViewerExtensions/3.0/"
	 x="0px" y="0px" width="110.4px" height="47px" viewBox="0 0 110.4 47" style="enable-background:new 0 0 110.4 47;"
	 xml:space="preserve">
<style type="text/css">
	.st0{fill:#6D6E71;}
	.st1{fill-rule:evenodd;clip-rule:evenodd;fill:#6D6E71;}
</style>
<defs>
</defs>
<path class="st0" d="M7.6,40.7c-2.8,0-4.7-1.1-5.8-2c-1.2-1.1-1.7-2.1-1.8-2.3L0,36v-7.4l0.2-0.3c0,0,0.3-0.4,0.5-1
	c0.3-0.8,0.5-1.5,0.5-2c0-0.6,0.1-2,0.1-3.9c0.1-6,0.4-16,0.8-19.2L2.4,0h72.2l0.3,0.3c1.8,1.5,3.9,3.4,6.2,5.5
	c3.5,3.2,7.2,6.5,9.4,7.9c1.8,0.6,16.7,5.5,17.4,8.8c0.9,3.4,1,4,0.9,7.4c1,0.7,1.6,1.8,1.5,3l-0.1,4.1c0,1.7-1.2,3.2-3,3.5
	l-0.5,0.1c-1.1,0.1-4.2,0.2-6,0.2h-4v-2.4h4c2.3,0,4.9-0.1,5.7-0.2l0.4-0.1c0.6-0.1,1-0.6,1-1.2l0.1-4.1c0-0.5-0.3-0.9-0.7-1.1
	l-0.8-0.3l-0.1-0.9c0.1-3.9,0.1-4.1-0.8-7.5c-0.9-1.6-12.2-6.1-15.9-7.1l-0.3-0.1c-2.5-1.5-6.3-5-9.9-8.3c-2.1-1.9-4.1-3.7-5.7-5.1
	l-69.3,0C4,5.5,3.8,15.8,3.6,21.4c0,2-0.1,3.4-0.1,4c0,0.8-0.2,1.8-0.7,2.9c-0.2,0.4-0.4,0.8-0.5,1v6.5c0.1,0.3,0.5,0.7,1,1.2
	c1.1,1,2.6,1.5,4.5,1.4h6.7v2.4H7.9C7.8,40.7,7.7,40.7,7.6,40.7z M83.3,40.7H28.1v-2.4h55.2V40.7z"/>
<path class="st1" d="M73.8,4.5c1.9,1.6,3.7,3.4,5.3,4.8c1.6,1.5,3.5,3.2,5.4,4.8c-0.6,0-1.1,0.3-1.5,0.7l0,0c-1,0.9-1.4,3.5-1.4,4.8
	c0,0.4,0.1,0.9,0.3,1.2h-2.1c-5,0-14.5-3.9-14.5-3.9V3.9h7.1C72.8,3.9,73.3,4.1,73.8,4.5z"/>
<path class="st1" d="M83.7,15.6L83.7,15.6c-0.7,0.7-1,3.1-1.1,4c0,0.3,0.1,0.6,0.3,0.8c0.2,0.2,0.5,0.4,0.8,0.4h2.6
	c2.8,0-0.5-5.1-1.5-5.4C84.5,15.2,84.1,15.3,83.7,15.6z"/>
<path class="st1" d="M60.9,14.6c0,1.3-1.1,2.4-2.4,2.4H19c-0.4,0-0.8-0.1-1.2-0.3l-5.3-3.1c-0.8-0.4-1.2-1.2-1.2-2.1V4l0-0.1h47.3
	c1.3,0,2.4,1.1,2.4,2.4L60.9,14.6z"/>
<rect x="63.8" y="20.7" class="st0" width="5.5" height="1.6"/>
<rect x="55" y="19.3" class="st0" width="5.5" height="1.6"/>
<rect x="10.5" y="20.4" class="st0" width="18.6" height="1.6"/>
<path class="st1" d="M107.7,27.6c-2.7-1.5-7.8-4.2-8.5-5c-0.3-0.3-0.4-2.6-0.3-4.5c3.9,1.6,7.7,3.5,7.9,4.7
	C107.4,25.1,107.7,26,107.7,27.6L107.7,27.6z"/>
<path class="st1" d="M2.4,25.2c2.1-0.5,4.4-2,4.5-3.8V7.2H2.9c-0.2,5-0.4,11.9-0.5,15.6c0.1,0.4,0.2,0.7,0.2,0.9
	C2.6,24.2,2.5,24.7,2.4,25.2z"/>
<g>
	<path class="st1" d="M98.3,40.7c-0.4,1.4-1.2,2.7-2.2,3.8h0C94.6,46,92.4,47,90,47c-2.4,0-4.5-1-6.1-2.5c-1-1-1.8-2.3-2.2-3.8h-0.7
		h-1.2v-1.2v-1.4c0-2.8,1.1-5.3,3-7.2c1.8-1.8,4.4-3,7.2-3h0c2.8,0,5.3,1.1,7.2,3l0,0l0,0c1.8,1.8,3,4.4,3,7.2v1.4v1.2H99H98.3
		L98.3,40.7z M90,33.1c-2.9,0-5.2,2.3-5.2,5.2c0,2.9,2.3,5.2,5.2,5.2c2.9,0,5.2-2.3,5.2-5.2C95.3,35.5,92.9,33.1,90,33.1z"/>
	<path class="st1" d="M21.3,27.9c2.8,0,5.3,1.1,7.2,3l0,0l0,0c1.8,1.8,3,4.4,3,7.2v1.4v1.2h-1.2h-0.7c-0.4,1.4-1.2,2.7-2.2,3.8h0
		C25.8,46,23.7,47,21.3,47c-2.4,0-4.5-1-6.1-2.5c-1-1-1.8-2.3-2.2-3.8h-0.7h-1.2v-1.2v-1.4c0-2.8,1.1-5.3,3-7.2
		C16,29.1,18.5,27.9,21.3,27.9L21.3,27.9L21.3,27.9z M21.3,33.1c-2.9,0-5.2,2.3-5.2,5.2c0,2.9,2.3,5.2,5.2,5.2s5.2-2.3,5.2-5.2
		C26.6,35.5,24.2,33.1,21.3,33.1z"/>
	<circle class="st1" cx="90" cy="38.4" r="2.2"/>
	<circle class="st1" cx="21.3" cy="38.4" r="2.2"/>
</g>
</svg>
