<svg width="145px" height="50px" viewBox="0 0 145 50" version="1.1" xmlns="http://www.w3.org/2000/svg" xmlns:xlink="http://www.w3.org/1999/xlink">
	<g stroke="none" stroke-width="1" fill="none" fill-rule="evenodd">
		<g transform="translate(-875.000000, -418.000000)" fill-rule="nonzero">
			<path d="M1018,452 L1018,449 L1012,449 L1008,445 L1008,443 L1015.5633,443 C1013.55384,441.134063 1010.36168,439.577534 1006.21265,438.332826 C1003.52754,437.527294 1000.64175,436.915506 997.754688,436.472823 C996.743404,436.317759 995.804792,436.195018 994.963476,436.101271 C994.461454,436.045331 994.105534,436.011638 994,436 L986.77036,436 L953.77036,420 L903,420 C900.910721,420 898.649028,420.361871 896.382663,420.966235 C895.585861,421.178715 894.846185,421.406308 894.183699,421.633446 C894.140785,421.648159 894.079552,422.259802 894,423.468375 L881.36205,434 L880,434 L880,437 L887,437 L887,439 L883,443 L880,443 L880,443.414214 L877,446.414214 L877,453.585786 L882.414214,459 L898.378052,459 C898.131259,458.04114 898,457.035899 898,456 C898,449.372583 903.372583,444 910,444 C916.627417,444 922,449.372583 922,456 C922,457.035899 921.868741,458.04114 921.621948,459 L982.378052,459 C982.131259,458.04114 982,457.035899 982,456 C982,449.372583 987.372583,444 994,444 C1000.62742,444 1006,449.372583 1006,456 C1006,457.035899 1005.86874,458.04114 1005.62195,459 L1018,459 L1018,456 L1012,456 L1012,452 L1018,452 Z M923,439.5 L923,441 L922,441 L922,440 L916,440 L916,439 L923,439 L923,439.5 Z M953,439.5 L953,441 L952,441 L952,440 L946,440 L946,439 L953,439 L953,439.5 Z M911,433 L911,428 L912,428 L912,433 L940,433 L940,426 L941,426 L941,433 L963.585786,433 L966.311835,430.273951 L953.763932,424 L909.302776,424 L896.876659,432.284077 L904,433 L911,433 Z M899.088082,461 L881.585786,461 L875,454.414214 L875,445.585786 L878,442.585786 L878,432 L880.63795,432 L892,422.531625 L892,420.322967 L892.628609,420.071523 C893.066237,419.905772 893.287102,419.826565 893.535051,419.741554 C894.239753,419.499942 895.023514,419.258785 895.867337,419.033765 C898.288472,418.388129 900.714279,418 903,418 L954.22964,418 L987.229853,434.000103 L994.079745,434.003185 C994.609303,434.051778 994.8803,434.079625 995.184962,434.113573 C996.05263,434.210256 997.018315,434.336538 998.057812,434.495927 C1001.03012,434.951682 1004.00371,435.582081 1006.78735,436.417174 C1014.98582,438.876715 1020,442.58721 1020,448 L1020,461 L1004.91192,461 C1003.0159,465.13106 998.842989,468 994,468 C989.080558,468 984.852516,465.039765 983,460.803421 L983,461 L920.911918,461 C919.015901,465.13106 914.842989,468 910,468 C905.157011,468 900.984099,465.13106 899.088085,461.000001 Z M1016.50192,444 L1009,444 L1009,444.585786 L1012.41421,448 L1018,448 C1018,446.549681 1017.48302,445.216159 1016.50192,444 Z M928,454 L967,454 L967,455 L927,455 L927,454.5 L927,451 L928,451 L928,454 Z M910,466 C915.522847,466 920,461.522847 920,456 C920,450.477153 915.522847,446 910,446 C904.477153,446 900,450.477153 900,456 C900,461.522847 904.477153,466 910,466 Z M910,464 C905.581722,464 902,460.418278 902,456 C902,451.581722 905.581722,448 910,448 C914.418278,448 918,451.581722 918,456 C918,460.418278 914.418278,464 910,464 Z M910,463 C913.865993,463 917,459.865993 917,456 C917,452.134007 913.865993,449 910,449 C906.134007,449 903,452.134007 903,456 C903,459.865993 906.134007,463 910,463 Z M910,458 C908.895431,458 908,457.104569 908,456 C908,454.895431 908.895431,454 910,454 C911.104569,454 912,454.895431 912,456 C912,457.104569 911.104569,458 910,458 Z M910,457 C910.552285,457 911,456.552285 911,456 C911,455.447715 910.552285,455 910,455 C909.447715,455 909,455.447715 909,456 C909,456.552285 909.447715,457 910,457 Z M994,466 C999.522847,466 1004,461.522847 1004,456 C1004,450.477153 999.522847,446 994,446 C988.477153,446 984,450.477153 984,456 C984,461.522847 988.477153,466 994,466 Z M994,464 C989.581722,464 986,460.418278 986,456 C986,451.581722 989.581722,448 994,448 C998.418278,448 1002,451.581722 1002,456 C1002,460.418278 998.418278,464 994,464 Z M994,463 C997.865993,463 1001,459.865993 1001,456 C1001,452.134007 997.865993,449 994,449 C990.134007,449 987,452.134007 987,456 C987,459.865993 990.134007,463 994,463 Z M994,458 C992.895431,458 992,457.104569 992,456 C992,454.895431 992.895431,454 994,454 C995.104569,454 996,454.895431 996,456 C996,457.104569 995.104569,458 994,458 Z M994,457 C994.552285,457 995,456.552285 995,456 C995,455.447715 994.552285,455 994,455 C993.447715,455 993,455.447715 993,456 C993,456.552285 993.447715,457 994,457 Z M894,433 L909,423 L954,423 L968,430 L964,434 L904,434 L894,433 Z M970,431 L976,434 L976,437 L970,437 L967,434 L970,431 Z M968.414214,434 L970.414214,436 L975,436 L975,434.618034 L970.197453,432.216761 L968.414214,434 Z M880,442 L882.585786,442 L886,438.585786 L886,438 L880,438 L880,442 Z M1013,455 L1018,455 L1018,453 L1013,453 L1013,455 Z" id="Combined-Shape"></path>
		</g>
	</g>
</svg>