<?xml version="1.0" encoding="utf-8"?>
<!-- Generator: Adobe Illustrator 21.1.0, SVG Export Plug-In . SVG Version: 6.00 Build 0)  -->
<svg version="1.1" id="DMRLogo" xmlns="http://www.w3.org/2000/svg" xmlns:xlink="http://www.w3.org/1999/xlink" x="0px" y="0px"
	 viewBox="0 0 237 72.2" style="enable-background:new 0 0 237 72.2;" xml:space="preserve">
<style type="text/css">
	.st0{fill:#231F20;}
	.st1{fill:#51A39D;}
</style>
<title>DMRLogo</title>
<g>
	<path class="st2" d="M69.9,41.7L73.2,26h4.2c1.2,0,1.9,0,2.3,0c0.6,0.1,1.2,0.2,1.7,0.4c0.5,0.2,1,0.5,1.4,0.8
		c0.4,0.4,0.8,0.8,1.1,1.3c0.3,0.5,0.6,1.1,0.7,1.8c0.2,0.7,0.3,1.4,0.2,2.2c0,1.6-0.3,3.1-1,4.5c-0.6,1.2-1.4,2.3-2.4,3.1
		c-0.9,0.7-1.8,1.1-2.9,1.3c-1,0.2-2.1,0.3-3.1,0.2L69.9,41.7z M73.7,39.2h1.6c0.9,0,1.7,0,2.6-0.2c0.5-0.2,1-0.4,1.5-0.8
		c0.7-0.7,1.2-1.4,1.6-2.3c0.5-1.1,0.7-2.2,0.7-3.4c0-0.9-0.2-1.7-0.6-2.5c-0.3-0.5-0.8-0.9-1.3-1.1c-0.7-0.2-1.3-0.2-2-0.2h-1.8
		L73.7,39.2z"/>
	<path class="st2" d="M96.3,37h-7.7c0,0.1,0,0.2,0,0.3c0,0.7,0.2,1.3,0.7,1.8c0.4,0.5,1,0.7,1.6,0.7c1,0,2-0.6,2.4-1.6l2.8,0.5
		c-0.5,1-1.2,1.9-2.2,2.5c-0.9,0.6-1.9,0.8-3,0.8c-1.4,0.1-2.8-0.5-3.8-1.5c-1-1-1.5-2.4-1.4-3.8c0-1.5,0.4-2.9,1.3-4.2
		c1.1-1.6,3-2.5,5-2.5c1.2-0.1,2.4,0.4,3.3,1.3c0.9,1,1.4,2.3,1.3,3.7C96.5,35.7,96.4,36.3,96.3,37z M93.7,35.1c0-0.1,0-0.2,0-0.3
		c0.1-0.7-0.2-1.4-0.6-1.9c-0.4-0.4-0.9-0.7-1.5-0.6c-0.6,0-1.2,0.3-1.7,0.7c-0.5,0.6-0.9,1.3-1,2.1L93.7,35.1z"/>
	<path class="st2" d="M96.9,41.7l3.3-15.7h3.1L100,41.7H96.9z"/>
	<path class="st2" d="M105,30.3h3.1l-2.4,11.4h-3.1L105,30.3z M105.9,26h3.1l-0.6,2.8h-3.1L105.9,26z"/>
	<path class="st2" d="M114,41.7h-2.6L109,30.3h3l0.8,5c0.2,1.3,0.4,2.2,0.4,2.7c0.1-0.1,0.3-0.6,0.7-1.4s0.7-1.3,0.8-1.5l2.8-4.8
		h3.3L114,41.7z"/>
	<path class="st2" d="M131.1,37h-7.7c0,0.1,0,0.2,0,0.3c0,0.7,0.2,1.3,0.7,1.8c0.4,0.5,1,0.7,1.6,0.7c1.1,0,2-0.7,2.4-1.6l2.8,0.5
		c-0.5,1-1.2,1.9-2.1,2.5c-0.9,0.6-1.9,0.8-3,0.8c-1.4,0.1-2.7-0.5-3.7-1.5c-1-1-1.5-2.4-1.4-3.8c0-1.5,0.4-2.9,1.3-4.2
		c1.1-1.6,3-2.5,5-2.5c1.2-0.1,2.4,0.4,3.3,1.3c0.9,1,1.3,2.3,1.2,3.6C131.3,35.7,131.2,36.3,131.1,37z M128.5,35.1
		c0-0.1,0-0.2,0-0.3c0.1-0.7-0.2-1.4-0.6-1.9c-0.4-0.4-0.9-0.7-1.5-0.6c-0.6,0-1.3,0.3-1.7,0.7c-0.5,0.6-0.9,1.3-1,2.1L128.5,35.1z"
		/>
	<path class="st2" d="M134,30.3h2.9l-0.5,2.2c1.1-1.6,2.2-2.5,3.5-2.5c0.5,0,1,0.1,1.4,0.3l-1.2,2.5c-0.3-0.1-0.6-0.2-0.9-0.2
		c-0.6,0-1.2,0.2-1.6,0.6c-0.6,0.4-1,1-1.3,1.6c-0.4,1-0.7,2.1-0.9,3.2l-0.8,3.6h-3.1L134,30.3z"/>
	<path class="st2" d="M152.8,41.7h-3.1l-0.6-13.1l-2.5,13.1h-2.9l3.3-15.7h4.6l0.5,11l5.4-11h4.7l-3.3,15.7h-2.9l3.1-13L152.8,41.7z
		"/>
	<path class="st2" d="M162.1,30.3h3.1l0.8,5.7c0.2,1.5,0.3,2.5,0.3,3.1c0.4-1.3,1-2.5,1.6-3.7l2.7-5h3.2l-7,12.5
		c-0.4,0.8-0.9,1.5-1.4,2.2c-0.3,0.4-0.7,0.8-1.2,1c-0.5,0.2-1.1,0.4-1.7,0.3c-0.7,0-1.5-0.1-2.2-0.3l0.3-2.3
		c0.4,0.1,0.7,0.2,1.1,0.2c0.9,0,1.7-0.7,2.3-2.1L162.1,30.3z"/>
	<path class="st2" d="M180.1,41.7h-3.2l3.3-15.7h7c0.9,0,1.9,0.1,2.8,0.4c0.7,0.3,1.2,0.7,1.6,1.4c0.4,0.7,0.6,1.6,0.6,2.4
		c0,1.2-0.4,2.4-1.2,3.3c-1,1-2.3,1.5-3.7,1.6c0.5,0.4,0.9,0.9,1.2,1.5c0.9,1.7,1.7,3.4,2.4,5.2h-3.5c-0.3-0.9-0.8-2.3-1.6-4.1
		c-0.3-0.8-0.8-1.5-1.4-2c-0.5-0.3-1.1-0.4-1.6-0.3h-1.3L180.1,41.7z M182,32.8h1.7c1.2,0.1,2.3,0,3.4-0.3c0.5-0.2,1-0.5,1.3-1
		c0.3-0.4,0.5-0.9,0.5-1.4c0-0.5-0.2-1-0.7-1.3c-0.6-0.2-1.2-0.3-1.9-0.3h-3.6L182,32.8z"/>
	<path class="st2" d="M194.1,30.3h3.1l-2.4,11.4h-3.1L194.1,30.3z M195,26h3.1l-0.6,2.8h-3.1L195,26z"/>
	<path class="st2" d="M207.5,41.7h-2.9l0.3-1.2c-0.5,0.5-1,0.9-1.6,1.2c-0.6,0.2-1.2,0.4-1.8,0.3c-1.1,0-2.1-0.4-2.9-1.2
		c-0.8-1-1.2-2.3-1.1-3.6c0-1.8,0.5-3.5,1.5-4.9c0.9-1.4,2.4-2.2,4.1-2.2c1.4-0.1,2.7,0.6,3.4,1.8l1.2-5.9h3.1L207.5,41.7z
		 M200.4,37.1c0,0.7,0.2,1.4,0.6,1.9c0.4,0.4,0.9,0.7,1.5,0.7c0.6,0,1.1-0.2,1.6-0.6c0.5-0.5,0.9-1.1,1.2-1.8
		c0.3-0.7,0.4-1.5,0.4-2.3c0-0.7-0.2-1.4-0.7-2c-0.4-0.5-0.9-0.7-1.5-0.8c-1,0-1.8,0.6-2.2,1.5C200.7,34.8,200.4,35.9,200.4,37.1z"
		/>
	<path class="st2" d="M220.6,37h-7.7c0,0.1,0,0.2,0,0.3c0,0.7,0.2,1.3,0.6,1.8c0.4,0.5,1,0.7,1.6,0.7c1,0,2-0.6,2.4-1.6l2.8,0.5
		c-0.5,1-1.2,1.9-2.1,2.5c-0.9,0.6-1.9,0.8-3,0.8c-1.4,0.1-2.7-0.5-3.7-1.5c-1-1-1.5-2.4-1.4-3.8c0-1.5,0.4-2.9,1.3-4.2
		c1.1-1.6,3-2.5,5-2.5c1.2-0.1,2.4,0.4,3.3,1.3c0.9,1,1.3,2.3,1.3,3.6C220.8,35.7,220.7,36.3,220.6,37z M218,35.1c0-0.1,0-0.2,0-0.3
		c0.1-0.7-0.2-1.4-0.6-1.9c-0.4-0.4-0.9-0.7-1.5-0.6c-0.6,0-1.3,0.3-1.7,0.7c-0.5,0.6-0.9,1.3-1,2.1L218,35.1z"/>
</g>
<path class="st3" d="M35.8,16.9c9.9,0,17.9,8,17.9,17.9s-8,17.9-17.9,17.9s-17.9-8-17.9-17.9v0C17.9,25,25.9,16.9,35.8,16.9
	 M35.8,14.9c-11,0-20,8.9-20,19.9s8.9,20,19.9,20c11,0,20-8.9,20-19.9c0,0,0,0,0,0C55.7,23.9,46.8,14.9,35.8,14.9z"/>
<g>
	<path class="st3" d="M38.6,25.5v2.1c2.9,1.1,5,3.9,5,7.3c0,4.3-3.5,7.8-7.8,7.8S28,39.2,28,34.9v0c0-3.1,1.8-5.8,4.5-7v-2.2
		c-3.8,1.3-6.5,5-6.5,9.2c0,5.4,4.4,9.8,9.8,9.8s9.8-4.4,9.8-9.8C45.6,30.4,42.6,26.7,38.6,25.5z"/>
</g>
<polyline class="st3" points="36.5,21.9 36.5,31.8 34.5,31.8 34.5,21.9 36.5,21.9 "/>
</svg>