<svg width="207" height="40" xmlns="http://www.w3.org/2000/svg">
 <style type="text/css">.st0{fill:#ffffff;}
	.st1{fill:#4990E2;}</style>

 <title>DMRLogo</title>
 <g>
  <title>background</title>
  <rect fill="none" id="canvas_background" height="42" width="209" y="-1" x="-1"/>
 </g>
 <g>
  <title>Layer 1</title>
  <g id="svg_1">
   <path id="svg_2" d="m54.220155,26.980145l3.3,-15.7l4.2,0c1.2,0 1.9,0 2.3,0c0.6,0.1 1.2,0.2 1.7,0.4c0.5,0.2 1,0.5 1.4,0.8c0.4,0.4 0.8,0.8 1.1,1.3c0.3,0.5 0.6,1.1 0.7,1.8c0.2,0.7 0.3,1.4 0.2,2.2c0,1.6 -0.3,3.1 -1,4.5c-0.6,1.2 -1.4,2.3 -2.4,3.1c-0.9,0.7 -1.8,1.1 -2.9,1.3c-1,0.2 -2.1,0.3 -3.1,0.2l-5.5,0.1zm3.8,-2.5l1.6,0c0.9,0 1.7,0 2.6,-0.2c0.5,-0.2 1,-0.4 1.5,-0.8c0.7,-0.7 1.2,-1.4 1.6,-2.3c0.5,-1.1 0.7,-2.2 0.7,-3.4c0,-0.9 -0.2,-1.7 -0.6,-2.5c-0.3,-0.5 -0.8,-0.9 -1.3,-1.1c-0.7,-0.2 -1.3,-0.2 -2,-0.2l-1.8,0l-2.3,10.5z" class="st0"/>
   <path id="svg_3" d="m80.620155,22.280145l-7.7,0c0,0.1 0,0.2 0,0.3c0,0.7 0.2,1.3 0.7,1.8c0.4,0.5 1,0.7 1.6,0.7c1,0 2,-0.6 2.4,-1.6l2.8,0.5c-0.5,1 -1.2,1.9 -2.2,2.5c-0.9,0.6 -1.9,0.8 -3,0.8c-1.4,0.1 -2.8,-0.5 -3.8,-1.5c-1,-1 -1.5,-2.4 -1.4,-3.8c0,-1.5 0.4,-2.9 1.3,-4.2c1.1,-1.6 3,-2.5 5,-2.5c1.2,-0.1 2.4,0.4 3.3,1.3c0.9,1 1.4,2.3 1.3,3.7c-0.1,0.7 -0.2,1.3 -0.3,2zm-2.6,-1.9c0,-0.1 0,-0.2 0,-0.3c0.1,-0.7 -0.2,-1.4 -0.6,-1.9c-0.4,-0.4 -0.9,-0.7 -1.5,-0.6c-0.6,0 -1.2,0.3 -1.7,0.7c-0.5,0.6 -0.9,1.3 -1,2.1l4.8,0z" class="st0"/>
   <path id="svg_4" d="m81.220155,26.980145l3.3,-15.7l3.1,0l-3.3,15.7l-3.1,0z" class="st0"/>
   <path id="svg_5" d="m89.320155,15.580145l3.1,0l-2.4,11.4l-3.1,0l2.4,-11.4zm0.9,-4.3l3.1,0l-0.6,2.8l-3.1,0l0.6,-2.8z" class="st0"/>
   <path id="svg_6" d="m98.320155,26.980145l-2.6,0l-2.4,-11.4l3,0l0.8,5c0.2,1.3 0.4,2.2 0.4,2.7c0.1,-0.1 0.3,-0.6 0.7,-1.4s0.7,-1.3 0.8,-1.5l2.8,-4.8l3.3,0l-6.8,11.4z" class="st0"/>
   <path id="svg_7" d="m115.420155,22.280145l-7.7,0c0,0.1 0,0.2 0,0.3c0,0.7 0.2,1.3 0.7,1.8c0.4,0.5 1,0.7 1.6,0.7c1.1,0 2,-0.7 2.4,-1.6l2.8,0.5c-0.5,1 -1.2,1.9 -2.1,2.5c-0.9,0.6 -1.9,0.8 -3,0.8c-1.4,0.1 -2.7,-0.5 -3.7,-1.5c-1,-1 -1.5,-2.4 -1.4,-3.8c0,-1.5 0.4,-2.9 1.3,-4.2c1.1,-1.6 3,-2.5 5,-2.5c1.2,-0.1 2.4,0.4 3.3,1.3c0.9,1 1.3,2.3 1.2,3.6c-0.2,0.8 -0.3,1.4 -0.4,2.1zm-2.6,-1.9c0,-0.1 0,-0.2 0,-0.3c0.1,-0.7 -0.2,-1.4 -0.6,-1.9c-0.4,-0.4 -0.9,-0.7 -1.5,-0.6c-0.6,0 -1.3,0.3 -1.7,0.7c-0.5,0.6 -0.9,1.3 -1,2.1l4.8,0z" class="st0"/>
   <path id="svg_8" d="m118.320155,15.580145l2.9,0l-0.5,2.2c1.1,-1.6 2.2,-2.5 3.5,-2.5c0.5,0 1,0.1 1.4,0.3l-1.2,2.5c-0.3,-0.1 -0.6,-0.2 -0.9,-0.2c-0.6,0 -1.2,0.2 -1.6,0.6c-0.6,0.4 -1,1 -1.3,1.6c-0.4,1 -0.7,2.1 -0.9,3.2l-0.8,3.6l-3.1,0l2.5,-11.3z" class="st0"/>
   <path id="svg_9" d="m137.120155,26.980145l-3.1,0l-0.6,-13.1l-2.5,13.1l-2.9,0l3.3,-15.7l4.6,0l0.5,11l5.4,-11l4.7,0l-3.3,15.7l-2.9,0l3.1,-13l-6.3,13z" class="st0"/>
   <path id="svg_10" d="m146.420155,15.580145l3.1,0l0.8,5.7c0.2,1.5 0.3,2.5 0.3,3.1c0.4,-1.3 1,-2.5 1.6,-3.7l2.7,-5l3.2,0l-7,12.5c-0.4,0.8 -0.9,1.5 -1.4,2.2c-0.3,0.4 -0.7,0.8 -1.2,1c-0.5,0.2 -1.1,0.4 -1.7,0.3c-0.7,0 -1.5,-0.1 -2.2,-0.3l0.3,-2.3c0.4,0.1 0.7,0.2 1.1,0.2c0.9,0 1.7,-0.7 2.3,-2.1l-1.9,-11.6z" class="st0"/>
   <path id="svg_11" d="m164.420155,26.980145l-3.2,0l3.3,-15.7l7,0c0.9,0 1.9,0.1 2.8,0.4c0.7,0.3 1.2,0.7 1.6,1.4c0.4,0.7 0.6,1.6 0.6,2.4c0,1.2 -0.4,2.4 -1.2,3.3c-1,1 -2.3,1.5 -3.7,1.6c0.5,0.4 0.9,0.9 1.2,1.5c0.9,1.7 1.7,3.4 2.4,5.2l-3.5,0c-0.3,-0.9 -0.8,-2.3 -1.6,-4.1c-0.3,-0.8 -0.8,-1.5 -1.4,-2c-0.5,-0.3 -1.1,-0.4 -1.6,-0.3l-1.3,0l-1.4,6.3zm1.9,-8.9l1.7,0c1.2,0.1 2.3,0 3.4,-0.3c0.5,-0.2 1,-0.5 1.3,-1c0.3,-0.4 0.5,-0.9 0.5,-1.4c0,-0.5 -0.2,-1 -0.7,-1.3c-0.6,-0.2 -1.2,-0.3 -1.9,-0.3l-3.6,0l-0.7,4.3z" class="st0"/>
   <path id="svg_12" d="m178.420155,15.580145l3.1,0l-2.4,11.4l-3.1,0l2.4,-11.4zm0.9,-4.3l3.1,0l-0.6,2.8l-3.1,0l0.6,-2.8z" class="st0"/>
   <path id="svg_13" d="m191.820155,26.980145l-2.9,0l0.3,-1.2c-0.5,0.5 -1,0.9 -1.6,1.2c-0.6,0.2 -1.2,0.4 -1.8,0.3c-1.1,0 -2.1,-0.4 -2.9,-1.2c-0.8,-1 -1.2,-2.3 -1.1,-3.6c0,-1.8 0.5,-3.5 1.5,-4.9c0.9,-1.4 2.4,-2.2 4.1,-2.2c1.4,-0.1 2.7,0.6 3.4,1.8l1.2,-5.9l3.1,0l-3.3,15.7zm-7.1,-4.6c0,0.7 0.2,1.4 0.6,1.9c0.4,0.4 0.9,0.7 1.5,0.7c0.6,0 1.1,-0.2 1.6,-0.6c0.5,-0.5 0.9,-1.1 1.2,-1.8c0.3,-0.7 0.4,-1.5 0.4,-2.3c0,-0.7 -0.2,-1.4 -0.7,-2c-0.4,-0.5 -0.9,-0.7 -1.5,-0.8c-1,0 -1.8,0.6 -2.2,1.5c-0.6,1.1 -0.9,2.2 -0.9,3.4z" class="st0"/>
   <path id="svg_14" d="m204.920155,22.280145l-7.7,0c0,0.1 0,0.2 0,0.3c0,0.7 0.2,1.3 0.6,1.8c0.4,0.5 1,0.7 1.6,0.7c1,0 2,-0.6 2.4,-1.6l2.8,0.5c-0.5,1 -1.2,1.9 -2.1,2.5c-0.9,0.6 -1.9,0.8 -3,0.8c-1.4,0.1 -2.7,-0.5 -3.7,-1.5c-1,-1 -1.5,-2.4 -1.4,-3.8c0,-1.5 0.4,-2.9 1.3,-4.2c1.1,-1.6 3,-2.5 5,-2.5c1.2,-0.1 2.4,0.4 3.3,1.3c0.9,1 1.3,2.3 1.3,3.6c-0.2,0.8 -0.3,1.4 -0.4,2.1zm-2.6,-1.9c0,-0.1 0,-0.2 0,-0.3c0.1,-0.7 -0.2,-1.4 -0.6,-1.9c-0.4,-0.4 -0.9,-0.7 -1.5,-0.6c-0.6,0 -1.3,0.3 -1.7,0.7c-0.5,0.6 -0.9,1.3 -1,2.1l4.8,0z" class="st0"/>
  </g>
  <path id="svg_15" d="m20.120155,2.180145c9.9,0 17.9,8 17.9,17.9s-8,17.9 -17.9,17.9s-17.9,-8 -17.9,-17.9l0,0c0,-9.8 8,-17.9 17.9,-17.9m0,-2c-11,0 -20,8.9 -20,19.9s8.9,20 19.9,20c11,0 20,-8.9 20,-19.9c0,0 0,0 0,0c0,-11 -8.9,-20 -19.9,-20z" class="st1"/>
  <g id="svg_16">
   <path id="svg_17" d="m22.920155,10.780145l0,2.1c2.9,1.1 5,3.9 5,7.3c0,4.3 -3.5,7.8 -7.8,7.8s-7.8,-3.5 -7.8,-7.8l0,0c0,-3.1 1.8,-5.8 4.5,-7l0,-2.2c-3.8,1.3 -6.5,5 -6.5,9.2c0,5.4 4.4,9.8 9.8,9.8s9.8,-4.4 9.8,-9.8c0,-4.5 -3,-8.2 -7,-9.4z" class="st1"/>
  </g>
  <polyline id="svg_18" points="20.820158004760742,7.180144786834717 20.820158004760742,17.080145359039307 18.820158004760742,17.080145359039307 18.820158004760742,7.180144786834717 20.820158004760742,7.180144786834717 " class="st1"/>
 </g>
</svg>