<?xml version="1.0" encoding="UTF-8"?>
<svg width="207px" height="41px" viewBox="0 0 207 41" version="1.1" xmlns="http://www.w3.org/2000/svg" xmlns:xlink="http://www.w3.org/1999/xlink">
    <!-- Generator: Sketch 52.3 (67297) - http://www.bohemiancoding.com/sketch -->
    <title>Untitled</title>
    <desc>Created with Sketch.</desc>
    <g id="Page-1" stroke="none" stroke-width="1" fill="none" fill-rule="evenodd">
        <g id="dmr-logo">
            <g id="Group" transform="translate(54.000000, 12.000000)" fill="#000000">
                <path d="M0.9,15.7 L4.2,0 L8.4,0 C9.6,0 10.3,0 10.7,0 C11.3,0.1 11.9,0.2 12.4,0.4 C12.9,0.6 13.4,0.9 13.8,1.2 C14.2,1.6 14.6,2 14.9,2.5 C15.2,3 15.5,3.6 15.6,4.3 C15.8,5 15.9,5.7 15.8,6.5 C15.8,8.1 15.5,9.6 14.8,11 C14.2,12.2 13.4,13.3 12.4,14.1 C11.5,14.8 10.6,15.2 9.5,15.4 C8.5,15.6 7.4,15.7 6.4,15.6 L0.9,15.7 Z M4.7,13.2 L6.3,13.2 C7.2,13.2 8,13.2 8.9,13 C9.4,12.8 9.9,12.6 10.4,12.2 C11.1,11.5 11.6,10.8 12,9.9 C12.5,8.8 12.7,7.7 12.7,6.5 C12.7,5.6 12.5,4.8 12.1,4 C11.8,3.5 11.3,3.1 10.8,2.9 C10.1,2.7 9.5,2.7 8.8,2.7 L7,2.7 L4.7,13.2 Z" id="Shape" fill-rule="nonzero"></path>
                <path d="M27.3,11 L19.6,11 C19.6,11.1 19.6,11.2 19.6,11.3 C19.6,12 19.8,12.6 20.3,13.1 C20.7,13.6 21.3,13.8 21.9,13.8 C22.9,13.8 23.9,13.2 24.3,12.2 L27.1,12.7 C26.6,13.7 25.9,14.6 24.9,15.2 C24,15.8 23,16 21.9,16 C20.5,16.1 19.1,15.5 18.1,14.5 C17.1,13.5 16.6,12.1 16.7,10.7 C16.7,9.2 17.1,7.8 18,6.5 C19.1,4.9 21,4 23,4 C24.2,3.9 25.4,4.4 26.3,5.3 C27.2,6.3 27.7,7.6 27.6,9 C27.5,9.7 27.4,10.3 27.3,11 Z M24.7,9.1 C24.7,9 24.7,8.9 24.7,8.8 C24.8,8.1 24.5,7.4 24.1,6.9 C23.7,6.5 23.2,6.2 22.6,6.3 C22,6.3 21.4,6.6 20.9,7 C20.4,7.6 20,8.3 19.9,9.1 L24.7,9.1 Z" id="Shape" fill-rule="nonzero"></path>
                <polygon id="Path" points="27.9 15.7 31.2 3.55271368e-15 34.3 3.55271368e-15 31 15.7"></polygon>
                <path d="M36,4.3 L39.1,4.3 L36.7,15.7 L33.6,15.7 L36,4.3 Z M36.9,0 L40,0 L39.4,2.8 L36.3,2.8 L36.9,0 Z" id="Shape" fill-rule="nonzero"></path>
                <path d="M45,15.7 L42.4,15.7 L40,4.3 L43,4.3 L43.8,9.3 C44,10.6 44.2,11.5 44.2,12 C44.3,11.9 44.5,11.4 44.9,10.6 C45.3,9.8 45.6,9.3 45.7,9.1 L48.5,4.3 L51.8,4.3 L45,15.7 Z" id="Path"></path>
                <path d="M62.1,11 L54.4,11 C54.4,11.1 54.4,11.2 54.4,11.3 C54.4,12 54.6,12.6 55.1,13.1 C55.5,13.6 56.1,13.8 56.7,13.8 C57.8,13.8 58.7,13.1 59.1,12.2 L61.9,12.7 C61.4,13.7 60.7,14.6 59.8,15.2 C58.9,15.8 57.9,16 56.8,16 C55.4,16.1 54.1,15.5 53.1,14.5 C52.1,13.5 51.6,12.1 51.7,10.7 C51.7,9.2 52.1,7.8 53,6.5 C54.1,4.9 56,4 58,4 C59.2,3.9 60.4,4.4 61.3,5.3 C62.2,6.3 62.6,7.6 62.5,8.9 C62.3,9.7 62.2,10.3 62.1,11 Z M59.5,9.1 C59.5,9 59.5,8.9 59.5,8.8 C59.6,8.1 59.3,7.4 58.9,6.9 C58.5,6.5 58,6.2 57.4,6.3 C56.8,6.3 56.1,6.6 55.7,7 C55.2,7.6 54.8,8.3 54.7,9.1 L59.5,9.1 Z" id="Shape" fill-rule="nonzero"></path>
                <path d="M65,4.3 L67.9,4.3 L67.4,6.5 C68.5,4.9 69.6,4 70.9,4 C71.4,4 71.9,4.1 72.3,4.3 L71.1,6.8 C70.8,6.7 70.5,6.6 70.2,6.6 C69.6,6.6 69,6.8 68.6,7.2 C68,7.6 67.6,8.2 67.3,8.8 C66.9,9.8 66.6,10.9 66.4,12 L65.6,15.6 L62.5,15.6 L65,4.3 Z" id="Path"></path>
                <polygon id="Path" points="83.8 15.7 80.7 15.7 80.1 2.6 77.6 15.7 74.7 15.7 78 3.55271368e-15 82.6 3.55271368e-15 83.1 11 88.5 0 93.2 0 89.9 15.7 87 15.7 90.1 2.7"></polygon>
                <path d="M93.1,4.3 L96.2,4.3 L97,10 C97.2,11.5 97.3,12.5 97.3,13.1 C97.7,11.8 98.3,10.6 98.9,9.4 L101.6,4.4 L104.8,4.4 L97.8,16.9 C97.4,17.7 96.9,18.4 96.4,19.1 C96.1,19.5 95.7,19.9 95.2,20.1 C94.7,20.3 94.1,20.5 93.5,20.4 C92.8,20.4 92,20.3 91.3,20.1 L91.6,17.8 C92,17.9 92.3,18 92.7,18 C93.6,18 94.4,17.3 95,15.9 L93.1,4.3 Z" id="Path"></path>
                <path d="M111.1,15.7 L107.9,15.7 L111.2,3.55271368e-15 L118.2,3.55271368e-15 C119.1,3.55271368e-15 120.1,0.1 121,0.4 C121.7,0.7 122.2,1.1 122.6,1.8 C123,2.5 123.2,3.4 123.2,4.2 C123.2,5.4 122.8,6.6 122,7.5 C121,8.5 119.7,9 118.3,9.1 C118.8,9.5 119.2,10 119.5,10.6 C120.4,12.3 121.2,14 121.9,15.8 L118.4,15.8 C118.1,14.9 117.6,13.5 116.8,11.7 C116.5,10.9 116,10.2 115.4,9.7 C114.9,9.4 114.3,9.3 113.8,9.4 L112.5,9.4 L111.1,15.7 Z M113,6.8 L114.7,6.8 C115.9,6.9 117,6.8 118.1,6.5 C118.6,6.3 119.1,6 119.4,5.5 C119.7,5.1 119.9,4.6 119.9,4.1 C119.9,3.6 119.7,3.1 119.2,2.8 C118.6,2.6 118,2.5 117.3,2.5 L113.7,2.5 L113,6.8 Z" id="Shape" fill-rule="nonzero"></path>
                <path d="M125.1,4.3 L128.2,4.3 L125.8,15.7 L122.7,15.7 L125.1,4.3 Z M126,0 L129.1,0 L128.5,2.8 L125.4,2.8 L126,0 Z" id="Shape" fill-rule="nonzero"></path>
                <path d="M138.5,15.7 L135.6,15.7 L135.9,14.5 C135.4,15 134.9,15.4 134.3,15.7 C133.7,15.9 133.1,16.1 132.5,16 C131.4,16 130.4,15.6 129.6,14.8 C128.8,13.8 128.4,12.5 128.5,11.2 C128.5,9.4 129,7.7 130,6.3 C130.9,4.9 132.4,4.1 134.1,4.1 C135.5,4 136.8,4.7 137.5,5.9 L138.7,0 L141.8,0 L138.5,15.7 Z M131.4,11.1 C131.4,11.8 131.6,12.5 132,13 C132.4,13.4 132.9,13.7 133.5,13.7 C134.1,13.7 134.6,13.5 135.1,13.1 C135.6,12.6 136,12 136.3,11.3 C136.6,10.6 136.7,9.8 136.7,9 C136.7,8.3 136.5,7.6 136,7 C135.6,6.5 135.1,6.3 134.5,6.2 C133.5,6.2 132.7,6.8 132.3,7.7 C131.7,8.8 131.4,9.9 131.4,11.1 Z" id="Shape" fill-rule="nonzero"></path>
                <path d="M151.6,11 L143.9,11 C143.9,11.1 143.9,11.2 143.9,11.3 C143.9,12 144.1,12.6 144.5,13.1 C144.9,13.6 145.5,13.8 146.1,13.8 C147.1,13.8 148.1,13.2 148.5,12.2 L151.3,12.7 C150.8,13.7 150.1,14.6 149.2,15.2 C148.3,15.8 147.3,16 146.2,16 C144.8,16.1 143.5,15.5 142.5,14.5 C141.5,13.5 141,12.1 141.1,10.7 C141.1,9.2 141.5,7.8 142.4,6.5 C143.5,4.9 145.4,4 147.4,4 C148.6,3.9 149.8,4.4 150.7,5.3 C151.6,6.3 152,7.6 152,8.9 C151.8,9.7 151.7,10.3 151.6,11 Z M149,9.1 C149,9 149,8.9 149,8.8 C149.1,8.1 148.8,7.4 148.4,6.9 C148,6.5 147.5,6.2 146.9,6.3 C146.3,6.3 145.6,6.6 145.2,7 C144.7,7.6 144.3,8.3 144.2,9.1 L149,9.1 Z" id="Shape" fill-rule="nonzero"></path>
            </g>
            <path d="M20.8,2.9 C30.7,2.9 38.7,10.9 38.7,20.8 C38.7,30.7 30.7,38.7 20.8,38.7 C10.9,38.7 2.9,30.7 2.9,20.8 C2.9,11 10.9,2.9 20.8,2.9 Z M20.8,0.9 C9.8,0.9 0.8,9.8 0.8,20.8 C0.8,31.8 9.7,40.8 20.7,40.8 C31.7,40.8 40.7,31.9 40.7,20.9 C40.7,20.9 40.7,20.9 40.7,20.9 C40.7,9.9 31.8,0.9 20.8,0.9 Z" id="Shape" fill="#41B1AC" fill-rule="nonzero"></path>
            <path d="M23.6,11.5 L23.6,13.6 C26.5,14.7 28.6,17.5 28.6,20.9 C28.6,25.2 25.1,28.7 20.8,28.7 C16.5,28.7 13,25.2 13,20.9 C13,17.8 14.8,15.1 17.5,13.9 L17.5,11.7 C13.7,13 11,16.7 11,20.9 C11,26.3 15.4,30.7 20.8,30.7 C26.2,30.7 30.6,26.3 30.6,20.9 C30.6,16.4 27.6,12.7 23.6,11.5 Z" id="Path" fill="#41B1AC"></path>
            <polyline id="Path" fill="#41B1AC" points="21.5 7.9 21.5 17.8 19.5 17.8 19.5 7.9 21.5 7.9"></polyline>
        </g>
    </g>
</svg>