<?xml version="1.0" encoding="UTF-8"?>
<!DOCTYPE svg PUBLIC "-//W3C//DTD SVG 1.1//EN" "http://www.w3.org/Graphics/SVG/1.1/DTD/svg11.dtd">
<!-- Creator: CorelDRAW X6 -->
<svg xmlns="http://www.w3.org/2000/svg" xml:space="preserve" width="250px" height="46px" version="1.1" style="shape-rendering:geometricPrecision; text-rendering:geometricPrecision; image-rendering:optimizeQuality; fill-rule:evenodd; clip-rule:evenodd"
viewBox="0 0 3542 639"
 xmlns:xlink="http://www.w3.org/1999/xlink">
 <title>Deliver My Ride</title>
 <defs>
  <style type="text/css">
   <![CDATA[
    .fil2 {fill:#424444;fill-rule:nonzero}
    .fil1 {fill:#FEFEFE;fill-rule:nonzero}
    .fil0 {fill:url(#id0)}
   ]]>
  </style>
  <linearGradient id="id0" gradientUnits="userSpaceOnUse" x1="21.5906" y1="315.894" x2="645.181" y2="315.894">
   <stop offset="0" style="stop-color:#1ed2f4"/>
   <stop offset="1" style="stop-color:#1ed2f4"/>
  </linearGradient>
 </defs>
 <g id="Layer_x0020_1">
  <metadata id="CorelCorpID_0Corel-Layer"/>
  <path class="fil0" d="M645 316c0,172 -140,312 -312,312 -172,0 -312,-140 -312,-312 0,-172 140,-312 312,-312 172,0 312,140 312,312z"/>
  <path class="fil1" d="M379 161l0 46c44,18 74,61 74,110 0,66 -53,119 -119,119 -66,0 -119,-53 -119,-119 0,-48 30,-92 74,-110l0 -46c-69,20 -117,83 -117,156 0,89 73,162 162,162 89,0 162,-73 162,-162 0,-72 -48,-136 -117,-156z"/>
  <polygon class="fil1" points="312,321 355,321 355,121 312,121 "/>
  <path class="fil2" d="M967 375c16,0 32,-3 46,-8 14,-5 26,-13 36,-22 8,-8 14,-17 18,-28 4,-11 6,-22 6,-34 0,-16 -5,-30 -14,-39 -5,-5 -13,-10 -22,-13 -9,-3 -21,-5 -35,-5l-26 0 -40 149 31 0zm-32 -198l72 0c24,0 44,3 59,9 16,6 28,14 37,23 18,18 27,42 27,72 0,19 -3,36 -10,53 -7,16 -17,31 -30,45 -15,15 -33,26 -54,34 -21,8 -46,12 -75,12l-92 0 66 -247z"/>
  <path class="fil2" d="M1283 315c1,-4 2,-8 2,-12 0,-8 -2,-14 -7,-20 -5,-5 -13,-8 -24,-8 -12,0 -23,4 -32,11 -9,7 -16,17 -21,29l82 0zm-75 61c7,7 17,10 31,10 7,0 14,-1 20,-4 7,-2 14,-6 22,-12l25 33c-8,7 -19,13 -31,18 -12,5 -26,7 -42,7 -14,0 -26,-2 -37,-6 -11,-4 -20,-9 -28,-17 -8,-7 -13,-16 -17,-26 -4,-10 -6,-22 -6,-35 0,-14 3,-27 8,-41 5,-14 13,-26 23,-36 10,-11 22,-19 35,-26 14,-7 29,-10 46,-10 12,0 23,2 33,6 10,4 18,9 24,16 7,7 12,14 15,23 3,9 5,19 5,29 0,7 -1,14 -2,21 -2,7 -4,15 -7,22l-130 0c1,11 5,20 12,27z"/>
  <polygon class="fil2" points="1416,167 1470,167 1401,424 1347,424 "/>
  <path class="fil2" d="M1522 167l56 0 -13 48 -56 0 13 -48zm-17 68l54 0 -51 189 -54 0 51 -189z"/>
  <polygon class="fil2" points="1589,235 1644,235 1652,361 1728,235 1785,235 1661,426 1612,426 "/>
  <path class="fil2" d="M1913 315c1,-4 2,-8 2,-12 0,-8 -2,-14 -7,-20 -5,-5 -13,-8 -24,-8 -12,0 -23,4 -32,11 -9,7 -16,17 -21,29l82 0zm-75 61c7,7 17,10 31,10 7,0 14,-1 20,-4 7,-2 14,-6 22,-12l25 33c-8,7 -19,13 -31,18 -12,5 -26,7 -42,7 -14,0 -26,-2 -37,-6 -11,-4 -20,-9 -28,-17 -8,-7 -13,-16 -17,-26 -4,-10 -6,-22 -6,-35 0,-14 3,-27 8,-41 5,-14 13,-26 23,-36 10,-11 22,-19 35,-26 14,-7 29,-10 46,-10 12,0 23,2 33,6 10,4 18,9 24,16 7,7 12,14 15,23 3,9 5,19 5,29 0,7 -1,14 -2,21 -2,7 -4,15 -7,22l-130 0c1,11 5,20 12,27z"/>
  <path class="fil2" d="M2024 235l54 0 -10 38c10,-14 20,-25 32,-32 11,-7 25,-11 40,-9l-15 56 -3 0c-18,0 -33,5 -47,16 -13,11 -23,29 -30,53l-18 67 -54 0 50 -189z"/>
  <polygon class="fil2" points="2271,177 2328,177 2363,282 2455,177 2518,177 2452,424 2397,424 2440,263 2343,369 2342,369 2302,264 2259,424 2205,424 "/>
  <path class="fil2" d="M2505 478c-7,-2 -13,-6 -19,-10l29 -39c3,2 6,4 10,5 4,1 7,2 11,2 4,0 8,-1 11,-2 3,-2 6,-5 10,-9l-23 -191 55 0 9 128 71 -128 58 0 -117 194c-12,20 -24,33 -36,41 -12,8 -26,12 -42,12 -10,0 -18,-1 -25,-4z"/>
  <path class="fil2" d="M2899 297c8,0 16,-1 24,-3 7,-2 14,-4 19,-8 5,-3 10,-8 13,-13 3,-5 5,-11 5,-18 0,-8 -3,-14 -8,-20 -7,-7 -19,-10 -36,-10l-46 0 -19 71 48 0zm-71 -120l90 0c18,0 34,2 47,6 13,4 23,10 32,19 13,13 19,29 19,50 0,22 -7,41 -20,56 -13,15 -33,26 -60,32l42 84 -62 0 -38 -79 -41 0 -21 79 -54 0 66 -247z"/>
  <path class="fil2" d="M3077 167l56 0 -13 48 -56 0 13 -48zm-17 68l54 0 -51 189 -54 0 51 -189z"/>
  <path class="fil2" d="M3230 377c7,-3 13,-8 18,-14 5,-6 10,-13 13,-21 3,-8 5,-16 5,-25 0,-12 -4,-22 -11,-29 -8,-7 -17,-11 -29,-11 -7,0 -14,2 -21,5 -7,3 -13,8 -18,14 -5,6 -9,13 -13,21 -3,8 -5,17 -5,26 0,12 4,22 11,29 7,7 17,10 29,10 7,0 14,-2 21,-5zm-72 45c-9,-4 -17,-9 -23,-16 -7,-7 -12,-15 -15,-26 -4,-10 -5,-22 -5,-34 0,-17 3,-32 9,-46 6,-14 14,-26 23,-37 10,-10 21,-18 33,-24 12,-6 25,-8 39,-8 15,0 27,3 36,9 9,6 17,13 23,23l25 -96 54 0 -69 258 -54 0 6 -21c-8,8 -17,14 -25,18 -8,4 -18,6 -28,6 -10,0 -20,-2 -29,-5z"/>
  <path class="fil2" d="M3475 315c1,-4 2,-8 2,-12 0,-8 -2,-14 -7,-20 -5,-5 -13,-8 -24,-8 -12,0 -23,4 -32,11 -9,7 -16,17 -21,29l82 0zm-75 61c7,7 17,10 31,10 7,0 14,-1 20,-4 7,-2 14,-6 22,-12l25 33c-8,7 -19,13 -31,18 -12,5 -26,7 -42,7 -14,0 -26,-2 -37,-6 -11,-4 -20,-9 -28,-17 -8,-7 -13,-16 -17,-26 -4,-10 -6,-22 -6,-35 0,-14 3,-27 8,-41 5,-14 13,-26 23,-36 10,-11 22,-19 35,-26 14,-7 29,-10 46,-10 12,0 23,2 33,6 10,4 18,9 24,16 7,7 12,14 15,23 3,9 5,19 5,29 0,7 -1,14 -2,21 -2,7 -4,15 -7,22l-130 0c1,11 5,20 12,27z"/>
 </g>
</svg>
