<svg version="1.1" id="Layer_1" xmlns="http://www.w3.org/2000/svg" xmlns:xlink="http://www.w3.org/1999/xlink" x="0px" y="0px"
		 viewBox="0 0 26.2 26" style="enable-background:new 0 0 26.2 26;" xml:space="preserve">
	<style type="text/css">
		.st0{fill:#D0CFD0;}
	</style>
	<g>
		<path class="st0" d="M9,3.8H7.5c-0.9,0-1.6-0.7-1.6-1.6v-2h4.7v2C10.6,3.1,9.8,3.8,9,3.8z"/>
		<path class="st0" d="M18.7,3.8h-1.5c-0.9,0-1.6-0.7-1.6-1.6v-2h4.7v2C20.3,3.1,19.5,3.8,18.7,3.8z"/>
		<path class="st0" d="M13.4,15.1h-0.6c-0.7,0-1.2-0.5-1.2-1.2v-9h3.1l0,9C14.6,14.6,14,15.1,13.4,15.1z"/>
		<path class="st0" d="M9.8,16.5l-0.4,0.2l-0.1,8.1c0,0.6-0.5,1-1,1H1.2c-0.6,0-1.1-0.5-1.1-1.1l0-7.6L3.6,5.7
			c0.1-0.5,0.6-0.8,1.1-0.8h5.9v10.5C10.6,15.9,10.3,16.3,9.8,16.5z"/>
		<path class="st0" d="M16.3,16.5l0.4,0.2l0.1,8.1c0,0.6,0.5,1,1,1h7.2c0.6,0,1.1-0.5,1.1-1.1l0-7.6L22.6,5.7
			c-0.1-0.5-0.6-0.8-1.1-0.8h-5.9v10.5C15.6,15.9,15.8,16.3,16.3,16.5z"/>
	</g>
</svg>
