<svg id="Layer_1" data-name="Layer 1" xmlns="http://www.w3.org/2000/svg" viewBox="0 0 51.91 52.58">
  <defs>
    <style>
      .cls-1 {
        fill: #999;
      }
    </style>
  </defs>
  <title>TagIcon</title>
  <path class="cls-1" d="M1.2,4.66a4.4,4.4,0,0,1,1-2.37,3.61,3.61,0,0,1,1.55-.88,2.78,2.78,0,0,1,.76-.09H20.27s2.68-.22,3.87,1L50.08,28.22a3.81,3.81,0,0,1,.4.5,4.21,4.21,0,0,1,.72,2.07,6.38,6.38,0,0,1-.74,3.1,3,3,0,0,1-.49.63L34.11,50.38a4.93,4.93,0,0,1-3.34.94,5.11,5.11,0,0,1-3.57-1.16L2.47,24.51a3,3,0,0,1-.72-1.21,10.64,10.64,0,0,1-.55-3.2ZM12,7.23a4.63,4.63,0,1,0,4.63,4.62A4.62,4.62,0,0,0,12,7.23Z"/>
</svg>
