<!-- Generator: Adobe Illustrator 21.0.2, SVG Export Plug-In  -->
<svg version="1.1"
	 xmlns="http://www.w3.org/2000/svg" xmlns:xlink="http://www.w3.org/1999/xlink" xmlns:a="http://ns.adobe.com/AdobeSVGViewerExtensions/3.0/"
	 x="0px" y="0px" width="90.6px" height="34.3px" viewBox="0 0 90.6 34.3" style="enable-background:new 0 0 90.6 34.3;"
	 xml:space="preserve">
<style type="text/css">
	.st0{fill:#6D6E71;}
	.st1{fill-rule:evenodd;clip-rule:evenodd;fill:#6D6E71;}
</style>
<defs>
</defs>
<path class="st0" d="M6.4,30c-4.3,0-6-2.7-6.4-4.2l0-5.7l0.4-0.4C1,19.1,1.9,18,1.9,17.3L2,13.8c0.1-1.1,0.6-2.1,1.5-2.7l9.6-7
	l-1.2-1.9l1.5-0.5C16.9,0.6,19.2,0,25.1,0L44,0c2.9,0.3,5.3,0.7,7.3,1.3c4.1,1.3,13.4,6.9,15,7.8c1.2,0.2,6.9,1.1,13.2,2.7
	c7.6,1.9,10.1,5,10.4,6.3L90.6,29l-1,0.2c-1.8,0.4-3.2,0.7-7.1,0.7h-4.9v-2.4h4.9c2.9,0,4.3-0.1,5.6-0.4l0-0.5l-0.4-8.2
	c-0.2-0.3-2.2-2.7-8.7-4.4c-6.9-1.8-13.1-2.7-13.2-2.7l-0.4-0.2c-0.1-0.1-10.5-6.4-14.6-7.7c-1.9-0.6-4.1-1-6.7-1.2l-18.8,0
	c-4.7,0-6.9,0.4-9.6,1.1l0.8,1.2L4.9,13c-0.3,0.2-0.5,0.5-0.5,0.9l-0.2,3.4c0,1.5-1.2,3.1-1.9,3.8v4.3c0.2,0.5,1.1,2.3,4.3,2.2
	l3.2,0V30H6.7C6.6,30,6.5,30,6.4,30z M66.3,30H21.1v-2.4h45.1V30z"/>
<path class="st1" d="M3.2,13.7l0,0.2l-0.2,2.9h3.3c0,0,2.1-2.4,2.1-3.8C8.4,13,6.1,12.9,3.2,13.7z"/>
<path class="st1" d="M15,10.5c3.3-3.8,6.3-6.9,10.8-6.9c5,0,13.1,0,18.1,0C49,4,52.7,5.8,56.6,8l0,0l0,0c-0.8,0.8-1.3,1.8-1.3,2.9
	c0,0.4,0.1,0.7,0.2,1C45.7,12,21.8,12.4,15,10.5z"/>
<path class="st1" d="M15.5,16.9L15.5,16.9c2.5,0,4.8,1,6.5,2.7l0,0c1.7,1.7,2.7,4,2.7,6.5v2.7V30h-1.2H21c0.6-1,1-2.2,1-3.4
	c0-3.6-2.9-6.5-6.5-6.5S9,22.9,9,26.5c0,1.3,0.4,2.4,1,3.4H7.5H6.3v-1.2v-2.7c0-2.5,1-4.8,2.7-6.5C10.7,17.9,13,16.9,15.5,16.9
	L15.5,16.9z M71.9,16.9L71.9,16.9c2.5,0,4.8,1,6.5,2.7l0,0c1.7,1.7,2.7,4,2.7,6.5v2.7V30h-1.2h-2.5c0.6-1,1-2.2,1-3.4
	c0-3.6-2.9-6.5-6.5-6.5c-3.6,0-6.5,2.9-6.5,6.5c0,1.3,0.4,2.4,1,3.4h-2.5h-1.2v-1.2v-2.7c0-2.5,1-4.8,2.7-6.5
	C67.1,17.9,69.4,16.9,71.9,16.9z"/>
<rect x="33.2" y="14.7" class="st0" width="3.5" height="1.6"/>
<path class="st1" d="M57.1,8.6L57.1,8.6c-0.7,0.7-1,1.5-1.1,2.4c0,0.3,0.1,0.6,0.3,0.8c0.2,0.2,0.5,0.4,0.8,0.4h2.6
	c0.4,0,0.8-0.2,1-0.6c0.2-0.4,0.2-0.8,0-1.2c-0.5-0.8-1.3-1.6-2.5-2.1C57.9,8.2,57.5,8.3,57.1,8.6z"/>
<path class="st0" d="M59.3,13.4c-0.2,0-0.5-0.1-0.6-0.3l-1.5-2c-0.3-0.4-0.2-0.9,0.2-1.1c0.4-0.3,0.9-0.2,1.1,0.2l1.5,2
	c0.3,0.4,0.2,0.9-0.2,1.1C59.6,13.3,59.5,13.4,59.3,13.4z"/>
<polygon class="st1" points="15.5,3.5 6.6,10.3 12,10.3 16.5,4.6 "/>
<path class="st1" d="M81.4,16.5l2.3,4.1c0.7-0.4,1.8-0.7,2.7-0.7h0h0h0h0h0h0c0.8,0,1.5,0,2.3,0l-0.1-1.4c-0.4-0.7-1-1.4-1.7-2H81.4
	z"/>
<rect x="86.5" y="23.9" class="st0" width="2.7" height="1.6"/>
<path class="st1" d="M86.1,23.4h-1.2c-0.5,0-0.8,0.4-0.8,0.8v0.9c0,0.5,0.4,0.8,0.8,0.8h1.2c0.5,0,0.8-0.4,0.8-0.8v-0.9
	C87,23.8,86.6,23.4,86.1,23.4z"/>
<g>
	<path class="st1" d="M71.9,21.1c-1.5,0-2.8,0.6-3.8,1.6c-1,1-1.6,2.3-1.6,3.8c0,1.5,0.6,2.8,1.6,3.8c1,1,2.3,1.6,3.8,1.6
		c1.5,0,2.8-0.6,3.8-1.6c1-1,1.6-2.3,1.6-3.8c0-1.5-0.6-2.8-1.6-3.8C74.8,21.7,73.4,21.1,71.9,21.1L71.9,21.1z M66.4,21
		c1.4-1.4,3.4-2.3,5.5-2.3c2.2,0,4.1,0.9,5.5,2.3c1.4,1.4,2.3,3.4,2.3,5.5c0,2.2-0.9,4.1-2.3,5.5c-1.4,1.4-3.4,2.3-5.5,2.3
		c-2.2,0-4.1-0.9-5.5-2.3c-1.4-1.4-2.3-3.4-2.3-5.5C64.1,24.4,65,22.4,66.4,21L66.4,21z M15.5,21.1c-1.5,0-2.8,0.6-3.8,1.6
		c-1,1-1.6,2.3-1.6,3.8c0,1.5,0.6,2.8,1.6,3.8c1,1,2.3,1.6,3.8,1.6c1.5,0,2.8-0.6,3.8-1.6c1-1,1.6-2.3,1.6-3.8
		c0-1.5-0.6-2.8-1.6-3.8C18.3,21.7,17,21.1,15.5,21.1L15.5,21.1z M10,21c1.4-1.4,3.4-2.3,5.5-2.3s4.1,0.9,5.5,2.3
		c1.4,1.4,2.3,3.4,2.3,5.5c0,2.2-0.9,4.1-2.3,5.5c-1.4,1.4-3.4,2.3-5.5,2.3S11.4,33.5,10,32c-1.4-1.4-2.3-3.4-2.3-5.5
		C7.7,24.4,8.6,22.4,10,21z"/>
	<path class="st1" d="M15.5,24.6c-1.1,0-1.9,0.9-1.9,1.9c0,1.1,0.9,1.9,1.9,1.9c0.2,0,0.4,0,0.5-0.1c0.8-0.2,1.4-1,1.4-1.9
		C17.4,25.5,16.6,24.6,15.5,24.6z"/>
	<polygon class="st1" points="27.8,23.3 27.8,25.3 54.1,25.3 	"/>
	<circle class="st1" cx="71.9" cy="26.5" r="1.9"/>
</g>
</svg>
