<!-- Generator: Adobe Illustrator 21.0.2, SVG Export Plug-In  -->
<svg version="1.1"
	 xmlns="http://www.w3.org/2000/svg" xmlns:xlink="http://www.w3.org/1999/xlink" xmlns:a="http://ns.adobe.com/AdobeSVGViewerExtensions/3.0/"
	 x="0px" y="0px" width="105.8px" height="37.3px" viewBox="0 0 105.8 37.3" style="enable-background:new 0 0 105.8 37.3;"
	 xml:space="preserve">
<style type="text/css">
	.st0{fill-rule:evenodd;clip-rule:evenodd;fill:#6D6E71;}
	.st1{fill:#6D6E71;}
</style>
<defs>
</defs>
<path class="st0" d="M30,12.2c-2.3,0-8.7-0.5-12-2.4c5.1-2.8,14.4-6.2,19-6.2c4.1,0,9.2,0,13.2,0c6.3,0,11.6,2.3,16.7,5.1
	c-0.8,0.8-1.3,1.9-1.3,3.1c0,0.1,0,0.3,0,0.4H30z"/>
<path class="st1" d="M11.7,32.5c-5.3,0-10.9-3.6-11.1-3.7L0,28.4v-8.1L0.2,20c0.3-0.5,1-1.9,1-3l0.3-7.5L6,8.6C12,5.8,27.8,0,38.8,0
	h13.7c3.1,0.3,5.8,0.7,8,1.4C64.9,2.8,75,8.9,76.7,9.9c1.6,0.2,10.1,1.2,17,3c8.2,2.1,11,5.4,11.3,6.8l0.7,11.8l-1,0.2
	c-1.9,0.4-3.5,0.7-7.7,0.7h-4v-2.4h4c3.2,0,4.8-0.2,6.2-0.5l0-0.6l-0.5-8.9c-0.2-0.4-2.4-3-9.6-4.8c-7.5-1.9-16.8-3-16.9-3l-0.5-0.2
	c-0.1-0.1-11.5-7-16-8.4c-2-0.6-4.5-1.1-7.4-1.3l-13.6,0c-10.6,0-26.1,5.7-31.9,8.5l-0.3,0.1l-2.8,0.6L3.5,17c0,1.6-0.8,3.2-1.2,3.9
	V27c1.5,0.9,5.8,3.1,9.6,3l3.2,0v2.4H12C11.9,32.5,11.8,32.5,11.7,32.5z M79.6,32.5H28.5v-2.4h51.1V32.5z"/>
<path class="st0" d="M2.4,15.8c0,1.2-0.1,2.4-0.1,3.1h1.5c1.9,0,4.5-1.5,4.6-3.1v-1.5H2.4L2.4,15.8L2.4,15.8z"/>
<path class="st0" d="M95.9,18.7l2.3,4.1c0.7-0.4,1.8-0.7,2.7-0.7h0h0h0h0h0h0c1.2,0,2.4,0,3.6,0l0-0.2c-0.1-0.4-1.2-2.3-2.4-3.2
	C100,18.7,98,18.7,95.9,18.7z"/>
<rect x="50.5" y="15.4" class="st1" width="5.5" height="1.6"/>
<rect x="26" y="15.4" class="st1" width="5.5" height="1.6"/>
<polygon class="st0" points="36.2,25.3 36.2,27.3 73.6,27.3 "/>
<rect x="101.8" y="26.1" class="st1" width="2.7" height="1.6"/>
<path class="st0" d="M101.4,25.6h-1.2c-0.5,0-0.8,0.4-0.8,0.8v0.9c0,0.5,0.4,0.8,0.8,0.8h1.2c0.5,0,0.8-0.4,0.8-0.8v-0.9
	C102.3,26,101.9,25.6,101.4,25.6z"/>
<path class="st0" d="M67.8,9.4L67.8,9.4c-0.7,0.7-1,1.5-1.1,2.4c0,0.3,0.1,0.6,0.3,0.8c0.2,0.2,0.5,0.4,0.8,0.4h2.6
	c0.4,0,0.8-0.2,1-0.6c0.2-0.4,0.2-0.8,0-1.2c-0.5-0.8-1.3-1.6-2.5-2.1C68.6,9,68.2,9.1,67.8,9.4z"/>
<path class="st1" d="M70,14.2c-0.2,0-0.5-0.1-0.6-0.3l-1.5-2c-0.3-0.4-0.2-0.9,0.2-1.1c0.4-0.3,0.9-0.2,1.1,0.2l1.5,2
	c0.3,0.4,0.2,0.9-0.2,1.1C70.3,14.2,70.2,14.2,70,14.2z"/>
<path class="st0" d="M1.9,28.1v3.4h8.7v-0.3C7,30.9,3.3,29,1.9,28.1z"/>
<g>
	<path class="st0" d="M21.8,18.1L21.8,18.1c2.8,0,5.3,1.1,7.2,3l0,0l0,0c1.8,1.8,3,4.4,3,7.2v3v1.2h-1.2h-2.6c0.6-1.1,1-2.4,1-3.7
		c0-4.1-3.3-7.4-7.4-7.4c-4.1,0-7.4,3.3-7.4,7.4c0,1.3,0.4,2.6,1,3.7h-2.6h-1.2v-1.2v-3c0-2.8,1.1-5.3,3-7.2l0,0l0,0
		C16.5,19.2,19,18.1,21.8,18.1z"/>
	<path class="st0" d="M15.7,22.7c1.6-1.6,3.7-2.5,6.1-2.5c2.4,0,4.5,1,6.1,2.5l0,0c1.6,1.6,2.5,3.7,2.5,6.1c0,2.4-1,4.5-2.5,6.1h0
		c-1.6,1.6-3.7,2.5-6.1,2.5c-2.4,0-4.5-1-6.1-2.5c-1.6-1.6-2.5-3.7-2.5-6.1C13.2,26.4,14.2,24.2,15.7,22.7L15.7,22.7L15.7,22.7z
		 M21.8,22.7c-3.3,0-6,2.7-6,6s2.7,6,6,6s6-2.7,6-6S25.1,22.7,21.8,22.7z"/>
	<circle class="st0" cx="21.8" cy="28.8" r="2.2"/>
</g>
<g>
	<path class="st0" d="M86.3,18.1L86.3,18.1c2.8,0,5.3,1.1,7.2,3l0,0l0,0c1.8,1.8,3,4.4,3,7.2v3v1.2h-1.2h-2.6c0.6-1.1,1-2.4,1-3.7
		c0-4.1-3.3-7.4-7.4-7.4c-4.1,0-7.4,3.3-7.4,7.4c0,1.3,0.4,2.6,1,3.7h-2.6h-1.2v-1.2v-3c0-2.8,1.1-5.3,3-7.2l0,0l0,0
		C81,19.2,83.5,18.1,86.3,18.1z"/>
	<path class="st0" d="M80.2,22.7c1.6-1.6,3.7-2.5,6.1-2.5c2.4,0,4.5,1,6.1,2.5l0,0c1.6,1.6,2.5,3.7,2.5,6.1c0,2.4-1,4.5-2.5,6.1h0
		c-1.6,1.6-3.7,2.5-6.1,2.5c-2.4,0-4.5-1-6.1-2.5c-1.6-1.6-2.5-3.7-2.5-6.1C77.7,26.4,78.7,24.2,80.2,22.7L80.2,22.7L80.2,22.7z
		 M86.3,22.7c-3.3,0-6,2.7-6,6s2.7,6,6,6c3.3,0,6-2.7,6-6S89.6,22.7,86.3,22.7z"/>
	<circle class="st0" cx="86.3" cy="28.8" r="2.2"/>
</g>
</svg>
