<!-- Generator: Adobe Illustrator 21.0.2, SVG Export Plug-In  -->
<svg version="1.1"
	 xmlns="http://www.w3.org/2000/svg" xmlns:xlink="http://www.w3.org/1999/xlink" xmlns:a="http://ns.adobe.com/AdobeSVGViewerExtensions/3.0/"
	 x="0px" y="0px" width="108.1px" height="37.4px" viewBox="0 0 108.1 37.4" style="enable-background:new 0 0 108.1 37.4;"
	 xml:space="preserve">
<style type="text/css">
	.st0{fill-rule:evenodd;clip-rule:evenodd;fill:#6D6E71;}
	.st1{fill:#6D6E71;}
</style>
<defs>
</defs>
<path class="st0" d="M23.1,12.2c-4.2,0-6.4-0.2-8.7-1c10.8-7.9,9.5-7.6,24-7.6c3.7,0,10,0,14.7,0c2.9,0,5.8,0.4,8.6,1.3
	c2.1,0.7,5,2.1,7.8,3.6c-0.1,0-0.1,0.1-0.2,0.2l0,0c-0.9,0.9-1.4,1.9-1.4,3.1c0,0.1,0,0.3,0,0.4H23.1z"/>
<path class="st1" d="M11.7,32.5c-5.3,0-10.9-3.6-11.1-3.7L0,28.4v-8.1L0.2,20c0.3-0.5,1-1.9,1-3l0.3-5.6L12,4.2l-0.3-2.3l1.1-0.2
	C17.1,0.7,24.9,0,31.6,0l23.2,0c3.1,0.3,5.8,0.8,8,1.4c4.5,1.4,14.6,7.5,16.3,8.5c1.6,0.2,10.1,1.2,17,3c8.2,2.1,11,5.4,11.3,6.8
	l0.7,11.8l-1,0.2c-1.9,0.4-3.5,0.7-7.7,0.7h-4.2v-2.4h4.2c3.2,0,4.8-0.2,6.2-0.5l0-0.6l-0.5-8.9c-0.2-0.4-2.4-3-9.6-4.8
	c-7.5-1.9-16.8-3-16.9-3l-0.5-0.2c-0.1-0.1-11.5-7-16-8.4c-2-0.6-4.5-1.1-7.4-1.3l-23.1,0c-6,0-12.8,0.5-17.2,1.3l0.2,1.6L3.8,12.7
	l-0.2,4.3c0,1.6-0.8,3.2-1.2,3.9V27c1.5,0.9,5.7,3.1,9.6,3l7.3,0v2.4H12C11.9,32.5,11.8,32.5,11.7,32.5z M82.2,32.5H32.2v-2.4h49.9
	V32.5z"/>
<path class="st0" d="M1.6,19h1.5c1.9,0,4.5-1.5,4.6-3.1v-1.5H1.6C1.6,15.9,1.6,17.4,1.6,19z"/>
<path class="st0" d="M98.3,18.7l2.3,4.1c0.7-0.4,1.8-0.7,2.7-0.7h0h0h0h0h0h0c1.2,0,2.4,0,3.6,0l0-0.2c-0.1-0.4-1.2-2.3-2.4-3.2
	C102.4,18.7,100.4,18.7,98.3,18.7z"/>
<rect x="52.8" y="15.4" class="st1" width="5.5" height="1.6"/>
<rect x="29.9" y="15.4" class="st1" width="5.5" height="1.6"/>
<polygon class="st0" points="38.6,25.3 38.6,27.3 76,27.3 "/>
<rect x="104.2" y="26.1" class="st1" width="2.7" height="1.6"/>
<path class="st0" d="M103.8,25.6h-1.2c-0.5,0-0.8,0.4-0.8,0.8v0.9c0,0.5,0.4,0.8,0.8,0.8h1.2c0.5,0,0.8-0.4,0.8-0.8v-0.9
	C104.6,26,104.2,25.6,103.8,25.6z"/>
<path class="st0" d="M70.2,9.4L70.2,9.4c-0.7,0.7-1,1.5-1.1,2.4c0,0.3,0.1,0.6,0.3,0.8c0.2,0.2,0.5,0.4,0.8,0.4h2.6
	c0.4,0,0.8-0.2,1-0.6c0.2-0.4,0.2-0.8,0-1.2c-0.5-0.8-1.3-1.6-2.5-2.1C71,9,70.5,9.1,70.2,9.4z"/>
<path class="st1" d="M72.4,14.2c-0.2,0-0.5-0.1-0.6-0.3l-1.5-2c-0.3-0.4-0.2-0.9,0.2-1.1c0.4-0.3,0.9-0.2,1.1,0.2l1.5,2
	c0.3,0.4,0.2,0.9-0.2,1.1C72.7,14.2,72.5,14.2,72.4,14.2z"/>
<path class="st0" d="M1.9,28.1v3.4h8.7v-0.3C7,30.9,3.3,29,1.9,28.1z"/>
<g>
	<path class="st0" d="M25.7,18.1L25.7,18.1c2.8,0,5.3,1.1,7.2,3l0,0l0,0c1.8,1.8,3,4.4,3,7.2v3v1.2h-1.2h-2.6c0.6-1.1,1-2.4,1-3.7
		c0-4.1-3.3-7.4-7.4-7.4c-4.1,0-7.4,3.3-7.4,7.4c0,1.3,0.4,2.6,1,3.7h-2.6h-1.2v-1.2v-3c0-2.8,1.1-5.3,3-7.2l0,0l0,0
		C20.4,19.2,22.9,18.1,25.7,18.1z"/>
	<path class="st0" d="M19.7,22.7c1.6-1.6,3.7-2.5,6.1-2.5c2.4,0,4.5,1,6.1,2.5l0,0c1.6,1.6,2.5,3.7,2.5,6.1c0,2.4-1,4.5-2.5,6.1h0
		c-1.6,1.6-3.7,2.5-6.1,2.5c-2.4,0-4.5-1-6.1-2.5c-1.6-1.6-2.5-3.7-2.5-6.1C17.1,26.4,18.1,24.2,19.7,22.7L19.7,22.7L19.7,22.7z
		 M25.7,22.8c-3.3,0-6,2.7-6,6s2.7,6,6,6s6-2.7,6-6S29,22.8,25.7,22.8z"/>
	<circle class="st0" cx="25.7" cy="28.8" r="2.2"/>
</g>
<g>
	<path class="st0" d="M88.7,18.1L88.7,18.1c2.8,0,5.3,1.1,7.2,3l0,0l0,0c1.8,1.8,3,4.4,3,7.2v3v1.2h-1.2H95c0.6-1.1,1-2.4,1-3.7
		c0-4.1-3.3-7.4-7.4-7.4c-4.1,0-7.4,3.3-7.4,7.4c0,1.3,0.4,2.6,1,3.7h-2.6h-1.2v-1.2v-3c0-2.8,1.1-5.3,3-7.2l0,0l0,0
		C83.3,19.2,85.9,18.1,88.7,18.1z"/>
	<path class="st0" d="M82.6,22.7c1.6-1.6,3.7-2.5,6.1-2.5c2.4,0,4.5,1,6.1,2.5l0,0c1.6,1.6,2.5,3.7,2.5,6.1c0,2.4-1,4.5-2.5,6.1h0
		c-1.6,1.6-3.7,2.5-6.1,2.5c-2.4,0-4.5-1-6.1-2.5c-1.6-1.6-2.5-3.7-2.5-6.1C80.1,26.4,81,24.2,82.6,22.7L82.6,22.7L82.6,22.7z
		 M88.7,22.8c-3.3,0-6,2.7-6,6s2.7,6,6,6c3.3,0,6-2.7,6-6S92,22.8,88.7,22.8z"/>
	<circle class="st0" cx="88.7" cy="28.8" r="2.2"/>
</g>
</svg>
