<?xml version="1.0" encoding="utf-8"?>
<!-- Generator: Adobe Illustrator 21.1.0, SVG Export Plug-In . SVG Version: 6.00 Build 0)  -->
<svg version="1.1" id="Layer_1" xmlns="http://www.w3.org/2000/svg" xmlns:xlink="http://www.w3.org/1999/xlink" x="0px" y="0px"
	 viewBox="0 0 140 49" style="enable-background:new 0 0 140 49;" xml:space="preserve">
<style type="text/css">
	.st0{fill:#11B1AC;stroke:#11B1AC;stroke-width:0.75;stroke-miterlimit:10;}
</style>
<path class="st0" d="M5,17h7v2l-4,4H5v1.4l-3,3v7.2L7.4,40h8c-1.6-6.4,2.2-13,8.7-14.6c1-0.2,2-0.4,3-0.4c6.6,0,12,5.4,12,12
	c0,1-0.1,2-0.4,3h62.8c-1.6-6.4,2.2-13,8.7-14.6c1-0.2,2-0.4,3-0.4c6.6,0,12,5.4,12,12c0,1-0.1,2-0.4,3H138v-4h-5v-4h5v-3h-7l-4-4
	v-2h7.3c-2-1.4-4.7-2.6-8.1-3.7c-3.7-1.1-7.4-1.8-11.3-2.2l-1-0.1h-9.2l-30-15H47c-2.1,0-4.4,0.2-6.7,0.5c-6,0.9-12.5,3-19.1,5.9
	c-4.3,1.9-8.5,4-12.6,6.4L8.3,15H5V17z M16.1,42H6.6L0,35.4v-8.8l3-3V13h4.7l0.7-0.4c3.9-2.2,7.8-4.2,11.9-6c6.8-2.9,13.4-5,19.7-6
	C42.4,0.2,44.8,0,47,0h28.2l30,15l9.1,0c1.2,0.1,2.5,0.3,3.7,0.5c3,0.4,5.9,1.1,8.7,1.9c5.9,1.8,10.2,4.2,12.1,7.5L139,25v0.1
	c0.7,1.2,1,2.5,1,3.9v13h-16v-0.2c-2.6,6.1-9.7,8.9-15.8,6.2c-2.8-1.2-5-3.4-6.2-6.2V42H37.9c-2.8,6-9.9,8.7-15.9,5.9
	C19.4,46.7,17.3,44.6,16.1,42z M135.6,24H128v0.6l3.4,3.4h6.5C137.6,26.4,136.8,25,135.6,24z M47,35h39v1H46v-4h1V35z M41,20.5V22
	h-1v-1h-6v-1h7V20.5z M73,20.5V22h-1v-1h-6v-1h7V20.5z M25,11l18-7h31l14,7l-4,4H33L25,11z M33.2,14h50.3l2.7-2.7L73.8,5H43.2
	l-15.7,6.1C27.5,11.1,33.2,14,33.2,14z M134,35h4v-2h-4V35z M27,47c5.5,0,10-4.5,10-10s-4.5-10-10-10s-10,4.5-10,10S21.5,47,27,47z
	 M113,47c5.5,0,10-4.5,10-10s-4.5-10-10-10s-10,4.5-10,10S107.5,47,113,47z M27,45c-4.4,0-8-3.6-8-8s3.6-8,8-8s8,3.6,8,8
	S31.4,45,27,45z M27,44c3.9,0,7-3.1,7-7s-3.1-7-7-7l0,0c-3.9,0-7,3.1-7,7S23.1,44,27,44z M113,45c-4.4,0-8-3.6-8-8s3.6-8,8-8
	s8,3.6,8,8S117.4,45,113,45z M113,44c3.9,0,7-3.1,7-7s-3.1-7-7-7s-7,3.1-7,7S109.1,44,113,44z M27,39c-1.1,0-2-0.9-2-2s0.9-2,2-2
	s2,0.9,2,2S28.1,39,27,39z M27,38c0.6,0,1-0.4,1-1s-0.4-1-1-1s-1,0.4-1,1S26.4,38,27,38z M113,39c-1.1,0-2-0.9-2-2s0.9-2,2-2
	s2,0.9,2,2S114.1,39,113,39z M113,38c0.6,0,1-0.4,1-1s-0.4-1-1-1s-1,0.4-1,1S112.4,38,113,38z M5,22h2.6l3.4-3.4V18H5V22z M90,12
	l6,3v3h-6l-3-3L90,12z M88.4,15l2,2H95v-1.4l-4.8-2.4L88.4,15L88.4,15z M61,7h1v7h-1V7z M41,9h1v5h-1V9z"/>
</svg>
