<?xml version="1.0" encoding="utf-8"?>
<!-- Generator: Adobe Illustrator 21.1.0, SVG Export Plug-In . SVG Version: 6.00 Build 0)  -->
<svg version="1.1" id="Layer_1" xmlns="http://www.w3.org/2000/svg" xmlns:xlink="http://www.w3.org/1999/xlink" x="0px" y="0px"
	 viewBox="0 0 130 54" style="enable-background:new 0 0 130 54;" xml:space="preserve">
<style type="text/css">
	.st0{fill:#11B1AC;stroke:#11B1AC;stroke-width:0.75;stroke-miterlimit:10;}
</style>
<path class="st0" d="M32.4,48c-3.3,5.7-10.6,7.7-16.4,4.4c-1.8-1.1-3.4-2.6-4.4-4.4h-5L0,41.4V29.6l3-3V16h2.3L9,6.8V4.4l0.6-0.3
	c0.5-0.2,1-0.4,1.5-0.6c1.2-0.5,2.5-1,3.7-1.4C16,1.6,17.2,1.3,18.4,1c2.2-0.6,4.1-1,5.6-1h48.2l36,18l0.7,0
	c3.3,0.2,6.7,0.7,9.9,1.6c6.9,2.1,11.2,6.1,11.2,12.3v16h-16.6c-3.3,5.7-10.6,7.7-16.4,4.4c-1.8-1.1-3.4-2.6-4.4-4.4H32.4z M33.3,46
	h58.4c-2.2-6.2,1.1-13.1,7.3-15.3s13.1,1.1,15.3,7.3c0.9,2.6,0.9,5.4,0,8H128v-4h-7v-4h7v-6c0-0.3,0-0.7-0.1-1H118l-4-4v-2h10.8
	c-1.9-1.6-4.2-2.8-6.6-3.4c-3-0.9-6.2-1.4-9.3-1.6l-1.1,0l-36-18H24c-1.3,0-3.1,0.3-5.1,0.9c-1.1,0.3-2.3,0.7-3.4,1.1
	c-1.5,0.5-3,1.1-4.4,1.7v1.5L6.7,18H5v2h7v4l-4,4H4.4L2,30.4v10.2L7.4,46h3.3c-2.2-6.2,1.1-13.1,7.3-15.3s13.1,1.1,15.3,7.3
	C34.2,40.6,34.2,43.4,33.3,46L33.3,46z M94,46.4c2.5,4.9,8.5,7,13.4,4.5s7-8.5,4.5-13.4c-2.5-4.9-8.5-7-13.4-4.5
	c-4.8,2.4-6.9,8.1-4.7,13H94V46.4z M31.2,46c2.3-5,0-11-5-13.2s-11,0-13.2,5s0,11,5,13.2c4.9,2.2,10.7,0.1,13-4.7V46H31.2z M78,20
	H24l-10-4l7-12h49l32,16H86v2h-6L78,20z M77,19l3-3l6,3h11.8l-28-14H21.6l-6.1,10.5l8.7,3.5H31v-8h1v8h29v-8h1v8H77z M40,40h39v1H39
	v-4h1V40z M103,50c-4.4,0-8-3.6-8-8s3.6-8,8-8s8,3.6,8,8S107.4,50,103,50z M103,49c3.9,0,7-3.1,7-7s-3.1-7-7-7s-7,3.1-7,7
	S99.1,49,103,49L103,49z M103,44c-1.1,0-2-0.9-2-2s0.9-2,2-2s2,0.9,2,2S104.1,44,103,44z M103,43c0.6,0,1-0.4,1-1s-0.4-1-1-1
	s-1,0.4-1,1S102.4,43,103,43z M22,50c-4.4,0-8-3.6-8-8s3.6-8,8-8s8,3.6,8,8S26.4,50,22,50z M22,49c3.9,0,7-3.1,7-7s-3.1-7-7-7
	s-7,3.1-7,7S18.1,49,22,49z M22,44c-1.1,0-2-0.9-2-2s0.9-2,2-2s2,0.9,2,2S23.1,44,22,44z M22,43c0.6,0,1-0.4,1-1s-0.4-1-1-1
	s-1,0.4-1,1S21.4,43,22,43z M68,26h-1v-1h-6v-1h7V26z M38,25h-1v-1h-6v-1h7V25z M78.4,19l2,2H85v-1.4l-4.8-2.4L78.4,19L78.4,19z
	 M125.8,26H115v0.6l3.4,3.4h9.4C127.5,28.5,126.8,27.1,125.8,26z M122,39v2h6v-2H122z M5,27h2.6l3.4-3.4V21H5V27z"/>
</svg>
