<?xml version="1.0" encoding="utf-8"?>
<!-- Generator: Adobe Illustrator 21.1.0, SVG Export Plug-In . SVG Version: 6.00 Build 0)  -->
<svg version="1.1" id="Layer_1" xmlns="http://www.w3.org/2000/svg" xmlns:xlink="http://www.w3.org/1999/xlink" x="0px" y="0px"
	 viewBox="0 0 122 48" style="enable-background:new 0 0 122 48;" xml:space="preserve">
<style type="text/css">
	.st0{fill:#11B1AC;stroke:#11B1AC;stroke-width:0.75;stroke-miterlimit:10;}
</style>
<path class="st0" d="M17.4,7H22l-8,8H7.8L6,16.5V18h4v2l-4,4v0.4l-4,4v6.2L6.4,39h2c-1.6-6.4,2.2-13,8.7-14.6c1-0.2,2-0.4,3-0.4
	c6.6,0,12,5.4,12,12c0,1-0.1,2-0.4,3h53.8c-1.6-6.4,2.2-13,8.7-14.6c1-0.2,2-0.4,3-0.4c6.6,0,12,5.4,12,12c0,1-0.1,2-0.4,3H120v-3
	h-7v-4h7v-3h-6l-4-4v-2h6.3c-2-1.4-4.7-2.6-8.1-3.7c-3.7-1.1-7.4-1.8-11.3-2.2L96,17h-3.2l-30-15H26c-1,0-2.1,0.1-3.4,0.2
	C20,2.6,17.5,3.1,15,3.8v0.8L17.4,7z M31,40.8c-2.6,6.1-9.7,8.9-15.8,6.2c-2.7-1.2-4.9-3.3-6.1-6H5.6L0,35.4v-7.8l4-4v-8.1l10.5-8.6
	L13,5.4V2.3L13.7,2c0.4-0.1,0.8-0.2,1.2-0.3c0.9-0.2,1.9-0.5,3-0.7c1.5-0.3,3-0.6,4.4-0.8C23.6,0.1,24.8,0,26,0h37.2l30,15h2.8
	c1.3,0.1,2.7,0.3,4,0.5c3,0.4,5.9,1.1,8.7,1.9C117,19.9,122,23.6,122,29v12h-14v-0.2c-2.6,6.1-9.7,8.9-15.8,6.2
	c-2.7-1.2-4.9-3.3-6.1-6H31V40.8z M49,20.5V22h-1v-1h-6v-1h7V20.5z M38,34h27v1H37v-4h1V34z M20,46c5.5,0,10-4.5,10-10
	s-4.5-10-10-10s-10,4.5-10,10S14.5,46,20,46z M20,44c-4.4,0-8-3.6-8-8s3.6-8,8-8s8,3.6,8,8S24.4,44,20,44z M20,43c3.9,0,7-3.1,7-7
	s-3.1-7-7-7s-7,3.1-7,7S16.1,43,20,43z M20,38c-1.1,0-2-0.9-2-2s0.9-2,2-2s2,0.9,2,2S21.1,38,20,38z M20,37c0.6,0,1-0.4,1-1
	s-0.4-1-1-1s-1,0.4-1,1S19.4,37,20,37z M97,46c5.5,0,10-4.5,10-10s-4.5-10-10-10s-10,4.5-10,10S91.5,46,97,46z M97,44
	c-4.4,0-8-3.6-8-8s3.6-8,8-8s8,3.6,8,8S101.4,44,97,44z M97,43c3.9,0,7-3.1,7-7s-3.1-7-7-7s-7,3.1-7,7S93.1,43,97,43z M97,38
	c-1.1,0-2-0.9-2-2s0.9-2,2-2s2,0.9,2,2S98.1,38,97,38z M97,37c0.6,0,1-0.4,1-1s-0.4-1-1-1s-1,0.4-1,1S96.4,37,97,37z M77,12l6,3v3
	h-6l-3-3L77,12z M75.4,15l2,2H82v-1.4l-4.8-2.4L75.4,15L75.4,15z M5,23h0.6L9,19.6V19H5V23z M114,33v2h6v-2H114z M111,24v0.6
	l3.4,3.4h5.6v-0.8l-1.6-3.2H111z M19,15L30,4h31l14,7l-4,4H19z M27,14h43.6l2.7-2.7L60.8,5H30.4l-9,9H27z M16.4,8l-7.5,6h4.7l6-6
	H16.4z"/>
</svg>
