<?xml version="1.0" encoding="utf-8"?>
<!-- Generator: Adobe Illustrator 21.1.0, SVG Export Plug-In . SVG Version: 6.00 Build 0)  -->
<svg version="1.1" id="Layer_1" xmlns="http://www.w3.org/2000/svg" xmlns:xlink="http://www.w3.org/1999/xlink" x="0px" y="0px"
	 viewBox="0 0 136 50" style="enable-background:new 0 0 136 50;" xml:space="preserve">
<style type="text/css">
	.st0{fill:#11B1AC;stroke:#42C7C2;stroke-width:0.75;stroke-miterlimit:10;}
</style>
<path class="st0" d="M134,24l1,2v4h-7l-4-4v-2H134z M125,25v0.6l3.4,3.4h5.6v-2.8l-0.6-1.2H125z M130,33h6v4h-6V33z M131,34v2h4v-2
	H131z M104.2,14.1c1.3,0.1,2.6,0.2,3.9,0.4c3.8,0.4,7.6,1.1,11.1,1.9C129.7,18.9,136,22.5,136,28v15h-14.1c-2.8,6-9.9,8.7-15.9,5.9
	c-2.6-1.2-4.7-3.3-5.9-5.9H40.9c-2.8,6-9.9,8.7-15.9,5.9c-2.6-1.2-4.7-3.3-5.9-5.9H6.6L0,36.4v-8.8l3-3V12h4.9L28,10l0.2,0.1L29,5h4
	l3.7,6.7L48,14l3-8h4v8h26l1-1l2,1h6L74,6h-4V0h6L104.2,14.1z M55,16L55,16l-7,0v0h-0.2l-19.9-4L8,14H5v5h7v2l-4,4H5v0.4l-3,3v7.2
	L7.4,41h11c-1.6-6.4,2.2-13,8.7-14.6c1-0.2,2-0.4,3-0.4c6.6,0,12,5.4,12,12c0,1-0.1,2-0.4,3h57.8c-1.6-6.4,2.2-13,8.7-14.6
	c1-0.2,2-0.4,3-0.4c6.6,0,12,5.4,12,12c0,1-0.1,2-0.4,3H134V28c0-4.1-5.7-7.4-15.2-9.6c-4.8-1.1-9.6-1.9-14.5-2.3L103,16H88h0v3h-6
	l-3-3L55,16L55,16z M58,20.5V22h-1v-1h-6v-1h7V20.5z M49,36h39v1H48v-4h1V36z M30,48c5.5,0,10-4.5,10-10s-4.5-10-10-10
	s-10,4.5-10,10S24.5,48,30,48z M30,46c-4.4,0-8-3.6-8-8s3.6-8,8-8s8,3.6,8,8S34.4,46,30,46z M30,45c3.9,0,7-3.1,7-7s-3.1-7-7-7
	s-7,3.1-7,7S26.1,45,30,45z M30,40c-1.1,0-2-0.9-2-2s0.9-2,2-2s2,0.9,2,2S31.1,40,30,40z M30,39c0.6,0,1-0.4,1-1s-0.4-1-1-1
	s-1,0.4-1,1S29.4,39,30,39z M111,48c5.5,0,10-4.5,10-10s-4.5-10-10-10s-10,4.5-10,10S105.5,48,111,48z M111,46c-4.4,0-8-3.6-8-8
	s3.6-8,8-8s8,3.6,8,8S115.4,46,111,46z M111,45c3.9,0,7-3.1,7-7s-3.1-7-7-7s-7,3.1-7,7S107.1,45,111,45z M111,40c-1.1,0-2-0.9-2-2
	s0.9-2,2-2s2,0.9,2,2S112.1,40,111,40z M111,39c0.6,0,1-0.4,1-1s-0.4-1-1-1s-1,0.4-1,1S110.4,39,111,39z M5,24h2.6l3.4-3.4V20H5V24z
	 M80.4,16l2,2H87v-1.4l-4.8-2.4L80.4,16L80.4,16z M53,14V8h-0.6l-2.3,6H53z M31.8,7h-1.1l-0.5,3.4l3.9,0.8L31.8,7z M75.5,2H72v2h2.5
	l18,9h5.1L75.5,2L75.5,2z"/>
</svg>
