<?xml version="1.0" encoding="utf-8"?>
<!-- Generator: Adobe Illustrator 21.1.0, SVG Export Plug-In . SVG Version: 6.00 Build 0)  -->
<svg version="1.1" id="Layer_1" xmlns="http://www.w3.org/2000/svg" xmlns:xlink="http://www.w3.org/1999/xlink" x="0px" y="0px"
	 viewBox="0 0 145 50" style="enable-background:new 0 0 145 50;" xml:space="preserve">
<style type="text/css">
	.st0{fill:#11B1AC;stroke:#11B1AC;stroke-width:0.75;stroke-miterlimit:10;}
</style>
<path class="st0" d="M143,34v-3h-6l-4-4v-2h7.6c-2-1.9-5.2-3.4-9.4-4.7c-3.7-1.1-7.4-1.8-11.3-2.2l-1-0.1h-7.2l-33-16H28
	c-2.1,0-4.4,0.4-6.6,1c-0.8,0.2-1.5,0.4-2.2,0.7c0,0-0.1,0.6-0.2,1.8L6.4,16H5v3h7v2l-4,4H5v0.4l-3,3v7.2L7.4,41h16
	c-1.6-6.4,2.2-13,8.7-14.6c1-0.2,2-0.4,3-0.4c6.6,0,12,5.4,12,12c0,1-0.1,2-0.4,3h60.8c-1.6-6.4,2.2-13,8.7-14.6c1-0.2,2-0.4,3-0.4
	c6.6,0,12,5.4,12,12c0,1-0.1,2-0.4,3H143v-3h-6v-4H143z M48,21.5V23h-1v-1h-6v-1h7V21.5z M78,21.5V23h-1v-1h-6v-1h7V21.5z M36,15v-5
	h1v5h28V8h1v7h22.6l2.7-2.7L78.8,6H34.3l-12.4,8.3L29,15H36z M24.1,43H6.6L0,36.4v-8.8l3-3V14h2.6L17,4.5V2.3l0.6-0.3
	c1.1-0.4,2.1-0.8,3.2-1c2.3-0.6,4.7-1,7.1-1h51.2l33,16h6.8c1.3,0.1,2.7,0.3,4,0.5c3,0.5,5.9,1.1,8.7,1.9C140,20.9,145,24.6,145,30
	v13h-15.1c-2.8,6-9.9,8.7-15.9,5.9c-2.7-1.2-4.8-3.4-6-6.1V43H45.9c-2.8,6-9.9,8.7-15.9,5.9C27.4,47.7,25.3,45.6,24.1,43z M141.5,26
	H134v0.6l3.4,3.4h5.6C143,28.5,142.5,27.2,141.5,26z M53,36h39v1H52v-4h1V36z M35,48c5.5,0,10-4.5,10-10s-4.5-10-10-10
	s-10,4.5-10,10S29.5,48,35,48z M35,46c-4.4,0-8-3.6-8-8s3.6-8,8-8s8,3.6,8,8S39.4,46,35,46z M35,45c3.9,0,7-3.1,7-7s-3.1-7-7-7
	s-7,3.1-7,7S31.1,45,35,45z M35,40c-1.1,0-2-0.9-2-2s0.9-2,2-2s2,0.9,2,2S36.1,40,35,40z M35,39c0.6,0,1-0.4,1-1s-0.4-1-1-1
	s-1,0.4-1,1S34.4,39,35,39z M119,48c5.5,0,10-4.5,10-10s-4.5-10-10-10s-10,4.5-10,10S113.5,48,119,48z M119,46c-4.4,0-8-3.6-8-8
	s3.6-8,8-8s8,3.6,8,8S123.4,46,119,46z M119,45c3.9,0,7-3.1,7-7s-3.1-7-7-7s-7,3.1-7,7S115.1,45,119,45z M119,40c-1.1,0-2-0.9-2-2
	s0.9-2,2-2s2,0.9,2,2S120.1,40,119,40z M119,39c0.6,0,1-0.4,1-1s-0.4-1-1-1s-1,0.4-1,1S118.4,39,119,39z M19,15L34,5h45l14,7l-4,4
	H29L19,15z M95,13l6,3v3h-6l-3-3L95,13z M93.4,16l2,2h4.6v-1.4l-4.8-2.4L93.4,16L93.4,16z M5,24h2.6l3.4-3.4V20H5V24z M138,37h5v-2
	h-5V37z"/>
</svg>
