<?xml version="1.0" encoding="utf-8"?>
<!-- Generator: Adobe Illustrator 21.1.0, SVG Export Plug-In . SVG Version: 6.00 Build 0)  -->
<svg version="1.1" id="Layer_1" xmlns="http://www.w3.org/2000/svg" xmlns:xlink="http://www.w3.org/1999/xlink" x="0px" y="0px"
	 viewBox="0 0 138 50" style="enable-background:new 0 0 138 50;" xml:space="preserve">
<style type="text/css">
	.st0{fill:#11B1AC;stroke:#11B1AC;stroke-width:0.75;stroke-miterlimit:10;}
</style>
<path class="st0" d="M103,36v5H42v-5c0-7.7-6.3-14-14-14s-14,6.3-14,14v5H9.8L1,36.6v-9l3-3v-8l2.4-2.4h40.4l4-14l37.6,0.1
	c5.8,2.2,11.8,6.9,18.3,14.1c19.8,0.1,29.4,1.9,29.4,6.2v8.9h2v8.9l-2.6,2.6H131v-5c0-7.7-6.3-14-14-14S103,28.3,103,36z M5.4,26
	L3,28.4v7l7.2,3.6H12v-3c0-8.8,7.2-16,16-16s16,7.2,16,16v3h57v-3c0-8.8,7.2-16,16-16s16,7.2,16,16v3h1.6l1.4-1.4v-6h-2V20.6
	c0-2.4-9.5-4.1-27.8-4.2h-0.4l-0.3-0.3C99.1,9,93.3,4.4,87.8,2.2H52.3l-4,14H7.2L6,17.4V18h7v4l-4,4H5.4z M83,19v2h-1v-1h-6v-1H83z
	 M60,19v2h-1v-1h-6v-1H60z M48,35h51v1H47v-4h1V35z M102,17v1h-6l-1-1H52l4-13h32c10,5,16,13,16,13H102z M94,16l-1-1l3-3l4,2
	c-1.7-1.7-3.4-3.2-5.3-4.6c-2.2-1.6-4.5-3.1-6.9-4.3h-31l-3.4,11H94z M28,50c-6.6,0-12-5.4-12-12s5.4-12,12-12s12,5.4,12,12
	S34.6,50,28,50z M28,48c5.5,0,10-4.5,10-10s-4.5-10-10-10s-10,4.5-10,10S22.5,48,28,48z M28,46c-4.4,0-8-3.6-8-8s3.6-8,8-8
	s8,3.6,8,8S32.4,46,28,46z M28,45c3.9,0,7-3.1,7-7s-3.1-7-7-7s-7,3.1-7,7S24.1,45,28,45z M28,40c-1.1,0-2-0.9-2-2s0.9-2,2-2
	s2,0.9,2,2S29.1,40,28,40z M28,39c0.6,0,1-0.4,1-1s-0.4-1-1-1s-1,0.4-1,1S27.4,39,28,39z M117,50c-6.6,0-12-5.4-12-12s5.4-12,12-12
	l0,0c6.6,0,12,5.4,12,12S123.6,50,117,50z M117,48c5.5,0,10-4.5,10-10s-4.5-10-10-10s-10,4.5-10,10S111.5,48,117,48z M117,46
	c-4.4,0-8-3.6-8-8s3.6-8,8-8s8,3.6,8,8S121.4,46,117,46z M117,45c3.9,0,7-3.1,7-7s-3.1-7-7-7l0,0c-3.9,0-7,3.1-7,7S113.1,45,117,45z
	 M117,40c-1.1,0-2-0.9-2-2s0.9-2,2-2s2,0.9,2,2S118.1,40,117,40z M117,39c0.6,0,1-0.4,1-1s-0.4-1-1-1s-1,0.4-1,1S116.4,39,117,39z
	 M94.4,15l2,2h4.6v-1.4l-4.8-2.4L94.4,15L94.4,15z M6,25h2.6l3.4-3.4V19H6V25z"/>
</svg>
