<?xml version="1.0" encoding="utf-8"?>
<!-- Generator: Adobe Illustrator 21.1.0, SVG Export Plug-In . SVG Version: 6.00 Build 0)  -->
<svg version="1.1" id="Layer_1" xmlns="http://www.w3.org/2000/svg" xmlns:xlink="http://www.w3.org/1999/xlink" x="0px" y="0px"
	 viewBox="0 0 131 47" style="enable-background:new 0 0 131 47;" xml:space="preserve">
<style type="text/css">
	.st0{fill:#11B1AC;stroke:#42C7C2;stroke-width:0.75;stroke-miterlimit:10;}
</style>
<path class="st0" d="M5,15h7v2l-4,4H5v1.4l-3,3v7.2L7.4,38h8c-1.6-6.4,2.2-13,8.7-14.6c1-0.2,2-0.4,3-0.4c6.6,0,12,5.4,12,12
	c0,1-0.1,2-0.4,3h58.8c-1.6-6.4,2.2-13,8.7-14.6c1-0.2,2-0.4,3-0.4c6.6,0,12,5.4,12,12c0,1-0.1,2-0.4,3h8.4v-4h-5v-4h5v-3h-5l-4-4
	v-2h6c-2.3-1.9-5.7-3.4-10.2-4.4c-4.4-1-8.9-1.5-13.5-1.6h-9.6l-26-13H35.2l-22,11H5V15z M16.1,40H6.6L0,33.4v-8.8l3-3V11h9.8l22-11
	h32.5l26,13h8.8c1.5,0,3,0.1,4.4,0.2c3.3,0.3,6.7,0.7,9.8,1.4c9.2,2.1,14.8,6.1,14.8,12.4v13h-11.1c-2.8,6-9.9,8.7-15.9,5.9
	c-2.6-1.2-4.7-3.3-5.9-5.9H37.9c-2.8,6-9.9,8.7-15.9,5.9C19.4,44.7,17.3,42.6,16.1,40L16.1,40z M127,22h-6v0.6l3.4,3.4h4.5
	C128.7,24.5,128.1,23.1,127,22z M47,33h39v1H46v-4h1V33z M55,18.5V20h-1v-1h-6v-1h7V18.5z M29,11l14-7h24l14,7l-4,4H33L29,11z
	 M33.4,14h43.2l2.7-2.7L66.8,5H43.2l-12.5,6.3L33.4,14L33.4,14z M125,33h4v-2h-4V33z M27,45c5.5,0,10-4.5,10-10s-4.5-10-10-10
	s-10,4.5-10,10S21.5,45,27,45z M109,45c5.5,0,10-4.5,10-10s-4.5-10-10-10s-10,4.5-10,10S103.5,45,109,45z M27,43c-4.4,0-8-3.6-8-8
	s3.6-8,8-8s8,3.6,8,8S31.4,43,27,43z M27,42c3.9,0,7-3.1,7-7s-3.1-7-7-7l0,0c-3.9,0-7,3.1-7,7S23.1,42,27,42z M109,43
	c-4.4,0-8-3.6-8-8s3.6-8,8-8s8,3.6,8,8S113.4,43,109,43z M109,42c3.9,0,7-3.1,7-7s-3.1-7-7-7s-7,3.1-7,7S105.1,42,109,42z M27,37
	c-1.1,0-2-0.9-2-2s0.9-2,2-2s2,0.9,2,2S28.1,37,27,37z M27,36c0.6,0,1-0.4,1-1s-0.4-1-1-1s-1,0.4-1,1S26.4,36,27,36z M109,37
	c-1.1,0-2-0.9-2-2s0.9-2,2-2s2,0.9,2,2S110.1,37,109,37z M109,36c0.6,0,1-0.4,1-1s-0.4-1-1-1s-1,0.4-1,1S108.4,36,109,36z M5,20h2.6
	l3.4-3.4V16H5V20z M83,12l6,3v3h-6l-3-3L83,12z M81.4,15l2,2H88v-1.4l-4.8-2.4L81.4,15L81.4,15z"/>
</svg>
