<?xml version="1.0" encoding="utf-8"?>
<!-- Generator: Adobe Illustrator 21.1.0, SVG Export Plug-In . SVG Version: 6.00 Build 0)  -->
<svg version="1.1" id="Layer_1" xmlns="http://www.w3.org/2000/svg" xmlns:xlink="http://www.w3.org/1999/xlink" x="0px" y="0px"
	 viewBox="0 0 114 49" style="enable-background:new 0 0 114 49;" xml:space="preserve">
<style type="text/css">
	.st0{fill:#11B1AC;stroke:#11B1AC;stroke-width:0.75;stroke-miterlimit:10;}
</style>
<path class="st0" d="M14.7,41h-4L0,34.6v-7.5l3-3v-8.4l9-13V0h50.3l20,14H97c9.2,0,14,1.9,14,6.3V27h2.1v10.6l-6.3,3.4h-4.4
	c-2.2,6.3-9.1,9.5-15.3,7.3c-3.4-1.2-6.1-3.9-7.3-7.3H37.3c-2.2,6.3-9.1,9.5-15.3,7.3C18.6,47.1,15.9,44.4,14.7,41z M14.2,39
	c-1.1-6.5,3.3-12.7,9.9-13.8c6.5-1.1,12.7,3.3,13.8,9.9c0.2,1.3,0.2,2.7,0,4h41.3c-1.1-6.5,3.3-12.7,9.9-13.8
	c6.5-1.1,12.7,3.3,13.8,9.9c0.2,1.3,0.2,2.7,0,4h3.4l4.8-2.6V29h-7v-8h5v-0.8c0-2.7-3.8-4.3-12-4.3H81.7l-20-14H14v1.3l-9,13V17h7v2
	l-4,4H5v1.9l-3,3v5.5l9.3,5.6H14.2z M72.7,13.3L74,14v3h-6l-1-1H12l6-12h44l12,8L72.7,13.3z M42,35h33v1H41v-4h1V35z M44,5v10h22
	l-1-1l3-3l3.7,1.9l0.7-0.7L61.7,5H44z M42,5H18.6l-5,10H42V5z M58,18v2h-1v-1h-6v-1H58z M66.4,14l2,2H73v-1.4l-4.8-2.4L66.4,14
	L66.4,14z M105,28h4v-6h-4V28z M5,22h2.6l3.4-3.4V18H5V22z M26,47c5.5,0,10-4.5,10-10s-4.5-10-10-10s-10,4.5-10,10S20.5,47,26,47z
	 M26,45c-4.4,0-8-3.6-8-8s3.6-8,8-8s8,3.6,8,8S30.4,45,26,45z M26,44c3.9,0,7-3.1,7-7s-3.1-7-7-7s-7,3.1-7,7S22.1,44,26,44z M26,39
	c-1.1,0-2-0.9-2-2s0.9-2,2-2s2,0.9,2,2S27.1,39,26,39z M26,38c0.6,0,1-0.4,1-1s-0.4-1-1-1s-1,0.4-1,1S25.4,38,26,38z M91,47
	c5.5,0,10-4.5,10-10s-4.5-10-10-10s-10,4.5-10,10S85.5,47,91,47z M91,45c-4.4,0-8-3.6-8-8s3.6-8,8-8s8,3.6,8,8S95.4,45,91,45z
	 M91,44c3.9,0,7-3.1,7-7s-3.1-7-7-7s-7,3.1-7,7S87.1,44,91,44z M91,39c-1.1,0-2-0.9-2-2s0.9-2,2-2s2,0.9,2,2S92.1,39,91,39z M91,38
	c0.6,0,1-0.4,1-1s-0.4-1-1-1s-1,0.4-1,1S90.4,38,91,38z"/>
</svg>
