<svg xmlns="http://www.w3.org/2000/svg" viewBox="0 0 29.52 31.1"><title>fuel-icn</title><rect x="5.32" y="4.74" width="12.64" height="8.48" rx="0.67" stroke-width="0.34" stroke="#aaa" stroke-linecap="round" stroke-linejoin="round" fill="none"/><rect x="5.32" y="15.8" width="12.64" height="10.82" rx="0.76" stroke-width="0.38" stroke="#aaa" stroke-linecap="round" stroke-linejoin="round" fill="none"/><path d="M20.12,15.88V26.61h1.29a3.77,3.77,0,0,1,1.62.18v4.14H.17V26.79a3.81,3.81,0,0,1,1.62-.18H3.08V3.2A1.17,1.17,0,0,1,4.29,2.08H18.91A1.17,1.17,0,0,1,20.12,3.2V14.14l.1,0A3,3,0,0,1,23.28,17v4.78a2.11,2.11,0,0,0,2,1.52,2.73,2.73,0,0,0,2.48-1.56V10.81a5.73,5.73,0,0,0-2.81-1.69V3.41a11,11,0,0,0-3.07-2.12l.5-1.12s4.32,2,5.48,3.74,1.52,4.41,1.52,6.9v11A4.08,4.08,0,0,1,25.26,25a3.83,3.83,0,0,1-3.65-2.88l0-.21V17c0-1.06-1.28-1.14-1.43-1.14Z" fill="none" stroke="#aaa" stroke-linecap="round" stroke-linejoin="round" stroke-width="0.34"/><path d="M26.15,8V4.43a5.6,5.6,0,0,1,1.58,4.26A6.19,6.19,0,0,0,26.15,8Z" fill="none" stroke="#aaa" stroke-linecap="round" stroke-linejoin="round" stroke-width="0.34"/></svg>