<svg xmlns="http://www.w3.org/2000/svg" viewBox="0 0 29.87 29.87"><title>tier-icn</title><path d="M15,6.64A8.35,8.35,0,1,1,6.61,15,8.35,8.35,0,0,1,15,6.64m0-.34A8.69,8.69,0,1,0,23.63,15,8.68,8.68,0,0,0,15,6.3Z" fill="#aaa"/><path d="M29.75,15.94a.42.42,0,0,0,.12-.3V14.28a.41.41,0,0,0-.11-.28h0a.46.46,0,0,0,.09-.32l-.19-1.34a.46.46,0,0,0-.15-.27h0a.4.4,0,0,0,.05-.32l-.37-1.31A.34.34,0,0,0,29,10.2h0a.4.4,0,0,0,0-.32l-.53-1.25a.41.41,0,0,0-.21-.22.43.43,0,0,0,0-.33L27.53,6.9a.41.41,0,0,0-.23-.18h0a.44.44,0,0,0-.09-.31l-.83-1.07a.41.41,0,0,0-.26-.15A.4.4,0,0,0,26,4.87l-1-1a.39.39,0,0,0-.28-.12h0a.46.46,0,0,0-.17-.28L23.5,2.69a.51.51,0,0,0-.29-.08h0a.43.43,0,0,0-.2-.26l-1.18-.67a.45.45,0,0,0-.3,0h0a.47.47,0,0,0-.23-.23L20,.89a.51.51,0,0,0-.3,0h0a.43.43,0,0,0-.26-.2L18.16.35a.41.41,0,0,0-.29,0h0a.4.4,0,0,0-.28-.16L16.23.05a.41.41,0,0,0-.29.08h0A.5.5,0,0,0,15.63,0H14.28A.44.44,0,0,0,14,.12h0A.41.41,0,0,0,13.68,0L12.34.22a.46.46,0,0,0-.27.15h0a.4.4,0,0,0-.32,0L10.44.69a.4.4,0,0,0-.24.18h0a.4.4,0,0,0-.32,0L8.62,1.4a.45.45,0,0,0-.22.21h0a.42.42,0,0,0-.33,0L6.9,2.34a.4.4,0,0,0-.18.24h0a.44.44,0,0,0-.31.09L5.33,3.5a.35.35,0,0,0-.15.25h0a.43.43,0,0,0-.3.13l-1,1a.36.36,0,0,0-.12.27h0a.46.46,0,0,0-.28.17L2.69,6.37a.51.51,0,0,0-.08.29h0a.43.43,0,0,0-.26.2L1.68,8a.45.45,0,0,0,0,.3h0a.49.49,0,0,0-.23.24L.89,9.83a.51.51,0,0,0,0,.3h0a.45.45,0,0,0-.2.27L.35,11.71a.39.39,0,0,0,0,.3.42.42,0,0,0-.17.28L.05,13.64a.43.43,0,0,0,.08.29h0a.45.45,0,0,0-.12.31v1.35a.44.44,0,0,0,.11.28.41.41,0,0,0-.08.32l.18,1.35a.43.43,0,0,0,.15.26h0a.42.42,0,0,0,0,.33l.36,1.31a.43.43,0,0,0,.18.24.42.42,0,0,0,0,.33l.53,1.25a.43.43,0,0,0,.21.21h0a.4.4,0,0,0,0,.32L2.34,23a.4.4,0,0,0,.24.18h0a.46.46,0,0,0,.09.32l.84,1.06a.39.39,0,0,0,.26.15h0a.42.42,0,0,0,.13.3l1,1a.39.39,0,0,0,.27.11.44.44,0,0,0,.17.29l1.08.82a.43.43,0,0,0,.26.09h0a.41.41,0,0,0,.2.26L8,28.19a.42.42,0,0,0,.21.06.32.32,0,0,0,.09,0,.42.42,0,0,0,.24.25L9.83,29A.45.45,0,0,0,10,29a.32.32,0,0,0,.14,0h0a.44.44,0,0,0,.27.19l1.31.34.11,0a.43.43,0,0,0,.18-.06.42.42,0,0,0,.29.17l1.35.17h0a.41.41,0,0,0,.24-.08.42.42,0,0,0,.31.13h1.35a.44.44,0,0,0,.29-.11.38.38,0,0,0,.25.09h.06l1.35-.19a.46.46,0,0,0,.26-.15h0a.54.54,0,0,0,.21,0h.12l1.31-.37a.43.43,0,0,0,.25-.19.44.44,0,0,0,.15.05A.35.35,0,0,0,20,29l1.25-.53a.4.4,0,0,0,.22-.22l.1,0a.43.43,0,0,0,.22-.06L23,27.53a.38.38,0,0,0,.19-.24h.05a.46.46,0,0,0,.27-.09l1.06-.83a.43.43,0,0,0,.16-.26h0A.42.42,0,0,0,25,26l1-1a.5.5,0,0,0,.12-.29.39.39,0,0,0,.28-.16l.82-1.08a.42.42,0,0,0,.08-.3.42.42,0,0,0,.26-.19l.67-1.18a.39.39,0,0,0,0-.3h0a.43.43,0,0,0,.23-.23L29,20a.39.39,0,0,0,0-.3h0a.42.42,0,0,0,.19-.26l.34-1.32a.37.37,0,0,0,0-.29h0a.4.4,0,0,0,.16-.28l.17-1.35a.5.5,0,0,0-.07-.29Zm-.23-.23a.11.11,0,0,1-.07,0h-.09l-.27,0c0,.12,0,.24,0,.36h.34a.09.09,0,0,1,.07,0,.09.09,0,0,1,0,.08l-.16,1.35a.16.16,0,0,1,0,.07.08.08,0,0,1-.08,0h-.08l-.26-.07c0,.12,0,.24-.06.36l.26,0h.06a.15.15,0,0,1,.06.05.08.08,0,0,1,0,.08l-.34,1.32a.07.07,0,0,1-.05.06.08.08,0,0,1-.08,0l-.08,0-.23-.09-.12.33.25.07.06,0a.11.11,0,0,1,.06.14l-.51,1.26-.06.06a.11.11,0,0,1-.08,0l-.07,0-.23-.13-.15.32.24.09.05,0s0,0,.05.06a.08.08,0,0,1,0,.08l-.67,1.18a.1.1,0,0,1-.14,0l-.07,0-.2-.15c-.06.1-.12.2-.19.3l.21.12,0,0a.1.1,0,0,1,0,.07.08.08,0,0,1,0,.08l-.82,1.08a.09.09,0,0,1-.14,0l-.07-.05-.17-.17-.24.26.2.15.05,0a.11.11,0,0,1,0,.07.11.11,0,0,1,0,.08l-.95,1a.11.11,0,0,1-.08,0,.08.08,0,0,1-.07,0l-.06-.06-.15-.19-.27.23.18.18,0,.05a.19.19,0,0,1,0,.07s0,.06,0,.07L23.28,27a.11.11,0,0,1-.15,0l-.05-.06L23,26.67l-.29.2.14.19,0,.05a.11.11,0,0,1,0,.15l-1.17.68a.11.11,0,0,1-.15,0l0-.07-.09-.22-.32.15.12.21,0,.06a.11.11,0,0,1-.06.14l-1.25.53H19.8a.09.09,0,0,1-.06-.06l0-.07-.06-.23c-.11,0-.22.08-.33.12l.09.21v.06a.08.08,0,0,1,0,.08.06.06,0,0,1-.06.05L18,29.24a.12.12,0,0,1-.13-.08l0-.08,0-.22-.35.06.06.23v.06a.08.08,0,0,1,0,.08.08.08,0,0,1-.07,0l-1.34.19a.1.1,0,0,1-.12-.09v-.32h-.36l0,.25v.06a.11.11,0,0,1-.11.11H14.23a.1.1,0,0,1-.1-.1v-.09l0-.24-.35,0v.31a.16.16,0,0,1,0,.07.08.08,0,0,1-.08,0l-1.35-.16a.11.11,0,0,1-.09-.12v-.08l.06-.23L12,28.84l0,.24v.06a.15.15,0,0,1-.05.06.08.08,0,0,1-.08,0l-1.31-.34s-.05,0-.07-.05a.11.11,0,0,1,0-.08l0-.08.09-.22-.33-.12-.06.24,0,.06a.1.1,0,0,1-.14.06L8.7,28.17a.09.09,0,0,1-.06-.06.11.11,0,0,1,0-.08l0-.07.12-.22-.32-.15-.09.23,0,.05a.11.11,0,0,1-.15,0L7,27.24a.1.1,0,0,1,0-.06.11.11,0,0,1,0-.08L7,27l.15-.2-.29-.2-.13.22,0,0a.08.08,0,0,1-.07,0,.1.1,0,0,1-.07,0L5.48,26.1a.11.11,0,0,1,0-.14l0-.07.18-.18-.26-.24-.16.21,0,.05a.11.11,0,0,1-.15,0l-1-.95a.12.12,0,0,1,0-.08.09.09,0,0,1,0-.07l.06-.06.21-.17c-.07-.09-.16-.17-.24-.26L4,24.33l-.05,0-.08,0-.07,0-.84-1.07a.19.19,0,0,1,0-.08.16.16,0,0,1,0-.07L3,23.08,3.22,23c-.07-.1-.12-.2-.19-.3l-.21.16-.06,0a.11.11,0,0,1-.08,0,.1.1,0,0,1-.06-.05l-.69-1.17a.08.08,0,0,1,0-.08s0,0,.05-.07l.07,0,.25-.11L2.14,21l-.25.14-.06,0H1.75a.17.17,0,0,1-.06-.06l-.52-1.25a.11.11,0,0,1,.05-.14l.08,0,.27-.07c0-.12-.09-.22-.12-.34l-.26.11H1.13a.08.08,0,0,1-.08,0s0,0-.05-.06L.64,18a.11.11,0,0,1,.07-.13l.08,0,.27,0c0-.11,0-.23-.05-.35l-.29.08H.66a.1.1,0,0,1-.12-.09L.35,16.15A.12.12,0,0,1,.44,16H.82c0-.12,0-.24,0-.36l-.3,0H.44a.11.11,0,0,1-.11-.11V14.24a.11.11,0,0,1,0-.08.11.11,0,0,1,.08,0H.51l.3,0c0-.12,0-.24,0-.36H.46a.13.13,0,0,1-.07,0,.19.19,0,0,1,0-.08l.17-1.35a.12.12,0,0,1,.12-.09H.73l.3.08c0-.12,0-.24.07-.36l-.3,0-.06,0a.18.18,0,0,1-.07-.05.11.11,0,0,1,0-.08L1,10.48a.1.1,0,0,1,.13-.08l.08,0,.28.12c0-.12.09-.23.13-.34l-.31-.08-.06,0A.09.09,0,0,1,1.19,10a.11.11,0,0,1,0-.08L1.7,8.7a.09.09,0,0,1,.06-.06h.08l.07,0,.28.16c.05-.11.1-.22.16-.33l-.29-.12L2,8.35A.11.11,0,0,1,2,8.2L2.63,7a.15.15,0,0,1,.06,0,.11.11,0,0,1,.08,0l.07,0,.26.19.2-.3L3,6.75l0,0a.11.11,0,0,1,0-.14l.82-1.09.07,0a.13.13,0,0,1,.08,0l.06,0,.23.23.25-.27-.27-.2,0,0a.09.09,0,0,1,0-.07.11.11,0,0,1,0-.08l.95-1a.1.1,0,0,1,.07,0h0a.19.19,0,0,1,.08,0l0,.06.21.26.27-.24L5.55,4l0-.05a.1.1,0,0,1,0-.15L6.6,2.91l.07,0s.06,0,.07,0l0,.07L7,3.27l.3-.19-.2-.26,0-.06a.08.08,0,0,1,0-.08.06.06,0,0,1,.05-.06l1.17-.69a.08.08,0,0,1,.08,0A.07.07,0,0,1,8.38,2l0,.06.13.31.33-.16-.17-.29,0-.06a.11.11,0,0,1,.05-.14L10,1.17a.08.08,0,0,1,.08,0l.06.06,0,.08.09.32.34-.13-.12-.3,0-.06A.1.1,0,0,1,10.52,1L11.83.64A.1.1,0,0,1,12,.71l0,.08,0,.32c.11,0,.24,0,.36-.06L12.3.73V.66a.12.12,0,0,1,0-.08l.07,0L13.72.35a.11.11,0,0,1,.08,0,.06.06,0,0,1,0,.06V.86l.36,0,0-.34V.44a.1.1,0,0,1,.1-.11h1.36a.09.09,0,0,1,.07,0,.11.11,0,0,1,0,.08V.51l0,.33.37,0V.46a.12.12,0,0,1,.12-.09l1.35.17a.1.1,0,0,1,.07,0,.08.08,0,0,1,0,.08V.73l-.08.32.36.06,0-.31V.74A.18.18,0,0,1,18,.67a.12.12,0,0,1,.08,0L19.4,1a.11.11,0,0,1,.07.13l0,.08-.12.29.34.13.09-.32,0-.06a.12.12,0,0,1,.14-.06l1.26.51a.17.17,0,0,1,.06.06.11.11,0,0,1,0,.08l0,.08L21,2.2l.33.15.12-.29,0-.06A.1.1,0,0,1,21.59,2a.11.11,0,0,1,.08,0l1.18.67a.1.1,0,0,1,0,.14l0,.07-.19.25.31.2L23.12,3l0,0a.12.12,0,0,1,.15,0l1.08.82a.1.1,0,0,1,0,.07.08.08,0,0,1,0,.08L24.36,4l-.22.22a3.2,3.2,0,0,1,.27.25l.19-.26,0,0a.11.11,0,0,1,.07,0h0a.11.11,0,0,1,.07,0l1,.95a.11.11,0,0,1,0,.15l-.06.06-.25.19.25.26.22-.22.05,0a.07.07,0,0,1,.07,0,.07.07,0,0,1,.07,0L27,6.6a.1.1,0,0,1,0,.07.08.08,0,0,1,0,.07l-.06,0-.26.15.2.3.23-.18.06,0a.08.08,0,0,1,.08,0s0,0,.07.05l.68,1.17a.1.1,0,0,1,0,.14l-.07,0-.27.12.15.32L28,8.71l.06,0a.1.1,0,0,1,.14.05L28.71,10a.11.11,0,0,1,0,.08.09.09,0,0,1-.06.06l-.07,0-.28.08.12.34.26-.11.06,0a.1.1,0,0,1,.13.07l.37,1.31a.19.19,0,0,1,0,.08.12.12,0,0,1-.07.05l-.08,0-.27,0c0,.12,0,.23.07.35l.27-.07h.06a.08.08,0,0,1,.08,0,.1.1,0,0,1,0,.07l.19,1.34a.11.11,0,0,1,0,.08.08.08,0,0,1-.07,0l-.09,0h-.27c0,.11,0,.23,0,.35l.28,0h.06s.06,0,.08,0a.09.09,0,0,1,0,.07v1.36A.09.09,0,0,1,29.52,15.71Z" fill="#aaa"/></svg>