<svg xmlns="http://www.w3.org/2000/svg" viewBox="0 0 26.56 30.43"><title>warranty-icn</title><path d="M13.28.36a21.42,21.42,0,0,1,2.79.87v1.6a.34.34,0,0,0,.25.33l5.16,1.33h.08a.38.38,0,0,0,.21-.07.37.37,0,0,0,.13-.27V2.76l4.31,1V9.49c0,.16.49,15.34-12.93,20.56C-.14,24.83.34,9.64.35,9.48V3.76l4.3-1v1.4a.35.35,0,0,0,.14.27A.37.37,0,0,0,5,4.5h.09l5.15-1.33a.35.35,0,0,0,.26-.33V1.23A21.42,21.42,0,0,1,13.28.36m0-.36Zm0,0h0Zm0,0a23.19,23.19,0,0,0-3.13,1V2.83L5,4.16V2.33L0,3.49v6S-.66,25.09,13.28,30.42C27.22,25.09,26.55,9.48,26.55,9.48v-6l-5-1.16V4.16L16.41,2.83V1a23.66,23.66,0,0,0-3.13-1Zm0,30.41h0Z" fill="#aaa"/><path d="M13.24,7A8.14,8.14,0,1,1,5.1,15.17,8.15,8.15,0,0,1,13.24,7m0-.34a8.48,8.48,0,1,0,8.48,8.48,8.48,8.48,0,0,0-8.48-8.48Z" fill="#aaa"/><path d="M13.24,9.12a6.06,6.06,0,1,1-6.06,6.05,6.05,6.05,0,0,1,6.06-6.05m0-.34a6.4,6.4,0,1,0,6.39,6.39,6.39,6.39,0,0,0-6.39-6.39Z" fill="#aaa"/><path d="M17.71,13.24,16,11.61l-3.95,4.06-2.06-2L8.37,15.36,12.14,19l1.63-1.68v0Z" fill="none" stroke="#aaa" stroke-linecap="round" stroke-linejoin="round" stroke-width="0.34"/></svg>