<svg xmlns="http://www.w3.org/2000/svg" viewBox="0 0 30 30"><title>wheel-icn</title><path d="M15,.34A14.66,14.66,0,1,1,.34,15,14.68,14.68,0,0,1,15,.34M15,0A15,15,0,1,0,30,15,15,15,0,0,0,15,0Z" fill="#aaa"/><path d="M15,3.14A11.86,11.86,0,1,1,3.14,15,11.87,11.87,0,0,1,15,3.14m0-.34A12.2,12.2,0,1,0,27.2,15,12.2,12.2,0,0,0,15,2.8Z" fill="#aaa"/><path d="M10.12,23.13a9.47,9.47,0,0,0,9.73,0L16.77,20H13.32Z" fill="none" stroke="#aaa" stroke-linecap="round" stroke-linejoin="round" stroke-width="0.34"/><path d="M22,21.44A9.46,9.46,0,0,0,24.48,15a8.65,8.65,0,0,0-.13-1.54L20.22,15l-1.14,3.52Z" fill="none" stroke="#aaa" stroke-linecap="round" stroke-linejoin="round" stroke-width="0.34"/><path d="M23.52,10.83a9.54,9.54,0,0,0-7.19-5.22l.05,3.88,2.75,3Z" fill="none" stroke="#aaa" stroke-linecap="round" stroke-linejoin="round" stroke-width="0.34"/><path d="M11,18.44,9.73,14.82,5.66,13.4a9.42,9.42,0,0,0,2.38,8Z" fill="none" stroke="#aaa" stroke-linecap="round" stroke-linejoin="round" stroke-width="0.34"/><path d="M13.62,9.55,11,12.42,6.5,10.81a9.46,9.46,0,0,1,7.08-5.18Z" fill="none" stroke="#aaa" stroke-linecap="round" stroke-linejoin="round" stroke-width="0.34"/><circle cx="11.94" cy="14.2" r="0.65" fill="none" stroke="#aaa" stroke-linecap="round" stroke-linejoin="round" stroke-width="0.34"/><circle cx="13.26" cy="17.99" r="0.65" fill="none" stroke="#aaa" stroke-linecap="round" stroke-linejoin="round" stroke-width="0.34"/><circle cx="16.79" cy="17.99" r="0.65" fill="none" stroke="#aaa" stroke-linecap="round" stroke-linejoin="round" stroke-width="0.34"/><circle cx="18.12" cy="14.2" r="0.65" fill="none" stroke="#aaa" stroke-linecap="round" stroke-linejoin="round" stroke-width="0.34"/><circle cx="14.99" cy="11.25" r="0.65" fill="none" stroke="#aaa" stroke-linecap="round" stroke-linejoin="round" stroke-width="0.34"/></svg>