<svg xmlns="http://www.w3.org/2000/svg" viewBox="0 0 100 100"><path fill="#222" d="M55.52 68.69C64.774 67.213 70 61.57 70 50.007c0-11.57-5.227-17.213-14.48-18.69-1.704-.274-3.548-.408-5.52-.408s-3.817.13-5.52.403C35.233 32.793 30 38.433 30 50.003c0 11.568 5.234 17.21 14.48 18.687 1.704.274 3.548.4 5.52.4s3.817-.126 5.52-.4zm0-35.923c6.538 1.41 11.893 5.876 11.893 17.24 0 8.635-3.095 13.28-7.453 15.634L57.5 49.11l-1.98-5.574-4.003-11.277c1.357.062 2.708.223 4.004.503zm-6.275-.54c.254-.008.5-.014.755-.014.247 0 .5.007.755.013l.22 13.777h-1.95l.22-13.777zm-16.658 17.78c0-11.364 5.354-15.83 11.892-17.24 1.292-.28 2.642-.44 4-.507l-4 11.277-1.98 5.573-2.46 16.532c-4.36-2.353-7.455-7-7.455-15.635zM44.48 67.24c-1.405-.31-2.755-.75-4.012-1.37l4.01-8.323 4.346-9.017h2.352l4.345 9.017 4.016 8.322c-1.257.62-2.607 1.06-4.01 1.37-1.78.38-3.65.54-5.522.543-1.87-.006-3.742-.167-5.52-.548z"/></svg>