<svg baseProfile="basic" xmlns="http://www.w3.org/2000/svg" viewBox="0 0 100 100"><path fill="#222" d="M49.9 70c-2 0-3.8-.3-5.6-.8-4.6-1.3-9-4.7-11.5-8.9-2.9-4.6-3.7-10.9-2-16 1.4-4.7 4.9-9.2 9.3-11.6 2.8-1.7 6.4-2.6 10-2.6 2.1 0 4.2.3 6 1 3.7 1.2 7 3.5 9.4 6.5 4 4.9 5.4 11.8 3.7 18-1.3 5.1-5.4 10-10.2 12.3-2.5 1.3-5.8 2.1-9.1 2.1zm.2-39.5c-3.5 0-7 .9-9.8 2.6-4.3 2.4-7.7 6.7-9.1 11.3-1.6 5-.9 11.2 2 15.7 2.4 4.1 6.7 7.4 11.2 8.7 1.7.5 3.5.8 5.4.8 3.2 0 6.4-.8 9-2.1 4.6-2.3 8.6-7.1 9.9-12.1 1.7-6 .4-12.8-3.6-17.6-2.4-3-5.6-5.2-9.2-6.4-1.7-.6-3.7-.9-5.8-.9z"/><path fill="#222" d="M49.9 67.7c-1.8 0-3.4-.2-5-.7-4.4-1.2-8.7-4.8-10.7-9-2.2-4-2.5-9.8-.8-14.1 1.3-3.8 4.7-7.7 8.3-9.5 2.4-1.3 5.3-2.1 8.4-2.1 2 0 3.9.3 5.6.9 2.9 1 5.5 2.7 7.6 5 4.3 4.7 5.7 11.5 3.6 17.6-1.3 4-4.6 7.9-8.3 9.8-2.6 1.4-5.6 2.1-8.7 2.1zm.2-35c-3 0-5.9.7-8.2 2-3.6 1.8-6.8 5.6-8.1 9.3-1.6 4.2-1.3 9.8.8 13.7 2 4 6.2 7.5 10.4 8.7 1.5.5 3.1.7 4.9.7 3 0 5.9-.7 8.3-2.1 3.6-1.9 6.9-5.7 8.1-9.6 2.1-5.9.7-12.6-3.5-17.1-2.1-2.3-4.5-3.9-7.4-4.9-1.5-.4-3.4-.7-5.3-.7z"/><path fill-rule="evenodd" clip-rule="evenodd" fill="#222" d="M55.7 37.2c.2.3.1.7 0 .9-.2.2-.4.2-.6.1-.3-.1-.4-.4-.4-.6 0-.2.1-.5.4-.6.2 0 .5 0 .6.2z"/><path fill-rule="evenodd" clip-rule="evenodd" fill="#222" d="M56.9 37.3c.2.3.1.7-.1.9-.2.2-.4.2-.6.1-.2-.1-.3-.3-.4-.6 0-.3 0-.5.3-.6.3-.2.7-.1.8.2z"/><path fill-rule="evenodd" clip-rule="evenodd" fill="#222" d="M58.1 37.3c.1.3.1.7-.1.9-.2.2-.4.2-.6.1-.2-.1-.3-.3-.4-.5 0-.3 0-.6.3-.7.3-.2.7-.1.8.2zm1.2 0c.1.2.1.6 0 .8-.1.2-.4.3-.6.2-.2 0-.4-.3-.4-.5 0-.3 0-.6.3-.7.2-.2.6-.1.7.2zm1.2 0c.1.3.1.6-.1.8-.2.2-.4.2-.6.2-.2 0-.3-.3-.4-.4 0-.2 0-.5.1-.7.3-.2.5-.2.7-.2.1.1.3.2.3.3zm.1 1.7h-5.9v-.4h5.9v.4m0 1h-5.9v-.3h5.9v.3m4.8 5.9c-.1 1.7-1.3 3.5-3 4.1-.7.3-1.5.4-2.3.4h-4.6c-.1 0-.2.1-.3.2-.1.1 0 .3 0 .4.1.1.3.1.4.1h5.5c1 .1 1.9.8 2.3 1.7.5 1.2.2 2.8-.7 3.7-.9 1.1-2.4.8-3.8.8h-3.4c-.1 0-.2.1-.3.2-.1.1 0 .3.1.4.1.1.2.1.4.1h3.7c.6.1 1.4.4 1.6 1.1.2.6.1 1.4-.4 1.9-.9.7-2.3.4-3.5.5-.1 0-.2.1-.2.2v.3l.2.2c.8.1 1.6-.1 2.3.2.2.2.3.4.2.7 0 .2-.2.4-.4.5-.1 0-.2 0-.2-.1-.1-.1-.1-.4-.3-.5-1.1-.2-2.7.4-3.1-1-.1-.5 0-.9.4-1.2.4-.3.8-.4 1.3-.4h1.9c.1 0 .2-.2.3-.3 0-.2 0-.4-.2-.5h-4.6c-.6-.1-1.2-.6-1.5-1.2-.3-.9-.2-2 .5-2.7.4-.5 1-.7 1.6-.7h4.8c.1 0 .3-.1.4-.3.1-.1 0-.3-.1-.4-.1-.1-.2-.2-.4-.2h-5.6c-1-.1-2-.9-2.3-1.8-.5-1.3-.3-3 .5-4 .6-.8 1.5-1.1 2.4-1.2h4.9c.1 0 .3-.1.4-.2.1-.2.2-.5.1-.7-.1-.2-.3-.3-.5-.3L55 46c.1-.5.2-1.1.8-1.4.3-.1.6-.1.9-.1h2.4c.1 0 .3-.2.3-.3 0-.1 0-.2-.1-.3l-.3-.1h-3.1c-.3 0-.6-.3-.7-.6-.1-.2-.2-.5-.2-.8h2.2c.3-.1.3-.5.6-.7.3-.3.8-.3 1.2-.3h2.2c.6 0 1.1-.3 1.4-.8 1.9 1.1 3 3 2.8 5.3z"/><path fill-rule="evenodd" clip-rule="evenodd" fill="#222" d="M53.3 41.4c.3.3.9.6.9 1.1 0 .6.3 1.2.7 1.7-.6.6-.6 1.3-.8 2-.5.7-1.2 1.1-1.9 1.4-.1 0-.2 0-.3-.1-.1-.2-.2-.4-.1-.6.3-.5.9-.6 1.3-1 .2-.2 0-.6.1-.9 0-.1-.1-.2-.2-.3-.5.1-.9.5-1.5.4-.2 0-.5-.1-.6-.4-.2-.4-.2-.9 0-1.3s.6-.5 1-.4c.4 0 .7.4 1.1.3.2-.2.1-.6.1-.9-.2-.5-.7-.5-1-.8-.2-.1-.4-.3-.3-.6 0-.1 0-.2.1-.3.1-.1.3-.1.4-.1.3.3.7.5 1 .8zm-8.8 5.8h5.4v5.2h-5.4v14.2s-4.4-1.6-5.1-2.9V52.5h-6.6s-.6-2.1 0-5.3h6.6V36.3c.7-1.3 5.1-2.9 5.1-2.9v13.8h5.2"/><path fill="#222" d="M49.8 32.5h.5v34.8h-.5z"/></svg>