<svg xmlns="http://www.w3.org/2000/svg" viewBox="0 0 100 100"><path fill="#222" d="M68.602 40c-2.343 0-4.495.805-6.2 2.154-1.706-1.35-3.858-2.154-6.2-2.154-2.343 0-4.497.805-6.202 2.154C48.295 40.804 46.143 40 43.8 40s-4.497.805-6.202 2.154C35.893 40.804 33.74 40 31.398 40c-5.524 0-10 4.476-10 10s4.476 10 10 10c2.343 0 4.496-.805 6.2-2.154 1.705 1.35 3.86 2.154 6.2 2.154 2.344 0 4.497-.805 6.2-2.154C51.706 59.196 53.86 60 56.202 60s4.497-.805 6.202-2.154c1.705 1.35 3.858 2.154 6.2 2.154 5.524 0 10-4.476 10-10s-4.477-10-10-10zm-32.64 16.212c-1.273.93-2.865 1.497-4.563 1.497-4.266 0-7.71-3.45-7.71-7.71s3.444-7.71 7.71-7.71c1.693 0 3.284.57 4.56 1.494-1.355 1.71-2.16 3.864-2.16 6.214 0 2.34.814 4.507 2.16 6.21zm1.637-1.63c-.95-1.283-1.51-2.865-1.51-4.582 0-1.72.554-3.298 1.51-4.58.95 1.282 1.504 2.86 1.504 4.58 0 1.717-.56 3.3-1.51 4.58zm10.76 1.63c-1.28.942-2.86 1.495-4.57 1.495s-3.28-.554-4.56-1.495C40.582 54.508 41.4 52.34 41.4 50c0-2.35-.807-4.505-2.163-6.212 1.28-.94 2.85-1.495 4.56-1.495s3.29.553 4.57 1.495C47.007 45.495 46.2 47.65 46.2 50c0 2.34.817 4.508 2.164 6.212zm1.64-1.63c-.95-1.283-1.51-2.864-1.51-4.58 0-1.72.56-3.3 1.51-4.582.95 1.283 1.51 2.86 1.51 4.58 0 1.717-.56 3.3-1.51 4.58zm10.764 1.63c-1.28.942-2.86 1.495-4.57 1.495s-3.28-.554-4.56-1.495C52.984 54.508 53.8 52.34 53.8 50c0-2.35-.808-4.505-2.164-6.212 1.28-.94 2.85-1.495 4.56-1.495s3.29.553 4.57 1.495C59.408 45.495 58.6 47.65 58.6 50c0 2.34.816 4.508 2.163 6.212zm1.636-1.63c-.945-1.283-1.505-2.864-1.505-4.58 0-1.72.558-3.3 1.51-4.582.95 1.283 1.508 2.86 1.508 4.58 0 1.717-.56 3.3-1.51 4.58zm6.205 3.127c-1.698 0-3.29-.57-4.564-1.5 1.347-1.705 2.16-3.87 2.16-6.21 0-2.35-.804-4.508-2.16-6.215 1.275-.93 2.866-1.497 4.564-1.497 4.26 0 7.71 3.45 7.71 7.71s-3.45 7.71-7.71 7.71z"/></svg>