<svg xmlns="http://www.w3.org/2000/svg" viewBox="0 0 100 100"><path d="M50 70c5.342 0 10.365-2.08 14.142-5.858C67.92 60.365 70 55.342 70 50c0-5.342-2.08-10.365-5.858-14.142C60.365 32.08 55.342 30 50 30c-11.028 0-20 8.972-20 20 0 5.342 2.08 10.365 5.858 14.142C39.635 67.92 44.658 70 50 70z"/><path fill="#fff" d="M30.692 50c0-5.157 2.008-10.006 5.655-13.653C39.994 32.7 44.843 30.692 50 30.692s10.006 2.008 13.653 5.655C67.3 39.994 69.308 44.843 69.308 50c0 10.646-8.662 19.308-19.308 19.308-5.157 0-10.006-2.008-13.653-5.655C32.7 60.006 30.692 55.157 30.692 50z"/><circle fill="#222" cx="50" cy="50" r="18.512"/><circle fill="#fff" cx="50" cy="50" r="11.825"/><path d="M38.936 50H50V38.936c-6.11 0-11.064 4.953-11.064 11.064zM50 50v11.064c6.11 0 11.064-4.954 11.064-11.064H50z" fill="#222"/><path fill="#fff" d="M41.31 38.718c-.392-.38-.998-.496-1.567-.143.11-.282.064-.57.007-.728-.245-.447-.33-.503-.533-.672-.654-.55-1.342-.08-1.834.506l-2.378 2.84 3.738 3.135 2.507-2.987c.574-.683.662-1.36.06-1.945zm9.31-1.348l1.283-3.4v3.4h.975V32.5h-1.465l-1.333 3.49h.013L48.76 32.5h-1.466v4.873h.976v-3.4l1.284 3.4zm13.115 2.028l-1.836 2.6 2.842-1.35.754.93-4.483 2.172-.884-1.1 1.762-2.58-.01-.012-2.888 1.19-.893-1.096 3.058-3.932.753.93L60 39.656l2.927-1.255z"/><path d="M37.903 38.382c.165-.197.54-.19.78.013.264.222.265.536.088.748l-1.41 1.683-.88-.74 1.427-1.704zm2.512 1.985l-1.49 1.774-.933-.78 1.5-1.79c.17-.2.548-.26.803-.044.29.243.318.61.12.845z"/></svg>