<svg version="1.1" id="Layer_1" xmlns="http://www.w3.org/2000/svg" x="0" y="0" viewBox="0 0 100 100" xml:space="preserve"><style>.st0{fill:#231f20}</style><g id="Layer_2_1_"><g id="Black_Logos"><g id="buick"><path class="st0" d="M49.7 59.9c1.1-1.6 1.9-3.4 2.5-5.2l-5.5-7.4c.2 6 .8 9.4 3 12.6zM61.3 51l-5.4-7.6c.1 6.2.6 9.6 2.9 12.8 1.1-1.6 1.9-3.3 2.5-5.2zM62.2 39.5v-1.2h-6.3v.1l6.1 8.2c.2-2.2.2-4.5.2-7.1zM53.3 41.9h-6.4v.1l6.3 8.3c.2-2.3.3-4.5.2-6.8l-.1-1.6z"/><path class="st0" d="M50 30.3c-10.9 0-19.7 8.8-19.7 19.7S39.1 69.8 50 69.8 69.8 60.9 69.8 50 60.9 30.3 50 30.3c0-.1 0 0 0 0zM32.8 50c0-9.5 7.7-17.2 17.2-17.2 3.1 0 6.1.8 8.7 2.4h-5.2v3.7h-8.8v3.7h-9s-.2 8.6 0 11.1c.3 3.1.4 5.4 1.3 7.5-2.7-3.1-4.2-7.1-4.2-11.2zm29.9-12.2v1.7c0 7.1 0 12.2-3.8 17.3l-.2.3-.2-.3c-3.2-4.4-3.3-9.5-3.1-18.8v-.2h7.3zm-8.9 5.6c0 6.7 0 11.2-3.8 17l-.2.3-.2-.3c-3.3-4.4-3.4-9.8-3.2-18.8v-.3h7.5v2.1h-.1zM40.9 65.3l-.3-.3c-1.8-2.3-2.9-5.1-3.2-7.9-.5-3.9-.6-7.9-.4-11.8V45h8v2.5c0 6.6 0 11.8-4 17.5l-.1.3zm9.1 1.9c-2.7 0-5.3-.6-7.7-1.8 1.8-2.4 3-5.2 3.5-8.2.8 2.4 2.1 4.5 3.8 6.3h.2c2.9-2.6 4.2-6.3 5-9.9 1.6 4.2 2.8 5.3 3.8 6.3h.1c2-2.2 4.3-5 5.2-12.3.2-1.3.2-4.4.2-7.2 5.3 7.9 3.3 18.5-4.6 23.9-2.7 1.8-6.1 2.9-9.5 2.9z"/><path class="st0" d="M40.8 64.4c1.2-1.7 2.1-3.6 2.7-5.7l-6-7.8c.1 6.4.9 10.4 3.3 13.5zM44.5 45.5h-6.9v.1l6.8 8.8c.2-2.1.2-4.4.2-6.8-.1-.7-.1-1.3-.1-2.1z"/></g></g></g></svg>