<svg id="Layer_1" data-name="Layer 1" xmlns="http://www.w3.org/2000/svg" viewBox="0 0 100 100"><defs><style>.cls-1,.cls-2{fill:#231f20;}.cls-2{fill-rule:evenodd;}.cls-3{fill:#1c1b1a;}.cls-4{fill:#d0b787;}.cls-5{fill:#656363;}.cls-6{fill:none;}</style></defs><title>Artboard 1</title><g id="_Group_" data-name="&lt;Group&gt;"><g id="_Group_2" data-name="&lt;Group&gt;"><polygon id="_Path_" data-name="&lt;Path&gt;" class="cls-1" points="54.53 59.19 54.53 59.19 54.53 59.19 54.53 59.19"/><path id="_Compound_Path_" data-name="&lt;Compound Path&gt;" class="cls-2" d="M36.16,53.78c-6.51-.37-10.74,5.12-4.31,5.22C37.1,54.92,43.69,51.7,46,53.39c2.17,2.67-9.11,6.79-13.42,6.21-5.12,5.86-.77,7,6.24,2.37,2.3-2.16,4.52-3,6.33-2.44l-3,3.3c-.68,1.42.63.77,2.12-.51,1.88-2.48,4-3.09,5.58-2.86.8-.87,1.71-1.62,2.5-2.49h1.15c-1.9,1.83-3.86,3.58-5.61,5.59-.33,1,.46,1.13,2.14-.52l2.71-2.46h1l-2.9,2.89c-.65,1.17.47,1.24,2.49.17.54-2.26,4.37-5.94,5.88-6,1.18.76-1.69,3.94-5.09,5.94-.47,1.27.93,1,3.11.18.38-2.12,4.41-5.9,5.6-5.79,1.47.3-.74,3.3-4.72,5.66-.39,1.52,1.19.8,2.81-.47,1.92-2.22,4.19-3.3,6.47-2.58L64.6,62.77c-.41.49.1,1.16.94.41,1.46-1.42,4.22-5,6.69-3.9.66.57,0,1.48-1,2-.25.07-.32,0-.22-.19.74-.6,1.08-1.11.71-1.48-1.84-.54-6,3.69-3.12,4a7.94,7.94,0,0,0,3.36-1.24l.18.35c-2.35,1.64-5.84,2.22-5.34-.29-1.59,2-3,1.81-3,.49-1.77,1.65-3.4,1.21-2.85-.37-1.68,1.94-3.42,1.7-3.75.59-2.56,1.27-3.73,1.14-3.76-.13-2.27,1.59-4.08,1.27-3.35-.64-1.74,2.07-3.4,2-2.92.28-2.3,2.09-3.87,1.5-2.9-.1-1.41,1.53-3.34,2.18-2.92.42-2.06,1.61-3.32,1-2.61-.5-3.83,3.76-13.06,5.09-7.45-2.89-6,.06-5.29-6.24,4.89-6.17l0,.37Zm-3,5.36c5,.66,13.4-3.88,12.51-5.32-1-1.27-5.82.13-12.51,5.32Zm10.93.56c-1.75,2.29-3.1,3.54-4,3.72-.66.14-.76-.17-.55-.68a6.31,6.31,0,0,1,4.5-3Zm5.24,0c-1.75,2.28-3.1,3.53-3.95,3.71-.66.14-.75-.16-.55-.67a6.25,6.25,0,0,1,4.5-3Zm16.91,0c-1.75,2.29-3.11,3.54-3.95,3.72-.67.14-.76-.17-.55-.67a6.29,6.29,0,0,1,4.5-3ZM54.56,58.16a.59.59,0,0,1-.06.84.63.63,0,0,1-.86.06.58.58,0,0,1,.06-.84.63.63,0,0,1,.86-.06ZM54.29,62c3.53-2.47,5.16-4.4,4.49-4.81-1.94,1.22-4,3.24-4.49,4.81Zm4,0c3.54-2.47,5.16-4.4,4.5-4.81-1.95,1.22-4,3.24-4.5,4.81Z"/></g><g id="_Group_3" data-name="&lt;Group&gt;"><polygon id="_Path_2" data-name="&lt;Path&gt;" class="cls-1" points="45.05 42.6 39.21 42.6 39.53 44.97 45.05 44.97 45.05 42.6"/><g id="_Group_4" data-name="&lt;Group&gt;"><path id="_Path_3" data-name="&lt;Path&gt;" class="cls-1" d="M35.41,40.47,35.64,42H39.1c-.08-.43-.18-1.16-.22-1.52Z"/><path id="_Compound_Path_2" data-name="&lt;Compound Path&gt;" class="cls-1" d="M39.1,42H35.64a0,0,0,0,1,0,0l-.24-1.52a.06.06,0,0,1,0,0h3.51a0,0,0,0,1,0,0c0,.38.14,1.09.23,1.51,0,0,0,0,0,0ZM35.68,42h3.37c-.08-.42-.17-1.06-.21-1.43H35.46Z"/></g><g id="_Group_5" data-name="&lt;Group&gt;"><path id="_Path_4" data-name="&lt;Path&gt;" class="cls-1" d="M35.74,42.6c.12.81.25,1.64.36,2.37h3.43l-.32-2.37Z"/><path id="_Compound_Path_3" data-name="&lt;Compound Path&gt;" class="cls-1" d="M39.53,45H36.1s0,0,0,0c-.11-.73-.24-1.56-.37-2.38a0,0,0,0,1,0,0,.05.05,0,0,1,0,0h3.47a.07.07,0,0,1,0,0L39.57,45s0,0,0,0Zm-3.39-.09h3.33l-.3-2.28H35.79C35.91,43.43,36,44.22,36.14,44.92Z"/></g><rect id="_Path_5" data-name="&lt;Path&gt;" class="cls-1" x="51.72" y="40.56" width="5.73" height="0.78"/><path id="_Path_6" data-name="&lt;Path&gt;" class="cls-1" d="M63.79,42.63H51.72c0,.34,0,1,0,1.48H63.56Z"/><g id="_Group_6" data-name="&lt;Group&gt;"><polygon id="_Path_7" data-name="&lt;Path&gt;" class="cls-1" points="67.19 42.63 63.79 42.63 63.56 44.11 66.9 44.11 67.19 42.63"/><path id="_Compound_Path_4" data-name="&lt;Compound Path&gt;" class="cls-1" d="M66.9,44.15H63.52a.06.06,0,0,1,0,0l.23-1.48a.05.05,0,0,1,0,0h3.44a.06.06,0,0,1,0,0L67,44.12A.05.05,0,0,1,66.9,44.15Zm-3.29-.09h3.25l.28-1.38H63.83Z"/></g><path id="_Path_8" data-name="&lt;Path&gt;" class="cls-3" d="M51.72,44.68v1H63a7.67,7.67,0,0,0,.24-1Z"/><g id="_Group_7" data-name="&lt;Group&gt;"><path id="_Path_9" data-name="&lt;Path&gt;" class="cls-1" d="M66.8,44.7H63.28a7.67,7.67,0,0,1-.24,1h3.65Z"/><path id="_Compound_Path_5" data-name="&lt;Compound Path&gt;" class="cls-1" d="M66.69,45.77H63l0,0a.06.06,0,0,1,0,0,8.31,8.31,0,0,0,.24-1,0,0,0,0,1,.05,0H66.8l0,0a0,0,0,0,1,0,0l-.1,1S66.72,45.77,66.69,45.77Zm-3.59-.09h3.55l.1-.94H63.31A7.32,7.32,0,0,1,63.1,45.68Z"/></g><g id="_Group_8" data-name="&lt;Group&gt;"><path id="_Path_10" data-name="&lt;Path&gt;" class="cls-1" d="M66.32,46.29H63a1.32,1.32,0,0,1-.62.69c.57,0,1.76.14,2.43.23C65.58,47,66.12,46.71,66.32,46.29Z"/><path id="_Compound_Path_6" data-name="&lt;Compound Path&gt;" class="cls-1" d="M64.82,47.25h0c-.68-.09-1.92-.19-2.42-.22,0,0,0,0,0,0a0,0,0,0,1,0-.05,1.22,1.22,0,0,0,.59-.66.05.05,0,0,1,0,0h3.31l0,0a0,0,0,0,1,0,0,2.41,2.41,0,0,1-1.53.94ZM62.53,47c.56,0,1.65.13,2.29.21a2.55,2.55,0,0,0,1.42-.82H63A1.36,1.36,0,0,1,62.53,47Z"/></g><polygon id="_Path_11" data-name="&lt;Path&gt;" class="cls-1" points="51.23 36.66 37.56 36.66 38.78 38.26 51.23 38.26 51.23 36.66"/><g id="_Group_9" data-name="&lt;Group&gt;"><path id="_Path_12" data-name="&lt;Path&gt;" class="cls-1" d="M33.76,36.66a10.45,10.45,0,0,1,1.14,1.6h3.77l-1.21-1.6Z"/><path id="_Compound_Path_7" data-name="&lt;Compound Path&gt;" class="cls-1" d="M38.76,38.3H34.87v0a9.48,9.48,0,0,0-1.14-1.59l-.06-.07h3.82Zm-3.84-.09h3.66l-1.14-1.5H33.86A9.44,9.44,0,0,1,34.92,38.21Z"/></g><polygon id="_Path_13" data-name="&lt;Path&gt;" class="cls-1" points="37.56 36.66 37.46 36.66 38.67 38.26 38.78 38.26 37.56 36.66"/><polygon id="_Path_14" data-name="&lt;Path&gt;" class="cls-1" points="38.58 38.78 38.9 39.92 39.05 39.92 39.26 39.92 38.93 38.78 38.58 38.78"/><g id="_Group_10" data-name="&lt;Group&gt;"><path id="_Path_15" data-name="&lt;Path&gt;" class="cls-1" d="M35.14,38.79c0,.24.1.64.18,1.13H38.9l-.32-1.13Z"/><path id="_Compound_Path_8" data-name="&lt;Compound Path&gt;" class="cls-1" d="M38.9,40H35.32a.07.07,0,0,1,0,0c-.07-.5-.13-.9-.17-1.14a0,0,0,0,1,0,0l0,0h3.44s0,0,0,0l.32,1.14s0,0,0,0Zm-3.54-.09h3.48l-.3-1.05H35.2C35.23,39.07,35.29,39.43,35.36,39.88Z"/></g><polygon id="_Path_16" data-name="&lt;Path&gt;" class="cls-1" points="51.26 38.78 38.97 38.78 38.93 38.78 39.26 39.92 51.26 39.92 51.26 38.78"/><path id="_Path_17" data-name="&lt;Path&gt;" class="cls-1" d="M51.23,40.47H38.88c0,.36.14,1.09.22,1.52H51.23Z"/><path id="_Path_18" data-name="&lt;Path&gt;" class="cls-4" d="M52.42,49.07,52.8,49h-.38Z"/><path id="_Path_19" data-name="&lt;Path&gt;" class="cls-1" d="M62.43,46.35H51.74v2.86l.6-.11.09,0v0h.37c.17-.12.35-.07.54-.11l.26-.05h0l.77-.13.09,0,.94-.16.13,0,.66-.1a5.23,5.23,0,0,1,.78-.11l.41-.12.11,0,.87-.15.14,0,.75-.14h.05l.82-.16.09,0,.26,0,.41-.09h0l.28-.08.14,0a5.32,5.32,0,0,0,1-.4l.09-.06h0s.06,0,.08,0a1.87,1.87,0,0,0,.48-.57Z"/><g id="_Group_11" data-name="&lt;Group&gt;"><rect id="_Path_20" data-name="&lt;Path&gt;" class="cls-1" x="51.72" y="36.69" width="5.73" height="2.37"/><path id="_Compound_Path_9" data-name="&lt;Compound Path&gt;" class="cls-1" d="M57.45,39.11H51.72a0,0,0,0,1,0,0V36.69a0,0,0,0,1,0,0h5.73a0,0,0,0,1,0,0v2.38A0,0,0,0,1,57.45,39.11ZM51.77,39H57.4V36.74H51.77Z"/></g><polygon id="_Path_21" data-name="&lt;Path&gt;" class="cls-1" points="64.3 39.42 58.04 39.46 58.04 42 63.84 42 64.3 39.42"/><g id="_Group_12" data-name="&lt;Group&gt;"><path id="_Path_22" data-name="&lt;Path&gt;" class="cls-1" d="M40,46.21H36.35a1.67,1.67,0,0,0,1,.83h3.55A2,2,0,0,1,40,46.21Z"/><path id="_Compound_Path_10" data-name="&lt;Compound Path&gt;" class="cls-1" d="M40.93,47.08H37.36a1.73,1.73,0,0,1-1-.85,0,0,0,0,1,0,0l0,0H40l0,0A2,2,0,0,0,41,47a0,0,0,0,1,0,0S41,47.08,40.93,47.08ZM37.39,47h3.36a2,2,0,0,1-.74-.73H36.42A1.72,1.72,0,0,0,37.39,47Z"/></g><path id="_Path_23" data-name="&lt;Path&gt;" class="cls-1" d="M45.05,46.21H40a2,2,0,0,0,.9.83h4.12Z"/><rect id="_Path_24" data-name="&lt;Path&gt;" class="cls-1" x="45.44" y="43.37" width="5.77" height="0.87"/><polygon id="_Path_25" data-name="&lt;Path&gt;" class="cls-1" points="45.43 45.4 45.43 48.11 51.22 49.19 51.22 45.4 45.43 45.4"/><path id="_Path_26" data-name="&lt;Path&gt;" class="cls-1" d="M58,37.3v.85h6.25a7.13,7.13,0,0,0,.58-.85Z"/><g id="_Group_13" data-name="&lt;Group&gt;"><path id="_Path_27" data-name="&lt;Path&gt;" class="cls-1" d="M67.78,37.3H64.87a7.13,7.13,0,0,1-.58.85h3.8l.53-.85A6.8,6.8,0,0,0,67.78,37.3Z"/><path id="_Compound_Path_11" data-name="&lt;Compound Path&gt;" class="cls-1" d="M68.09,38.2h-3.8s0,0,0,0a0,0,0,0,1,0-.05,6.69,6.69,0,0,0,.58-.84.05.05,0,0,1,0,0h2.91a7,7,0,0,1,.85,0,0,0,0,0,1,0,0,0,0,0,0,1,0,0l-.53.85A.05.05,0,0,1,68.09,38.2Zm-3.71-.09h3.68l.48-.77a6.24,6.24,0,0,0-.76,0H64.9A8,8,0,0,1,64.38,38.11Z"/></g><g id="_Group_14" data-name="&lt;Group&gt;"><polygon id="_Path_28" data-name="&lt;Path&gt;" class="cls-1" points="67.67 39.4 64.3 39.42 63.84 42 67.29 42 67.67 39.4"/><path id="_Compound_Path_12" data-name="&lt;Compound Path&gt;" class="cls-1" d="M67.29,42H63.81s0,0,0,0l.46-2.58a0,0,0,0,1,0,0l3.37,0,0,0a0,0,0,0,1,0,0L67.34,42A.05.05,0,0,1,67.29,42ZM63.9,42h3.35l.37-2.51-3.28,0Z"/></g><path id="_Path_29" data-name="&lt;Path&gt;" class="cls-5" d="M51.71,49.2V46.28h0v2.89h0Z"/><polygon id="_Path_30" data-name="&lt;Path&gt;" class="cls-6" points="45.05 42.6 39.21 42.6 39.53 44.97 45.05 44.97 45.05 42.6"/><g id="_Group_15" data-name="&lt;Group&gt;"><path id="_Path_31" data-name="&lt;Path&gt;" class="cls-1" d="M38.26,47.55c-1.7-.47-2.12-.87-2.16-1.28s-1.21-7.55-1.21-7.55a19.57,19.57,0,0,0-1.78-2.48A4.39,4.39,0,0,0,30.86,35l2.6,3.63s1.13,6.67,1.3,7.6c.07.39.48.84,2,1.4l5.19.82S40,48,38.26,47.55Z"/><path id="_Compound_Path_13" data-name="&lt;Compound Path&gt;" class="cls-5" d="M42,48.48h0l-5.2-.81h0c-1.32-.49-2-.93-2-1.43-.16-.91-1.24-7.29-1.29-7.59L30.82,35a0,0,0,0,1,0,0l.05,0a4.57,4.57,0,0,1,2.27,1.27,19.76,19.76,0,0,1,1.79,2.48v0c.05.29,1.16,7.15,1.2,7.56s.31.73,2.13,1.24,3.68.88,3.7.88a.05.05,0,0,1,0,.06A0,0,0,0,1,42,48.48Zm-5.18-.9,3.75.59c-.68-.16-1.52-.36-2.28-.58h0c-1.51-.42-2.15-.8-2.2-1.32S34.9,39,34.85,38.73a20.78,20.78,0,0,0-1.77-2.46A4.52,4.52,0,0,0,31,35.06c.48.66,1.78,2.47,2.54,3.54v0c0,.06,1.13,6.67,1.3,7.59C34.85,46.5,35.12,47,36.78,47.58Z"/></g><g id="_Group_16" data-name="&lt;Group&gt;"><path id="_Path_32" data-name="&lt;Path&gt;" class="cls-1" d="M51,50.14c-1.86-.41-9.16-2-11.33-2.42-2.59-.68-3.25-.9-3.45-1.89-.32-2.16-1-6.18-1.1-7.11a10.6,10.6,0,0,0-2.28-3,9.22,9.22,0,0,0-2.25-1.09l.26.36a4.39,4.39,0,0,1,2.25,1.25,19.57,19.57,0,0,1,1.78,2.48s1.17,7.14,1.21,7.55.46.81,2.16,1.28,3.7.89,3.7.89,8.07,1.64,9,1.7Z"/></g><g id="_Group_17" data-name="&lt;Group&gt;"><path id="_Path_33" data-name="&lt;Path&gt;" class="cls-1" d="M51,50.14h0c-1-.06-9-1.7-9-1.7l-5.19-.82c2.11.79,6.33,1.79,14.68,3.18v-.57Z"/><path id="_Compound_Path_14" data-name="&lt;Compound Path&gt;" class="cls-1" d="M51.5,50.86h-.06C44,49.61,39.17,48.56,36.75,47.66l0-.08,5.19.81c.08,0,8.08,1.64,9.05,1.7h0l.48.1ZM37.24,47.74a104.91,104.91,0,0,0,14.16,3v-.48L51,50.18c-1-.06-8.73-1.63-9.06-1.7Z"/></g><g id="_Group_18" data-name="&lt;Group&gt;"><path id="_Path_34" data-name="&lt;Path&gt;" class="cls-1" d="M72.38,34.6l-2.31,1.12-2,3.07s-.67,4.77-.9,6-.52,2.13-1.3,2.44c-2.71.91-14.4,3-14.4,3S59,49.17,62.53,48.35l3.67-.73c1.52-.57,1.93-1,2-1.4.17-.93,1.3-7.6,1.3-7.6l2.88-4Z"/><path id="_Compound_Path_15" data-name="&lt;Compound Path&gt;" class="cls-1" d="M51.45,50.28a.07.07,0,0,1-.05,0s0-.05,0-.05,11.72-2.14,14.4-3c.71-.29,1-1.1,1.26-2.41s.9-5.92.9-6,0,0,0,0l2-3.07h0l2.31-1.12s0,0,0,0h0s0,0,0,0a0,0,0,0,1,0,0l-2.88,4c-.05.3-1.13,6.68-1.29,7.59-.09.5-.72.94-2,1.43L64.68,48l-2.14.43c-3.45.81-11,1.87-11.08,1.88ZM68.09,38.8c0,.25-.67,4.81-.9,6s-.49,2.14-1.32,2.47c-2,.65-8.58,1.94-12.13,2.61,2.53-.38,6.53-1,8.78-1.54l2.14-.43,1.53-.3c1.65-.62,1.91-1.08,2-1.37.16-.92,1.28-7.53,1.29-7.59v0l2.78-3.88-2.13,1Z"/></g><g id="_Group_19" data-name="&lt;Group&gt;"><path id="_Path_35" data-name="&lt;Path&gt;" class="cls-1" d="M51.45,50.23v.57h0c8.38-1.4,12.61-2.41,14.72-3.19l-3.67.73C59,49.17,51.45,50.23,51.45,50.23Z"/><path id="_Compound_Path_16" data-name="&lt;Compound Path&gt;" class="cls-1" d="M51.48,50.86l-.08,0V50.2h0c.08,0,7.63-1.07,11.08-1.88l2.14-.43,1.53-.3,0,.08c-2.42.9-7.24,2-14.73,3.19Zm0-.59v.49a109.9,109.9,0,0,0,14.07-3l-.89.18-2.14.43C59.21,49.18,52.09,50.19,51.5,50.27Z"/></g><g id="_Group_20" data-name="&lt;Group&gt;"><path id="_Path_36" data-name="&lt;Path&gt;" class="cls-1" d="M51.45,35.72V34.6H30.58l0,0a9.22,9.22,0,0,1,2.25,1.09Z"/><path id="_Compound_Path_17" data-name="&lt;Compound Path&gt;" class="cls-1" d="M51.45,35.76H32.82a9.72,9.72,0,0,0-2.23-1.08l0,0,0,0a0,0,0,0,1,0,0s0,0,0,0H51.45a.05.05,0,0,1,0,.05v1.12S51.47,35.76,51.45,35.76Zm-18.59-.09H51.4v-1H30.81A9.92,9.92,0,0,1,32.86,35.67Z"/></g><g id="_Group_21" data-name="&lt;Group&gt;"><polygon id="_Path_37" data-name="&lt;Path&gt;" class="cls-1" points="51.48 34.6 51.45 34.6 51.45 35.72 70.07 35.72 72.38 34.6 51.48 34.6"/><path id="_Compound_Path_18" data-name="&lt;Compound Path&gt;" class="cls-1" d="M70.07,35.76H51.45a0,0,0,0,1-.05,0V34.6a0,0,0,0,1,.05-.05H72.38a0,0,0,0,1,0,0,0,0,0,0,1,0,0l-2.31,1.12ZM51.5,35.67H70.06l2.12-1H51.5Z"/></g></g></g></svg>