<svg id="Layer_1" data-name="Layer 1" xmlns="http://www.w3.org/2000/svg" viewBox="0 0 100 100"><defs><style>.cls-1{fill:#231f20;fill-rule:evenodd;}</style></defs><title>Artboard 1 copy</title><path class="cls-1" d="M76.52,39.63H60.62c-.41,0-.68-.1-.68-.54V37.23c0-.54-.36-.83-1-.83H40.71c-.68,0-1,.31-1,.82v1.87c0,.4-.24.54-.67.54H27.8a1.66,1.66,0,0,0-1.51.7L22,48.19a.67.67,0,0,0-.1.33c0,.32.25.72,1,.72H39c.49,0,.67.18.67.53v1.87c0,.57.41.82,1,.82h18.2c.62,0,1-.24,1-.81V49.78c0-.38.21-.54.68-.54h10.9a1.67,1.67,0,0,0,1.55-.66l4.23-7.77a.74.74,0,0,0,.18-.46c0-.53-.57-.72-1-.72Zm-4,3.14-1.63,3.74a.68.68,0,0,1-.61.23H57.48c-.5,0-.68.18-.68.54v2.16c0,.35-.2.53-.69.53H43.51c-.42,0-.68-.12-.68-.54V47.27c0-.39-.23-.53-.68-.53H27.28c-.36,0-.61-.18-.61-.43a.36.36,0,0,1,.06-.2l1.78-3.75c.09-.14.24-.23.61-.23h13c.42,0,.68-.13.68-.54V39.44c0-.39.21-.54.68-.54H56.12c.45,0,.67.16.67.54V41.6c0,.37.22.53.69.53H72c.46,0,.61.24.61.43a.37.37,0,0,1-.06.21Z"/><polygon class="cls-1" points="30.8 60.4 28.27 60.4 28.27 58.26 26.51 58.26 26.51 63.59 28.27 63.59 28.27 61.21 30.8 61.21 30.8 63.59 32.56 63.59 32.56 58.26 30.8 58.26 30.8 60.4 30.8 60.4"/><polygon class="cls-1" points="72.88 58.26 72.88 59.08 75.27 59.08 75.27 63.59 77.03 63.59 77.03 59.08 79.43 59.08 79.43 58.26 72.88 58.26 72.88 58.26"/><polygon class="cls-1" points="63.56 58.26 61.8 58.26 61.8 63.59 66.84 63.59 66.84 62.78 63.56 62.78 63.56 58.26 63.56 58.26"/><path class="cls-1" d="M43.38,62.71s-.09.07-.18.07-.16,0-.18-.07l-1.86-4.45H39.1l2.13,4.87c.11.32.45.47.93.47h1.62c.48,0,.79-.16.91-.46l2.08-4.88H45.21l-1.83,4.45Z"/><path class="cls-1" d="M20.57,59.09v3.67c0,.6.48.84,1.32.84h3.94v-.82H23c-.49,0-.65-.08-.65-.41V59.48c0-.32.12-.4.65-.4h2.85v-.82H21.89c-.9,0-1.32.3-1.32.83Z"/><path class="cls-1" d="M35.38,62.37V61.21h3.51V60.4h-3.5v-.92c0-.31.1-.4.64-.4h2.9v-.82h-4c-.91,0-1.32.29-1.32.83v3.67c0,.57.44.84,1.32.84h4.35v-.82H36c-.49,0-.65-.07-.65-.41Z"/><path class="cls-1" d="M51.92,61.34c.81,0,1.32-.23,1.32-.83V59.09c0-.55-.41-.83-1.31-.83H47V63.6h1.77V59.08h2.06c.54,0,.64.09.64.4v.65c0,.32-.13.41-.64.41h-1c-.37,0-.58.14-.58.37a.42.42,0,0,0,.17.28l2.22,2.41h2.18l-2.33-2.26Z"/><path class="cls-1" d="M59.41,58.26H55.53c-.93,0-1.32.3-1.32.83v3.67c0,.61.51.84,1.32.84h3.88c.85,0,1.32-.26,1.32-.84V59.09c0-.54-.4-.83-1.32-.83Zm-1.09,4.52h-1.7c-.51,0-.65-.09-.65-.41V59.48c0-.28.06-.4.65-.4h1.71c.46,0,.64.05.64.4v2.89c0,.35-.17.41-.65.41Z"/><path class="cls-1" d="M69,62.37V61.21h3.51V60.4H69v-.92c0-.31.11-.4.65-.4h2.89v-.82h-4c-.91,0-1.32.29-1.32.83v3.67c0,.57.43.84,1.32.84h4.35v-.82H69.6c-.49,0-.65-.07-.65-.41Z"/></svg>