<svg xmlns="http://www.w3.org/2000/svg" viewBox="0 0 100 100"><g fill-rule="evenodd" clip-rule="evenodd"><path fill="#fff" d="M71.3 51.54c-.847.757-2.854 1.114-5.263 1.07-1.07.848-3.926 1.026-7.093 1.026-4.952 0-4.283 2.944-9.1 2.944-4.818 0-4.193-2.944-9.1-2.944-3.167 0-6.022-.178-7.093-1.026-2.404.045-4.41-.312-5.26-1.07-3.434-.09-4.282-.76-4.594-1.295 2.097.178 12.178.535 19.138.535 2.455 0 3.57-1.56 6.916-1.56 3.345 0 4.415 1.56 6.913 1.56 6.958 0 17.04-.357 19.137-.535-.314.536-1.16 1.205-4.597 1.294z"/><path fill="#222" d="M49.844 49.8c-2.632 0-4.818 1.248-4.818 2.854 0 1.56 2.186 2.99 4.818 2.99 2.677 0 4.818-1.428 4.818-2.99 0-1.606-2.142-2.855-4.818-2.855z"/><path fill="#fff" d="M54.126 52.654c0 1.472-1.918 2.677-4.282 2.677s-4.238-1.2-4.238-2.672c0-1.428 1.874-2.632 4.238-2.632 2.364 0 4.282 1.205 4.282 2.632zm-4.282-2.364c-1.338 0-2.41 1.07-2.41 2.364 0 1.338 1.072 2.364 2.41 2.364 1.383 0 2.453-1.026 2.453-2.364 0-1.293-1.07-2.364-2.453-2.364zm2.23.446c.49.49.758 1.204.758 1.918 0 .758-.268 1.472-.758 1.963.98-.4 1.65-1.16 1.65-1.963 0-.803-.668-1.516-1.65-1.918zM46.9 52.654c0-.714.268-1.428.758-1.918-.98.4-1.65 1.115-1.65 1.918 0 .803.668 1.56 1.65 1.963-.49-.49-.758-1.204-.758-1.963zm6.31 1.196c-.09.247-.206.482-.347.7-.774.482-1.84.78-3.02.78-1.235 0-2.337-.33-3.107-.854-.154-.25-.277-.52-.362-.805.29.39.74.727 1.285.95-.496-.49-.76-1.204-.76-1.963 0-.714.27-1.428.76-1.918-.53.215-.97.523-1.26.886.084-.27.204-.528.352-.766.77-.51 1.863-.836 3.088-.836 1.17 0 2.228.295 3 .765.138.21.253.432.343.67-.284-.29-.665-.54-1.11-.72.49.49.757 1.202.757 1.916 0 .758-.267 1.472-.757 1.963.46-.19.85-.455 1.136-.768zm-3.366-3.56c-1.338 0-2.41 1.07-2.41 2.364 0 1.338 1.072 2.364 2.41 2.364 1.383 0 2.453-1.026 2.453-2.364 0-1.293-1.07-2.364-2.453-2.364z"/><path fill="#DBB36B" d="M47.623 53.588c-.12-.276-.188-.577-.188-.89v-.022c.003.327.07.635.188.912z"/><path fill="#222" d="M75.85 50.067c-2.05.134-12.044.49-19.092.49-1.115 0-1.963-.31-2.855-.668-1.026-.406-2.23-.85-4.06-.85-1.828 0-3.032.443-4.06.85-.89.352-1.74.664-2.854.664-7.05 0-17.046-.357-19.098-.49l-.357-.046.133.312c.312.58 1.115 1.294 4.684 1.383 1.16.98 3.792 1.115 5.264 1.07.98.715 3.122 1.027 7.18 1.027 2.41 0 3.436.714 4.46 1.472 1.073.714 2.188 1.472 4.64 1.472s3.57-.758 4.596-1.472c1.07-.758 2.097-1.472 4.506-1.472 4.015 0 6.2-.312 7.138-1.026 1.518.045 4.15-.09 5.31-1.07 3.57-.09 4.37-.804 4.64-1.384l.177-.312-.357.047zM71.3 51.54c-.847.757-2.854 1.114-5.263 1.07-1.07.848-3.926 1.026-7.093 1.026-4.952 0-4.283 2.944-9.1 2.944-4.818 0-4.193-2.944-9.1-2.944-3.167 0-6.022-.178-7.093-1.026-2.404.045-4.41-.312-5.26-1.07-3.434-.09-4.282-.76-4.594-1.295 2.097.178 12.178.535 19.138.535 2.455 0 3.57-1.56 6.916-1.56 3.345 0 4.415 1.56 6.913 1.56 6.958 0 17.04-.357 19.137-.535-.314.536-1.16 1.205-4.597 1.294z"/><path d="M75.54 50.29l.133-.045s-.045.09-.134.178h-.228c.134-.044.223-.133.223-.133z"/><path fill="#222" d="M75.316 50.424c-1.115.446-4.862.892-18.112.892-1.428 0-1.784-.178-2.007-.178-.223 0-.268.178-.178.357.084.134.173.357.22.49-.047-.31.22-.222 1.34-.222 9.453 0 11.51-.178 14.36-.49-1.204.802-8.12.847-13.606.847-.625.045-1.294.045-1.784.045-.177 0-.267.045-.222.223 0 .134.045.4 0 .58.18-.223.134-.4 1.25-.4 5.62 0 8.12-.18 9.144-.313-.892.49-2.275.714-8.565.714-2.678 0-2.99 2.94-7.317 2.94s-4.64-2.945-7.316-2.945c-6.29 0-7.673-.224-8.565-.715 1.024.135 3.522.313 9.143.313 1.115 0 1.07.178 1.25.4-.046-.177 0-.445 0-.58.044-.177-.046-.222-.224-.222-.49 0-1.16 0-1.785-.043-5.488 0-12.4-.045-13.607-.848 2.854.31 4.906.49 14.363.49 1.116 0 1.384-.09 1.34.222.045-.133.134-.356.223-.49.087-.18.043-.357-.18-.357-.223 0-.58.178-2.007.178-13.293 0-16.995-.445-18.11-.89h-.223c.534.357 1.47.625 4.37.85.715.67 2.544.846 5.176.98.847.802 3.122.936 8.03.936 3.702 0 3.612 2.99 8.12 2.99 4.504 0 4.414-2.99 8.117-2.99 4.908 0 7.14-.135 8.03-.938 2.588-.134 4.46-.31 5.176-.98 2.9-.224 3.835-.49 4.37-.85h-.224z"/><path d="M24.15 50.29l-.135-.045s.045.09.134.178h.22c-.136-.044-.225-.133-.225-.133z"/><path fill="#222" d="M59.078 46.543h5.398v-.58H60.73v-2.588h-1.652v3.168zm-31.182-3.168v3.167h1.65v-1.294h2.9v1.294H34.1v-3.167h-1.65v1.294h-2.9v-1.3h-1.652zm20.7 0l-1.56 1.338-1.563-1.338h-1.918l2.32 1.874v1.29h1.65v-1.29c.046-.048 2.187-1.877 2.187-1.877h-1.117zm17.71 3.168h5.486v-.536h-3.837v-.803h3.703v-.535h-3.703v-.76h3.792v-.54h-5.442v3.17zm-15.213-2.32c0 .714.848.892 2.052 1.026 1.204.173 1.784.22 1.784.49 0 .22-.36.353-1.388.353-1.204 0-2.23-.268-2.364-.312 0 .046-.134.67-.134.67.134.045 1.115.268 2.543.268 1.606 0 3.123-.268 3.123-1.115 0-.58-.625-.892-2.41-1.07-.713-.09-1.47-.135-1.47-.402 0-.222.177-.31 1.248-.31 1.027 0 1.92.223 2.053.223l.135-.58c-.178-.045-1.204-.223-2.587-.223-1.113 0-2.585.133-2.585.98zM20 44.98c0 1.027 1.115 1.74 3.435 1.74.892 0 1.83-.133 2.007-.177l.134-.67c-.178.046-.98.135-1.784.135-1.294 0-2.186-.312-2.186-1.026 0-.758.848-1.07 2.186-1.07.758 0 1.606.088 1.784.133l-.134-.67c-.223-.044-1.07-.133-1.963-.133-2.37 0-3.48.67-3.48 1.74zm16.64 1.563h1.65v-2.587c.223-.045.49-.045.848-.045.4 0 .714 0 .937.05.49.045.67.223.67.446 0 .178-.224.402-.715.446-.357.045-.58.09-.848.09-.178 0-.312 0-.535-.046l1.874 1.65h2.1l-1.872-1.293c.357-.045.49-.045.892-.18.49-.132.713-.4.757-.667 0-.4-.268-.714-1.204-.937-.49-.09-1.16-.135-2.006-.135-1.204 0-2.41.048-2.543.048v3.167zm37.338 0h1.65v-2.587c.27-.045.492-.045.893-.045.406 0 .67 0 .94.05.49.045.67.223.627.446 0 .178-.223.402-.714.446-.312.045-.535.09-.85.09-.176 0-.31 0-.49-.046l1.875 1.65H80l-1.918-1.293c.4-.045.535-.045.892-.18.49-.132.758-.4.758-.667 0-.4-.223-.714-1.16-.937-.535-.09-1.16-.135-2.052-.135-1.16 0-2.41.048-2.543.048v3.167z"/><path fill="#fff" d="M49.202 53.715c-.01.06-.06.003-.058-.017l.01-.09c.008-.085.06-.003.06.017l-.012.09zm.118.073c0 .062-.06.01-.06-.01v-.09c0-.086.062-.01.062.01l-.002.09zm.126.06c.005.06-.058.014-.06-.006l-.01-.09c-.008-.084.06-.015.062.006l.008.09zm.13.047c.01.06-.055.02-.06 0l-.02-.087c-.016-.083.06-.022.063-.002l.013.09zm.136.033c.018.06-.053.026-.06.008l-.028-.086c-.026-.08.056-.028.06-.01l.028.088zm.138.018c.024.058-.05.032-.06.014l-.036-.083c-.034-.078.052-.033.06-.014l.036.083zm.138.004c.03.054-.045.036-.056.02l-.045-.08c-.043-.072.048-.037.06-.02l.04.08zm.14-.01c.034.05-.044.04-.055.025l-.054-.073c-.05-.07.04-.043.05-.026l.053.073zm.136-.026c.04.046-.038.045-.05.03l-.062-.067c-.057-.062.04-.047.053-.032l.06.07zm.134-.04c.045.044-.033.05-.048.037l-.067-.06c-.062-.053.034-.05.05-.034l.065.063zm.128-.052c.05.038-.027.052-.043.04l-.074-.052c-.07-.05.023-.055.04-.043l.072.055zm.124-.066c.05.032-.024.055-.04.045l-.08-.04c-.073-.043.024-.06.042-.047l.077.047zm.114-.08c.056.027-.016.058-.034.05l-.083-.037c-.078-.04.017-.06.035-.056l.082.04zm.106-.09c.06.02-.01.06-.028.053l-.086-.03c-.08-.03.01-.06.03-.057l.084.03zm.096-.1c.06.014-.004.06-.024.055l-.088-.014c-.083-.018.003-.06.024-.057l.088.02zm.084-.11c.062.007.003.06-.017.056l-.09-.01c-.084-.008-.003-.06.018-.058l.09.01zm.074-.12c.06 0 .01.06-.01.06h-.092c-.085 0-.01-.06.01-.06h.092zm-.06 1.86c.017.025.08.095.1.037l.13-.408c.01-.04.05-.067.087-.028l.1.096c.01.01.02.02.034.024.015.006.017-.016.02-.026l.36-1.17c.015-.05.004-.113-.04-.15-.076-.06-.124-.105-.185-.156.025-.03.045-.054.067-.095.115-.22.148-.54.023-.767-.045-.08-.113-.15-.144-.236-.043-.12-.042-.25-.06-.375-.044-.295-.184-.51-.45-.64-.102-.05-.21-.086-.305-.145-.162-.1-.31-.204-.5-.233-.086-.012-.17-.01-.257-.023-.1-.013-.197-.04-.297-.05-.246-.03-.477.014-.656.19-.06.06-.11.13-.178.185-.2.167-.45.257-.596.483-.174.272-.143.612-.146.923 0 .167-.035.33-.028.5.007.154.044.29.12.424.12.22.324.325.505.488.082.076.142.17.222.245.116.113.265.176.424.205.084.015.167.017.25.03.08.01.16.036.236.056.233.063.485.06.684-.066.155.22.32.463.483.692z"/><path fill="#231F20" d="M50.577 51.705c-.29-.196-.67-.25-1.018-.115-.446.17-.71.594-.71 1.04-.17.092-.44.225-.62.322 0-.134.023-.265.023-.406.002-.28-.022-.585.108-.834.12-.226.388-.333.588-.49.155-.124.21-.302.48-.355.28-.055.41.017.613.04.147.016.274.002.43.078.1.048.19.11.285.166.142.09.294.12.433.227-.18.1-.442.24-.614.332zm.67-.283l-3.02 1.607c.006.13.035.27.13.424.07.12.182.208.296.294l2.864-1.527c-.067-.24-.01-.49-.2-.727-.023-.03-.046-.053-.07-.075zm.293.868c-.14.074-.347.184-.476.254.033.47-.242.932-.706 1.112-.373.145-.78.072-1.077-.158-.15.08-.4.21-.57.298.04.03.08.06.118.094.156.142.195.287.45.383.18.068.302.05.44.078.17.038.337.11.508.09.444-.053.43-.243.577-.36.096-.077.22-.11.32-.177.13-.085.163-.25.237-.373.13-.22.33-.175.38-.658.035-.345-.12-.408-.198-.58zm-2.608.297l1.564-.84c-.265-.16-.598-.202-.908-.082-.394.152-.64.524-.656.922z"/><path fill="#fff" d="M49.386 51.42c-.05-.038.027-.053.043-.042l.07.053c.07.05-.03.06-.046.048l-.072-.055zm-.122.065c-.053-.032.022-.055.04-.044l.077.05c.08.042-.02.057-.04.046l-.072-.047zm-.114.08c-.057-.027.015-.058.033-.05l.083.038c.078.034-.017.06-.035.05l-.08-.04zm-.107.09c-.06-.02.01-.06.03-.052l.084.027c.08.026-.01.06-.03.054l-.084-.03zm-.097.1c-.06-.013.004-.06.024-.055l.09.02c.08.017-.005.06-.025.057l-.09-.02zm-.084.11c-.06-.008-.003-.06.017-.057l.09.01c.08.008 0 .06-.02.058l-.09-.01zm-.074.12c-.06-.002-.01-.06.01-.06h.092c.085 0 .01.062-.01.062l-.092-.002zm-.058.125c-.062.005-.016-.058.004-.06l.09-.01c.085-.01.016.06-.005.062l-.09.007zm-.048.13c-.06.012-.02-.055 0-.06l.088-.018c.083-.018.022.058 0 .06l-.088.02zm-.032.136c-.06.018-.027-.053-.01-.06l.087-.027c.08-.03.027.05.008.06l-.086.022zm-.02.138c-.056.025-.03-.05-.012-.058l.082-.036c.078-.035.034.052.015.06l-.084.034zm-.003.14c-.054.03-.037-.047-.02-.057l.08-.045c.073-.043.038.048.02.058l-.08.043zm1.966-1.2c0-.06.06-.01.06.01v.09c0 .085-.062.01-.062-.01l.007-.09zm-.126-.06c-.005-.06.058-.015.06.005l.01.09c.008.08-.06.01-.062-.01l-.008-.09zm-.132-.048c-.01-.06.056-.02.06 0l.02.087c.017.083-.06.022-.062.002l-.018-.09zm-.135-.033c-.018-.06.053-.026.06-.007l.028.086c.026.08-.056.027-.06.008l-.028-.087zm-.138-.018c-.024-.057.05-.032.06-.013l.036.082c.034.078-.052.033-.06.014l-.036-.083zm-.138-.005c-.03-.054.045-.036.056-.02l.045.08c.043.073-.048.038-.06.02l-.04-.08zm-.14.012c-.034-.05.044-.042.056-.026l.053.074c.05.068-.044.043-.056.026l-.052-.074zm-.136.025c-.04-.047.038-.045.052-.03l.06.066c.058.063-.04.048-.052.032l-.06-.068zm-.133.04c-.044-.044.033-.05.048-.037l.067.06c.063.058-.034.053-.05.04l-.065-.064zm-.33.846l.13-.193.047.08.407-.327.05.124.143-.086-.182.19-.053-.11-.41.34-.033-.07-.102.057zm1.637-.716c-.24-.185-.54-.296-.866-.296-.782 0-1.42.64-1.42 1.42 0 .038 0 .07.004.1l-.236.13c.01-.1.02-.2.022-.3 0-.27-.026-.575.11-.82.143-.234.428-.32.618-.505.06-.06.113-.13.178-.186.13-.11.31-.13.477-.116.11.01.22.04.33.056.103.01.21.01.32.037.16.048.29.165.44.24.084.04.173.074.26.118l-.24.127zm-1.697 1.88l.09-.05v-.73l-.09.05v.31l-.103.053v-.308l-.09.052v.73l.09-.052v-.335l.103-.052v.333zm.252-.867l.08-.04s.102-.054.102.06v.222s-.02.092-.06.114l.1.17.054-.025v.067l-.093.052-.126-.21-.062.03v.29l-.09.05v-.73l.09-.05zm1.626-.134l.09-.052v-.292l.06-.03.13.208.09-.052v-.062l-.054.026-.107-.17c.044-.024.058-.115.058-.115v-.224c0-.113-.1-.06-.1-.06l-.08.042-.09.05v.73zm-.138-.34v.11l-.098.05v.22l.167-.083v.074l-.246.127v-.73l.246-.128v.103l-.167.08v.223l.098-.05zm-2.095 1.39v-.064l.078-.036v.124s.008.074-.048.104l-.113.052s-.09.053-.09-.06v-.55s-.016-.084.07-.13l.137-.06s.053-.027.053.03v.125l-.08.03c0-.03.006-.08-.043-.06-.047.028-.047.04-.05.078v.454s-.008.045.032.03c.042-.012.054-.005.054-.06zm1.276-1.282l.127-.063s.078-.05.078.05v.1l-.06.028v-.047s.007-.06-.034-.036l-.035.016s-.024.01-.024.04v.182s.006.046.044.025l.06-.02s.062-.036.062.036v.258s.005.07-.063.11l-.13.048s-.07.034-.07-.043v-.076l.07-.03v.05s0 .02.044.006l.03-.018s.027.003.027-.047v-.156s0-.045-.03-.026l-.077.03s-.064.01-.064-.07v-.257s-.013-.055.045-.09zm.564.346l-.143.073v-.644l-.094.043v.73l.238-.12v-.087zm-.867.156l-.148-.25.09-.038.09.163.068-.26.103-.06-.113.43v.36l-.09.046v-.386z"/><path fill="#231F20" d="M51.092 51.68v.245l.058-.032s.046-.015.046-.08v-.125s-.01-.053-.043-.038l-.06.03zm-1.715 1.16l.057-.03s.047-.017.047-.08v-.126s-.01-.052-.04-.037l-.06.03v.244zm1.608-.254l-1.625.87c.272.196.634.254.97.125.418-.16.67-.57.655-.99z"/><path fill="#fff" d="M49.87 53.41l.17-.14.028.108.402-.316.037.064.096-.06-.113.178-.064-.07-.423.344-.01-.112-.122.005zm1.314-.278c.062-.006.015.057-.005.06l-.09.01c-.09.008-.02-.062 0-.062l.09-.008zM51.23 53c.062-.01.02.056.002.06l-.09.02c-.08.017-.02-.06 0-.062l.09-.018zm.033-.135c.06-.018.026.053.008.06l-.08.027c-.08.026-.028-.055-.01-.06l.086-.027zm.02-.138c.056-.024.03.05.012.058l-.082.037c-.078.035-.034-.052-.014-.06l.08-.035zm.003-.137c.054-.03.037.045.02.055l-.078.044c-.074.04-.04-.05-.02-.06l.078-.045zm-2.246 1.115l-.202.108c.03.026.06.055.09.085.084.092.15.19.26.258.2.118.39.092.606.145.12.03.24.078.364.08.14 0 .313-.044.417-.142.046-.048.08-.104.125-.154.108-.12.254-.15.383-.234.08-.057.117-.15.156-.235.04-.086.08-.163.144-.232.054-.052.114-.096.164-.153.124-.16.165-.467.082-.65-.034-.07-.083-.13-.123-.194l-.144.077c.007.053.01.108.01.163 0 .782-.64 1.42-1.42 1.42-.35 0-.67-.128-.917-.337z"/><path fill="#231F20" d="M51.325 53.668s.186.04.116.267c-.064.225-.28.96-.273.954.007-.01-.064.164-.162.02-.095-.15-.38-.57-.38-.57s.13-.136.155-.18c.025-.046.115-.105.206-.137.09-.034.343-.23.343-.358zm.265-.286l.143.13s.09.033.045.195c-.045.163-.27.877-.27.877s-.04.13-.098.045l-.04-.05s-.03-.007 0-.123c.033-.117.17-.63.17-.63s.014-.088-.04-.124l-.13-.084c-.013-.016.11-.21.22-.24z"/></g></svg>