<svg xmlns="http://www.w3.org/2000/svg" viewBox="0 0 100 100"><g fill-rule="evenodd" clip-rule="evenodd"><path fill="#231F20" d="M22.43 49.547v2.076h4.062c.786 0 1.167-.076 1.37-.283.238-.227.334-.642.334-1.407 0-1.2-.298-1.52-1.394-1.52L20 48.406V46.87h6.992c1.644 0 2.406.15 2.894.568.596.5.75 1.01.75 2.455 0 1.483-.095 1.993-.465 2.465-.39.49-1.28.803-2.27.803H20V49.55h2.43zm25.09 0v2.076h4.062c.786 0 1.167-.076 1.37-.283.238-.227.333-.642.333-1.407 0-1.2-.298-1.52-1.394-1.52l-6.8-.005v-1.535h6.996c1.644 0 2.406.15 2.894.567.595.5.75 1.01.75 2.456 0 1.483-.096 1.993-.466 2.465-.392.496-1.285.808-2.274.808h-7.9V49.55h2.43zm-7.93-2.732c1.94.01 2.513.132 3.037.642.5.5.643 1.01.643 2.333 0 1.757-.07 2.106-.512 2.57-.548.585-1.382.802-3.24.83 0 0-4.18 0-4.788-.047-.596-.057-1.084-.198-1.43-.416-.726-.453-.928-.982-.928-2.36 0-.143.06-1.692.06-1.692.155-1.105.762-1.644 2.025-1.776.404-.04 5.133-.09 5.133-.09z"/><path fill="#fff" d="M38.72 51.68c1.13-.01 1.644-.113 1.882-.378.167-.19.226-.576.226-1.426 0-1.152-.203-1.426-1.096-1.492-.393-.028-.596-.038-1.12-.038-1.477 0-2.346.02-2.716.057-.834.076-1.084.397-1.084 1.426 0 1.03.095 1.43.37 1.62.26.18.773.236 2.19.236l1.348-.01z"/><path fill="#231F20" d="M67.92 48.317h-6.376c-.738 0-1.216.038-1.407.18-.286.207-.38.547-.38 1.49 0 .898.07 1.19.297 1.408.286.264.883.33 2.18.33h1.8c1.203 0 1.672-.14 1.672-.717 0-.038 0-.22-.012-.343h-4.166v-1.33h6.377l.012.887v.274c0 1.407-.262 2.23-1.096 2.524-.53.19-.69.198-2.27.198l-3.05-.01c-1.82-.018-2.56-.13-3.11-.5-.63-.444-.833-1.01-.833-2.37 0-.077.048-1.446.095-1.777.048-.42.25-.8.57-1.08.514-.464 1.157-.615 2.587-.643l7.114-.028v1.51zm1.864 1.01h10.2v1.326H72.27c.008.386.028.674.16.8.203.21.47.21 1.256.21H80l-.004 1.41H72.51c-.99 0-1.883-.312-2.276-.803-.37-.474-.45-1.302-.45-2.944zm.09-1.015c.017-.49.097-.694.42-.964.486-.416 1.25-.567 2.892-.567h6.81v1.54l-10.123-.004z"/></g></svg>