<svg xmlns="http://www.w3.org/2000/svg" viewBox="0 0 100 100"><path fill="#222" d="M49.955 69.9C38.927 69.892 29.995 60.983 30 49.987c.005-11.553 9.756-20.193 20.584-19.88 10.677.31 19.663 9.36 19.41 20.46-.24 10.53-9.167 19.338-20.04 19.33zM67.27 48.44c-.222-2.084-.37-4.18-.684-6.252-.383-2.528-1.63-4.648-3.823-5.965-8.248-4.952-16.617-5.52-25.036-.38-2.62 1.6-4.307 3.843-4.625 6.985-.084.83-.253 1.65-.3 2.482-.345 6.265.85 12.13 4.474 17.385 1.185 1.718 2.776 2.888 4.673 3.618 5.39 2.075 10.82 2.078 16.21.023 2.06-.785 3.86-2.012 4.988-3.986 2.46-4.302 3.88-8.91 4.117-13.91z"/><path fill="#fff" d="M67.27 48.44c-.24 5-1.658 9.608-4.117 13.91-1.128 1.972-2.926 3.2-4.987 3.985-5.394 2.055-10.824 2.052-16.216-.023-1.897-.73-3.488-1.9-4.673-3.618-3.624-5.255-4.82-11.12-4.473-17.385.046-.83.215-1.658.3-2.487.317-3.14 2.005-5.386 4.624-6.985 8.42-5.14 16.788-4.573 25.036.38 2.192 1.316 3.44 3.437 3.823 5.965.313 2.072.46 4.168.682 6.254zm-31.134-3.806c-.1 5.704 1.01 11.178 3.037 16.508.703 1.848 1.906 2.87 3.7 3.43 3.47 1.084 7.01 1.242 10.59.86 2.002-.215 3.96-.65 5.687-1.743.51-.327 1.07-.796 1.28-1.327 2.638-6.707 3.74-13.674 3.324-20.868-.12-2.09-1.08-3.632-3.116-4.485-2.722-1.14-5.563-1.6-8.477-1.72-4.39-.184-8.73.154-12.91 1.66-2.162.78-3.05 2.065-3.11 4.38-.024 1.1 0 2.2 0 3.3z"/><path fill="#222" d="M36.136 44.634c0-1.1-.023-2.2.005-3.3.06-2.316.948-3.6 3.11-4.38 4.18-1.506 8.518-1.844 12.91-1.66 2.92.122 5.76.58 8.48 1.72 2.037.854 2.997 2.396 3.118 4.485.417 7.19-.686 14.16-3.324 20.863-.21.53-.77 1-1.28 1.322-1.726 1.09-3.684 1.527-5.686 1.74-3.58.384-7.12.226-10.59-.858-1.794-.56-2.997-1.584-3.7-3.43-2.027-5.33-3.138-10.805-3.037-16.51zm16.81 6.2v7.573h1.63c0-3.844-.083-7.614.04-11.377.054-1.71-.842-2.968-1.482-4.37-.072-.157-.362-.3-.555-.305-1.13-.03-2.25-.014-3.43-.014V58.43h1.48v-7.59h2.31zm-12.996-8.4v16.043h1.617v-7.674h2.41v-1.848h-2.362v-4.803h3.03v-1.717H39.95zM58.38 58.44V44.264l1.568-.115v-1.72h-4.962v1.722l1.666.138v14.143h1.73zm-11.33.037V42.412H45.5v16.063h1.55z"/><path fill="#fff" d="M52.945 50.834H50.63v7.59h-1.48V42.34c1.178 0 2.304-.015 3.428.014.193.005.483.148.555.306.64 1.4 1.536 2.658 1.48 4.37-.12 3.762-.037 7.532-.037 11.376h-1.632v-7.572zm-2.26-6.57v4.29h2.202c0-.786.087-1.523-.017-2.232-.256-1.745-.867-2.288-2.184-2.057zm-10.735-1.83h4.697v1.718h-3.03v4.803h2.36v1.848h-2.41v7.674H39.95V42.435zM58.38 58.44h-1.728V44.296l-1.666-.138v-1.723h4.962v1.715l-1.567.115v14.173zm-11.33.037H45.5V42.412h1.55v16.063z"/><path d="M50.686 44.265c1.317-.23 1.927.312 2.184 2.057.104.71.017 1.447.017 2.23h-2.2v-4.287z"/></svg>