<svg xmlns="http://www.w3.org/2000/svg" viewBox="0 0 100 100"><path fill="#222" d="M50.01 61.348c16.562 0 29.99-5.07 29.99-11.338S66.572 38.652 50.01 38.652C33.428 38.652 20 43.742 20 50.01s13.428 11.338 30.01 11.338z"/><path fill="#fff" d="M50.01 60.187c-15.905 0-28.83-4.528-28.83-10.177 0-5.63 12.926-10.216 28.83-10.216 15.943 0 28.85 4.586 28.85 10.216-.002 5.65-12.907 10.177-28.85 10.177z"/><path fill="#222" d="M50.01 59.394c15.42 0 27.94-4.2 27.94-9.384 0-5.166-12.52-9.365-27.94-9.365-15.44 0-27.92 4.2-27.92 9.365 0 5.185 12.48 9.384 27.92 9.384z"/><path fill="#fff" d="M57.324 51.886c1.315-1.238 2.05-2.535 3.947-2.515 1.147.02 1.437.93 1.63 1.32l2.496-4.22h1.53L62.78 53.8c-.077.155-.27.445-.252.677.04.367.503.27.33.27.83-.04 2.36-1.625 2.727-2.012.077-.097.213-.27.29-.27.077 0 .232.076.232.192 0 .077-.174.368-.31.542-.774.963-2.05 2.453-3.502 2.492-.716 0-.987-.29-1.084-.85-.324.29-1.45.792-2.59.792-.95-.02-1.333-.58-1.53-1.025-.17-.368-.25-.91-.113-1.45-.522.27-1.006.31-1.703.29-.812-.02-1.315-.388-1.566-1.336-.93 1.702-.968 1.76-1.916 3.54h-1.644l2.11-3.58c.27-.483.405-.87.502-1.276.058-.234-.116-.447-.368-.466-.27 0-.717.27-1.143.677 0 0-1.085 1.16-1.878 2.34-.755 1.123-2.05 2.4-3.463 2.4-1.026 0-1.955-.56-2.15-1.645 0 0-.1.252-1.007.774-.076.04-.27.155-.33.116-.172-.155-.27-.348-.29-.484.06.02.175-.077.543-.368.716-.542.87-.967.87-.967.175-.37.485-.95.698-1.355.58-1.162 1.588-2.342 3.23-2.4.273 0 .35.116.408.213.156.116.098.348.098.348-1.16.175-1.955.852-2.44 1.51-.29.426-.6 1.122-.657 1.625-.116.87.29 1.45.89 1.586 1.12.174 2.05-.64 2.786-1.896.192-.33.33-1.18.33-1.644 0-.463-.254-.947-.447-1.14 0-.33.212-.543.463-.543.077 0 .155 0 .232.078.387.388.6 1.123.6 1.684 0 .193 0 .387-.04.58.814-.987 1.84-2.264 2.632-2.515.154-.08.31-.08.463-.08 1.45-.04 1.26 1.277 1.26 1.277.773-.89 1.315-1.22 2.03-1.18.775.04 1.046.58 1.046 1.005-.02.502-.39 1.083-1.027 1.102-.56 0-.89-.27-1.063-.773-.367.134-.54.386-.62.89-.114.64.37 1.14.99 1.14 1.067 0 1.532-.464 1.92-.813zm1.16-8.34c0 .62-2.167 1.8-4.005 1.8-2.87 0-5.848-1.374-7.22-1.683-1.49-.348-2.846-.64-3.91-.64-3.735 0-5.4 1.607-5.32 3.077.04.6.52.987 1.24.85.77-.134 1.853-.87 2.124-1.508.058-.135.213-.155.27-.116.117.097.078.232.078.232-.097.755-1.258 2.844-3.27 2.844-1.122 0-1.877-1.045-1.857-2.07.018-1.916 1.973-3.85 6.79-3.85.91 0 1.935.077 3.057.27 1.296.233 4.527.775 7.16.814.966 0 2.205.04 3.21-.116 1.065-.174.833-.213 1.26-.213.387 0 .387.155.387.31z"/><path fill="#222" d="M61.348 50.28c-.677-.076-1.53.504-2.225 1.355-.348.426-.716 1.238-.774 1.722-.08.484.053.967.23 1.103.17.135.95.542 2.15-.677.672-.677 1.33-1.78 1.33-1.78l-.213-.058c.406-.755.33-1.568-.503-1.664z"/><path fill="#fff" d="M47.204 47.997c0 .213.29.387.542.406-.058.213-.04.31-.135.29-.58 0-.81-.56-.81-.56-.772.134-1.53.23-3.055.386-3.85 6.23-5.05 7.25-7.41 7.25-1.683 0-3.173-1.102-3.212-3.075-.02-1.2.95-2.67 2.748-3.116.214 0 .29.077.29.193 0 .077-.076.174-.25.252-.523.192-1.433 1.218-1.433 2.166 0 .717.446 1.51 1.2 1.684.214.057.407.038.6.038 1.878 0 3.987-2.11 6.27-5.32-.368.018-1.935.192-2.322.638-.173.137-.29.06-.33-.095 0-.04.06-.175.118-.253.62-.696 2.476-.85 2.92-.91 1.742-2.67 3.987-4.332 4.45-4.313.078 0 .253.114.175.31-.02.04-.213.25-.29.31-.387.346-1.703 1.2-3.135 3.616 1.16-.057 2.515-.29 2.515-.29s-.077-.25-.077-.463c.06-.832.543-1.335 1.16-1.238.35.057.58.347.58.657 0 .33-.25.814-.5 1.046-.17.133-.365.27-.597.384z"/><path fill="#222" d="M47.107 47.572s.193.02.484-.31c.12-.116.31-.464.276-.697-.02-.116-.077-.252-.213-.232-.29.058-.465.193-.542.484-.095.31-.057.523 0 .755z"/></svg>