<?xml version="1.0" encoding="utf-8"?>
<!-- Generator: Adobe Illustrator 23.0.0, SVG Export Plug-In . SVG Version: 6.00 Build 0)  -->
<svg version="1.1" id="Layer_1" xmlns="http://www.w3.org/2000/svg" xmlns:xlink="http://www.w3.org/1999/xlink" x="0px" y="0px"
	 viewBox="0 0 100 100" style="enable-background:new 0 0 100 100;" xml:space="preserve">
<style type="text/css">
	.st0{fill:#100F0D;}
	.st1{fill:#FFFFFF;}
</style>
<g>
	<path id="path36" class="st0" d="M57.1,46.6c-0.1-0.3-0.3-0.4-0.4-0.5c-0.1-0.1-1.4-0.7-3.1-1.2c-1.3-0.4-2.6-0.7-3.2-0.8L50,44.1
		l-0.4,0.1c-0.6,0.1-1.9,0.4-3.2,0.8c-1.7,0.5-3,1.2-3.1,1.3c-0.1,0.1-0.3,0.2-0.4,0.5c-0.1,0.2,0,0.6,0,0.6c0.2,0.7,0.8,2.6,1.4,4
		c0.2,0.5,0.4,0.9,0.7,1.2c0.7,1.1,3.1,2.6,4.4,3.3l0.3,0.1l0.2,0.1l0.5-0.2c1.4-0.6,3.7-2.2,4.4-3.3c0.2-0.3,0.4-0.7,0.7-1.2
		c0.7-1.4,1.3-3.3,1.4-4C57.1,47.2,57.1,46.9,57.1,46.6"/>
	<path id="path38" class="st1" d="M46.8,50.1h0.8v-0.2h-0.8v-0.5h0.9l-0.1-0.2h-1.3l0,0.1l0.1,0c0.1,0,0.1,0.1,0.1,0.1v1.6h1.3v-0.2
		h-0.9L46.8,50.1"/>
	<path id="path40" class="st1" d="M50.6,50.1h0.8v-0.2h-0.8v-0.5h0.9l-0.1-0.2h-1.3l0,0.1l0.1,0c0.1,0,0.1,0.1,0.1,0.1v1.6h1.3v-0.2
		h-0.9L50.6,50.1"/>
	<path id="path42" class="st1" d="M53.4,49.1L53.4,49.1l0,0.1c0.1,0,0.1,0.1,0.1,0.1v1.6h0.4v-1.8H53.4"/>
	<path id="path44" class="st1" d="M45.4,49.9L45.4,49.9l0.1,0.1c0.1,0,0.1,0,0.1,0.1v0.5c-0.1,0-0.2,0.1-0.3,0.1
		c-0.2,0-0.4-0.1-0.5-0.3c-0.1-0.1-0.1-0.3-0.1-0.4c0-0.4,0.2-0.7,0.6-0.7c0.1,0,0.3,0,0.5,0.2l0.1-0.3c-0.3-0.1-0.6-0.2-1-0.1
		c-0.4,0.1-0.6,0.4-0.6,0.9c0,0.6,0.4,0.9,0.9,0.9c0.4,0,0.7-0.1,0.7-0.2v-0.8H45.4"/>
	<path id="path46" class="st1" d="M49.4,49.1v1.3l-1-1.3h-0.3l0,0.1l0.1,0c0.1,0,0.1,0.1,0.1,0.1v1.6l0.3,0v-1.2l0.9,1.2h0.3l0-1.8
		H49.4"/>
	<path id="path48" class="st1" d="M52.6,49.8c-0.2-0.1-0.5-0.2-0.4-0.4c0-0.1,0.1-0.2,0.3-0.2c0.2,0,0.4,0.1,0.6,0.1l0-0.2
		c-0.2-0.1-0.4-0.1-0.6-0.1c-0.4,0-0.7,0.2-0.7,0.4c0,0.3,0.2,0.4,0.5,0.5c0.1,0.1,0.2,0.1,0.3,0.2c0.2,0.1,0.2,0.3,0.1,0.4
		c-0.1,0.1-0.2,0.1-0.3,0.1c-0.2,0-0.4-0.1-0.6-0.1l0,0.3c0.1,0,0.3,0.1,0.5,0.1c0.4,0,0.8-0.1,0.8-0.5C53.2,50.1,52.9,50,52.6,49.8
		"/>
	<path id="path50" class="st1" d="M55.1,49.8c-0.2-0.1-0.5-0.2-0.4-0.4c0-0.1,0.1-0.2,0.3-0.2c0.2,0,0.4,0.1,0.6,0.1l0-0.2
		c-0.2-0.1-0.4-0.1-0.6-0.1c-0.4,0-0.7,0.2-0.7,0.4c0,0.3,0.2,0.4,0.5,0.5c0.1,0.1,0.2,0.1,0.3,0.2c0.2,0.1,0.2,0.3,0.1,0.4
		c-0.1,0.1-0.2,0.1-0.3,0.1c-0.2,0-0.4-0.1-0.6-0.1l0,0.3c0.1,0,0.3,0.1,0.5,0.1c0.4,0,0.8-0.1,0.8-0.5C55.6,50.1,55.3,50,55.1,49.8
		"/>
	<path id="path52" class="st0" d="M16.7,44.4c0,0,4.4,0.9,9.2,1.4c3.4,0.4,8,1.1,8,1.1c2.3,0.4,3.1,0.6,3.7,1
		c0.6,0.4,1.4,1.2,1.8,1.8c0.9,1.2,2.1,3.3,5.3,5.8c-2-1.8-4.2-4.9-5.1-6.2c-0.4-0.7-1-1.5-1.9-2c-0.5-0.3-1-0.5-4-0.9
		c0,0-3.4-0.4-6.5-0.8C24.4,45.3,16.7,44.4,16.7,44.4"/>
	<path id="path54" class="st0" d="M39.1,44.1c-0.9,0-24-1.3-25.2-1.1l2.4,1.1c6.9,0.6,14.2,1.6,17.7,1.9c3.5,0.4,4.4,1,4.4,1
		c0.9,0.6,1.4,1.2,1.9,1.9c1,1.5,1.6,2.2,2.4,3.4c0.7,1,1.9,2.4,2.4,2.9c0.5,0.5,0.8,0.7,0.9,0.8c0.2,0.3-0.3,0.3-2.1-0.3
		c-1.7-0.5-3.9-1.1-4.2-1.2c-0.3-0.1,0-0.3,0.2-0.3c0.1,0,1-0.3,1.3-0.4c0.4-0.1,0.9-0.2,0.6-0.5c-0.3-0.3-0.9-0.4-1.9-0.4
		c-1.8,0.1-3.9,0.1-4.9-0.1c-1-0.2-2.3-0.6-4.4-1.2c-2-0.6-3.5-1.1-3.8-1.2c-0.3-0.1-0.1-0.1-0.1-0.1c0.7,0,10.6-0.5,11.2-0.5
		c0.6,0,0.6-0.2,0.5-0.4c-0.1-0.1-0.2-0.2-0.5-0.3c-0.3-0.1-1.3-0.1-1.3-0.1c-2.6,0-10.2-0.2-11.7-0.2c-1.2,0-2.1,0-3.7-0.4
		c-1.8-0.4-2.6-1.2-3.3-1.9c-0.6-0.7-1.4-1.9-1.4-1.9c-2.4-0.9-2.8-1.1-2.8-1.1s0.1,0.3,0.2,0.5c0.7,1.3,2,3.5,3.6,4.6
		c0,0,0.8,0.6,3.2,1.3c9.5,2.8,26.1,7.8,29.6,8.5l0,0l-1-2.3c-1.8-0.9-3.9-2.4-4.6-3.5c-0.3-0.3-0.4-0.8-0.7-1.4
		c-0.8-1.8-1.5-4.1-1.6-4.6c-0.1-0.8,0.4-1.1,0.6-1.1c1.6-0.8,4.2-1.6,6.4-2.1l0,0l0.9-1.9c-2.4,0.4-6.5,1.7-7.6,2.1
		C40.6,44.3,40,44.2,39.1,44.1"/>
	<path id="path56" class="st0" d="M83.8,44.7c0,0-0.8,1.2-1.4,1.9c-0.7,0.7-1.5,1.5-3.3,1.9c-1.6,0.4-2.5,0.3-3.7,0.4
		c-1.6,0.1-9.2,0.2-11.7,0.2c0,0-1,0-1.3,0.1c-0.3,0.1-0.4,0.2-0.5,0.3c-0.1,0.1-0.1,0.3,0.5,0.4c0.6,0,10.5,0.5,11.2,0.5
		c0,0,0.1,0-0.1,0.1c-0.3,0.1-1.8,0.6-3.8,1.2c-2,0.6-3.4,1-4.4,1.2c-1.1,0.2-3.2,0.2-4.9,0.1c-1-0.1-1.6,0.1-1.9,0.4
		c-0.4,0.3,0.2,0.4,0.6,0.5c0.3,0.1,1.2,0.4,1.3,0.4c0.1,0,0.5,0.2,0.2,0.3c-0.3,0.1-2.5,0.7-4.2,1.2c-1.8,0.6-2.3,0.6-2.1,0.3
		c0.1-0.2,0.4-0.4,0.9-0.8c0.5-0.5,1.7-1.9,2.4-2.9c0.8-1.2,1.4-2,2.4-3.4c0.5-0.7,1-1.3,1.9-1.9c0,0,0.9-0.6,4.4-1
		c3.5-0.4,10.8-1.4,17.7-1.9l2.4-1.1c-1.2-0.2-24.3,1.1-25.2,1.1c-0.9,0-1.6,0.2-3.3-0.5c-1.2-0.4-5.3-1.7-7.6-2.1l0.9,1.9l0,0
		c2.3,0.5,4.8,1.3,6.4,2.1c0.2,0.1,0.7,0.4,0.6,1.1c-0.1,0.5-0.8,2.8-1.6,4.6c-0.3,0.6-0.4,1-0.7,1.4c-0.7,1.1-2.8,2.6-4.6,3.5
		l-1,2.3c3.5-0.7,20.1-5.6,29.6-8.5c2.4-0.7,3.2-1.3,3.2-1.3c1.6-1.1,3-3.3,3.6-4.6c0.1-0.1,0.2-0.5,0.2-0.5S86.2,43.8,83.8,44.7"/>
	<path id="path58" class="st0" d="M62.1,47.4c-0.8,0.5-1.4,1.3-1.9,2c-0.9,1.4-3.1,4.4-5.1,6.2c3.2-2.5,4.4-4.6,5.3-5.8
		c0.5-0.7,1.2-1.5,1.8-1.8c0.7-0.4,1.5-0.6,3.7-1c0,0,4.7-0.7,8-1.1c4.8-0.6,9.2-1.4,9.2-1.4s-7.7,0.9-10.8,1.2
		c-3,0.4-6.4,0.8-6.4,0.8C63,46.8,62.6,47.1,62.1,47.4"/>
</g>
</svg>
