<svg xmlns="http://www.w3.org/2000/svg" viewBox="0 0 100 100"><path d="M21 47.392c0-1.9 1.182-3.188 3.42-3.188h14.52v2.7H24.857c-.395 0-.745.202-.745.797v4.5c0 .55.23.9.95.9h9.922c.523 0 .926-.19.926-.87v-1.054H30.1V48.6h8.843v4.138c0 1.98-1.438 3.058-3.7 3.058H24.445c-2.185 0-3.445-1.18-3.445-3.16V47.39zm30.895 8.404l4.96-8.79v8.79h3.112V44.204h-4.782l-4.73 8.33-4.728-8.33h-4.782v11.592h3.11v-8.79l4.962 8.79h2.878zm26.425 0H65.312c-2.185 0-3.445-1.18-3.445-3.16V47.39c0-1.9 1.182-3.188 3.42-3.188h13.03v2.915H65.725c-.395 0-.747.2-.747.796v4.068c0 .55.232.9.952.9h12.39v2.916zm.648-1.426c0-.558.454-1.012 1.018-1.012.562 0 1.014.454 1.014 1.012 0 .565-.452 1.018-1.014 1.018-.564 0-1.018-.454-1.018-1.018zm1.91 0c0-.492-.4-.89-.892-.89-.495 0-.893.398-.893.89 0 .498.4.897.893.897.492 0 .89-.4.89-.897zm-.387.568h-.174l-.325-.514h-.24v.514h-.14v-1.135h.42c.13 0 .2.006.285.056.085.044.11.162.11.26 0 .22-.138.3-.274.3l.343.514zm-.46-.646c.16 0 .25-.013.25-.19 0-.104-.03-.18-.226-.18h-.303v.37h.28z" fill-rule="evenodd" clip-rule="evenodd" fill="#212221"/></svg>