<svg xmlns="http://www.w3.org/2000/svg" viewBox="0 0 100 100"><path fill-rule="evenodd" clip-rule="evenodd" fill="#212221" d="M58.838 63.224c-.522.02-1.013.013-1.534.013-1.14 0-.94.192-1.197-.907l-.87-3.72c-.88-2.117-.35-3.268-3.07-3.238l-4.492.05c-2.712.032-2.496 1.886-3.015 3.133l-1.156 3.56c-.353 1.086-.16.912-1.325.96-.53.023-1.15.043-1.73.018-.798-.034-.568-.072-.634-1.053-.267-3.95-.335-7.593-.54-10.812-.413-6.485-.728-10.973-.8-13.04-.027-.78-.2-.725.56-.747.267-.003.6-.02.99-.05.917-.07.734-.2.92.75l2.03 10.318c.77 2.3 1.004 4.825 4.71 4.825h4.22c3.676 0 4.47-4.222 4.604-4.825l2.243-10.275c.154-.71-.036-.74.68-.763.214-.007.47-.014.79-.02.76-.01.65-.115.636.635-.045 2.067-.26 6.778-.59 13.53-.158 3.175-.23 6.747-.49 10.604l-.07.984c-.294.033-.586.055-.877.067zm9.528-22.814c.146-3.22.28-4.457-6.5-4.73-8.247-.334-16.718-.658-24.947.052-5.45.47-5.41 1.974-5.31 5.197.09 3.083.14 6.16.34 9.25.164 2.67.46 5.31.78 7.97.442 3.74.76 6.472 6.112 6.5l22.315.04c5.905.03 6.096-3.236 6.182-6.06.084-2.82.327-5.65.51-8.468.21-3.248.364-6.49.512-9.755zm.555 18.266c-.102 3.542-.32 7.633-7.76 7.597l-22.32-.043c-6.746-.032-7.133-3.344-7.676-7.896-.32-2.685-.622-5.354-.793-8.056-.192-3.104-.25-6.2-.34-9.307-.12-4.24-.18-6.22 6.757-6.813 8.29-.716 16.836-.388 25.145-.053 8.368.34 8.21 2.09 8.016 6.377-.144 3.206-.295 6.388-.498 9.576-.183 2.868-.438 5.757-.525 8.624z"/></svg>