<svg xmlns="http://www.w3.org/2000/svg" viewBox="0 0 100 100"><path fill-rule="evenodd" clip-rule="evenodd" fill="#212221" d="M55.135 52.89c.374 1.93-.638 3.533-1.48 5.09-.933 1.448-2.474 2.693-4.327 2.506-4.156-.062-8.22-.7-11.986-1.837-.17-.05-.343-.16-.436-.316-.078-.218.03-.42.187-.56 3.44-2.787 7.534-4.08 11.582-5.433 1.51-.435 3.113-.902 4.81-.684.7.092 1.4.574 1.65 1.23zm14.182-8.252c1.93 1.588 3.674 3.752 3.082 6.367-.97 3.86-5.17 5.915-8.52 7.223-1.82.607-3.658 1.23-5.65 1.417-.126-.015-.328.016-.36-.17l.05-.22c2.832-3.19 4.98-6.77 6.864-10.398.872-1.635 1.68-3.316 2.428-4.966.11-.12.218-.182.343-.23.7.064 1.198.61 1.76.98zm-27.164-4.11l-.062.235C38 45.418 35.31 50.82 32.75 56.19c-.496.467-.98-.156-1.43-.358-2.273-1.494-4.33-3.907-3.736-6.772.95-3.736 4.795-5.73 8-7.083 1.9-.716 3.877-1.292 5.963-1.62.217 0 .497-.03.607.172zm20.314.748c.233.125.514.17.654.405.13.27-.12.44-.26.61-3.222 2.52-6.912 3.925-10.68 5.155-1.914.468-3.844 1.31-5.977.842-.5-.125-.95-.45-1.23-.934-.53-1.462.187-2.99.81-4.264.824-1.604 2.287-3.488 4.31-3.52 4.36-.032 8.47.62 12.378 1.71zm5.387.124c3.3 1.806 7.036 4.98 6.647 9.216-.45 3.923-4.11 6.663-7.374 8.313-9.542 4.56-22.946 4.7-32.8.71-3.33-1.384-7.067-3.766-8.468-7.347-1.074-2.942.233-6.01 2.428-8.048 4.592-4.173 10.445-5.605 16.47-6.43 6.538-.794 13.42-.093 19.272 1.915 1.308.483 2.6 1.013 3.83 1.666z"/></svg>