<svg xmlns="http://www.w3.org/2000/svg" viewBox="0 0 100 100"><path d="M58.394 47.618c.732.76 1.878.816 1.878.816l1.094.073c.806.056.972.444.972.444.698 1.23 2.444 1.89 2.444 1.89-1.11-.64-1.917-2.052-1.917-2.052-.528-.778-1.805-.778-1.805-.778h-.75c-.972 0-1.916-.39-1.916-.39zm8.043 3.685c-.565-.26-1.284-.315-1.284-.315.685.24.926.444.926.444.513.315.162.87.162.87-.44.777-2.16.388-2.16.388 1.832 1.222 2.6.305 2.6.305.473-.565.362-.843.232-1.194 0 0 1.667.54 3.39-1.05 0 0-1.853 1.48-3.87.557zM35.007 38.26s-1.082.128-1.6.12c0 0-.11.018-.11.092 0 0 .035.13.266.13 0 0 .964-.028 1.445-.343zM46.3 46.196s1.465.124 3.872.01c.595-.027.89.065.89.065 1.08.166 1.25.67 1.25.67s1.916 3.946 5.693 3.85l1.784.01c1.61 0 3.76 1.58 3.76 1.58-.448-.333-1.35-1.204-1.35-1.204-1.15-1.02-3.007-1.026-3.007-1.026l-1.876-.01c-3.574-.035-4.51-3.258-4.51-3.258-.466-1.005-1.527-.943-1.527-.943-.08 0-.16-.007-.24 0-3.52.173-4.67-.108-4.67-.108-.713-.2-1.535-.493-2.317-.924 0 0 .167-.797-.167-1.464 0 0 1.296.52 2.482.24 0 0-1.91-.48-3.26-1.443 0 0 .65 1.87.11 2.575 0 0-.35 1.296-3.573.24 0 0-1.333-.517-2.37-.517 0 0-.833.038-.833.464 0 0 0 .203.204.296 0 0 .24.166.09.536 0 0 .333-.24.24-.592 0 0-.036-.185.13-.222 0 0 .445-.184 1.705.28 0 0 2.04.925 3.206.925 0 0 1.26-.074 1.72-.63-.002-.003 1.067.43 2.56.6zM31.763 42.95c.417.015.764-.38.764-.38.896-.966 2.167-1.043 2.167-1.043C36.324 41.417 38.31 43 38.31 43c-1.402-1.868-2.88-1.993-2.88-1.993-.37-.062-.515-.444-.515-.444-.472-.868-1.007-.91-1.007-.91.264.36.236.854.236.854 0 .91-1.36 1.042-1.36 1.042-.543 1.064-1 1.002-1 1.002-.24 0-.304-.14-.304-.14-.056-.082.037-.156.037-.156.148-.094.287-.214.287-.214.926-.713.935-1.52.935-1.52-.12-.934-.91-.953-.91-.953-.36 0-.52.222-.52.222-.14.167-.5.815-.5.815-.27.445-.51.38-.51.38-.296.018-.518-.26-.518-.26-.012-.01-.022-.02-.03-.032-.114-.14-.026-.3-.026-.3.35-.565 1.09-.704 1.09-.704l.077-.022s.066-.016.138-.04l-.003-.004c.96-.338 1.04-.84 1.04-.84-.324-.185-.63-.176-.63-.176-.583.04-.778.613-.778.613l-.14-.145s-.06-.077.035-.167c0 0 .436-.54 2.04-.78 0 0 1.313-.222 3.017-.01 0 0-1.056 1.103-2.324.64 0 0-.02.407 1.092.61 0 0 1.167.12 2.64 1.53 0 0-.39-.853-1.65-1.816 0 0-.1-.065-.008-.158 0 0 .546-.63 1.278-.62 0 0 3.787.194 5.916 2.417 0 0-.074-.37-.398-.907 0 0-.065-.065-.028-.11 0 0 .028-.093.398-.02 0 0 1.352.222 4.49 1.37l3.398 1.214s1.186.432 1.844.73c0 0-1.324-.048-2.028.313 0 0-.03.018-.015.043 0 0 .01.024.067.014 0 0 1.115-.304 2.19.17 0 0 1.102.447 1.97 1.14 0 0 .59.515.965.93 0 0 .874.82 1.89 1.405 0 0-.82-.778-1.5-1.5 0 0-.974-1.167-1.42-1.556 0 0 3.354 1.57 6.376 3.276.54.306 2.29 1.32 2.29 1.32 1.696 1.053 3.36 1.725 3.36 1.725 1.52.687 2.776-.035 2.776-.035l.06-.027c.815-.423 1-.29 1-.29.404.153.288.57.288.57.352-.36.32-.558.32-.558-.01-.62-.69-.568-.69-.568-.175.02-.757.343-1.13.56l-.108.07c-.983.51-2.352.037-2.352.037-1.815-.722-3.4-1.706-3.4-1.706s-3.11-1.846-5.79-3.193c0 0-3.348-1.736-7.834-3.68 0 0-8.553-3.958-14.86-3.958 0 0-3.27-.043-4.374 1.214 0 0-.125.194-.097.36 0 0 .01.056-.03.09 0 0-.487.32-.88.78 0 0-.24.227-.045.54 0 0 .14.22.264.39v-.004c.06.078.39.49.88.453 0 0 .14-.008.21.034 0 0 .125.11.28.167h.227s.05-.007.057-.05c0 0-.014-.124-.042-.207 0 0-.13-.174-.076-.382 0 0 .055-.346.27-.596 0 0 .236-.223.514-.02 0 0 .527.456.256 1.005 0 0-.222.417-.466.417 0 0-.115.034-.24-.083l-.16-.02s-.05 0-.05.04l.008.12s0 .07.035.102c0 0 .064.076-.006.174 0 0-.152.14-.075.34.006 0 .145.58.617.58zm-.18-4.015s-.232.36-.65.315c0 0 .103-.444.65-.315zm-1.244.42c.16-.063.18.027.18.027.003.076-.088.104-.088.104-.437.264-.798.674-.798.674-.063.07-.104.035-.104.035-.076-.07 0-.16 0-.16.34-.375.806-.68.806-.68zm8.563 1.775c-.89 1.26-.185 2.148-.185 2.148-2.388-.074-3.073.593-3.073.593-1.167.91-.74 1.968-.74 1.968.666 1.056 1.444.315 1.444.315-1.11.22-1.09-.76-1.09-.76.24-1.703 2.46-1.63 2.46-1.63 1.91 0 4.87.538 4.87.538-2.24-.517-2.924-1.073-2.924-1.073-.944-.575-.76-2.093-.76-2.093zM56.548 59.4c.075-.31.11-.655.11-1.264v-3.262h-.72v3.507c0 .428-.036.7-.082.926-.2.972-.935 1.33-2.04 1.33-.52 0-1.14-.123-1.5-.54-.315-.355-.38-.836-.38-1.643v-3.576h-1.172v3.637c0 .743.078 1.438.59 1.94.473.475 1.393.685 2.438.685 1.54 0 2.462-.514 2.756-1.734zm8.186 1.6h1.393l-2.99-6.126h-.728L59.35 61h.743l.827-1.72h3.04l.77 1.72zm-2.255-4.965l1.284 2.827H61.12l1.357-2.827zM36.843 61h1.393l-2.99-6.126h-.73L31.465 61h.743l.826-1.72h3.04l.77 1.72zm-2.255-4.965l1.29 2.827h-2.645l1.355-2.827zm10.026 5.1c.754 0 1.728-.145 2.415-.455v-2.497h-1.17v2.236c-.38.14-.926.21-1.322.21-1.56 0-2.57-1.066-2.57-2.625 0-1.723 1.144-2.764 2.81-2.764.73 0 1.48.293 2.05.718v-.728c-.63-.32-1.438-.477-2.135-.477-1.15 0-2.37.348-3.174 1.22-.513.56-.85 1.344-.85 2.108.002 2.353 1.924 3.05 3.95 3.05zM73.126 61h1.35l-1.8-2.488c.636-.226 1.35-.8 1.35-1.746 0-.518-.142-.92-.405-1.21-.5-.552-1.4-.682-2.294-.682H69.11V61h1.17v-2.353h1.227L73.127 61zm-1.99-5.702c.94 0 1.694.392 1.694 1.427 0 .517-.186.9-.496 1.15-.294.236-.672.353-1.303.353h-.75v-2.93h.86zm-44.616 6.96c1.065-.522 1.5-1.616 1.5-2.748v-4.636h-1.17v3.852c0 .54 0 1.084-.07 1.626-.115.977-.454 1.568-1.257 2.148.348 0 .686-.097.997-.242z" fill-rule="evenodd" clip-rule="evenodd" fill="#222"/></svg>