<svg xmlns="http://www.w3.org/2000/svg" viewBox="0 0 100 100"><g fill-rule="evenodd" clip-rule="evenodd"><path fill="#212221" d="M33.656 39.96h4.086v10.72c0 1.846-.79 5.713-6.46 5.713-5.667 0-6.282-3.603-6.282-5.624v-1.98h3.954v1.93c0 1.186.79 2.285 2.285 2.285 1.49 0 2.412-.835 2.412-2.24V39.96zm40.167 17.647c-.493 0-.895.4-.895.895 0 .24.093.464.262.633.17.17.394.262.633.262.24 0 .464-.093.633-.262.17-.17.262-.394.262-.633 0-.24-.093-.464-.262-.633-.17-.17-.394-.267-.633-.267z"/><path fill="#fff" d="M74.58 58.502c0 .417-.34.756-.757.756-.202 0-.392-.08-.535-.22-.143-.144-.22-.334-.22-.535 0-.202.078-.392.22-.535.143-.143.333-.22.535-.22s.392.078.535.22c.142.142.22.332.22.534z"/><path fill="#212221" d="M73.51 58.084h.41c.143 0 .282.02.293.19.006.096-.03.13-.12.185.094.043.104.062.106.184 0 .093.003.128.044.152v.023H74.1c-.017-.035-.022-.065-.025-.093-.01-.086.042-.223-.15-.223h-.302v.318h-.118v-.74z"/><path fill="#fff" d="M73.63 58.168v.254h.295c.078 0 .156-.017.17-.113.015-.13-.098-.146-.17-.146h-.296z"/><path fill="#212221" d="M44.068 44.442c3.208 0 6.02 1.23 6.02 6.898h-7.602c0 1.8.747 2.548 2.065 2.548 1.32 0 1.76-1.054 1.76-1.054h3.738c0 1.626-2.24 3.822-5.624 3.778-3.865 0-5.755-2.856-5.755-5.8 0-2.943 1.67-6.37 5.403-6.37z"/><path fill="#fff" d="M46.353 49.055c0-1.098-.614-2.153-2.02-2.153-1.363 0-1.847.967-1.847 2.153h3.867z"/><path fill="#212221" d="M56.283 44.442c3.208 0 6.02 1.23 6.02 6.898H54.7c0 1.8.748 2.548 2.066 2.548 1.318 0 1.758-1.054 1.758-1.054h3.735c0 1.626-2.246 3.822-5.63 3.778-3.865 0-5.755-2.856-5.755-5.8 0-2.943 1.668-6.37 5.403-6.37z"/><path fill="#fff" d="M58.568 49.055c0-1.098-.614-2.153-2.02-2.153-1.363 0-1.846.967-1.846 2.153h3.866z"/><path fill="#212221" d="M63.005 60.04V44.88h3.78v.616c0 .922.482.395.526.264.05-.132.97-1.186 2.86-1.186S75 45.892 75 50.55c0 3.6-1.756 6.236-4.79 6.236-1.67 0-2.634-.66-2.854-.923-.22-.263-.527-.307-.527 0v4.174h-3.825z"/><path fill="#fff" d="M66.74 50.68c-.044 2.242.44 3.428 2.285 3.428 1.845 0 2.11-2.02 2.11-3.56 0-1.537-.353-3.03-2.286-3.03-1.19 0-2.07.922-2.11 3.163z"/></g></svg>