<svg xmlns="http://www.w3.org/2000/svg" viewBox="0 0 100 100"><path d="M41.45 49.726l3.53-5.166c.134-.203-.028-.433-.312-.433l-2.725-.02c-.203 0-.61.257-.784.48l-1.236 1.603-1.71 2.238.013-3.868c0-.264-.277-.433-.446-.433h-3.12c-.216 0-.413.08-.42.48-.006.392.48.473.48.582v10.334c0 .196.272.494.46.494l2.68-.013c.188-.008.35-.278.35-.46l.008-4.31 1.71 2.118 1.813 2.232c.15.176.44.42.75.42l2.907-.02c.277 0 .25-.34.183-.427-1.37-1.913-2.755-3.88-4.128-5.835zm10.034-5.6h-3.09c-.366 0-.447.217-.508.447.068.42.507.534.507.54V55.55c0 .277.17.46.406.46l1.104-.01 1.65-.013c.304 0 .385-.183.385-.44V44.56c0-.264-.22-.433-.46-.433zM60.89 38.8c-3.285-.832-6.984-1.298-10.893-1.298-.027 0-.054.007-.088.007-3.548 0-6.93.39-9.986 1.09-8.58 1.96-14.586 6.34-14.586 11.404s6.005 9.447 14.586 11.408c3.057.697 6.438 1.09 9.98 1.09H50c3.908 0 7.607-.46 10.893-1.293 8.15-2.044 13.77-6.304 13.77-11.207s-5.62-9.163-13.77-11.206zm0 19.685c-3.238.75-6.95 1.177-10.893 1.177-.027 0-.054-.007-.088-.007-3.57 0-6.96-.358-9.986-.987-7.567-1.576-12.787-4.87-12.787-8.662 0-3.794 5.22-7.087 12.787-8.662 3.023-.63 6.41-.987 9.98-.994H50c3.94 0 7.654.426 10.893 1.177 7.122 1.636 11.97 4.828 11.97 8.48 0 3.65-4.85 6.842-11.97 8.478zm2.13-13.91c-.1-.23-.276-.446-.506-.446h-4.178c-.15 0-.352.12-.352.322-.007.595.615.575.582.663L55.042 55.51c-.06.175.095.5.31.5l2.456-.02c.216 0 .52-.184.61-.447l1.162-3.49c.392-1.162.784-2.325 1.17-3.488.02-.047.08-.074.142-.074.095 0 .196.04.216.106l2.28 6.992c.046.155.364.406.533.406l2.56.02c.15 0 .326-.297.278-.432L63.02 44.574z" fill="#212221"/></svg>