<svg xmlns="http://www.w3.org/2000/svg" viewBox="0 0 100 100"><ellipse fill="#222" cx="50" cy="50" rx="26.161" ry="12.5"/><ellipse fill="#222" cx="50" cy="50" rx="24.784" ry="11.207"/><path fill="#fff" d="M50 61.513c-6.663 0-12.93-1.175-17.65-3.31-4.798-2.17-7.44-5.083-7.44-8.204s2.642-6.04 7.44-8.21c4.72-2.133 10.988-3.31 17.65-3.31 6.663 0 12.93 1.176 17.65 3.31 4.798 2.17 7.44 5.084 7.44 8.205s-2.642 6.033-7.44 8.203c-4.72 2.135-10.987 3.31-17.65 3.31zM50 39.1c-13.497 0-24.478 4.89-24.478 10.9S36.502 60.9 50 60.9c13.497 0 24.478-4.89 24.478-10.9S63.498 39.1 50 39.1z"/><path fill="#fff" d="M37.29 47.406h1.863l-.44 1.315H35.11l1.993-5.97h1.744zm4.396.277l-.758 1.038h-1.65l4.292-5.97h1.696l.258 5.975h-1.656l-.042-1.037zm6.616-4.937h1.706l.712 3.35 1.158-3.35h1.63l-1.993 5.975h-1.82l-.726-3.05-.997 3.05H46.31zm6.668 0h2.356c1.664 0 2.595 1.306 2.04 2.988-.65 1.96-1.805 2.988-3.46 2.988h-2.928l1.993-5.976zM42.937 56.418h-1.934l-.813-2.298h-.13l-.766 2.298h-1.706l1.992-5.975h2.703c1.18 0 1.89.563 1.463 1.84-.275.823-.972 1.536-1.87 1.687l1.06 2.448zm7.2-2.794c-.434 1.938-1.637 2.992-3.473 2.992-1.727 0-2.714-1.49-2.274-3.373.422-1.807 1.786-3 3.42-3s2.805 1.24 2.326 3.38zm2.803.22l2.47-3.4h1.878l-4.392 5.974H51.31l-.1-5.976h1.688zm6.445-2.086l-.333.998h1.75l-.437 1.316h-1.752l-.343 1.03h1.846l-.438 1.316h-3.552l1.992-5.976h3.552l-.44 1.316zm-26.95.884l4.515-1.62-.21.667-2.762.99h2.438l-.476 1.41h-3.98zM65 46.4l-4.515 1.62.21-.666 2.762-.99h-2.44l.477-1.41h3.982zm1.524 10.018H64.59l-.814-2.298h-.13l-.766 2.298h-1.706l1.992-5.975h2.703c1.18 0 1.884.563 1.46 1.84-.277.823-.97 1.536-1.87 1.687l1.06 2.448z"/><path fill="#222" d="M43.806 44.592h-.016l-1.276 1.902h1.292zm11.432 2.814h.12c.927 0 1.698-.507 2.087-1.672.357-1.07.157-1.672-.842-1.672h-.25l-1.115 3.344zm-14.844 5.71h.15c.508 0 1.11-.095 1.327-.745.22-.65-.09-.74-.6-.74h-.38l-.492 1.49zm5.93.21c-.21 1.026-.143 1.784.538 1.784.682 0 1.186-.715 1.373-1.745.15-.824.07-1.615-.613-1.615-.682 0-1.103.63-1.297 1.577zm17.656-.21h.152c.507 0 1.11-.095 1.326-.745.217-.65-.094-.74-.6-.74h-.38l-.497 1.49z"/></svg>