<svg xmlns="http://www.w3.org/2000/svg" viewBox="0 0 100 100"><path fill="#222" d="M50 65c6.913 0 13.044-2.414 16.844-6.132l-3.424.015c-3.238 2.723-7.97 4.437-13.335 4.437-10.007 0-17.82-5.964-17.82-13.32 0-8.485 7.813-13.32 17.82-13.32.636.002 1.146.295.764.847-2.08 2.503-8 10.558-9.08 12.303-2.13 3.44-2.08 7.68 3.14 7.976H66.85c1.122 0 1.406-.526 1.81-1.074 1.47-1.987 2.216-4.31 2.215-6.732-.004-6.323-4.453-11.062-11-13.392l-1.01 1.512c5.44 2.008 9.036 6.064 9.036 11.88 0 1.01-.147 1.994-.427 2.94-.244.82-.72 1.515-1.62 1.515H48.34c-2.243 0-1.376-2.315-.545-3.437C49 48.858 55.6 39.86 57.19 38.184c.405-.615 1.54-1.888-.024-2.376C54.93 35.278 52.516 35 50 35c-11.532 0-20.874 5.92-20.88 15-.006 9.164 9.348 15 20.88 15z"/></svg>