<svg xmlns="http://www.w3.org/2000/svg" viewBox="0 0 100 100"><g fill-rule="evenodd" clip-rule="evenodd"><path fill="#222" d="M47.97 53.924c-.18-.87-.308-1.706-.31-1.72-.05-.347-.093-.646-.13-1.044-.025-.246-.053-.622-.087-.87-.005-.042-.163-1.83-.167-1.87-.134-1.378-.088-1.203-.137-2.073-.036-.783.01-1.59-.01-2.417l-.736-.068v-.046l-.015-.74v-.028l.76-.062-.023.003c.027-.83-.01-1.627.027-2.41.056-.87.008-.696.155-2.07.003-.04.176-1.828.182-1.87.036-.247.068-.62.094-.87.04-.4.085-.695.14-1.042.002-.014.137-.847.323-1.717l1.98-.517 1.975.527c.18.87.313 1.704.315 1.718.055.35.098.648.138 1.047.026.247.056.622.09.87.007.04.17 1.83.175 1.87.14 1.375.093 1.202.146 2.07.033.784-.008 1.58.02 2.406l.733.064.002.055.004.69v.03l-.74.08c-.02.824.02 1.62-.01 2.403-.05.87-.005.696-.14 2.072-.005.04-.165 1.83-.17 1.87-.035.248-.064.623-.09.87-.04.4-.08.697-.132 1.044 0 .012-.13.846-.31 1.72l-2.07.552-1.993-.526z"/><path fill="#fff" d="M49.322 42.81l.21-8.743h-.843c-.047.232-.09.402-.136.624-.067.35-.117.64-.17 1-.043.286-.078.64-.114.888-.005.042-.18 1.83-.182 1.87-.146 1.375-.1 1.202-.155 2.07-.037.783 0 1.58-.028 2.406l1.414-.11zm-1.392 3.602c.048.87.002.696.136 2.073.004.04.16 1.83.167 1.87.034.248.065.602.105.885.05.365.1.655.163 1 .046.222.09.392.13.624l.844.008-.135-8.745-1.413-.12c.02.826-.024 1.622.007 2.405zm4.163-3.464c-.007-.833.012-1.64-.022-2.424-.05-.87 0-.696-.14-2.072-.004-.04-.17-1.828-.175-1.87-.034-.247-.067-.6-.108-.884-.053-.365-.1-.655-.167-1-.043-.222-.088-.392-.13-.624l-.844-.004.172 8.745 1.418.133zm0 1.032l-1.412.12-.15 8.744.85-.006c.04-.232.084-.403.126-.624.065-.345.113-.635.165-1 .04-.283.07-.637.106-.884.005-.042.166-1.83.17-1.87.136-1.377.09-1.203.14-2.073.03-.784-.013-1.58.01-2.406z"/></g><path d="M26.593 60.663h.973v4.647h2.908v.886h-3.88v-5.533zm7.5 0v5.533h-.972v-5.533h.978zm6.924 0h.957v5.533h-.814l-3.05-3.937v3.932h-.958V60.66h.9l2.965 3.826V60.66zm6.53 5.627c-1.613 0-2.814-1.256-2.814-2.853 0-1.58 1.177-2.87 2.853-2.87 1.02 0 1.637.356 2.166.862l-.624.72c-.443-.416-.917-.69-1.55-.69-1.06 0-1.825.87-1.825 1.96s.767 1.973 1.825 1.973c.68 0 1.115-.276 1.59-.72l.624.633c-.578.6-1.21.98-2.246.98zm7.326 0c-1.7 0-2.885-1.287-2.885-2.853s1.2-2.87 2.9-2.87 2.885 1.29 2.885 2.855c0 1.564-1.2 2.87-2.9 2.87zm0-4.828c-1.1 0-1.865.877-1.865 1.96s.782 1.976 1.88 1.976 1.866-.877 1.866-1.96-.782-1.976-1.88-1.976zm5.657-.8h.974v4.648h2.908v.886h-3.88v-5.533zm10.34 0h.956v5.534h-.814l-3.05-3.937v3.932h-.958V60.66h.9l2.965 3.826V60.66z" fill="#222"/></svg>