<svg xmlns="http://www.w3.org/2000/svg" viewBox="0 0 100 100"><path fill-rule="evenodd" clip-rule="evenodd" fill="#212221" d="M61.4 60h-2.8c0 1.6 1.1 2.4 2.8 2v-2zm.2-6.1c0-.4.2-5.7 1.5-9.8 1.4-4.6 4.1-7.3 3.9-7.6-.2-.3-2.4.2-4.1 1.4-1.8 1.2-3.6 3.3-3.5 3.5.1.1.7-.4 1.8-.8 1.2-.4 1.7-.4 1.7-.4S61 43.4 60 46.9c-.8 2.9-1.2 6.7-1.3 7h2.9zm-23.2 0c0-.4-.2-5.7-1.5-9.8-1.4-4.6-4.1-7.3-3.9-7.6.2-.3 2.4.2 4.1 1.4 1.8 1.2 3.6 3.3 3.5 3.5-.1.1-.7-.4-1.8-.8-1.2-.4-1.7-.4-1.7-.4s1.9 3.2 2.9 6.7c.8 2.9 1.2 6.7 1.3 7h-2.9zm10-20.4c1.1-2.2 1.3-5.5 1.6-5.5.3.1.5 3.3 1.6 5.5 1 2.1 3.3 3.8 3.2 4-.2.3-1.4-.4-2-.7-1-.5-1.8-.8-1.8-.8s-.4 5.2.9 10.1c1 3.9 3.5 7.5 3.8 7.9h-3.2l-.3-.5c-.9-1.5-1.5-2.8-2.1-5.1-.6 2.3-1.2 3.6-2.1 5.1l-.3.5h-3.2c.2-.3 2.7-3.9 3.8-7.9 1.3-4.8.9-10.1.9-10.1s-.8.4-1.8.8c-.6.3-1.9.9-2 .7-.3-.2 1.9-1.9 3-4zM38.6 60h2.8c0 1.6-1.1 2.4-2.8 2v-2zM54 61.3c-1.3 1.2-1.3 3.3-1.3 3.3h-5.6s0-2.1-1.3-3.3c-.9-.8-2-1-2-1-.7-.1-.7-.2-.7-.3h13.4s0 .1-.7.3c.2 0-.9.2-1.8 1zm-16.8-6.6h25.6v1H37.2v-1zm0 3.6h25.6v1H37.2v-1zm1.2-1.9h23.1v1H38.4v-1zM47.1 68H53v4h-5.9v-4zm-1-2.6h7.8v1.9h-7.8v-1.9z"/></svg>