<svg xmlns="http://www.w3.org/2000/svg" viewBox="0 0 100 100"><path fill-rule="evenodd" clip-rule="evenodd" fill="#222" d="M43.014 49.777c3.062 1.276 5.104 3.062 6.954 7.08 1.85-4.018 3.828-6.06 6.954-7.336l7.86-2.81.05.2c.128.893.192 1.978.192 3.06 0 11.1-7.337 13.334-15.056 13.27-7.72.064-14.992-2.17-14.992-13.27 0-.83 0-1.66.128-2.36l.114-.47 7.796 2.64zM63.09 42.08l-.17-.278c-2.744-4.083-7.72-5.04-12.952-5.04s-10.335 1.02-13.014 5.168l-.288.5c4.603 2.63 9.826 2.678 13.302 9.325 3.193-6.85 8.473-6.947 13.123-9.675zm3.72-2.383l-.447-.51c-4.083-4.403-10.78-5.36-16.395-5.36-5.678 0-12.568.957-16.587 5.614l-.19.26C31.21 42.06 30 45.44 30 49.97c0 13.97 11.355 16.204 19.968 16.204C58.644 66.172 70 63.94 70 49.97c0-4.53-1.212-7.91-3.19-10.27z"/></svg>