<svg xmlns="http://www.w3.org/2000/svg" viewBox="0 0 100 100"><path fill="#222" d="M50.036 39.663C44.326 39.663 39.7 44.29 39.7 50s4.627 10.337 10.336 10.337c5.71 0 10.337-4.628 10.337-10.337 0-5.71-4.628-10.337-10.337-10.337zm29.636 4.163H60.908c-2.15-3.778-6.213-6.326-10.87-6.326-4.66 0-8.722 2.548-10.873 6.326h-18.84s.56.788 1.606 2.056h.01c.47.57 1.04 1.236 1.7 1.97h-.006c.615.685 1.307 1.428 2.074 2.208h.004c.626.636 1.3 1.297 2.02 1.97h-.004c.776.727 1.606 1.468 2.486 2.21h.004c.785.66 1.61 1.32 2.473 1.97h-.005c.97.73 1.987 1.447 3.048 2.134h5.003c2.29 2.55 5.61 4.156 9.307 4.156s7.02-1.605 9.307-4.156h4.927C73.7 52.24 79.68 43.826 79.68 43.826h-.003zm-17.32 4.027c-.116-.677-.288-1.336-.51-1.97h15.81c-.48.576-1.053 1.242-1.712 1.97H62.353zM61.8 54.24h7.493c-.83.688-1.667 1.346-2.51 1.97h-5.896c.358-.625.664-1.284.912-1.97zm-39.448-8.36H38.23c-.222.635-.393 1.294-.51 1.97H24.066c-.66-.726-1.232-1.392-1.713-1.97zm3.804 4.18h11.38c.002.67.058 1.328.163 1.97H28.19c-.69-.638-1.37-1.296-2.04-1.97zm4.554 4.177h7.563c.248.686.554 1.345.912 1.97H33.22c-.842-.623-1.68-1.28-2.51-1.97zm19.326 6.577c-5.975 0-10.818-4.843-10.818-10.818S44.06 39.18 50.036 39.18c5.974 0 10.818 4.843 10.818 10.817s-4.844 10.82-10.818 10.82zm21.772-8.785h-9.436c.105-.646.16-1.3.164-1.97h11.31c-.668.67-1.35 1.33-2.038 1.97z"/><path fill="#fff" d="M48.73 47.355h1.307v5.352H48.73zm-2.492 0h-.132L44.59 50.88l-1.392-3.525h-1.476v5.352h1.122v-3.22l1.28 3.22h.77l1.344-3.148v3.143h1.318V47.35h-1.318zm8.435 3.252v.003l-2.503-3.255h-.98v5.35h1.123V49.48l2.487 3.226h1.01v-5.35h-1.137zm2.312-3.252h1.308v5.352h-1.308z"/></svg>