<svg xmlns="http://www.w3.org/2000/svg" viewBox="0 0 100 100"><path d="M67.428 58.046c-.478 0-.904.33-.904.9 0 .568.426.898.904.898.476 0 .902-.33.902-.9 0-.568-.427-.898-.902-.898zm0 1.59c-.357 0-.645-.277-.645-.69 0-.415.288-.69.645-.69.347 0 .642.275.642.69 0 .413-.295.69-.642.69zm-1.918-1.73c-2.82 5.686-8.682 9.594-15.458 9.594s-12.638-3.908-15.458-9.593H65.51zM34.595 42.094c2.82-5.685 8.682-9.593 15.458-9.593 6.775 0 12.638 3.91 15.457 9.595H34.595zm39.11 1.16h-47.41c-.823 0-1.49.667-1.49 1.49v10.513c0 .823.667 1.49 1.49 1.49h47.41c.823 0 1.49-.667 1.49-1.49V44.744c0-.823-.667-1.49-1.49-1.49zM35.402 53.88h-3.415l-2.484-6.13v6.13h-2.148v-7.736h3.52l2.354 5.874v-5.874h2.17v7.737zm3.714 0H36.89v-7.736h2.226v7.737zm6.27 0h-4.813v-1.758h4.735v-1.255h-2.355c-2.484 0-2.613-1.72-2.613-2.497 0-1.656.957-2.225 2.122-2.225h4.45v1.734h-4.347v1.25h2.303c1.94 0 2.743.84 2.743 2.342 0 1.5-1.082 2.405-2.22 2.405zm7.945 0h-4.81v-1.758h4.738v-1.255H50.9c-2.484 0-2.613-1.72-2.613-2.497 0-1.656.957-2.225 2.122-2.225h4.45v1.734h-4.35v1.25h2.3c1.94 0 2.743.84 2.743 2.342 0 1.5-1.086 2.405-2.225 2.405zm8.57 0l-.493-1.396H58.17l-.49 1.397h-2.226l2.77-7.732h3.156l2.743 7.737h-2.226zm10.854 0H69.34l-2.485-6.13v6.13h-2.147v-7.736h3.52l2.354 5.874v-5.874h2.173v7.737zM58.77 50.776l1.01-2.898 1.022 2.898h-2.034zm8.83 8.228c.127-.01.232-.074.232-.252 0-.22-.148-.293-.397-.293h-.362v.963h.21v-.407h.097l.224.406h.246L67.602 59zm-.137-.147h-.18v-.233h.144c.08 0 .186.007.186.107-.002.11-.056.13-.15.13z" fill="#222"/></svg>