<svg xmlns="http://www.w3.org/2000/svg" viewBox="0 0 100 100"><path d="M36.417 34.324l1.42 18.784M49.863 67.5c-6.42-3.31-11.69-7.973-11.96-13.58L36.42 34.323c5.47-1.25 8.78-1.823 13.443-1.823"/><path fill="#fff" d="M49.863 44.19h-4.527v7.702c0 2.095 1.757 4.493 4.527 4.493"/><path d="M49.863 67.5c6.42-3.31 11.69-7.973 11.96-13.58l1.485-19.596c-5.473-1.25-8.784-1.824-13.446-1.824"/><path fill="#fff" d="M49.863 33.04c5.54 0 10.54 1.183 12.872 1.758l-.25 3.35c-5.966-1.492-9.513-1.73-12.62-1.73-3.11 0-6.656.237-12.624 1.73l-.244-3.35c2.33-.575 7.33-1.757 12.87-1.757zm5.067 14.272l-.012 3.72 6.556.02.293-3.76zm7.11-3.62l.295-3.877-12.202-.07v3.783h4.797v.164z"/><path d="M44.796 47.328c-.16.2-.345.47-.38.612.075.04.232.172.382.356l-.002-.968z"/><path fill="#fff" d="M43.14 62.308c1.968 1.783 4.295 3.266 6.452 4.406v-4.42l-6.453.014zm6.452-3.815V56.92c-1.85-.085-3.146-1.033-3.92-2.15l-7.154.008c.207 1.314.7 2.555 1.396 3.717l9.678-.002zm.27-14.303h4.528v7.702c0 2.095-1.757 4.493-4.527 4.493"/><path fill="#fff" d="M52.975 55.907c1.32-1.015 1.955-2.578 1.955-3.678v-.66l6.524-.02-.24 3.175C60.4 60.065 54.86 64.22 50.13 66.72v-9.8c.793-.037 1.484-.232 2.075-.53l-.014.134c-.16.465-.15.66-.16.76-.022.21-.28.23-.33.208-.05-.033-.12-.052-.19-.052-.202 0-.37.167-.37.373 0 .035.006.06.015.09-.134.058-.193.167-.193.322 0 .206.134.373.34.373.085 0 .14.01.203-.038.068.077.168.126.28.126.206 0 .31-.055.324-.474 1.376-.73 3.47-1.286 4.4-1.236 1.047.056 1.81 1.108 1.89 1.176.08.068.15.068.135-.04-.068-.433-.2-1.085-1.223-1.643.066-.29.564-.34.66-.38.07-.03.092-.12 0-.12-.687-.09-1.175.21-1.27.333-.095-.027-.557-.06-.693-.047.074-.348.277-.6.58-.856-.045.038.08-.107-.015-.107-.757.068-1.226.85-1.28 1.054-.068.015-.89.15-1.024.19.12-.796 1.026-1.338 1.107-1.392.08-.054.108-.135 0-.135-1.137.04-1.97 1.508-2.01 1.82-.176.07-.446.163-.58.244-.048-.53-.038-.693.106-1.01l.08-.157z"/><path d="M51.866 60.894c-.01.335-.095.38-.26.38-.088 0-.168-.04-.223-.102-.05.04-.094.03-.163.03-.165 0-.27-.132-.27-.297 0-.123.046-.21.153-.257-.007-.026-.01-.045-.01-.073 0-.165.132-.298.297-.298.056 0 .108.015.153.042.037.013.242 0 .264-.17.016-.178.386-1.518 1.305-1.647.097-.022.065.054.022.097.074-.072-.79.615-.72 1.38.107-.064.425-.173.565-.227.03-.25.78-1.373 1.69-1.403.084 0 .063.066 0 .11-.067.043-.857.46-.956 1.097.108-.032.647-.14.7-.15.044-.163.615-.875 1.28-.86.075 0-.025.115.01.085-.242.203-.69.457-.752.734.108-.01.478.016.554.038.075-.097.5-.376 1.046-.304.076 0 .056.074 0 .1-.074.032-.422.142-.476.37.592.35.824.713.878 1.06.01.085-.043.085-.108.03-.065-.053-.69-.66-1.53-.703-.745-.04-2.353.355-3.454.938zm-.296 2.31c-.007.23-.116.277-.228.277-.06 0-.116-.022-.153-.064-.04.026-.07.02-.116.02-.113 0-.185-.09-.185-.203 0-.084.032-.145.106-.176-.006-.018-.01-.03-.01-.05 0-.113.092-.204.205-.204.04 0 .075.01.105.027.024.012.165 0 .18-.114.01-.122.072-1.06.638-1.16.067-.016.044.036.015.066.05-.05-.338.398-.24.953.072-.044.213-.094.31-.13.02-.17.23-.957.853-.978.06 0 .045.044 0 .074s-.305.305-.373.74c.084-.042.295-.076.38-.103.03-.11.48-.716.93-.707.053 0-.016.08.008.06-.167.136-.39.36-.43.55.072-.007.25-.014.3 0 .053-.066.24-.3.616-.25.053 0 .04.05 0 .07-.05.02-.187.113-.223.27.436.21.622.394.66.63.006.06-.03.06-.075.022-.043-.036-.438-.306-1.012-.337-.507-.026-1.5.25-2.268.72zm6.907-17.697M46.113 51.056c.042-.127.177-.28.194-.355.017-.07-.008-.13.042-.21.05-.072.19-.22.24-.27.05-.05.23-.123.32.08.094.203.254.65.575.785-.128.07-.432.178-.592.212-.16.034-.287.06-.22.456.068.398.084.567.06.694-.026.128-.035.398.202.61l.21.295c.085.076.288.16.305-.01.018-.17.07-.336-.1-.353-.06-.01-.22-.145-.203-.297s-.025-.28-.093-.405-.093-.27-.06-.396c.035-.128.128-.204.34-.16.168.06.945.27 1.18.007.16.117 1.116.472 1.673.413.102.178.314.567.45.677.11.1.15.422-.035.59-.11.085-.397.38-.633.45-.238.067-.33.11-.44.22s-.178.11-.246.252c-.068.143-.22.396.025.396s.313-.117.33-.185 0-.21.092-.235c.093-.026.38-.043.574-.28.192-.236.58-.363.733-.39.15-.024.17-.176.15-.252s-.024-.27.07-.372c.134.035.565.128.77.406.032.077.04.12.074.17-.06.1-.178.194-.22.296-.043.1-.094.27-.288.424-.194.152-.363.245-.456.38-.09.135-.15.28-.133.465.017.186.07.093.152.093s.28-.092.285-.22c.007-.126-.05-.185.126-.26.18-.077.49-.33.56-.49s.27-.474.43-.567c.16-.092.127-.227.05-.362-.075-.135-.337-.498-.286-.735.05-.236.328-.38.413-.743.085-.363.035-.532-.016-.66.145-.04.23-.007.415.077s.608.068.66-.05c.05-.12.033-.356 0-.406.117-.1.202-.32.134-.42-.07-.1-.1-.236-.07-.37-.117-.02-.244-.12-.16-.196s.254-.254.178-.48c.025-.146.034-.323-.21-.315-.01-.093-.085-.397-.466-.118-.06.042-.127-.05-.042-.076.084-.025.524-.17.59-.32.07-.153.043-.23.018-.288.035-.07.07-.204.035-.254-.034-.05-.17-.04-.262.187-.09.23-.066.23-.31.27-.244.043-.43 0-.59.27-.05.07-.076.145-.194.21-.118.07-.186.18-.203.27-.017.095.068.264.05.38-.016.12-.083.374.23.644.15.17.38.39.21.557-.17.17-.32-.007-.448-.092-.127-.084-.54-.21-.81-.194-.27.017-1.158-.203-1.37-.38-.21-.177-.08-.267.026-.32.078-.035.13-.07.17-.153.04-.083.11-.1.187-.1s.15-.017.22-.177.134-.103.21-.12c.076-.017.127-.177-.008-.228-.137-.05-.21-.1-.205-.152.008-.05.1-.16.228-.168.127-.008.135-.093.127-.16-.007-.068 0-.11.085-.152.084-.042.076-.144-.068-.186-.145-.042-.356-.093-.356-.16s.095-.186.188-.22.136-.177-.075-.17c-.21.01-.33.035-.37-.1-.043-.135-.05-.21.17-.296.09-.024.116-.15-.053-.143-.17.008-.363.093-.422.034-.06-.06-.042-.11-.008-.134.034-.025.042-.11-.042-.11s-.414.127-.498.034-.22-.144-.33-.076-.11.17-.05.23-.017.15-.084.093c-.068-.06-.042-.1-.042-.128s-.05-.11-.11-.145c-.06-.032-.06-.125-.04-.184.016-.06-.05-.117-.153-.06-.1.06-.193.16-.143.315-.11.007-.39.075-.398.16-.01.083.032.176.015.21s-.11.034-.16.068c-.144.144-.39.28-.448.338-.06.06-.1.12-.177.21-.075.086-.082.183-.05.23.093.135.17.04.22.118.05.076.05.093.042.135-.01.042.092.135.244.008s.26-.26.38-.117c.117.144.007.228-.043.32-.1.102-.338.415-.448.508-.11.094-.195.314-.237.516-.04.205-.093.247-.135.298-.203-.076-.43-.17-.557-.27-.084-.068-.27-.152-.39.017-.06.07-.362.48-.44.66s-.192.11-.192.448c0 .12-.093.17-.144.354-.008.05-.144.363-.008.422.135.06.296-.017.33-.1.03-.088.04-.35.048-.442z"/><path fill="#fff" d="M44.795 43.65h4.797v-6.653c-2.678.038-6.32.185-12.303 1.752l.94 12.3h6.56v-2.28c-.185-.145-.468-.378-1.31-.378-.5 0-1.916.472-2.74 1.48-.01.354-.214.486-.388.486-.094 0-.178-.04-.236-.107-.054.04-.115.06-.187.06-.173 0-.313-.14-.313-.312 0-.13.092-.25.205-.3-.008-.024-.012-.044-.012-.074 0-.174.14-.314.316-.314.06 0 .114.017.16.045.04.02.165.105.188-.072.017-.188-.007-1.953.937-2.22.104-.024.07.056.024.102-.046.046-.463.766-.407 1.676.114-.066.36-.252.51-.31.045-.193.37-1.662 1.152-1.68.09 0 .067.07 0 .117s-.41.446-.478 1.164c.115-.033.4-.082.457-.093.044-.17.38-1.155 1.02-1.212.08 0 .045.082.01.117-.034.034-.37.504-.44.962.114-.01.38-.003.46.02.067-.088.61-.682 1.07-.876v-2c-.09-.08-.226-.166-.65-.17-.666 0-1.78.277-3.314 1.28-.015.47-.285.647-.517.647-.126 0-.24-.055-.316-.142-.07.055-.152.08-.248.08-.232 0-.42-.186-.42-.417 0-.174.125-.335.275-.4-.01-.035-.017-.062-.017-.102 0-.23.188-.42.42-.42.077 0 .15.024.214.06.05.027.264.118.295-.12.025-.25.41-2.35 1.7-2.53.14-.03.09.076.03.137-.06.06-1.066.888-.99 2.1.15-.09.615-.315.812-.39.06-.258.633-1.834 1.673-1.855.122 0 .09.092 0 .153-.09.06-.725.506-.816 1.464.15-.046.62-.155.697-.17.06-.23.465-1.136 1.316-1.212.106 0 .06.11.015.156-.045.048-.496.358-.585.97.087-.01.27.024.43.056v-.566z"/><path d="M40.64 42.45c-.017.523-.317.718-.574.718-.14 0-.264-.06-.35-.158-.08.06-.17.09-.275.09-.252 0-.46-.21-.46-.466 0-.193.136-.372.304-.443-.01-.04-.016-.07-.016-.11 0-.256.21-.465.466-.465.086 0 .168.025.237.067.057.03.294.13.327-.132.025-.28.397-2.762 1.833-2.965.15-.034.1.084.032.152-.066.068-1.18.963-1.045 2.483.17-.1.76-.39.98-.473.05-.39.608-2.196 1.858-2.23.135 0 .1.1 0 .17-.1.067-.86.675-.963 1.74.168-.052.708-.136.793-.153.068-.252.59-1.485 1.537-1.57.118 0 .068.084.017.135-.05.05-.728.624-.728 1.3.17-.017.644-.017.76.017.12-.15.627-.708 1.353-.76.118 0 .068.085 0 .153-.068.068-.507.456-.59.81.252.136.98.626 1.063 1.167.016.135-.07.135-.17.05-.1-.083-.878-.708-1.858-.708s-2.823.47-4.53 1.586zm7.375-6.905v.39l-.585.028v-.343c0-.34-.188-.555-.505-.533l-1.613.105.016.933-.58.027-.065-2.332 2.42-.16c.444-.037.834.054.833.66 0 .175-.062.35-.156.508.123.096.237.35.235.717zm-10.348 2.04l-.17-2.35 2.408-.54c.304-.07.735-.025.752.515.017.54-.084.77-.465.853l-2.02.456.077.924-.587.136z"/><path fill="#fff" d="M38.123 35.633l.017.346 1.68-.377c.145-.034.17-.152.16-.228-.006-.06-.067-.145-.235-.11-.17.034-1.622.363-1.622.363z"/><path d="M41.02 34.958c0-.22-.008-.54.59-.633l1.952-.32c.236-.043.77.117.77.556l.024 1.137c.008.236-.008.55-.642.642l-1.807.286c-.32.06-.845.008-.86-.6l-.027-1.064z"/><path fill="#fff" d="M41.61 35.22s0 .177 0 0-.007-.346.305-.405l1.495-.253c.16-.025.33.093.33.253l.016.693c0 .11-.05.287-.296.33l-1.478.235c-.203.034-.338.042-.355-.22l-.016-.633z"/><path d="M49.254 34.52c-.112 0-.203-.092-.203-.204 0-.112.096-.203.208-.203h2.382v-.506h-2.66c-.136 0-.59.03-.588.718.004.688.486.7.587.7h1.865c.112 0 .203.092.203.204 0 .11-.09.18-.204.18H48.46v.507h2.653c.17 0 .612.025.612-.705s-.498-.697-.612-.697h-1.86zm6.556-.626l-.145 2.398.557.076.068-1.03 1.96.37-.068.98.557.103.14-2.39-.55-.1-.06.93-1.96-.37.05-.88zm3.453 2.973l.135-2.365 2.686.566-.034.48-2.12-.447-.017.44 2.103.45-.033.48-2.104-.444-.03.48 2.095.45-.043.48zm-3.987-2.492l.025-.524-2.47-.19c-.21-.016-.617-.033-.65.66l-.05 1.005c-.01.237.134.634.58.668l2.467.187.026-.525-2.06-.152c-.193-.007-.404-.067-.39-.42l.02-.508c.007-.203.075-.39.396-.363l2.11.17z"/><path fill="#fff" d="M47.026 34.577l-1.73.097-.007-.37 1.75-.092c.133.004.19.052.194.176.006.122-.092.18-.212.19z"/><path d="M45.96 45.68c.025.143.09.202.225.202.11 0 .19-.06.19-.144 0-.046-.026-.076-.09-.106l-.31-.144c-.135-.062-.196-.155-.196-.306 0-.225.142-.373.37-.373.24 0 .38.14.39.392h-.203c-.02-.135-.076-.19-.19-.19-.1 0-.173.058-.173.14 0 .04.025.072.07.094l.32.146c.143.066.205.144.205.31 0 .116-.045.22-.128.293-.07.06-.147.087-.27.087-.168 0-.288-.06-.357-.177-.04-.06-.054-.117-.06-.23h.2zm1.498-.847v.223h-.3v1.008h-.207v-1.008h-.3v-.223zm.957 0v.76c0 .28-.083.495-.407.495-.323 0-.407-.21-.407-.495v-.76h.21v.755c0 .2.06.277.2.277.15 0 .202-.074.202-.277v-.755h.207zm.922 0v.223h-.3v1.008h-.206v-1.008h-.3v-.223zm1.396.564h.42v.667h-.145l-.02-.155c-.08.12-.176.174-.302.174-.272 0-.465-.26-.465-.628 0-.393.2-.65.5-.65.243 0 .405.153.436.415h-.213c-.04-.132-.11-.192-.22-.192-.175 0-.283.16-.283.416 0 .25.11.415.28.415.13 0 .216-.09.243-.257h-.226v-.213zm.895-.564h.235l.356 1.23h-.23l-.07-.257h-.367l-.07.258h-.22zm1.152 0c.143 0 .197.015.257.07.068.065.105.163.105.285 0 .142-.035.215-.144.285.098.052.11.086.118.324.007.2.012.23.044.267h-.23c-.02-.068-.024-.084-.025-.194-.005-.18.02-.292-.172-.292h-.19v.487h-.21v-1.232h.446zm1.29 0v.223h-.298v1.008h-.207v-1.008h-.306v-.223zm-3.82 0v.223h-.3v1.008h-.207v-1.008h-.306v-.223z"/><path fill="#fff" d="M51.868 45.595l-.127-.48-.122.48zm.675-.225h.198c.147 0 .19-.04.19-.16s-.04-.154-.19-.154h-.193v.314z"/><path d="M64.614 34.9c.47 0 .853.383.853.854 0 .476-.382.858-.853.858-.473 0-.855-.382-.855-.858-.006-.47.38-.853.85-.853v-.112c-.54 0-.975.435-.975.97 0 .54.434.975.974.975.537 0 .97-.435.97-.975 0-.535-.433-.97-.97-.97v.117zm-.23.41h.31c.136 0 .284.02.284.187 0 .22-.237.196-.39.196h-.203v.104h.244l.31.5h.154l-.328-.5c.192-.005.343-.084.343-.298 0-.097-.04-.19-.12-.24-.08-.047-.174-.052-.266-.052h-.473v1.09h.133v-.99z"/></svg>