<svg xmlns="http://www.w3.org/2000/svg" viewBox="0 0 100 100"><path d="M62.77 33.013c-2.085-.206-7.585-.513-12.772-.513-5.188 0-10.687.308-12.77.513-2.378.242-3.484 1.45-3.484 3.804 0 4.47.165 11.432.47 15.522.273 3.64.486 6.52 5.026 9.28 3.248 1.972 6.478 3.664 10.683 5.834l.072.04.074-.04c4.21-2.177 7.45-3.87 10.68-5.836 4.543-2.76 4.757-5.637 5.026-9.283.307-4.11.472-11.067.472-15.523 0-2.353-1.107-3.56-3.485-3.804zm1.603 19.228c-.26 3.49-.432 5.8-4.35 8.18-3.073 1.87-5.785 3.29-9.885 5.42l-.14.07-.14-.068c-3.97-2.06-6.802-3.55-9.886-5.423-3.92-2.38-4.093-4.69-4.35-8.18-.304-4.07-.467-10.98-.467-15.42 0-1.626.558-2.23 2.213-2.4 2.06-.204 7.5-.51 12.63-.51 5.13 0 10.567.306 12.63.51 1.655.17 2.21.77 2.21 2.398.003 4.436-.16 11.345-.465 15.423zM49.78 42.957l-.488 1.643c-1.77-3.62-3.886-5.52-6.446-5.52-2.766 0-4.12 1.85-4.52 2.436.71-1.784 2.587-3.354 5.085-3.354 3.428 0 5.36 2.7 6.37 4.793zm-12.828 3.71c.022 6.03 1.776 8.933 4.395 8.933 1.214 0 2.083-.765 2.083-2.008 0-1.06-.46-1.902-.647-2.24.07.347.136.74.136 1.186 0 1.04-.707 1.375-1.28 1.375-1.74 0-3.486-3.387-3.978-7.245h-.714zM56.59 38.16c2.498 0 4.37 1.568 5.085 3.353-.4-.585-1.755-2.437-4.524-2.437-2.55 0-4.67 1.9-6.44 5.52l-.49-1.643c1.01-2.09 2.95-4.794 6.37-4.794zm5.745 8.504c-.49 3.858-2.235 7.247-3.98 7.247-.573 0-1.272-.33-1.272-1.37 0-.444.062-.84.132-1.186-.185.34-.646 1.18-.646 2.24 0 1.243.864 2.007 2.08 2.007 2.616 0 4.374-2.9 4.393-8.932h-.712zm-3.558-5.188c-2.238 0-4.425 1.785-5.733 5.902l.846.59-.405 2.025-1.583.655-.287 1.99.77-.945.828-.342-.257 1.29-1.426.59-.5 3.44.348 1.1L50 58.32l-1.38-.547.35-1.1-.5-3.44-1.428-.59-.254-1.287.825.344.774.945-.29-1.99-1.58-.654-.408-2.025.842-.59c-1.307-4.12-3.493-5.902-5.733-5.902-2.767 0-3.914 2.628-3.765 4.79h.667c.554 3.06 2.11 5.655 3.28 5.655.358 0 .545-.27.545-.72 0-1.08-.737-2.21-.737-4.27 0-.95.31-1.547 1.026-1.547.487 0 .885.513 1.12 1.07-.432 1.543-.367 2.833.864 3.383l1.34.593.84 3.546c.05.216.185.512.284.694.143.25 1.168 2.005 1.168 2.005l.423 2.122c.2 1.002.916 1.004 1.725 1.002.807 0 1.52 0 1.724-1.003l.424-2.122 1.168-2.005c.097-.185.23-.48.28-.696.057-.236.84-3.545.84-3.545l1.342-.594c1.23-.55 1.295-1.84.86-3.382.238-.558.637-1.07 1.123-1.07.718 0 1.027.597 1.027 1.547 0 2.064-.736 3.194-.736 4.273 0 .447.187.72.545.72 1.168 0 2.727-2.593 3.283-5.653h.665c.15-2.162-.996-4.79-3.765-4.79zm-14.073 7.762c-.87-.37-.96-1.4-.67-2.773l.955 1.5.35 1.546-.64-.27zm10.593 0c-.297.125-.642.273-.642.273l.354-1.542.95-1.5c.29 1.372.203 2.403-.667 2.774z" fill-rule="evenodd" clip-rule="evenodd" fill="#222"/></svg>