<svg version="1.1" id="Layer_1" xmlns="http://www.w3.org/2000/svg" x="0" y="0" viewBox="0 0 100 100" xml:space="preserve"><style>.st0{fill:#222}</style><g id="Layer_2_1_"><g id="Black_Logos"><g id="subaru"><path class="st0" d="M66.8 58.2v4.6c0 .9.7 1.7 1.6 1.8h4.1c.9 0 1.7-.7 1.7-1.6V58.3h-1.7v4.2c0 .3-.2.6-.5.6-1 .1-2 .1-3.1 0-.3 0-.5-.3-.5-.6v-4.2l-1.6-.1zM27.7 58.2c-.9 0-1.8.6-1.9 1.6v.5c.1.9.8 1.5 1.6 1.5.7.1 3.5.2 3.9.2.4 0 .5.2.5.5s0 .5-.4.5H28c-.3 0-.5-.1-.5-.4v-.3h-1.7v.2c0 1.3.4 1.9 1.7 2 1.4.1 2.9.1 4.3 0 .9 0 1.7-.7 1.7-1.7v-.1-.2c.1-.9-.6-1.7-1.5-1.7h-.1c-.6 0-3.6-.2-4-.2-.4 0-.5-.2-.5-.5 0-.2.2-.4.4-.4 1-.1 2.7 0 3.3 0 .3 0 .5.2.5.4v.3h1.6V60c.1-.9-.5-1.7-1.4-1.8h-.4c-1.1-.1-2.4-.1-3.7 0zM42.4 64.6h5.5c.9.1 1.8-.6 1.9-1.5v-.4c0-.9-.4-1.3-.7-1.4.3-.1.5-.5.5-1.2.1-.9-.6-1.7-1.5-1.7H42.5v6.2zm5-5c.3 0 .6.1.6.5s-.2.5-.6.5h-3.3v-1h3.3zm0 2.4c.3 0 .7.1.7.6s-.3.6-.7.6h-3.3V62h3.3zM34.1 58.2v4.6c0 .9.7 1.7 1.6 1.8h4.1c.9 0 1.7-.7 1.7-1.6V58.3h-1.7v4.2c0 .3-.2.6-.5.6-1 .1-2 .1-3 0-.3 0-.5-.3-.5-.6v-4.2l-1.7-.1zM58.7 58.2v6.3h1.6v-2.3h3.4c.3 0 .6.2.6.6v1.7H66v-1.6c0-.6-.2-1.1-.7-1.4.5-.3.7-.9.7-1.4.1-.9-.5-1.8-1.4-1.9h-5.9zm5 1.4c.4 0 .6.2.6.6 0 .3-.2.6-.5.6h-3.5v-1.2h3.4zM56.4 62.1h-4.8v1.3h4.8v-1.3z"/><path class="st0" d="M53.1 58.2l-3.4 6.4h1.8l3.3-6.4h-1.7z"/><path class="st0" d="M54.9 58.2h-1.7l3.2 6.4h1.9l-3.4-6.4zM32.5 45.1c0-5.3 8.2-9.6 17.7-9.6s17.6 4.3 17.6 9.6-8 9.6-17.6 9.6-17.7-4.3-17.7-9.6zm17.7 8.6c8.9 0 16.3-3.9 16.3-8.6s-7.5-8.6-16.3-8.6-16.4 3.8-16.4 8.6 7.3 8.6 16.4 8.6zm4.6-3.4c.3 0 1.2.2 1.6.2.3 0 .6.3.6.5 0 .1.1.4.2.6s.1.5.1.5 0 .1.1.1c0 0 .1 0 .1-.1 0 0 .1-.3.1-.5.1-.2.1-.4.2-.6.1-.3.3-.5.6-.5.4-.1 1.3-.2 1.7-.2.4-.1 1-.1 1.1-.1.1 0 .1-.1.1-.1 0-.1 0-.1-.1-.1l-1.1-.1c-.5-.1-1.4-.2-1.7-.3-.3 0-.5-.2-.6-.4-.1-.2-.1-.3-.2-.5 0-.1-.2-.5-.2-.6 0-.1-.1-.1-.1-.1s-.1 0-.1.1-.1.5-.2.6c0 .2-.1.3-.2.5s-.3.4-.6.5c-.5.1-1.4.2-1.6.3-.5.1-1 .1-1.5.1-.4 0-1.4-.2-2-.3-.4-.1-.8-.1-1-.5-.1-.2-.2-.4-.3-.7-.1-.2-.2-.6-.2-.7 0-.1-.1-.1-.1-.1s-.1 0-.1.1-.1.5-.2.7c-.1.2-.2.5-.3.7-.2.3-.4.3-.9.4-.5.1-1.2.2-1.7.2l-.9.1c-.1 0-.1 0-.1.1s0 .1.1.1l.9.1c.5 0 1 .1 1.7.2s.8.2 1 .7c.1.2.2.4.2.7l.2.8c0 .1 0 .1.1.1s.1 0 .1-.1.1-.6.2-.8c.1-.2.1-.4.2-.7.2-.6.4-.6 1.1-.7.7-.1 1.5-.2 2-.3.6-.1 1.1 0 1.7.1zm5.1-3.7c.3 0 .8.1 1.3.3.3 0 .5.3.6.5.1.2.1.5.2.8s.1.4.1.5c0 .1.1.1.1.1.1 0 .1 0 .1-.1 0 0 0-.3.1-.5s.1-.5.2-.8c.1-.2.3-.4.5-.5l1.2-.2 1-.1c.1 0 .1-.1.1-.1 0-.1-.1-.1-.1-.1l-1-.1c-.5-.1-.9-.2-1.2-.2-.2 0-.4-.2-.5-.4-.1-.2-.2-.4-.2-.6l-.1-.5c0-.1-.1-.1-.1-.1s-.1 0-.1.1-.1.3-.1.5c-.1.2-.1.4-.2.6-.1.2-.3.3-.5.4-.5.1-1 .2-1.3.3-.6.1-1.3.1-1.9 0-.4-.1-1.2-.2-1.7-.3-.3 0-.6-.2-.8-.5-.1-.2-.2-.5-.2-.7 0-.2-.1-.5-.2-.6s0-.1-.1-.1-.1 0-.1.1-.1.4-.2.6c-.1.2-.2.5-.3.7-.1.3-.4.5-.7.5-.5.1-1.2.2-1.9.3l-1 .1c-.1 0-.1 0-.1.1s0 .1.1.1l1 .1 1.9.3c.4 0 .8.4.8.8.1.3.1.5.2.8s.1.5.1.5c0 .1.1.1.1.1s.1 0 .1-.1.1-.4.1-.5c0-.1.1-.5.2-.8.1-.5.3-.7.9-.8.6-.1 1.3-.2 1.7-.3.7-.2 1.3-.2 1.9-.2zm4.1-3.8l-1.2-.2c-.5-.1-1-.1-1.5-.2-.3 0-.5-.2-.6-.4-.1-.3-.2-.5-.3-.8 0-.1-.1-.4-.1-.5 0-.1-.1-.1-.1-.1s-.1 0-.1.1l-.1.5c-.1.3-.2.6-.3.8-.1.3-.4.4-.7.4-.3.1-1.1.2-1.8.3-.9.2-1.8.2-2.8 0l-1.8-.2c-1.3-.2-3.4-.4-4.7-.6-.8 0-1.5-.5-1.7-1.3l-.6-1.8c-.1-.5-.3-1.1-.3-1.3 0-.2-.1-.1-.1-.1-.1 0-.1 0-.1.1s-.2.9-.3 1.3c-.1.4-.3 1.2-.6 1.8-.3.7-.9 1.2-1.7 1.3-1.3.3-2.9.4-4.3.6l-2.9.3c-.1 0-.1.1-.1.1 0 .1.1.1.1.1l2.9.3c1.5.2 2.9.3 4.3.6.9.1 1.7.8 1.8 1.8.2.7.5 1.8.6 2.3.1.4.2 1.2.3 1.3 0 .1.1.1.1.1s.1 0 .1-.1.2-.9.3-1.3c.1-.4.4-1.7.5-2.3.3-1.1.7-1.5 1.8-1.7s3.3-.5 4.7-.6l1.8-.2c.9-.2 1.8-.2 2.8 0 .7.1 1.2.2 1.7.3s.6.2.8.6l.3.9c.1.2.1.5.1.6 0 .1.1.1.1.1.1 0 .1 0 .1-.1s.1-.4.1-.6c0-.2.2-.6.3-.9.1-.3.3-.5.6-.5.4-.1 1-.2 1.5-.2.5-.1 1.1-.1 1.2-.2.1 0 .1-.1.1-.1-.1-.2-.1-.3-.2-.3z"/></g></g></g></svg>