<svg xmlns="http://www.w3.org/2000/svg" viewBox="0 0 100 100"><path fill="#222" d="M48.653 62.575c-2.253-1.412-3.914-6.282-3.914-12.07v-.63l.004.002C38.48 48.892 33.95 46.193 33.834 43l-.02.038c-1.533 1.906-2.41 4.11-2.41 6.458 0 6.91 7.586 12.57 17.207 13.072l.04.007zM28.51 50c0-7.73 9.62-14 21.49-14s21.49 6.27 21.49 14S61.87 64 50 64s-21.49-6.27-21.49-14zM50 38.02c2.29 0 4.24 3.476 4.962 8.326l.003-.008c4.458-.694 7.578-2.295 7.578-4.157 0-2.5-5.616-4.52-12.543-4.52s-12.543 2.02-12.543 4.52c0 1.864 3.12 3.465 7.578 4.16l.003.007c.722-4.85 2.67-8.326 4.962-8.326zm1.387 24.547c9.62-.5 17.205-6.162 17.205-13.072 0-2.348-.876-4.552-2.41-6.458l-.02-.037c-.115 3.19-4.643 5.89-10.91 6.876l.002-.003c.004.21.007.42.007.63 0 5.79-1.66 10.66-3.91 12.07l.04-.006zM50 46.707c1.027 0 2.024-.045 2.98-.13l-.002.002c-.475-3.11-1.63-5.307-2.978-5.307-1.35 0-2.502 2.194-2.978 5.302v-.002c.954.084 1.952.128 2.978.128zm0 11.512c1.725 0 3.132-3.59 3.207-8.098l.01.003c-1.04.095-2.116.146-3.217.146-1.1 0-2.177-.05-3.216-.146l.01-.004c.074 4.504 1.48 8.094 3.206 8.094z"/></svg>