<svg xmlns="http://www.w3.org/2000/svg" viewBox="0 0 100 100"><path d="M50 30c-11.046 0-20 8.955-20 20 0 11.046 8.954 20 20 20 11.045 0 20-8.954 20-20 0-11.045-8.955-20-20-20zm0 38.207c-10.055 0-18.207-8.15-18.207-18.207 0-10.055 8.15-18.207 18.207-18.207 10.055 0 18.207 8.152 18.207 18.207 0 10.055-8.152 18.207-18.207 18.207zm-3.986-31.81c1.265-.37 2.602-.568 3.986-.568 1.382 0 2.72.193 3.982.562L50 45.222l-3.986-8.825zm11.593 1.645c1.494.952 2.796 2.176 3.84 3.602L54.91 56.106 52.39 50.5h-4.78l-2.52 5.606-6.526-14.476c1.04-1.42 2.34-2.64 3.83-3.588L47.61 49.62h4.795l5.202-11.578zm-21.3 8.29c-.312 1.17-.48 2.4-.48 3.668 0 5.553 3.196 10.36 7.847 12.685l-7.366-16.353zm9.773 17.29c1.245.358 2.56.55 3.92.55 1.358 0 2.672-.192 3.916-.55L50 54.928l-3.92 8.695zm10.245-.937c4.65-2.324 7.845-7.13 7.845-12.685 0-1.257-.164-2.476-.47-3.637l-7.375 16.322z" fill="#222"/></svg>