<svg xmlns="http://www.w3.org/2000/svg" viewBox="0 0 100 100"><path fill="#222" d="M49.97 67.216c-8.878 0-16.102-7.148-16.102-15.934s7.224-15.934 16.103-15.934c3.2 0 6.286.922 8.93 2.67l2.495-2.413-2.365-1.718.17-.575 9.26-.528.12 8.99-.56.21-1.775-2.06-2.788 2.644c1.715 2.592 2.62 5.598 2.62 8.714 0 8.786-7.224 15.934-16.104 15.934zm0-31.23c-8.527 0-15.466 6.86-15.466 15.296S41.444 66.58 49.97 66.58c8.53 0 15.468-6.862 15.468-15.297 0-3.078-.92-6.044-2.66-8.58l-.155-.224L66.288 39l1.64 1.903-.1-7.45-7.708.44 2.257 1.64-3.41 3.298-.213-.146c-2.587-1.77-5.624-2.705-8.783-2.705zm.087 26.138c-6.025 0-10.926-4.92-10.926-10.97s4.907-10.968 10.93-10.968 10.927 4.92 10.927 10.97-4.902 10.968-10.926 10.968zm0-21.302c-5.674 0-10.29 4.635-10.29 10.333s4.616 10.332 10.29 10.332 10.29-4.635 10.29-10.332-4.616-10.333-10.29-10.333z"/><path fill-rule="evenodd" clip-rule="evenodd" fill="#fff" d="M67.03 46.954H33.084s-6.365 4.16 0 8.826H67.03s6.11-4.243 0-8.826z"/><path fill="#222" d="M67.03 56.035H33.084c-.054 0-.107-.017-.15-.05-1.99-1.458-2.977-3.03-2.933-4.672.077-2.666 2.83-4.495 2.948-4.572.04-.022.09-.04.14-.04H67.03c.055 0 .11.02.153.05 1.9 1.43 2.847 2.977 2.817 4.607-.05 2.68-2.71 4.558-2.825 4.636-.043.03-.094.046-.145.046zm-33.863-.51h33.78c.392-.294 2.504-1.98 2.543-4.183.025-1.437-.83-2.827-2.546-4.133h-33.78c-.396.274-2.596 1.922-2.653 4.12-.034 1.44.86 2.853 2.66 4.192z"/><path fill-rule="evenodd" clip-rule="evenodd" fill="#222" d="M32.124 49.286v.647h1.083l2.12 3.898h2.61l2.12-3.9 1.082-.006v-.633H37.9v.636h.864l-1.497 2.77-1.62-2.76 1.182-.005-.008-.64H32.12zm11.93-.13c-1.84 0-3.333 1.074-3.333 2.4s1.497 2.4 3.34 2.4c1.84 0 3.333-1.076 3.333-2.4 0-1.326-1.494-2.4-3.334-2.4zm-.047 4.08c-.48 0-.87-.775-.87-1.73s.39-1.73.87-1.73.87.773.87 1.73-.39 1.73-.87 1.73zm20.967-4.08c-1.84 0-3.334 1.074-3.334 2.4s1.492 2.4 3.334 2.4c1.84 0 3.334-1.076 3.334-2.4s-1.493-2.4-3.334-2.4zm-.048 4.08c-.48 0-.87-.775-.87-1.73s.39-1.73.87-1.73.87.773.87 1.73-.39 1.73-.87 1.73zM47.7 49.286v.646h1.084l.002 3.182h-1.142v.71l1.142.006h5.408v-2.114h-.705c-.04 1.12-1.03 1.402-1.45 1.402h-1.12v-3.184l1.064-.005-.002-.64H47.7v-.006zm5.33 0v.646h1.084l2.12 3.898h2.61l2.12-3.902 1.083-.007.002-.63h-3.246v.636h.863l-1.497 2.77-1.62-2.76 1.183-.005-.002-.64h-4.7z"/></svg>